<svg width="1420" height="317" viewBox="0 0 1420 317" fill="none" xmlns="http://www.w3.org/2000/svg">
<path d="M1447 133.192L1362.38 114.73L1077.43 144.269L918.809 114.73L770 133.192V266.116H1447V133.192Z" fill="#112946"/>
<path d="M1450 49.0077L1393 37.3916L1399.46 192.069H1450V49.0077Z" fill="#112946"/>
<path d="M872 27.6161L928 16L921.653 170.677H872V27.6161Z" fill="#112946"/>
<path d="M816.079 75.238L861 80.8327L854.205 187.132H804L816.079 75.238Z" fill="#112946"/>
<path d="M724.252 29.1641L807 39.5307L794.483 236.497H702L724.252 29.1641Z" fill="#112946"/>
<path d="M1337 80.1746L1295 89.3933L1302.57 233.206L1326.78 225.217L1337 80.1746Z" fill="#112946"/>
<path d="M1304 59.2684L1254 43.9736V187.132H1296.54L1304 59.2684Z" fill="#112946"/>
<path d="M1017 39.5223L1067 24.2275V167.386H1024.46L1017 39.5223Z" fill="#112946"/>
<path d="M1001 88.7396L984 83.4656V132.831H998.463L1001 88.7396Z" fill="#112946"/>
<path d="M1014 106.664L996 101.566V149.286H1011.31L1014 106.664Z" fill="#112946"/>
<path d="M913 42.8133L963 27.5186V170.677H920.463L913 42.8133Z" fill="#112946"/>
<path d="M623.141 98.0233L552.358 82.5813L314.021 107.288L181.346 82.5813L56.8773 98.0233V209.205H623.141V98.0233Z" fill="#112946"/>
<path d="M675 28.9036L612.268 54.1642V174.797H658.541L675 28.9036Z" fill="#112946"/>
<path d="M625.651 27.6089L577.974 17.8928L583.377 147.27H625.651V27.6089Z" fill="#112946"/>
<path d="M142.193 9.71605L189.033 0L183.725 129.377H142.193V9.71605Z" fill="#112946"/>
<path d="M95.4196 49.5486L132.993 54.2282L127.309 143.14H85.316L95.4196 49.5486Z" fill="#112946"/>
<path d="M18.612 11.0107L87.8253 19.6817L77.356 184.431H0L18.612 11.0107Z" fill="#112946"/>
<path d="M531.134 53.6777L496.004 61.3886L502.333 181.678L522.589 174.995L531.134 53.6777Z" fill="#112946"/>
<path d="M503.532 36.1912L461.71 23.3982V143.141H497.29L503.532 36.1912Z" fill="#112946"/>
<path d="M263.476 19.6746L305.297 6.88159V126.624H269.718L263.476 19.6746Z" fill="#112946"/>
<path d="M250.093 60.8418L235.874 56.4304V97.7209H247.971L250.093 60.8418Z" fill="#112946"/>
<path d="M260.967 75.8345L245.911 71.5701V111.484H258.719L260.967 75.8345Z" fill="#112946"/>
<path d="M176.487 22.4273L218.309 9.63428V129.377H182.729L176.487 22.4273Z" fill="#112946"/>
<path d="M231 152L344.375 137L726.126 161L938.635 137L1138 152V260H231V152Z" fill="#26466D"/>
<path d="M148 84.5L249 109V226H174.5L148 84.5Z" fill="#26466D"/>
<path d="M228 82L303 72.5L294.5 199H228V82Z" fill="#26466D"/>
<path d="M1001 65.5L926 56L934.5 182.5H1001V65.5Z" fill="#26466D"/>
<path d="M1076 104.5L1016.5 109L1025.5 194.5H1092L1076 104.5Z" fill="#26466D"/>
<path d="M1199.12 67L1088 75.4L1104.81 235H1229L1199.12 67Z" fill="#26466D"/>
<path d="M378.5 108.5L434 116L424 233L392 226.5L378.5 108.5Z" fill="#26466D"/>
<path d="M422 91.5L489 79V196H432L422 91.5Z" fill="#26466D"/>
<path d="M807 75L740 62.5V179.5H797L807 75Z" fill="#26466D"/>
<path d="M828 115.274L851 111V151H831.433L828 115.274Z" fill="#26466D"/>
<path d="M812 129.547L835 125.274V165.274H815.433L812 129.547Z" fill="#26466D"/>
<path d="M946 77.5L879 65V182H936L946 77.5Z" fill="#26466D"/>
<path d="M1160.4 211.188L1033.92 196.626L608.024 219.925L370.941 196.626L148.523 211.188V316.03H1160.4V211.188Z" fill="#3C5F8B"/>
<path d="M1253 145.661L1140.32 169.445V283.024H1223.44L1253 145.661Z" fill="#3C5F8B"/>
<path d="M1163.75 143.234L1080.08 134.012L1089.56 256.814H1163.75V143.234Z" fill="#3C5F8B"/>
<path d="M301.365 127.216L385.037 117.994L375.554 240.796H301.365V127.216Z" fill="#3C5F8B"/>
<path d="M217.692 165.076L284.072 169.445L274.031 252.445H199.842L217.692 165.076Z" fill="#3C5F8B"/>
<path d="M80.336 128.673L204.304 136.827L185.553 291.761H47L80.336 128.673Z" fill="#3C5F8B"/>
<path d="M1058 136L978 145.337L992.414 291L1038.54 282.908L1058 136Z" fill="#3C5F8B"/>
<path d="M965 162L885 171.337L899.414 317L945.541 308.908L965 162Z" fill="#3C5F8B"/>
<path d="M996 114.598L900 99V245H981.672L996 114.598Z" fill="#3C5F8B"/>
<path d="M872.765 139.605L786 183.55L872.002 301.531L938.001 253.422L872.765 139.605Z" fill="#3C5F8B"/>
<path d="M517.797 136.439L592.545 124.304V237.884H528.954L517.797 136.439Z" fill="#3C5F8B"/>
<path d="M494.369 175.535L468.71 171.386V210.217H490.539L494.369 175.535Z" fill="#3C5F8B"/>
<path d="M512.219 189.391L486.56 185.242V224.073H508.389L512.219 189.391Z" fill="#3C5F8B"/>
<path d="M362.724 138.866L437.472 126.731V240.311H373.881L362.724 138.866Z" fill="#3C5F8B"/>
<path d="M696.576 110.625C696.367 110.656 696.174 110.675 696 110.682C696.029 110.648 696.23 110.631 696.576 110.625C699.146 110.247 704.059 108.053 704.703 103.073C705.399 97.6876 703.446 94.7804 702.382 94C704.993 94.1951 710.54 95.2877 713.093 100.439C715.646 105.59 718.025 105.707 718.895 104.243C721.113 104.674 725.015 106.753 723.755 109.511C722.599 112.044 700.462 110.564 696.576 110.625Z" fill="url(#paint0_linear_1077_1664)"/>
<path d="M696 110.682C698.321 110.584 704.007 108.458 704.703 103.073C705.399 97.6876 703.446 94.7804 702.382 94C704.993 94.1951 710.54 95.2877 713.093 100.439C715.646 105.59 718.025 105.707 718.895 104.243C721.113 104.674 725.015 106.753 723.755 109.511C722.496 112.27 696.355 110.269 696 110.682Z" stroke="url(#paint1_linear_1077_1664)"/>
<path d="M622.193 85.2281C621.761 85.2914 621.361 85.33 621 85.3451C621.06 85.2756 621.477 85.2393 622.193 85.2281C627.518 84.449 637.693 79.9333 639.027 69.6789C640.469 58.5921 636.423 52.6068 634.22 51C639.628 51.4017 651.119 53.6512 656.407 64.256C661.695 74.8608 666.623 75.1018 668.425 72.0891C673.021 72.9752 681.102 77.2559 678.493 82.9349C676.097 88.1498 630.242 85.1027 622.193 85.2281Z" fill="url(#paint2_linear_1077_1664)"/>
<path d="M621 85.3451C625.807 85.1442 637.585 80.7658 639.027 69.6789C640.469 58.5921 636.423 52.6068 634.22 51C639.628 51.4017 651.119 53.6512 656.407 64.256C661.695 74.8608 666.623 75.1018 668.425 72.0891C673.021 72.9752 681.102 77.2559 678.493 82.9349C675.884 88.6139 621.735 84.4948 621 85.3451Z" stroke="url(#paint3_linear_1077_1664)"/>
<path d="M691.727 82.759C691.961 82.8447 692.179 82.9129 692.378 82.9634C692.353 82.9175 692.125 82.8487 691.727 82.759C688.853 81.7033 683.714 77.9928 684.17 72.1018C684.664 65.7327 687.617 62.856 689.032 62.2137C685.973 61.8088 679.31 61.7291 675.125 67.0451C670.94 72.3611 668.168 71.9222 667.516 70.0272C664.853 69.9878 659.852 71.4412 660.641 74.9214C661.365 78.1172 687.259 81.7518 691.727 82.759Z" fill="url(#paint4_linear_1077_1664)"/>
<path d="M692.378 82.9634C689.724 82.2914 683.677 78.471 684.17 72.1018C684.664 65.7327 687.617 62.856 689.032 62.2137C685.973 61.8088 679.31 61.7291 675.125 67.0451C670.94 72.3611 668.168 71.9222 667.516 70.0272C664.853 69.9878 659.852 71.4412 660.641 74.9214C661.43 78.4017 692.068 82.4022 692.378 82.9634Z" stroke="url(#paint5_linear_1077_1664)"/>
<path d="M768.336 118.061C768.439 118.118 768.535 118.166 768.624 118.204C768.616 118.181 768.515 118.132 768.336 118.061C767.074 117.357 764.952 115.246 765.601 112.529C766.302 109.591 767.892 108.464 768.599 108.269C767.203 107.855 764.102 107.327 761.758 109.502C759.413 111.677 758.153 111.268 757.989 110.335C756.75 110.121 754.311 110.432 754.421 112.115C754.523 113.661 766.327 117.262 768.336 118.061Z" fill="url(#paint6_linear_1077_1664)"/>
<path d="M768.624 118.204C767.437 117.695 764.9 115.467 765.601 112.529C766.302 109.591 767.892 108.464 768.599 108.269C767.203 107.855 764.102 107.327 761.758 109.502C759.413 111.677 758.153 111.268 757.989 110.335C756.75 110.121 754.311 110.432 754.421 112.115C754.532 113.798 768.522 117.92 768.624 118.204Z" stroke="url(#paint7_linear_1077_1664)"/>
<path d="M592 84.3698L667.643 71L654.207 225H592V84.3698Z" fill="#A5AFE5"/>
<path d="M667.643 71L698 84.3698L680.582 225H654.207L667.643 71Z" fill="url(#paint8_linear_1077_1664)"/>
<path d="M665.279 72.9257C663.742 73.2369 661.712 73.5533 660.165 73.7686C659.68 73.8362 659.91 73.7148 659.575 73.758C658.919 73.8425 658.32 73.988 657.67 74.0654C657.455 74.0906 657.698 73.9197 657.473 73.949C656.239 74.1106 655.087 74.3468 653.842 74.5396C647.711 75.4891 641.699 76.5038 635.506 77.54C633.465 77.8818 630.966 78.2073 628.87 78.6287C628.625 78.678 628.791 78.7609 628.745 78.7782C628.036 79.0452 628.241 78.7823 627.757 78.8378C625.836 79.0584 623.72 79.422 621.898 79.7874C621.123 79.9431 621.942 80.0214 621.137 80.0386C621.081 80.04 621.258 79.8895 621.042 79.9149C620.553 79.9727 619.639 80.1557 619.262 80.2128C618.536 80.3223 618.416 80.3447 617.732 80.4642C616.797 80.6266 615.675 80.7657 614.677 80.9691C614.464 81.0129 614.768 81.0813 614.43 81.1618C614.092 81.2424 613.186 81.3921 612.876 81.418C612.567 81.444 612.68 81.3279 612.622 81.3161C612.147 81.2143 611.145 81.6487 611.012 81.6787C608.577 82.2175 606.448 82.4471 604.145 82.8545C602.397 83.1641 600.536 83.5415 598.872 83.829C596.888 84.1712 595.197 84.4038 593.274 84.7551C593.071 84.7921 593.334 84.8893 593.086 84.9347C592.767 84.9931 592.449 85.0509 592.131 85.1082L592.75 84.3698C592.757 86.7196 592.735 89.0574 592.651 91.4007C592.641 91.668 592.517 91.3235 592.5 91.5906C592.398 93.2259 592.152 95.8135 592.693 96.7848C592.672 97.8925 592.65 99.2374 592.541 100.228C592.471 100.867 592.336 100.247 592.394 101.032C592.406 101.209 592.525 100.978 592.535 101.244C592.579 102.362 592.54 103.583 592.601 104.689C592.614 104.914 592.72 104.852 592.74 104.916C592.894 105.451 592.638 106.343 592.62 106.537C592.481 108.017 592.536 109.098 592.532 110.477C592.531 110.797 592.674 110.419 592.678 110.727C592.699 112.323 592.687 113.978 592.623 115.541C592.609 115.889 592.487 115.569 592.474 115.735C592.418 116.468 592.647 116.631 592.598 117.333C592.588 117.481 592.484 117.398 592.472 117.425C592.293 117.848 592.547 118.216 592.553 118.324C592.629 119.701 592.364 120.58 592.401 121.91C592.406 122.069 592.538 121.71 592.543 122.157C592.58 125.136 592.543 128.286 592.438 131.235C592.422 131.693 592.323 131.366 592.311 131.395C592.12 131.865 592.376 132.169 592.385 132.319C592.454 133.498 592.24 134.599 592.544 135.4C592.439 140.395 592.61 145.366 592.337 150.319C592.334 150.381 592.208 150.269 592.203 150.394C592.132 151.907 592.327 151.617 592.566 152.617C592.626 152.87 592.338 153.637 592.317 153.705C592.239 153.952 592.052 153.695 592.037 153.778C591.918 154.463 592.537 154.352 592.537 155.276C592.536 155.305 592.422 155.183 592.411 155.261C592.375 155.502 592.42 155.741 592.381 155.977C592.291 156.517 591.99 156.709 592.165 157.533C592.188 157.638 592.538 157.478 592.522 158.303C592.515 158.632 592.521 160.089 592.498 160.497C592.475 160.904 592.362 160.625 592.358 160.654C592.208 161.752 592.146 161.335 591.925 161.886C591.704 162.436 592.23 162.283 592.289 162.508C592.347 162.732 592.224 163.538 592.181 163.736C592.138 163.933 592.067 163.687 592.042 163.862C591.884 165.029 592.303 164.374 592.387 164.759C592.584 165.665 592.194 166.37 592.156 167.199C592.146 167.424 592.235 167.241 592.243 167.441C592.275 168.232 592.153 168.708 592.265 169.608C592.283 169.756 592.517 170.483 592.345 170.955C592.32 171.021 592.223 170.832 592.201 171.169C592.169 171.673 592.147 172.581 592.18 173.122C592.204 173.522 592.364 173.064 592.314 173.567C592.292 173.791 592.198 173.376 592.165 173.796C592.131 174.214 592.135 175.283 592.138 175.69C592.141 176.096 592.263 175.874 592.271 175.907C592.318 176.105 592.376 176.884 592.376 176.953C592.391 180.426 592.186 183.628 592.254 187.01C592.259 187.275 592.387 187.098 592.389 187.139C592.443 188.047 592.103 187.331 591.989 187.966C592.248 187.874 592.201 188.248 592.23 188.888C592.244 189.197 592.345 189.029 592.355 189.057C592.508 189.514 592.31 189.833 592.27 189.915C592.121 190.217 592.297 190.547 592.198 190.753C592.099 190.959 591.953 190.485 591.955 191.099C592.048 191.271 592.291 190.815 592.33 191.281C592.479 193.039 592.289 196.321 592.269 197.734C592.249 199.145 592.266 199.6 592.232 200.423C592.172 201.907 592.352 201.363 592.435 202.285C592.517 203.21 592.073 202.76 591.978 202.893C591.883 203.024 591.981 203.166 591.928 203.328C591.876 203.49 591.811 203.14 591.791 203.52C591.772 203.901 591.941 204.942 592.041 205.077C592.252 205.362 592.474 204.893 592.396 205.9C592.392 205.958 592.275 205.77 592.263 205.992C592.173 207.754 592.168 209.585 592.088 211.344C592.077 211.586 591.947 211.37 591.94 211.511C591.856 212.978 592.075 212.453 592.319 213.257C591.995 213.077 591.797 213.521 591.795 214.634C591.794 215.303 591.935 215.188 592.035 215.621C592.065 215.751 591.968 216.224 592.034 216.31C592.251 216.593 592.495 216.147 592.398 217.295C592.393 217.345 592.274 217.185 592.267 217.359C592.22 218.484 592.447 218.618 592.475 219.834C592.496 220.787 592.358 222.482 592.335 223.567C591.971 223.544 592.055 224.569 592.306 224.984C592.305 224.99 592.305 224.995 592.305 225L592 224.695C592.7 224.705 593.454 224.691 594.13 224.725C594.364 224.737 594.21 224.842 594.24 224.854C594.692 225.032 594.999 224.788 595.151 224.779C596.798 224.686 598.14 224.871 599.712 224.69C599.768 224.683 599.858 224.431 600.279 224.615C600.306 224.628 599.787 224.743 600.526 224.752C601.266 224.761 602.66 224.896 603.687 224.779C603.936 224.751 604.564 224.546 605.069 224.706C605.136 224.728 605.062 224.8 605.159 224.841C605.473 224.969 605.644 224.714 606.013 224.931C606.381 225.148 607.148 225.31 608.184 225.16C608.217 225.156 608.462 224.954 608.787 224.957C609.307 224.962 610.045 225.004 610.588 225.003C610.848 225.002 610.682 224.877 610.727 224.874C612.474 224.804 613.718 224.916 615.59 224.965C615.933 224.974 616.92 224.802 617.584 224.938C618.314 225.086 617.564 225.703 619.241 225.556C619.917 225.498 620.773 224.714 621.989 225.12C624.346 225.02 626.526 225.227 628.89 225.084C628.996 225.077 629.332 224.859 629.582 224.862C629.953 224.867 630.157 224.969 630.422 224.976C631.532 225.006 632.548 224.919 633.618 224.932C634.024 224.937 633.882 225.043 634.367 225.049C634.851 225.055 635.174 224.916 635.831 224.983C636.326 225.034 636.822 225.318 637.48 225.351C637.505 225.071 637.957 225.077 638.76 225.003C638.914 224.988 638.749 224.891 638.822 224.879C639.119 224.829 639.394 224.91 639.676 224.855C639.745 224.842 639.748 224.746 639.804 224.73C640.282 224.589 641.068 224.804 641.203 224.842C641.72 224.984 641.962 224.86 642.359 224.916C642.756 224.972 642.163 225.042 642.626 225.076C643.586 225.146 644.819 225.131 645.793 225.135C646.182 225.136 645.917 225.009 645.973 225.006C646.777 224.973 647.59 225.109 648.036 224.855C648.593 225.513 648.521 224.791 649.67 224.923C649.761 224.933 649.876 225.245 649.528 225.29C649.181 225.336 648.653 225.239 648.171 225.31C648.057 225.327 647.403 225.618 647.313 225.636C646.614 225.774 646.515 225.309 646.478 225.283C646.059 225.008 645.259 225.322 645.049 225.344C644.086 225.443 643.267 225.378 642.462 225.449C641.935 225.495 641.883 225.799 641.47 225.79C640.094 225.759 639.614 225.334 638.318 225.703C638.04 225.781 638.317 226.114 637.321 225.852C637.258 225.836 636.519 225.596 636.092 225.748C636.038 225.767 636.04 225.864 635.969 225.872C635.495 225.925 635.179 225.848 634.662 225.885C634.146 225.922 633.525 225.977 632.935 225.944C632.58 225.924 632.124 225.743 631.954 225.699C631.473 225.572 630.958 225.781 630.661 225.626C630.361 225.471 630.947 225.235 630.161 225.135C630.131 225.387 630.064 225.646 630.018 225.9C628.293 225.891 626.596 225.809 624.866 225.82C624.652 225.822 624.871 225.958 624.641 225.963C623.671 225.984 622.823 225.888 621.817 225.926C621.038 225.957 620.184 226.1 619.37 226.136C618.872 225.848 617.664 225.946 616.786 225.919C616.479 225.91 616.499 225.833 616.28 225.808C615.455 225.715 615.842 225.97 615.616 226.01C614.645 226.181 614.562 225.604 613.418 225.618C613.358 225.619 612.617 225.927 612.515 225.946C611.866 226.071 612.407 225.839 612.002 225.816C611.261 225.774 610.746 225.701 609.877 225.791C609.623 225.818 609.015 226.01 608.523 225.861C608.458 225.842 608.494 225.74 608.442 225.734C607.498 225.635 607.473 225.954 606.934 226.063C606.395 226.171 605.562 225.95 605.393 225.887C604.949 225.722 605.733 225.816 605.757 225.8C606.039 225.608 605.431 225.641 604.967 225.625C604.9 225.312 604.251 225.33 604.486 225.609C604.513 225.64 604.874 225.611 604.967 225.625C604.56 225.932 603.847 225.972 603.059 225.684C602.69 225.55 603.039 225.393 601.918 225.45C601.41 225.476 601.606 225.692 601.158 225.751C600.133 225.885 598.801 225.684 597.744 225.715C597.36 225.727 597.734 225.845 597.472 225.857C596.776 225.889 596.163 225.8 595.464 225.846C595.401 225.85 595.556 225.974 595.338 225.975C594.178 225.985 593.123 225.949 592 225.926L591.064 225.916L591.074 225C591.084 224.529 591.091 224.046 591.092 223.538C591.093 222.707 591.025 221.222 591.038 220.361C591.061 218.869 591.241 217.034 591.197 215.76C591.169 214.929 591.046 215.111 590.962 214.755C590.798 214.068 591.091 212.851 591.136 212.687C591.138 212.682 591.167 213.398 591.23 213.016C591.362 212.794 591.137 212.695 591.136 212.687C591.165 212.58 591.193 211.151 591.17 210.867C591.157 210.713 591.04 210.8 591.035 210.719C590.93 208.809 590.901 206.895 590.955 204.957C590.958 204.923 591.089 204.975 591.093 204.895C591.151 203.773 590.991 203.055 590.895 202.129C590.8 201.204 590.832 200.471 591.057 199.923C591.029 199.225 591.128 198.224 591.189 197.648C591.249 197.072 590.994 196.991 590.989 196.941C590.827 195.359 590.973 194.445 590.996 192.805C591.007 192.025 590.97 190.477 590.943 189.633C590.92 188.966 590.98 188.563 590.942 187.949C590.936 187.865 590.823 187.949 590.819 187.924C590.683 187.238 590.96 187.567 591.01 187.426C591.19 186.912 591.286 186.595 591.201 185.716C591.182 185.513 590.782 184.922 590.759 184.553C590.729 184.072 590.872 184.254 590.838 183.751C590.835 183.708 590.747 183.717 590.75 183.406C590.767 181.965 590.819 180.394 590.81 178.896C590.809 178.691 590.669 178.953 590.665 178.658C590.649 177.271 590.654 175.751 590.719 174.399C590.736 174.067 590.834 174.275 590.863 174.203C591.04 173.76 590.784 173.131 590.779 173.027C590.655 170.553 590.887 168.66 590.777 166.138C590.771 166.001 590.496 164.944 590.731 164.473C590.747 164.44 590.988 163.974 590.823 163.562C590.813 163.536 590.689 163.827 590.702 163.319C590.714 162.812 590.631 161.996 590.768 161.299C590.811 161.078 591.051 160.557 590.859 159.898C590.846 159.855 590.413 158.839 590.712 158.476C590.761 158.417 591.077 158.479 590.915 157.693C590.884 157.543 590.813 157.816 590.769 157.42C590.701 156.814 590.786 156.011 590.645 155.266C590.62 155.136 590.405 154.583 590.568 154.14C590.594 154.07 590.699 154.202 590.711 153.968C590.768 152.854 590.697 151.688 590.77 150.556C590.796 150.156 590.967 150.361 591.012 149.943C591.058 149.525 591.102 148.684 591.024 148.247C590.946 147.81 590.674 148.287 590.652 147.632C590.558 144.785 590.717 141.965 590.741 139.123C590.744 138.701 590.647 139.05 590.645 138.429C590.638 136.138 590.546 132.183 590.753 130.196C590.919 128.603 591.045 130.607 591.113 129.39C591.145 128.803 590.828 128.168 590.818 128.026C590.717 126.641 590.857 125.678 590.814 124.432C590.805 124.174 590.677 124.427 590.671 124.208C590.649 123.459 590.706 122.673 590.696 121.958C590.691 121.637 590.593 121.696 590.6 121.401C590.617 120.695 590.658 120.07 590.75 119.382C590.758 119.319 590.88 119.742 590.885 119.219C590.892 118.374 590.982 117.324 590.889 116.351C590.861 116.062 590.637 116.051 590.791 115.43C590.824 115.3 591.093 115.466 590.86 114.743C590.822 114.622 590.508 113.407 590.71 112.811C590.763 112.654 590.984 112.253 590.949 111.905C590.943 111.858 590.823 112.047 590.811 111.759C590.772 110.745 590.785 109.683 590.747 108.641C590.737 108.363 590.613 108.777 590.601 108.363C590.57 107.223 590.601 105.799 590.64 104.684C590.655 104.273 590.758 104.557 590.769 104.528C590.952 104.047 590.705 103.762 590.691 103.603C590.605 102.61 590.721 101.854 590.69 100.939C590.682 100.686 590.565 100.865 590.554 100.815C590.452 100.294 590.663 100.682 590.686 100.352C590.752 99.4276 590.742 98.3971 590.727 97.4622C590.722 97.1188 590.586 97.5047 590.582 97.1965C590.559 95.3725 590.572 93.4763 590.647 91.6962C590.661 91.361 590.766 91.5719 590.79 91.502C590.957 91.0205 590.729 90.3149 590.707 90.1525C590.608 89.4143 590.7 89.1275 590.683 88.4755C590.648 87.1919 590.638 85.7867 590.64 84.3698L590.652 83.2143L591.763 83.0301C593.83 82.6678 595.928 82.3285 597.699 82.0385C601.566 81.4047 604.577 80.9738 608.251 80.2981C608.485 80.2552 608.224 80.1596 608.425 80.1209C611.022 79.6278 613.593 79.2287 616.194 78.7281C616.407 78.6873 616.076 78.6116 616.418 78.5417C617.119 78.3974 618.012 78.2467 618.732 78.1624C619.083 78.1211 618.636 78.3152 618.989 78.2712C619.811 78.1692 620.685 78.0242 621.518 77.8555C621.872 77.7835 621.312 77.7452 621.774 77.6619C624.923 77.0917 628.014 76.5218 631.229 76.1314C631.449 76.1047 631.688 76.3415 632.143 76.2075C632.165 76.1262 632.147 76.0382 632.149 75.9552C636.728 75.1012 641.285 74.3925 645.888 73.5939C646.082 73.5602 645.722 73.476 646.097 73.41C648.271 73.028 650.374 72.6153 652.623 72.3649C652.846 72.3399 652.777 72.6122 653.42 72.4591C653.534 72.4319 654.507 72.2252 654.75 72.1257C654.783 72.1114 654.584 72.0252 654.899 71.966C656.729 71.6241 658.655 71.3114 660.497 71.0599C660.795 71.0195 660.502 71.2005 660.715 71.1729C662.219 70.9757 663.825 70.5935 665.271 70.4553C666.239 70.3633 665.924 70.6425 666.469 70.7663C666.546 70.7837 667.138 70.684 667.19 70.8028C667.324 71.1011 667.098 71.4936 667.274 71.8056C667.312 71.8729 668.09 71.6558 667.652 71.9118C667.621 71.9292 667.057 72.0881 666.926 72.1718C666.835 72.2299 667.035 72.3248 666.843 72.4123C666.652 72.4997 666.412 72.4329 666.09 72.5528C665.768 72.6735 665.94 72.7913 665.279 72.9257ZM591.458 195.053C591.581 194.52 591.132 194.441 591.24 195.018C591.245 195.046 591.452 195.081 591.458 195.053ZM626.606 225.471C625.908 225.273 625.431 225.564 625.923 225.717C626.415 225.869 626.818 225.531 626.606 225.471ZM633.839 225.326C633.024 225.17 632.895 225.807 633.768 225.678C633.819 225.671 633.886 225.335 633.839 225.326ZM664.127 71.2428C664.136 71.2474 664.562 71.178 664.571 71.1704C664.772 70.9901 663.921 71.1289 664.127 71.2428ZM641.016 225.169C640.762 225.083 640.029 225.182 640.345 225.289C640.6 225.375 641.333 225.276 641.016 225.169ZM591.937 167.222C591.944 167.213 591.95 166.904 591.912 166.91C591.79 166.931 591.825 167.362 591.937 167.222ZM653.215 225.162C651.413 225.138 650.32 224.612 652.283 224.672C652.638 224.682 651.517 224.839 651.969 224.887C652.797 224.973 653.346 224.643 654.191 224.82C654.344 224.852 653.318 225.164 653.212 225.162C653.213 225.162 653.214 225.162 653.215 225.162ZM591.997 194.746C592.003 194.735 592.009 194.307 592.003 194.297C591.86 194.065 591.849 194.928 591.997 194.746ZM592.215 149.173C592.227 149.149 592.239 148.155 592.227 148.123C591.994 147.605 591.97 149.614 592.215 149.173ZM592.326 223.584C592.469 224.051 592.486 224.61 592.306 224.982C592.315 224.518 592.317 224.05 592.326 223.584ZM668.994 72.5959C668.958 73.4623 668.818 74.5899 668.686 75.4446C668.644 75.7125 668.577 75.5691 668.545 75.7538C668.482 76.1148 668.492 76.4571 668.424 76.8134C668.401 76.9314 668.288 76.7722 668.267 76.8962C668.152 77.5759 668.127 78.2263 668.04 78.9174C667.61 82.3216 667.27 85.675 666.912 89.1275C666.793 90.2659 666.559 91.6418 666.506 92.8237C666.5 92.9617 666.617 92.8893 666.624 92.9163C666.727 93.3386 666.516 93.1828 666.463 93.448C666.254 94.5009 666.141 95.682 666.094 96.7088C666.074 97.1456 666.331 96.7283 666.17 97.1558C666.159 97.1855 666.052 97.0649 666.029 97.1832C665.977 97.4514 665.954 97.9667 665.926 98.1757C665.872 98.5784 665.868 98.6454 665.833 99.0277C665.784 99.5502 665.672 100.167 665.65 100.73C665.645 100.85 665.779 100.702 665.783 100.895C665.786 101.088 665.732 101.593 665.689 101.761C665.646 101.929 665.558 101.848 665.534 101.876C665.33 102.108 665.531 102.715 665.531 102.791C665.518 104.172 665.271 105.336 665.159 106.624C665.074 107.601 665.031 108.651 664.943 109.581C664.838 110.688 664.691 111.622 664.608 112.699C664.6 112.813 664.752 112.692 664.742 112.831C664.629 114.307 664.486 115.77 664.263 117.229C664.24 117.376 664.133 117.175 664.103 117.321C663.923 118.213 663.554 119.616 664.047 120.198C663.972 120.806 663.886 121.545 663.73 122.081C663.629 122.427 663.524 122.073 663.544 122.511C663.548 122.609 663.677 122.493 663.675 122.64C663.664 123.259 663.567 123.928 663.575 124.543C663.577 124.668 663.686 124.643 663.702 124.68C663.83 124.988 663.533 125.457 663.505 125.562C663.295 126.365 663.298 126.965 663.228 127.724C663.212 127.9 663.372 127.704 663.362 127.874C663.305 128.755 663.214 129.665 663.076 130.521C663.044 130.711 662.939 130.524 662.918 130.615C662.826 131.013 663.047 131.123 662.964 131.506C662.947 131.586 662.847 131.531 662.835 131.545C662.636 131.762 662.871 131.987 662.871 132.047C662.882 132.812 662.575 133.273 662.549 134.009C662.546 134.097 662.694 133.911 662.678 134.157C662.571 135.801 662.384 137.532 662.137 139.147C662.099 139.398 662.016 139.209 662.003 139.224C661.79 139.466 662.03 139.656 662.032 139.739C662.045 140.395 661.778 140.983 662.043 141.45C661.698 144.191 661.629 146.944 661.12 149.647C661.113 149.682 660.994 149.609 660.982 149.677C660.839 150.504 661.048 150.361 661.237 150.933C661.285 151.077 660.961 151.475 660.937 151.51C660.847 151.64 660.673 151.482 660.654 151.526C660.503 151.893 661.125 151.886 661.08 152.395C661.078 152.41 660.97 152.334 660.955 152.375C660.908 152.505 660.942 152.641 660.892 152.767C660.775 153.056 660.467 153.136 660.601 153.605C660.619 153.665 660.976 153.608 660.92 154.061C660.897 154.241 660.833 155.044 660.791 155.266C660.749 155.489 660.65 155.325 660.643 155.34C660.442 155.932 660.4 155.698 660.153 155.981C659.907 156.265 660.438 156.227 660.486 156.355C660.533 156.484 660.372 156.917 660.32 157.022C660.267 157.127 660.208 156.985 660.175 157.08C659.961 157.709 660.41 157.385 660.475 157.604C660.628 158.12 660.206 158.474 660.128 158.928C660.107 159.05 660.204 158.957 660.203 159.068C660.197 159.506 660.053 159.758 660.12 160.264C660.131 160.346 660.33 160.767 660.136 161.012C660.108 161.046 660.02 160.934 659.982 161.117C659.926 161.392 659.861 161.89 659.867 162.191C659.872 162.414 660.054 162.175 659.98 162.448C659.947 162.569 659.874 162.333 659.82 162.561C659.766 162.788 659.718 163.377 659.702 163.602C659.686 163.825 659.818 163.714 659.824 163.732C659.861 163.846 659.882 164.28 659.879 164.318C659.727 166.232 659.369 167.977 659.274 169.845C659.266 169.992 659.402 169.906 659.403 169.928C659.412 170.433 659.108 170.009 658.964 170.349C659.227 170.321 659.162 170.523 659.16 170.878C659.159 171.049 659.267 170.965 659.276 170.981C659.406 171.247 659.194 171.405 659.15 171.446C658.987 171.6 659.147 171.797 659.038 171.902C658.93 172.007 658.807 171.733 658.779 172.071C658.864 172.174 659.128 171.944 659.145 172.204C659.209 173.185 658.861 174.976 658.773 175.752C658.686 176.527 658.681 176.78 658.608 177.23C658.476 178.042 658.682 177.758 658.72 178.273C658.758 178.789 658.337 178.503 658.236 178.568C658.134 178.632 658.225 178.719 658.165 178.803C658.105 178.888 658.058 178.689 658.02 178.897C657.982 179.105 658.101 179.693 658.194 179.776C658.391 179.952 658.634 179.713 658.508 180.261C658.501 180.292 658.393 180.178 658.371 180.299C658.197 181.262 658.103 182.269 657.94 183.232C657.917 183.364 657.798 183.233 657.783 183.31C657.63 184.111 657.873 183.841 658.077 184.305C657.763 184.177 657.545 184.405 657.489 185.018C657.456 185.386 657.602 185.335 657.681 185.582C657.704 185.656 657.585 185.908 657.647 185.962C657.85 186.136 658.114 185.912 657.962 186.535C657.955 186.563 657.844 186.464 657.829 186.559C657.728 187.175 657.948 187.268 657.917 187.94C657.892 188.467 657.673 189.388 657.598 189.984C657.237 189.939 657.271 190.511 657.501 190.762C657.457 191.149 657.434 191.569 657.367 191.941C657.344 192.068 657.246 191.975 657.234 191.99C657.034 192.224 657.262 192.414 657.265 192.498C657.278 193.413 657.029 194.136 657.134 195.018C657.138 195.049 657.385 195.121 657.181 195.336C657.167 195.35 657.077 195.054 657.033 195.461C656.989 195.867 656.787 196.623 656.854 197.199C656.87 197.338 657.044 197.702 656.86 197.966C656.836 198.001 656.767 197.954 656.722 198.004C656.579 198.166 656.825 198.282 656.591 198.466C656.357 198.651 656.159 199.059 656.258 199.642C656.261 199.66 656.451 199.813 656.432 199.992C656.402 200.278 656.324 200.681 656.299 200.98C656.288 201.123 656.421 201.042 656.421 201.067C656.407 202.036 656.236 202.711 656.097 203.738C656.072 203.926 656.195 204.484 656.028 204.838C655.845 205.227 655.266 204.76 655.332 205.697C655.358 206.074 656.097 206.614 655.635 207.248C655.622 208.555 655.31 209.737 655.34 211.051C655.341 211.11 655.542 211.314 655.527 211.452C655.505 211.656 655.393 211.759 655.374 211.904C655.29 212.513 655.328 213.08 655.263 213.668C655.239 213.891 655.14 213.804 655.111 214.07C655.082 214.337 655.205 214.527 655.107 214.882C655.032 215.151 654.725 215.399 654.66 215.758C654.938 215.796 654.911 216.045 654.946 216.494C654.953 216.58 655.058 216.497 655.066 216.538C655.102 216.706 655.008 216.851 655.049 217.011C655.059 217.05 655.154 217.06 655.168 217.092C655.285 217.367 655.033 217.782 654.989 217.853C654.822 218.125 654.935 218.27 654.86 218.483C654.785 218.697 654.744 218.364 654.687 218.616C654.571 219.139 654.527 219.819 654.476 220.355C654.456 220.569 654.596 220.434 654.596 220.465C654.59 220.911 654.416 221.347 654.648 221.614C653.965 221.864 654.688 221.887 654.502 222.509C654.487 222.557 654.171 222.594 654.142 222.398C654.113 222.203 654.236 221.921 654.188 221.649C654.177 221.585 653.918 221.2 653.904 221.149C653.8 220.752 654.268 220.738 654.296 220.719C654.591 220.512 654.316 220.045 654.304 219.927C654.251 219.388 654.356 218.943 654.324 218.493C654.304 218.199 654.002 218.144 654.032 217.917C654.128 217.163 654.575 216.935 654.27 216.189C654.205 216.03 653.86 216.153 654.169 215.627C654.188 215.594 654.462 215.208 654.332 214.96C654.315 214.928 654.219 214.921 654.214 214.881C654.184 214.615 654.276 214.448 654.264 214.16C654.252 213.873 654.227 213.526 654.288 213.204C654.325 213.01 654.527 212.775 654.579 212.685C654.729 212.432 654.546 212.13 654.714 211.979C654.883 211.828 655.09 212.171 655.227 211.747C654.978 211.709 654.723 211.649 654.473 211.601C654.564 210.652 654.727 209.725 654.799 208.771C654.808 208.653 654.662 208.762 654.668 208.635C654.693 208.099 654.83 207.641 654.84 207.083C654.847 206.652 654.745 206.169 654.748 205.717C655.06 205.468 655.02 204.794 655.089 204.313C655.113 204.145 655.188 204.163 655.224 204.045C655.356 203.598 655.084 203.789 655.055 203.661C654.931 203.112 655.51 203.116 655.55 202.485C655.553 202.451 655.282 202.017 655.268 201.959C655.174 201.591 655.379 201.909 655.422 201.687C655.499 201.283 655.596 201.006 655.548 200.519C655.534 200.378 655.372 200.026 655.544 199.768C655.566 199.734 655.666 199.762 655.674 199.734C655.818 199.223 655.501 199.182 655.419 198.876C655.337 198.569 655.597 198.13 655.669 198.042C655.854 197.812 655.722 198.235 655.737 198.25C655.915 198.422 655.911 198.085 655.95 197.83C656.265 197.821 656.278 197.462 655.988 197.567C655.957 197.579 655.969 197.78 655.95 197.83C655.663 197.579 655.658 197.183 655.982 196.774C656.134 196.583 656.274 196.788 656.27 196.167C656.269 195.884 656.045 195.974 656.008 195.722C655.923 195.145 656.188 194.429 656.207 193.845C656.214 193.633 656.078 193.828 656.079 193.683C656.08 193.297 656.198 192.967 656.186 192.578C656.185 192.543 656.055 192.617 656.063 192.497C656.128 191.589 656.276 190.806 656.361 189.86C656.402 189.402 656.405 188.578 656.46 188.106C656.555 187.286 656.822 186.291 656.84 185.586C656.852 185.126 656.72 185.215 656.653 185.012C656.524 184.619 656.873 183.975 656.926 183.888C656.928 183.886 656.923 184.282 657.004 184.078C657.147 183.967 656.927 183.893 656.926 183.888C656.961 183.832 657.057 183.047 657.047 182.889C657.042 182.803 656.921 182.84 656.92 182.796C656.908 181.735 656.97 180.678 657.118 179.616C657.122 179.597 657.25 179.637 657.258 179.593C657.37 178.981 657.244 178.571 657.194 178.053C657.144 177.536 657.211 177.135 657.461 176.853C657.466 176.466 657.614 175.923 657.701 175.611C657.789 175.299 657.539 175.232 657.536 175.204C657.452 174.319 657.641 173.829 657.742 172.927C657.791 172.499 657.828 171.643 657.841 171.176C657.851 170.806 657.93 170.59 657.921 170.248C657.92 170.202 657.803 170.238 657.8 170.224C657.698 169.834 657.958 170.04 658.014 169.966C658.219 169.699 658.33 169.533 658.287 169.041C658.278 168.928 657.908 168.568 657.902 168.362C657.896 168.095 658.03 168.208 658.02 167.928C658.019 167.904 657.93 167.901 657.949 167.73C658.035 166.938 658.162 166.077 658.225 165.252C658.234 165.139 658.082 165.271 658.092 165.108C658.143 164.343 658.221 163.506 658.351 162.768C658.384 162.586 658.471 162.709 658.504 162.672C658.701 162.443 658.476 162.075 658.476 162.017C658.472 160.644 658.794 159.621 658.805 158.223C658.805 158.147 658.582 157.541 658.84 157.302C658.857 157.286 659.12 157.05 658.975 156.809C658.966 156.793 658.829 156.943 658.866 156.665C658.902 156.386 658.859 155.93 659.028 155.558C659.082 155.44 659.346 155.173 659.187 154.794C659.176 154.77 658.793 154.172 659.108 153.998C659.16 153.97 659.472 154.032 659.349 153.585C659.324 153.499 659.241 153.643 659.216 153.422C659.178 153.082 659.301 152.647 659.196 152.225C659.177 152.151 658.99 151.828 659.174 151.598C659.202 151.562 659.301 151.644 659.324 151.516C659.434 150.907 659.42 150.259 659.547 149.642C659.592 149.424 659.752 149.551 659.818 149.325C659.884 149.099 659.968 148.64 659.911 148.392C659.854 148.145 659.56 148.384 659.57 148.022C659.613 146.446 659.907 144.906 660.067 143.343C660.091 143.111 659.977 143.295 660.005 142.953C660.108 141.691 660.207 139.505 660.508 138.428C660.75 137.566 660.78 138.68 660.905 138.016C660.966 137.695 660.681 137.318 660.678 137.239C660.643 136.468 660.829 135.95 660.846 135.26C660.85 135.117 660.71 135.245 660.714 135.124C660.728 134.71 660.823 134.282 660.847 133.887C660.857 133.71 660.757 133.734 660.779 133.572C660.829 133.184 660.9 132.844 661.025 132.473C661.036 132.439 661.137 132.683 661.167 132.395C661.215 131.93 661.355 131.36 661.309 130.816C661.295 130.655 661.072 130.629 661.256 130.301C661.294 130.232 661.554 130.346 661.358 129.928C661.325 129.858 661.071 129.162 661.301 128.851C661.362 128.769 661.6 128.567 661.582 128.373C661.579 128.347 661.45 128.44 661.452 128.281C661.462 127.719 661.526 127.135 661.538 126.558C661.541 126.404 661.398 126.621 661.406 126.392C661.43 125.761 661.529 124.98 661.622 124.37C661.656 124.145 661.745 124.31 661.758 124.295C661.963 124.046 661.731 123.868 661.724 123.779C661.686 123.224 661.838 122.818 661.851 122.312C661.855 122.172 661.73 122.26 661.722 122.232C661.645 121.936 661.836 122.168 661.875 121.988C661.985 121.485 662.026 120.916 662.056 120.4C662.066 120.211 661.912 120.411 661.923 120.241C661.988 119.235 662.092 118.192 662.252 117.218C662.283 117.035 662.377 117.16 662.404 117.124C662.594 116.873 662.4 116.465 662.386 116.373C662.323 115.958 662.429 115.808 662.443 115.448C662.51 113.686 662.76 111.526 662.943 109.874C663.18 107.721 663.425 106.055 663.579 103.996C663.589 103.865 663.438 103.984 663.445 103.871C663.538 102.413 663.718 100.985 663.805 99.5237C663.812 99.4038 663.665 99.5648 663.673 99.3719C663.687 98.9763 663.738 98.4779 663.815 98.0832C663.852 97.8907 663.942 98.1612 663.977 97.9672C664.059 97.5156 664.111 97.0283 664.131 96.5588C664.139 96.3589 663.978 96.6475 663.999 96.3887C664.14 94.6253 664.267 92.8926 664.597 91.127C664.62 91.006 664.903 90.9228 664.873 90.6586C664.799 90.6324 664.709 90.6257 664.629 90.6101C664.809 88.0409 665.126 85.5101 665.365 82.9388C665.375 82.8304 665.213 83.0052 665.232 82.7952C665.34 81.5801 665.403 80.3964 665.656 79.1657C665.681 79.0436 665.93 79.1292 665.923 78.7623C665.922 78.6976 665.936 78.1472 665.893 78.0008C665.886 77.9808 665.758 78.0703 665.77 77.8936C665.841 76.8668 665.962 75.7948 666.124 74.7778C666.151 74.6136 666.262 74.8006 666.282 74.6838C666.422 73.8552 666.405 72.9391 666.59 72.1517C666.714 71.6247 666.916 71.8415 667.157 71.5767C667.191 71.5392 667.224 71.2091 667.351 71.203C667.671 71.1867 668.003 71.3769 668.345 71.3406C668.419 71.3331 668.38 70.8836 668.532 71.161C668.542 71.1803 668.572 71.5063 668.625 71.5905C668.661 71.6491 668.797 71.5611 668.84 71.678C668.883 71.7949 668.765 71.9089 668.811 72.1004C668.857 72.292 669.01 72.2228 668.994 72.5959ZM658.095 174.206C658.242 173.923 657.799 173.84 657.878 174.167C657.883 174.183 658.087 174.22 658.095 174.206ZM655.064 209.76C655.294 209.393 655.027 209.105 654.852 209.363C654.676 209.62 654.994 209.872 655.064 209.76ZM654.86 213.755C655.055 213.32 654.427 213.194 654.513 213.686C654.518 213.715 654.849 213.781 654.86 213.755ZM667.103 72.8974C667.11 72.8938 667.136 72.6567 667.131 72.6506C667 72.5117 666.947 72.9857 667.103 72.8974ZM654.672 217.722C654.77 217.589 654.706 217.177 654.584 217.342C654.486 217.474 654.55 217.887 654.672 217.722ZM659.909 158.921C659.916 158.917 659.937 158.747 659.899 158.747C659.777 158.748 659.79 158.988 659.909 158.921ZM654.093 224.44C654.204 223.449 654.78 222.893 654.626 223.969C654.598 224.164 654.496 223.533 654.427 223.778C654.301 224.226 654.604 224.557 654.387 225.007C654.347 225.089 654.086 224.496 654.093 224.438C654.093 224.439 654.093 224.439 654.093 224.44ZM658.646 174.083C658.653 174.078 658.679 173.843 658.674 173.836C658.543 173.696 658.49 174.17 658.646 174.083ZM661.052 149.006C661.066 148.994 661.126 148.448 661.116 148.429C660.909 148.123 660.788 149.227 661.052 149.006ZM657.588 189.992C657.708 190.262 657.698 190.571 657.501 190.761C657.533 190.506 657.557 190.249 657.588 189.992ZM669.996 70.4138C671.044 70.8326 672.38 71.4667 673.385 71.972C673.7 72.1302 673.505 72.1311 673.721 72.2436C674.143 72.4635 674.564 72.6063 674.98 72.8294C675.117 72.9037 674.889 72.9408 675.034 73.0161C675.83 73.4276 676.618 73.7393 677.436 74.1291C681.468 76.0491 685.465 77.8609 689.576 79.7346C690.932 80.3523 692.544 81.1868 693.972 81.7613C694.139 81.8283 694.085 81.684 694.12 81.6894C694.667 81.7778 694.414 81.9102 694.722 82.0784C695.842 82.6884 697.116 83.269 698.275 83.746L698.732 83.9395L698.676 84.4536C698.665 84.5703 698.654 84.6858 698.643 84.7998C698.592 85.3666 698.88 84.8276 698.687 85.3808C698.674 85.4192 698.575 85.2616 698.544 85.4149C698.472 85.7624 698.41 86.431 698.368 86.7019C698.284 87.224 698.275 87.3109 698.212 87.8067C698.125 88.4843 697.967 89.2835 697.904 90.0142C697.89 90.1702 698.035 89.9794 698.025 90.2296C698.015 90.4799 697.923 91.1343 697.868 91.3519C697.812 91.5695 697.73 91.4637 697.704 91.5002C697.482 91.7996 697.64 92.5892 697.634 92.6875C697.519 94.4799 697.187 95.9879 696.981 97.6581C696.824 98.9261 696.704 100.288 696.548 101.493C696.362 102.93 696.146 104.14 695.984 105.537C695.967 105.685 696.129 105.53 696.108 105.71C695.887 107.624 695.637 109.521 695.306 111.413C695.273 111.603 695.18 111.341 695.14 111.53C694.894 112.686 694.421 114.503 694.872 115.264C694.753 116.052 694.613 117.01 694.417 117.704C694.291 118.152 694.211 117.692 694.199 118.26C694.196 118.388 694.334 118.238 694.321 118.429C694.265 119.232 694.119 120.1 694.082 120.897C694.075 121.059 694.186 121.028 694.199 121.076C694.305 121.478 693.972 122.083 693.937 122.22C693.668 123.26 693.627 124.038 693.501 125.023C693.472 125.251 693.647 124.998 693.624 125.219C693.503 126.362 693.345 127.542 693.144 128.651C693.099 128.897 693.006 128.654 692.978 128.771C692.858 129.287 693.071 129.432 692.96 129.927C692.937 130.032 692.841 129.96 692.827 129.977C692.612 130.257 692.831 130.551 692.827 130.63C692.782 131.622 692.44 132.218 692.36 133.172C692.351 133.286 692.513 133.046 692.479 133.366C692.252 135.498 691.937 137.743 691.572 139.836C691.515 140.161 691.446 139.915 691.431 139.935C691.201 140.247 691.427 140.496 691.423 140.604C691.388 141.454 691.078 142.215 691.309 142.824C690.762 146.378 690.492 149.949 689.783 153.453C689.775 153.498 689.66 153.402 689.643 153.491C689.439 154.562 689.659 154.379 689.807 155.123C689.845 155.311 689.491 155.823 689.464 155.869C689.364 156.036 689.202 155.83 689.179 155.887C689.001 156.362 689.625 156.358 689.543 157.018C689.539 157.039 689.437 156.938 689.419 156.992C689.363 157.16 689.386 157.336 689.327 157.499C689.189 157.874 688.874 157.974 688.974 158.585C688.988 158.662 689.35 158.591 689.26 159.178C689.224 159.413 689.102 160.453 689.043 160.742C688.984 161.03 688.897 160.817 688.889 160.837C688.644 161.603 688.619 161.298 688.351 161.664C688.084 162.029 688.619 161.985 688.657 162.152C688.695 162.32 688.502 162.88 688.442 163.016C688.382 163.152 688.332 162.967 688.293 163.09C688.032 163.903 688.506 163.487 688.555 163.772C688.671 164.443 688.222 164.899 688.111 165.487C688.08 165.646 688.185 165.526 688.175 165.67C688.137 166.239 687.974 166.564 688.005 167.221C688.01 167.328 688.178 167.877 687.966 168.192C687.935 168.237 687.856 168.089 687.804 168.327C687.727 168.683 687.626 169.329 687.61 169.72C687.599 170.008 687.798 169.701 687.704 170.054C687.662 170.211 687.606 169.904 687.535 170.199C687.465 170.494 687.374 171.258 687.341 171.549C687.309 171.839 687.449 171.695 687.454 171.72C687.483 171.867 687.472 172.431 687.466 172.48C687.174 174.962 686.687 177.224 686.455 179.647C686.437 179.837 686.58 179.727 686.578 179.756C686.551 180.411 686.277 179.858 686.107 180.297C686.373 180.264 686.294 180.526 686.265 180.986C686.252 181.208 686.367 181.1 686.374 181.122C686.485 181.467 686.261 181.67 686.214 181.724C686.04 181.922 686.185 182.179 686.068 182.314C685.952 182.449 685.849 182.092 685.797 182.531C685.874 182.665 686.155 182.37 686.153 182.707C686.146 183.981 685.666 186.301 685.521 187.308C685.377 188.313 685.354 188.641 685.247 189.224C685.056 190.277 685.283 189.91 685.283 190.579C685.283 191.25 684.883 190.874 684.776 190.957C684.67 191.039 684.755 191.152 684.689 191.262C684.622 191.371 684.589 191.113 684.536 191.382C684.483 191.652 684.559 192.416 684.646 192.525C684.83 192.754 685.092 192.447 684.926 193.156C684.916 193.197 684.817 193.049 684.785 193.206C684.54 194.453 684.373 195.759 684.138 197.006C684.106 197.178 683.996 197.007 683.976 197.107C683.764 198.144 684.027 197.797 684.198 198.401C683.892 198.232 683.657 198.525 683.556 199.32C683.496 199.798 683.646 199.733 683.707 200.054C683.725 200.151 683.587 200.477 683.645 200.546C683.836 200.775 684.117 200.486 683.919 201.294C683.91 201.33 683.806 201.201 683.784 201.324C683.637 202.121 683.851 202.245 683.771 203.117C683.708 203.8 683.421 204.994 683.302 205.766C682.943 205.705 682.935 206.447 683.147 206.775C683.075 207.276 683.022 207.821 682.927 208.303C682.895 208.469 682.804 208.346 682.79 208.366C682.573 208.667 682.788 208.916 682.784 209.026C682.73 210.214 682.428 211.149 682.468 212.294C682.47 212.335 682.713 212.431 682.492 212.708C682.477 212.726 682.409 212.341 682.335 212.868C682.261 213.395 682.003 214.374 682.028 215.122C682.034 215.303 682.182 215.777 681.979 216.118C681.951 216.163 681.886 216.102 681.837 216.166C681.682 216.374 681.92 216.528 681.672 216.764C681.424 217.001 681.195 217.529 681.252 218.287C681.253 218.311 681.433 218.511 681.401 218.743C681.349 219.114 681.242 219.635 681.196 220.023C681.173 220.209 681.313 220.106 681.311 220.138C681.226 221.395 681.005 222.269 680.791 223.601C680.752 223.841 680.832 224.55 680.649 225.008L680.643 225.067L680.582 225.068C680.575 225.066 680.569 225.064 680.562 225.062C680.037 224.914 680.576 224.297 679.37 224.444C678.883 224.502 678.267 225.286 677.392 224.88C675.696 224.98 674.127 224.773 672.426 224.916C672.349 224.923 672.107 225.141 671.927 225.138C671.66 225.133 671.514 225.031 671.323 225.024C670.524 224.994 669.793 225.081 669.023 225.068C668.731 225.063 668.833 224.957 668.484 224.951C668.136 224.945 667.903 225.084 667.431 225.017C667.074 224.966 666.717 224.682 666.244 224.649C666.226 224.929 665.901 224.923 665.323 224.997C665.212 225.012 665.331 225.109 665.278 225.121C665.064 225.171 664.866 225.09 664.663 225.145C664.614 225.158 664.611 225.254 664.571 225.27C664.228 225.411 663.662 225.196 663.565 225.158C663.192 225.016 663.018 225.14 662.732 225.084C662.447 225.028 662.874 224.958 662.541 224.924C661.85 224.854 660.963 224.869 660.261 224.865C659.981 224.864 660.172 224.991 660.132 224.994C659.554 225.027 658.968 224.891 658.647 225.145C658.246 224.487 658.298 225.209 657.471 225.077C657.406 225.067 657.323 224.755 657.573 224.71C657.824 224.664 658.203 224.761 658.55 224.69C658.632 224.673 659.103 224.382 659.167 224.364C659.67 224.226 659.742 224.691 659.768 224.717C660.07 224.992 660.646 224.678 660.797 224.656C661.49 224.557 662.079 224.622 662.659 224.551C663.038 224.505 663.075 224.201 663.373 224.21C664.362 224.241 664.708 224.666 665.641 224.297C665.841 224.219 665.642 223.886 666.358 224.148C666.403 224.164 666.935 224.404 667.243 224.252C667.281 224.233 667.28 224.136 667.331 224.128C667.672 224.075 667.9 224.152 668.271 224.115C668.643 224.078 669.09 224.023 669.514 224.056C669.77 224.076 670.098 224.257 670.221 224.301C670.566 224.428 670.937 224.219 671.151 224.374C671.367 224.529 670.945 224.765 671.511 224.865C671.532 224.613 671.58 224.354 671.614 224.1C672.855 224.109 674.076 224.191 675.321 224.18C675.476 224.178 675.318 224.042 675.483 224.037C676.182 224.016 676.791 224.112 677.516 224.074C678.076 224.043 678.691 223.9 679.277 223.864C679.537 224.074 680.069 224.079 680.582 224.077L679.666 224.886C679.688 224.696 679.71 224.507 679.738 224.337C679.774 224.119 679.849 224.143 679.893 223.99C680.058 223.412 679.771 223.657 679.751 223.49C679.667 222.776 680.247 222.788 680.334 221.969C680.339 221.926 680.099 221.359 680.089 221.283C680.023 220.805 680.205 221.22 680.264 220.933C680.37 220.409 680.489 220.05 680.476 219.418C680.472 219.234 680.336 218.776 680.527 218.443C680.552 218.399 680.649 218.437 680.66 218.401C680.842 217.739 680.527 217.682 680.467 217.284C680.407 216.885 680.7 216.318 680.778 216.204C680.981 215.908 680.818 216.456 680.832 216.475C680.997 216.7 681.018 216.262 681.075 215.933C681.392 215.923 681.431 215.457 681.133 215.591C681.101 215.606 681.098 215.868 681.075 215.933C680.806 215.604 680.83 215.089 681.185 214.562C681.351 214.315 681.476 214.584 681.519 213.776C681.538 213.41 681.306 213.524 681.288 213.196C681.245 212.448 681.563 211.521 681.625 210.763C681.647 210.487 681.497 210.74 681.508 210.551C681.538 210.05 681.68 209.623 681.697 209.118C681.698 209.073 681.562 209.168 681.58 209.013C681.711 207.835 681.916 206.82 682.071 205.592C682.145 204.999 682.209 203.93 682.299 203.317C682.453 202.254 682.794 200.966 682.864 200.05C682.909 199.453 682.771 199.568 682.718 199.304C682.617 198.793 683.015 197.96 683.074 197.849C683.076 197.845 683.042 198.36 683.139 198.095C683.29 197.953 683.074 197.854 683.074 197.849C683.113 197.775 683.267 196.758 683.269 196.553C683.27 196.441 683.146 196.488 683.148 196.43C683.213 195.053 683.353 193.683 683.579 192.306C683.584 192.282 683.71 192.334 683.721 192.278C683.878 191.484 683.782 190.951 683.77 190.279C683.757 189.606 683.854 189.086 684.125 188.723C684.159 188.221 684.346 187.518 684.457 187.114C684.568 186.71 684.322 186.621 684.321 186.584C684.301 185.435 684.527 184.8 684.694 183.631C684.775 183.076 684.875 181.966 684.922 181.36C684.958 180.88 685.053 180.6 685.07 180.156C685.072 180.096 684.952 180.142 684.95 180.124C684.876 179.617 685.122 179.887 685.184 179.791C685.408 179.447 685.532 179.232 685.525 178.594C685.524 178.447 685.179 177.976 685.189 177.709C685.202 177.362 685.328 177.509 685.338 177.146C685.339 177.115 685.251 177.11 685.282 176.889C685.426 175.862 685.616 174.746 685.74 173.675C685.757 173.529 685.595 173.699 685.617 173.487C685.724 172.494 685.863 171.409 686.048 170.452C686.094 170.217 686.173 170.378 686.208 170.33C686.422 170.035 686.224 169.554 686.228 169.48C686.325 167.698 686.722 166.374 686.836 164.559C686.841 164.46 686.662 163.672 686.938 163.364C686.956 163.343 687.237 163.04 687.11 162.725C687.102 162.705 686.953 162.898 687.01 162.537C687.068 162.176 687.058 161.583 687.254 161.102C687.317 160.95 687.601 160.607 687.469 160.113C687.46 160.081 687.12 159.302 687.449 159.079C687.503 159.043 687.811 159.126 687.72 158.545C687.702 158.434 687.608 158.62 687.599 158.332C687.585 157.891 687.74 157.328 687.666 156.779C687.653 156.683 687.489 156.261 687.69 155.965C687.721 155.918 687.814 156.025 687.847 155.86C688.002 155.071 688.035 154.229 688.207 153.43C688.268 153.147 688.42 153.315 688.502 153.022C688.584 152.729 688.702 152.134 688.664 151.812C688.625 151.49 688.312 151.798 688.349 151.327C688.507 149.283 688.915 147.288 689.189 145.261C689.23 144.96 689.102 145.198 689.156 144.754C689.351 143.117 689.61 140.281 689.991 138.887C690.297 137.77 690.245 139.217 690.419 138.356C690.503 137.94 690.245 137.448 690.248 137.345C690.27 136.344 690.494 135.673 690.562 134.778C690.576 134.593 690.426 134.757 690.44 134.6C690.484 134.063 690.61 133.508 690.663 132.996C690.686 132.767 690.584 132.797 690.617 132.587C690.697 132.085 690.793 131.644 690.945 131.163C690.959 131.119 691.042 131.436 691.093 131.064C691.175 130.461 691.357 129.722 691.351 129.016C691.348 128.806 691.127 128.77 691.336 128.346C691.379 128.257 691.631 128.409 691.465 127.864C691.437 127.772 691.234 126.867 691.487 126.466C691.553 126.36 691.807 126.1 691.804 125.848C691.802 125.814 691.666 125.934 691.68 125.727C691.731 124.998 691.837 124.241 691.892 123.492C691.907 123.292 691.746 123.573 691.772 123.275C691.841 122.457 691.999 121.444 692.136 120.653C692.187 120.361 692.264 120.577 692.278 120.557C692.502 120.236 692.282 120.002 692.282 119.887C692.285 119.167 692.466 118.641 692.517 117.984C692.531 117.803 692.399 117.916 692.393 117.879C692.337 117.494 692.512 117.797 692.565 117.565C692.712 116.912 692.793 116.175 692.861 115.506C692.886 115.26 692.717 115.519 692.741 115.298C692.879 113.993 693.059 112.64 693.291 111.378C693.335 111.14 693.421 111.304 693.45 111.257C693.659 110.933 693.495 110.401 693.488 110.283C693.454 109.743 693.572 109.55 693.612 109.082C693.808 106.797 694.217 103.996 694.521 101.853C694.916 99.0614 695.284 96.9026 695.589 94.2312C695.608 94.0615 695.448 94.2153 695.463 94.0688C695.664 92.1773 695.948 90.326 696.142 88.4299C696.158 88.2743 696 88.4818 696.021 88.2316C696.064 87.7182 696.152 87.0719 696.258 86.5605C696.309 86.3111 696.38 86.663 696.429 86.4116C696.545 85.8263 696.632 85.1945 696.686 84.5853C696.709 84.326 696.527 84.6989 696.567 84.3632C696.573 84.307 696.58 84.2508 696.586 84.1947L697.426 85.6733C695.366 84.7809 693.339 83.9075 691.33 82.8362C691.189 82.7609 691.172 82.4529 690.84 82.3645C690.786 82.424 690.751 82.5067 690.708 82.5768C687.622 81.2658 684.624 79.8411 681.553 78.4726C681.424 78.4149 681.589 78.6469 681.338 78.536C679.885 77.8938 678.458 77.3091 677.029 76.5218C676.887 76.4439 677.066 76.2427 676.616 76.0867C676.537 76.0594 675.868 75.8023 675.676 75.7787C675.65 75.7762 675.721 75.9383 675.509 75.8486C674.275 75.3252 673.001 74.7343 671.807 74.1284C671.614 74.0303 671.876 74.0064 671.739 73.9356C670.768 73.4342 669.644 73.0447 668.737 72.5188C668.13 72.1664 668.455 72.0691 668.203 71.7213C668.167 71.6722 667.774 71.4937 667.804 71.3693C667.88 71.0561 668.211 70.8227 668.269 70.4788C668.281 70.4049 667.72 70.2435 668.105 70.2205C668.131 70.2194 668.539 70.335 668.657 70.322C668.74 70.3133 668.673 70.1437 668.828 70.1545C668.984 70.1654 669.088 70.3287 669.336 70.37C669.584 70.4105 669.545 70.2339 669.996 70.4138ZM684.954 185.294C685.123 184.928 684.685 184.817 684.74 185.242C684.743 185.263 684.946 185.313 684.954 185.294ZM674.069 224.529C674.571 224.727 674.915 224.436 674.561 224.283C674.207 224.131 673.916 224.469 674.069 224.529ZM668.864 224.674C669.451 224.83 669.543 224.193 668.915 224.322C668.878 224.329 668.83 224.665 668.864 224.674ZM669.801 72.3577C669.798 72.3501 669.517 72.2197 669.507 72.2221C669.299 72.2858 669.862 72.5466 669.801 72.3577ZM663.699 224.831C663.882 224.917 664.409 224.818 664.182 224.711C663.999 224.625 663.471 224.724 663.699 224.831ZM687.891 165.476C687.899 165.471 687.932 165.251 687.894 165.25C687.771 165.25 687.767 165.562 687.891 165.476ZM654.92 224.838C656.217 224.862 657.004 225.388 655.591 225.328C655.335 225.318 656.142 225.161 655.817 225.113C655.221 225.027 654.826 225.357 654.218 225.18C654.108 225.148 654.846 224.836 654.922 224.838C654.922 224.838 654.921 224.838 654.92 224.838ZM685.516 185.141C685.523 185.134 685.566 184.829 685.561 184.821C685.441 184.638 685.353 185.252 685.516 185.141ZM689.763 152.62C689.778 152.604 689.877 151.896 689.869 151.872C689.683 151.473 689.481 152.904 689.763 152.62ZM683.291 205.777C683.392 206.128 683.359 206.529 683.148 206.773C683.198 206.443 683.241 206.109 683.291 205.777Z" fill="#C5C8FF"/>
<path d="M526.5 147.5L546.5 139L553.5 164L541.5 165L530.5 159L526.5 147.5Z" fill="#4A779E"/>
<path d="M596.754 220.088L544.197 226.923L530.625 158.529L534 154.493L541.376 163.316L539.077 152.049L550.574 151.783L540.331 146.555L546.181 138.859L595.326 119.936L596.754 220.088Z" fill="#BACDF3"/>
<path d="M593.767 221.974C591.902 222.255 589.446 222.533 587.576 222.718C586.99 222.776 587.275 222.659 586.87 222.696C586.078 222.768 585.349 222.902 584.565 222.967C584.305 222.988 584.61 222.821 584.338 222.846C582.848 222.984 581.449 223.198 579.943 223.367C572.525 224.198 565.245 225.097 557.746 226.015C555.273 226.317 552.256 226.595 549.711 226.976C549.414 227.021 549.606 227.107 549.55 227.123C548.68 227.377 548.946 227.118 548.362 227.164C547.045 227.268 545.649 227.417 544.284 227.587L543.669 227.673L543.54 227.053C543.342 226.026 543.133 225.017 542.927 224.074C542.724 223.145 542.694 224.123 542.629 223.16C542.624 223.093 542.786 223.307 542.747 223.049C542.66 222.463 542.421 221.366 542.341 220.915C542.187 220.045 542.158 219.902 541.996 219.082C541.777 217.961 541.569 216.617 541.305 215.42C541.248 215.165 541.197 215.528 541.096 215.123C540.995 214.717 540.79 213.632 540.745 213.261C540.7 212.89 540.824 213.027 540.833 212.958C540.906 212.391 540.409 211.187 540.371 211.027C539.683 208.108 539.324 205.558 538.776 202.798C538.36 200.703 537.868 198.472 537.479 196.477C537.016 194.101 536.68 192.075 536.211 189.77C536.162 189.526 536.08 189.839 536.019 189.542C535.376 186.386 534.769 183.245 534.238 180.08C534.185 179.762 534.387 180.145 534.342 179.826C534.059 177.876 533.693 174.775 532.935 173.734C532.697 172.422 532.403 170.831 532.278 169.64C532.197 168.872 532.475 169.578 532.235 168.663C532.181 168.457 532.118 168.752 532.046 168.44C531.742 167.13 531.493 165.681 531.174 164.388C531.109 164.125 531.019 164.218 530.986 164.147C530.708 163.545 530.751 162.443 530.723 162.21C530.562 160.849 530.344 159.788 530.107 158.632L530.056 158.389L530.22 158.19C530.448 157.914 530.681 157.631 530.93 157.335C531.177 157.041 530.776 157.298 531.01 157.011C531.815 156.028 532.649 155.031 533.485 154.063L533.991 153.448L534.515 154.063C534.927 154.573 535.332 155.081 535.724 155.584C535.982 155.914 535.642 155.697 535.76 155.859C536.282 156.572 536.584 156.574 537.088 157.255C537.194 157.398 537.05 157.388 537.062 157.42C537.251 157.926 537.73 158.102 537.818 158.199C538.939 159.42 539.414 160.402 540.469 161.606C540.595 161.749 540.42 161.334 540.769 161.743C541.112 162.145 541.456 162.551 541.801 162.961L540.833 163.427C540.2 160.393 539.599 157.248 539.083 154.267C538.988 153.723 539.164 154.089 539.169 154.053C539.242 153.46 538.919 153.153 538.874 152.978C538.801 152.692 538.74 152.408 538.686 152.129L538.588 151.665L539.068 151.65C540.152 151.636 541.144 151.697 541.902 151.439C544.796 151.423 547.682 151.343 550.563 151.28L550.345 152.232C547.584 150.819 544.836 149.392 542.149 147.861C542.083 147.824 542.261 147.774 542.129 147.7C540.848 146.982 540.744 147.059 540.134 146.941L539.673 146.711L539.986 146.292C540.04 146.153 540.11 145.986 540.215 145.772C540.351 145.494 541.139 144.934 541.205 144.881C541.447 144.692 541.409 145.051 541.482 144.98C542.075 144.396 541.501 144.129 542.174 143.243C542.196 143.216 542.198 143.401 542.264 143.334C542.467 143.124 542.605 142.868 542.808 142.666C543.274 142.204 543.653 142.201 544.114 141.306C544.172 141.192 543.776 141.133 544.391 140.352C544.592 140.097 545.341 139.106 545.776 138.552L545.86 138.44L545.998 138.385C546.141 138.333 546.261 138.29 546.344 138.262C546.81 138.107 546.537 138.334 546.571 138.326C547.858 137.991 547.413 138.228 548.11 138.197C548.807 138.165 548.447 137.74 548.678 137.588C548.909 137.437 549.857 137.204 550.095 137.158C550.332 137.112 550.081 137.286 550.287 137.233C551.654 136.877 550.768 136.768 551.17 136.524C552.116 135.948 553.048 136.007 553.993 135.684C554.249 135.596 554.012 135.593 554.233 135.498C555.11 135.127 555.688 135.034 556.659 134.541C556.818 134.46 557.551 133.927 558.142 133.884C558.226 133.878 558.048 134.051 558.434 133.925C559.012 133.738 560.039 133.365 560.635 133.101C561.076 132.905 560.503 132.954 561.086 132.783C561.346 132.707 560.914 132.974 561.398 132.824C561.879 132.674 563.078 132.209 563.533 132.03C563.988 131.851 563.695 131.834 563.729 131.812C563.935 131.682 564.789 131.291 564.866 131.261C568.76 129.746 572.43 128.552 576.202 127.027C576.498 126.908 576.254 126.865 576.298 126.845C577.299 126.402 576.617 127.03 577.371 126.862C577.174 126.659 577.612 126.541 578.32 126.237C578.661 126.091 578.437 126.07 578.465 126.048C578.923 125.708 579.352 125.754 579.458 125.757C579.852 125.764 580.159 125.458 580.426 125.461C580.692 125.464 580.213 125.806 580.901 125.539C581.061 125.377 580.462 125.347 580.971 125.109C582.891 124.21 586.644 122.969 588.239 122.377C589.83 121.785 590.335 121.572 591.27 121.248C592.959 120.663 592.283 120.73 593.289 120.254C594.298 119.777 593.952 120.386 594.136 120.417C594.317 120.45 594.441 120.297 594.642 120.276C594.843 120.255 594.473 120.467 594.907 120.32C595.029 120.28 595.203 120.203 595.393 120.109L595.14 119.938C595.195 120.481 595.313 121.162 595.386 121.278C595.603 121.619 595.816 121.051 595.756 122.264C595.752 122.334 595.632 122.109 595.624 122.376C595.565 124.497 595.59 126.7 595.541 128.818C595.534 129.109 595.401 128.851 595.395 129.02C595.337 130.786 595.547 130.152 595.804 131.116C595.477 130.903 595.287 131.441 595.304 132.78C595.315 133.585 595.454 133.445 595.561 133.964C595.593 134.12 595.504 134.691 595.572 134.793C595.794 135.13 596.03 134.59 595.953 135.973C595.949 136.033 595.827 135.842 595.823 136.051C595.795 137.405 596.025 137.564 596.073 139.026C596.111 140.172 596.002 142.213 595.998 143.519C595.633 143.496 595.734 144.728 595.992 145.225C595.994 146.072 596.021 146.987 595.998 147.806C595.991 148.088 595.883 147.905 595.872 147.94C595.701 148.488 595.95 148.853 595.962 149.035C596.084 151.016 595.922 152.633 596.129 154.522C596.137 154.589 596.391 154.694 596.214 155.202C596.202 155.235 596.078 154.612 596.081 155.502C596.085 156.392 595.974 158.072 596.108 159.305C596.141 159.604 596.357 160.357 596.205 160.966C596.185 161.048 596.111 160.96 596.072 161.077C595.949 161.457 596.207 161.659 595.997 162.105C595.786 162.552 595.637 163.477 595.804 164.721C595.809 164.76 596.016 165.052 596.018 165.444C596.022 166.07 595.992 166.958 596.003 167.611C596.008 167.924 596.131 167.722 596.134 167.776C596.234 169.878 596.144 171.376 596.127 173.629C596.124 174.042 596.312 175.226 596.188 176.027C596.052 176.907 595.422 176.014 595.598 178.029C595.668 178.842 596.466 179.861 596.081 181.329C596.222 184.164 596.052 186.789 596.236 189.631C596.244 189.759 596.468 190.16 596.47 190.461C596.471 190.907 596.373 191.154 596.37 191.473C596.359 192.808 596.464 194.029 596.468 195.317C596.47 195.806 596.362 195.637 596.365 196.22C596.367 196.803 596.512 197.189 596.456 197.98C596.413 198.577 596.137 199.177 596.116 199.969C596.396 199.995 596.398 200.539 596.486 201.504C596.503 201.69 596.598 201.489 596.611 201.577C596.666 201.934 596.59 202.266 596.65 202.605C596.664 202.687 596.76 202.69 596.777 202.757C596.926 203.329 596.724 204.278 596.689 204.441C596.556 205.066 596.684 205.355 596.635 205.833C596.586 206.311 596.506 205.599 596.479 206.157C596.426 207.312 596.462 208.795 596.474 209.968C596.48 210.436 596.603 210.115 596.607 210.182C596.653 211.149 596.531 212.129 596.793 212.662C596.145 213.342 596.866 213.244 596.753 214.629C596.744 214.738 596.435 214.881 596.383 214.463C596.332 214.046 596.42 213.41 596.341 212.831C596.322 212.694 596.019 211.911 596 211.804C595.85 210.965 596.313 210.839 596.338 210.794C596.607 210.285 596.279 209.328 596.253 209.075C596.137 207.918 596.189 206.932 596.104 205.964C596.049 205.331 595.743 205.273 595.746 204.775C595.753 203.12 596.17 202.537 595.779 200.983C595.695 200.65 595.367 200.987 595.612 199.785C595.627 199.71 595.854 198.817 595.695 198.305C595.675 198.241 595.578 198.244 595.569 198.159C595.508 197.59 595.58 197.208 595.534 196.587C595.488 195.966 595.422 195.22 595.445 194.51C595.459 194.082 595.632 193.531 595.673 193.326C595.792 192.746 595.575 192.13 595.724 191.769C595.874 191.406 596.12 192.109 596.207 191.16C595.954 191.129 595.694 191.052 595.439 190.999C595.419 188.924 595.471 186.882 595.43 184.8C595.425 184.542 595.293 184.808 595.284 184.532C595.246 183.365 595.328 182.344 595.272 181.134C595.229 180.197 595.07 179.172 595.02 178.193C595.3 177.59 595.182 176.138 595.193 175.081C595.197 174.711 595.274 174.735 595.296 174.471C595.374 173.477 595.126 173.946 595.082 173.674C594.894 172.509 595.47 172.401 595.436 171.025C595.434 170.952 595.114 170.065 595.093 169.943C594.957 169.164 595.198 169.812 595.214 169.323C595.243 168.431 595.308 167.811 595.203 166.766C595.172 166.462 594.969 165.733 595.109 165.139C595.128 165.06 595.23 165.102 595.235 165.039C595.318 163.903 594.998 163.878 594.881 163.231C594.763 162.583 594.969 161.578 595.03 161.373C595.187 160.838 595.106 161.781 595.123 161.81C595.32 162.146 595.276 161.416 595.284 160.858C595.597 160.772 595.567 159.992 595.292 160.279C595.262 160.311 595.297 160.745 595.284 160.858C594.97 160.372 594.919 159.514 595.192 158.562C595.321 158.117 595.483 158.534 595.407 157.187C595.372 156.576 595.16 156.815 595.093 156.276C594.942 155.045 595.12 153.44 595.07 152.169C595.052 151.707 594.94 152.159 594.924 151.843C594.88 151.007 594.958 150.268 594.901 149.428C594.895 149.352 594.774 149.54 594.769 149.278C594.727 147.297 594.781 145.571 594.754 143.502C594.741 142.502 594.647 140.716 594.646 139.68C594.643 137.886 594.792 135.675 594.726 134.143C594.684 133.143 594.563 133.364 594.473 132.937C594.298 132.113 594.57 130.645 594.612 130.447C594.613 130.441 594.655 131.301 594.712 130.841C594.84 130.572 594.613 130.457 594.612 130.447C594.639 130.317 594.643 128.598 594.614 128.257C594.599 128.072 594.483 128.177 594.477 128.081C594.34 125.784 594.277 123.482 594.299 121.15C594.3 121.109 594.432 121.169 594.435 121.072C594.447 120.659 594.439 120.291 594.419 119.948L595.652 120.782C594.938 121.093 594.364 121.419 593.667 121.758C592.663 122.247 591.828 122.534 591.132 122.561C590.359 122.889 589.198 123.229 588.53 123.422C587.861 123.615 587.862 123.888 587.807 123.914C586.09 124.749 585.011 125.008 583.161 125.696C582.281 126.022 580.557 126.726 579.619 127.117C578.878 127.426 578.405 127.545 577.728 127.846C577.636 127.887 577.771 127.956 577.744 127.972C577.023 128.395 577.293 127.993 577.116 128.008C576.475 128.062 576.084 128.11 575.127 128.569C574.907 128.675 574.387 129.303 573.981 129.485C573.452 129.72 573.604 129.508 573.052 129.758C573.004 129.779 573.046 129.858 572.696 129.988C571.072 130.596 569.289 131.227 567.61 131.883C567.381 131.972 567.726 131.99 567.395 132.121C565.844 132.736 564.135 133.389 562.594 133.912C562.214 134.04 562.413 133.858 562.322 133.862C561.761 133.889 561.147 134.4 561.032 134.449C558.298 135.634 556.089 136.236 553.297 137.43C553.145 137.495 552.058 138.208 551.444 138.192C551.402 138.192 550.792 138.168 550.388 138.5C550.363 138.521 550.734 138.511 550.16 138.719C549.586 138.926 548.699 139.356 547.867 139.531C547.644 139.577 547.129 139.585 546.569 139.868L547.041 139.513C546.981 139.61 546.925 139.716 546.875 139.83C546.855 139.88 546.46 141.115 545.957 141.282C545.875 141.309 545.668 141.058 545.225 141.909C545.141 142.072 545.396 141.853 545.143 142.259C544.756 142.881 544.104 143.598 543.673 144.397C543.599 144.537 543.367 145.196 542.914 145.523C542.843 145.574 542.855 145.383 542.675 145.601C542.219 146.15 541.782 146.736 541.339 147.321L540.907 145.427C541.481 145.719 542.055 146.015 542.606 146.335C543.024 146.577 542.727 146.617 543.154 146.887C543.58 147.156 544.462 147.655 544.966 147.825C545.47 147.995 545.082 147.491 545.794 147.83C547.623 148.701 549.402 149.646 551.179 150.599L550.605 153.113C549.212 153.116 547.818 153.116 546.421 153.139C545.914 153.147 546.336 153.235 545.589 153.254C543.858 153.299 541.338 153.394 539.109 153.422L540.423 151.774C540.673 153.069 540.881 154.268 540.983 155.155C541.204 157.066 540.598 154.728 540.825 156.176C540.935 156.875 541.398 157.561 541.441 157.726C541.874 159.339 541.968 160.501 542.31 161.962C542.38 162.264 542.445 161.941 542.504 162.198C542.568 162.477 542.626 162.763 542.68 163.05L540.355 164.17C539.962 163.685 539.579 163.189 539.197 162.744C538.946 162.451 538.916 162.569 538.694 162.291C538.162 161.628 537.712 161.025 537.251 160.331C537.209 160.268 537.629 160.58 537.229 160.095C536.582 159.309 535.841 158.282 535.019 157.444C534.774 157.196 534.594 157.329 534.233 156.657C534.158 156.516 534.492 156.497 533.756 155.978C533.693 155.933 533.353 155.67 532.996 155.333L535.004 155.333C534.748 155.725 534.429 156.145 534.129 156.35C533.967 156.461 533.488 156.69 533.247 157.033C533.215 157.08 533.452 156.983 533.239 157.256C532.706 157.937 532.133 158.625 531.569 159.318L531.832 158.29C531.908 158.649 531.986 159.007 532.067 159.362C532.143 159.689 532.168 159.175 532.276 159.662C532.574 161.002 532.876 162.688 533.099 164.011C533.181 164.499 533.013 164.184 533.009 164.221C532.943 164.824 533.251 165.112 533.303 165.298C533.619 166.453 533.683 167.367 533.927 168.441C533.994 168.738 534.068 168.504 534.09 168.561C534.312 169.156 534.014 168.739 534.069 169.133C534.221 170.237 534.471 171.451 534.705 172.552C534.791 172.956 534.834 172.474 534.91 172.837C535.36 174.985 535.791 177.225 536.135 179.341C536.199 179.739 536.047 179.511 536.04 179.598C535.988 180.199 536.378 180.987 536.437 181.175C536.707 182.027 536.684 182.383 536.853 183.149C537.684 186.891 538.544 191.544 539.211 195.1C540.081 199.733 540.695 203.34 541.595 207.744C541.653 208.024 541.733 207.714 541.784 207.955C542.436 211.067 542.992 214.148 543.652 217.266C543.706 217.522 543.762 217.126 543.853 217.536C544.04 218.376 544.245 219.447 544.373 220.309C544.436 220.729 544.214 220.193 544.279 220.616C544.431 221.6 544.629 222.647 544.849 223.646C544.943 224.07 544.948 223.401 545.059 223.955C545.241 224.854 545.423 225.75 545.602 226.644L544.013 225.503C546.903 225.122 549.781 224.766 552.737 224.517C553.003 224.494 553.271 224.736 553.826 224.611C553.859 224.53 553.845 224.441 553.853 224.358C559.406 223.592 564.919 222.971 570.495 222.26C570.73 222.23 570.305 222.139 570.76 222.08C573.394 221.74 575.946 221.367 578.658 221.16C578.927 221.14 578.823 221.411 579.606 221.271C579.744 221.246 580.926 221.057 581.225 220.962C581.266 220.949 581.034 220.858 581.416 220.805C583.635 220.498 585.966 220.222 588.193 220.007C588.552 219.972 588.187 220.148 588.444 220.124C590.26 219.956 592.215 219.604 593.957 219.494C595.124 219.421 594.724 219.695 595.367 219.83C595.457 219.849 596.174 219.761 596.227 219.881C596.363 220.183 596.061 220.572 596.247 220.889C596.287 220.957 597.236 220.755 596.691 221.003C596.652 221.02 595.965 221.168 595.801 221.25C595.687 221.306 595.918 221.405 595.682 221.489C595.446 221.573 595.164 221.501 594.769 221.615C594.374 221.73 594.57 221.852 593.767 221.974ZM585.52 124.292C584.877 124.408 584.949 124.861 585.559 124.511C585.588 124.494 585.553 124.286 585.52 124.292ZM595.81 186.889C595.996 186.047 595.697 185.477 595.552 186.071C595.408 186.665 595.753 187.145 595.81 186.889ZM596.078 195.588C596.22 194.605 595.582 194.46 595.726 195.509C595.734 195.57 596.07 195.646 596.078 195.588ZM592.525 220.262C592.534 220.267 593.05 220.205 593.061 220.198C593.317 220.021 592.286 220.144 592.525 220.262ZM596.359 204.221C596.44 203.914 596.328 203.034 596.227 203.416C596.145 203.723 596.257 204.604 596.359 204.221ZM554.097 135.878C554.085 135.876 553.736 136.004 553.756 136.036C553.824 136.141 554.295 135.923 554.097 135.878ZM596.575 218.897C596.568 216.729 597.075 215.406 597.049 217.768C597.045 218.196 596.869 216.849 596.829 217.394C596.757 218.391 597.096 219.048 596.934 220.067C596.904 220.251 596.574 219.021 596.574 218.893C596.575 218.895 596.575 218.896 596.575 218.897ZM584.981 123.922C584.967 123.921 584.484 124.101 584.475 124.111C584.266 124.344 585.238 123.982 584.981 123.922ZM543.432 148.379C543.452 148.403 544.512 148.957 544.552 148.964C545.213 149.04 543.071 147.92 543.432 148.379ZM595.988 143.539C596.139 144.099 596.166 144.772 595.992 145.222C595.994 144.664 595.987 144.101 595.988 143.539Z" fill="#D6DBFF"/>
<path d="M594.831 120L614.094 140.184L610.811 215.738L596.819 220.583L594.831 120Z" fill="url(#paint9_linear_1077_1664)"/>
<path d="M597.344 120.483C598.22 121.344 599.3 122.536 600.102 123.46C600.354 123.749 600.162 123.664 600.333 123.866C600.668 124.262 601.029 124.583 601.355 124.978C601.463 125.11 601.226 125.044 601.341 125.18C601.973 125.922 602.632 126.566 603.293 127.298C606.55 130.902 609.812 134.387 613.164 137.983C613.64 138.493 614.147 139.062 614.666 139.639L614.894 139.871L614.884 140.218C614.809 141.243 614.739 142.29 614.726 143.245C614.723 143.44 614.839 143.328 614.846 143.366C614.96 143.955 614.746 143.751 614.7 144.13C614.517 145.635 614.434 147.314 614.413 148.768C614.405 149.387 614.651 148.777 614.501 149.394C614.491 149.437 614.38 149.275 614.36 149.444C614.316 149.827 614.305 150.558 614.283 150.855C614.239 151.429 614.236 151.524 614.211 152.067C614.176 152.809 614.08 153.69 614.071 154.487C614.07 154.658 614.2 154.438 614.209 154.71C614.217 154.982 614.176 155.7 614.137 155.941C614.098 156.182 614.008 156.074 613.985 156.116C613.787 156.461 614.004 157.303 614.005 157.41C614.027 159.363 613.81 161.028 613.731 162.857C613.672 164.245 613.655 165.732 613.591 167.053C613.514 168.627 613.391 169.958 613.336 171.488C613.33 171.649 613.479 171.466 613.472 171.663C613.398 173.758 613.292 175.837 613.106 177.918C613.087 178.127 612.975 177.852 612.949 178.06C612.791 179.335 612.458 181.348 612.965 182.131C612.907 182.996 612.839 184.047 612.696 184.818C612.605 185.314 612.491 184.823 612.522 185.44C612.528 185.579 612.655 185.404 612.656 185.612C612.661 186.488 612.581 187.441 612.605 188.309C612.61 188.485 612.718 188.442 612.735 188.493C612.872 188.918 612.586 189.605 612.56 189.756C612.371 190.907 612.389 191.755 612.339 192.833C612.327 193.084 612.483 192.794 612.476 193.035C612.443 194.285 612.374 195.578 612.258 196.798C612.231 197.07 612.121 196.814 612.102 196.944C612.021 197.514 612.245 197.651 612.171 198.199C612.156 198.314 612.055 198.245 612.043 198.265C611.849 198.588 612.091 198.887 612.093 198.972C612.122 200.052 611.827 200.728 611.82 201.77C611.819 201.895 611.963 201.62 611.953 201.97C611.888 204.301 611.745 206.763 611.539 209.065C611.508 209.423 611.42 209.163 611.407 209.185C611.2 209.544 611.445 209.793 611.45 209.91C611.479 210.836 611.227 211.688 611.504 212.328C611.423 213.473 611.366 214.617 611.315 215.76L611.305 216.096L610.976 216.215C608.371 217.113 605.785 218.039 603.133 218.754C603.085 218.767 603.128 218.619 603.033 218.646C601.891 218.967 602.17 219.077 601.507 219.559C601.34 219.68 600.679 219.604 600.621 219.602C600.413 219.592 600.542 219.349 600.475 219.356C599.93 219.42 600.215 219.975 599.531 220.212C599.509 220.219 599.562 220.08 599.501 220.089C599.311 220.117 599.149 220.221 598.961 220.245C598.532 220.297 598.292 220.063 597.739 220.439C597.669 220.487 597.902 220.778 597.286 220.974C597.227 220.992 597.121 221.028 596.988 221.073L596.324 221.313L596.3 220.594C596.294 220.151 596.28 219.434 596.293 219.19C596.309 218.871 596.427 219.088 596.431 219.065C596.564 218.202 596.632 218.527 596.845 218.092C597.056 217.657 596.533 217.787 596.471 217.612C596.409 217.438 596.52 216.805 596.56 216.649C596.6 216.493 596.675 216.685 596.697 216.547C596.837 215.631 596.428 216.151 596.338 215.852C596.127 215.147 596.506 214.587 596.531 213.937C596.538 213.761 596.452 213.906 596.441 213.75C596.397 213.131 596.511 212.756 596.386 212.054C596.365 211.939 596.119 211.374 596.284 211.002C596.308 210.949 596.408 211.095 596.425 210.831C596.449 210.436 596.457 209.725 596.416 209.302C596.386 208.989 596.233 209.351 596.274 208.956C596.293 208.781 596.393 209.103 596.421 208.774C596.448 208.446 596.427 207.609 596.418 207.291C596.408 206.973 596.29 207.15 596.282 207.124C596.232 206.97 596.161 206.361 596.16 206.307C596.092 203.589 596.247 201.078 596.127 198.433C596.117 198.225 595.992 198.366 595.989 198.334C595.922 197.624 596.273 198.178 596.377 197.679C596.119 197.756 596.16 197.462 596.122 196.962C596.103 196.721 596.005 196.854 595.994 196.832C595.834 196.478 596.027 196.224 596.066 196.159C596.21 195.919 596.029 195.665 596.125 195.502C596.221 195.338 596.374 195.707 596.363 195.226C596.267 195.093 596.031 195.455 595.984 195.091C595.808 193.718 595.948 191.145 595.946 190.039C595.944 188.934 595.92 188.578 595.941 187.934C595.979 186.77 595.807 187.2 595.71 186.48C595.613 185.758 596.064 186.101 596.157 185.995C596.25 185.891 596.15 185.781 596.2 185.653C596.25 185.525 596.32 185.798 596.334 185.5C596.348 185.202 596.162 184.39 596.06 184.287C595.844 184.068 595.63 184.439 595.692 183.649C595.696 183.604 595.816 183.749 595.824 183.575C595.886 182.194 595.864 180.761 595.916 179.382C595.923 179.192 596.056 179.359 596.062 179.249C596.122 178.099 595.912 178.514 595.656 177.889C595.983 178.024 596.174 177.672 596.158 176.801C596.149 176.277 596.01 176.37 595.903 176.033C595.871 175.932 595.961 175.56 595.893 175.494C595.672 175.277 595.435 175.631 595.514 174.73C595.518 174.691 595.64 174.814 595.644 174.678C595.674 173.796 595.445 173.696 595.398 172.744C595.362 171.999 595.474 170.67 595.48 169.82C595.844 169.831 595.745 169.03 595.488 168.71C595.487 168.158 595.461 167.563 595.485 167.03C595.493 166.846 595.601 166.965 595.612 166.941C595.784 166.583 595.535 166.348 595.523 166.23C595.404 164.942 595.569 163.888 595.364 162.661C595.356 162.617 595.102 162.552 595.28 162.219C595.292 162.197 595.415 162.602 595.413 162.023C595.41 161.443 595.524 160.349 595.391 159.548C595.359 159.354 595.144 158.866 595.297 158.468C595.318 158.415 595.391 158.471 595.43 158.394C595.554 158.146 595.296 158.017 595.507 157.725C595.718 157.432 595.869 156.828 595.703 156.021C595.698 155.995 595.492 155.807 595.49 155.552C595.487 155.145 595.518 154.567 595.508 154.142C595.504 153.938 595.381 154.071 595.378 154.036C595.28 152.669 595.373 151.693 595.393 150.227C595.396 149.958 595.21 149.19 595.335 148.667C595.472 148.093 596.101 148.668 595.928 147.358C595.858 146.83 595.062 146.175 595.449 145.216C595.312 143.372 595.486 141.662 595.306 139.814C595.298 139.731 595.074 139.473 595.073 139.277C595.072 138.986 595.171 138.825 595.174 138.618C595.188 137.748 595.085 136.955 595.082 136.117C595.08 135.799 595.188 135.908 595.186 135.528C595.185 135.149 595.041 134.899 595.098 134.384C595.141 133.995 595.418 133.601 595.441 133.086C595.16 133.072 595.159 132.718 595.072 132.09C595.056 131.97 594.961 132.101 594.948 132.045C594.893 131.813 594.969 131.596 594.91 131.376C594.896 131.323 594.8 131.322 594.783 131.278C594.635 130.908 594.838 130.288 594.873 130.181C595.008 129.774 594.88 129.587 594.929 129.275C594.979 128.964 595.059 129.426 595.086 129.063C595.141 128.31 595.107 127.346 595.096 126.583C595.091 126.278 594.967 126.488 594.964 126.445C594.919 125.816 595.042 125.177 594.781 124.833C595.43 124.384 594.709 124.455 594.823 123.552C594.833 123.481 595.142 123.385 595.193 123.656C595.244 123.927 595.155 124.342 595.234 124.718C595.252 124.807 595.554 125.313 595.573 125.383C595.722 125.927 595.258 126.014 595.233 126.044C594.964 126.377 595.291 126.997 595.316 127.161C595.43 127.913 595.377 128.555 595.461 129.184C595.515 129.596 595.82 129.63 595.817 129.954C595.808 131.031 595.39 131.415 595.779 132.422C595.862 132.638 596.19 132.416 595.944 133.2C595.928 133.249 595.7 133.833 595.858 134.164C595.878 134.206 595.975 134.203 595.985 134.258C596.045 134.628 595.972 134.877 596.017 135.28C596.062 135.684 596.127 136.169 596.103 136.631C596.089 136.91 595.915 137.27 595.874 137.404C595.754 137.783 595.971 138.182 595.821 138.418C595.67 138.656 595.426 138.201 595.338 138.819C595.59 138.837 595.85 138.884 596.104 138.916C596.122 140.266 596.067 141.596 596.105 142.95C596.11 143.118 596.242 142.943 596.251 143.123C596.287 143.882 596.204 144.547 596.258 145.334C596.3 145.943 596.457 146.609 596.506 147.245C596.225 147.64 596.341 148.584 596.329 149.272C596.324 149.513 596.247 149.498 596.225 149.67C596.145 150.318 596.394 150.01 596.437 150.186C596.624 150.943 596.048 151.019 596.08 151.914C596.081 151.962 596.4 152.536 596.421 152.615C596.556 153.12 596.316 152.701 596.299 153.019C596.269 153.6 596.204 154.004 596.307 154.683C596.338 154.881 596.539 155.353 596.398 155.741C596.38 155.792 596.278 155.766 596.273 155.807C596.188 156.548 596.508 156.561 596.624 156.981C596.741 157.401 596.533 158.057 596.472 158.191C596.315 158.541 596.397 157.926 596.38 157.908C596.184 157.691 596.226 158.166 596.217 158.529C595.905 158.588 595.934 159.096 596.209 158.906C596.239 158.884 596.204 158.602 596.217 158.529C596.531 158.842 596.581 159.399 596.306 160.022C596.177 160.313 596.015 160.043 596.09 160.919C596.124 161.316 596.336 161.158 596.402 161.508C596.552 162.308 596.371 163.355 596.419 164.181C596.437 164.481 596.549 164.186 596.565 164.391C596.608 164.935 596.529 165.417 596.585 165.963C596.59 166.013 596.711 165.889 596.716 166.059C596.756 167.348 596.699 168.472 596.724 169.818C596.736 170.468 596.827 171.63 596.826 172.304C596.826 173.472 596.675 174.912 596.738 175.908C596.779 176.558 596.9 176.413 596.99 176.69C597.164 177.225 596.89 178.183 596.847 178.312C596.846 178.316 596.806 177.757 596.748 178.057C596.619 178.233 596.847 178.306 596.847 178.312C596.82 178.397 596.814 179.515 596.842 179.737C596.857 179.857 596.973 179.788 596.979 179.85C597.113 181.344 597.172 182.841 597.148 184.359C597.146 184.386 597.014 184.348 597.011 184.411C596.97 185.29 597.142 185.849 597.251 186.571C597.361 187.293 597.34 187.868 597.124 188.301C597.163 188.847 597.079 189.633 597.027 190.085C596.976 190.537 597.232 190.595 597.238 190.635C597.424 191.869 597.292 192.588 597.295 193.872C597.296 194.483 597.357 195.693 597.397 196.354C597.43 196.876 597.377 197.191 597.424 197.672C597.431 197.737 597.543 197.669 597.548 197.689C597.694 198.223 597.412 197.971 597.364 198.083C597.192 198.488 597.101 198.739 597.199 199.425C597.222 199.583 597.631 200.038 597.66 200.326C597.697 200.702 597.551 200.563 597.593 200.956C597.597 200.989 597.685 200.981 597.686 201.224C597.691 202.352 597.664 203.583 597.696 204.755C597.7 204.916 597.836 204.708 597.844 204.939C597.883 206.024 597.901 207.214 597.856 208.273C597.845 208.534 597.743 208.373 597.715 208.43C597.546 208.78 597.812 209.267 597.818 209.348C597.98 211.282 597.777 212.769 597.926 214.741C597.935 214.848 598.226 215.67 597.998 216.043C597.983 216.069 597.749 216.439 597.92 216.758C597.931 216.778 598.05 216.548 598.046 216.945C598.041 217.343 598.136 217.98 598.011 218.528C597.971 218.702 597.739 219.115 597.941 219.626C597.952 219.654 598.266 220.205 598.201 220.556L596.366 219.277C596.437 219.268 596.505 219.276 596.566 219.307C596.626 219.339 596.684 219.654 597.212 219.299C597.313 219.231 597.088 219.234 597.366 219.091C597.792 218.872 598.414 218.746 598.919 218.422C599.007 218.365 599.346 218.021 599.727 218.061C599.787 218.067 599.724 218.201 599.901 218.152C600.744 217.92 601.584 217.555 602.444 217.334C602.749 217.256 602.653 217.47 602.977 217.406C603.301 217.342 603.938 217.168 604.236 216.982C604.534 216.797 604.092 216.662 604.569 216.473C606.481 215.719 608.447 215.174 610.396 214.541L609.545 215.683C609.556 215.509 609.566 215.335 609.575 215.161C609.593 214.831 609.484 215.1 609.503 214.614C609.574 212.822 609.617 209.725 609.891 208.179C610.111 206.941 610.169 208.514 610.278 207.565C610.33 207.107 610.035 206.596 610.03 206.485C609.976 205.397 610.149 204.65 610.148 203.674C610.148 203.472 610.011 203.664 610.013 203.492C610.016 202.906 610.1 202.293 610.114 201.733C610.12 201.482 610.02 201.524 610.037 201.294C610.078 200.742 610.141 200.255 610.256 199.721C610.266 199.672 610.374 200.008 610.396 199.6C610.432 198.939 610.558 198.121 610.497 197.356C610.479 197.129 610.256 197.111 610.431 196.632C610.468 196.531 610.731 196.673 610.524 196.098C610.489 196.001 610.217 195.037 610.439 194.58C610.498 194.459 610.731 194.155 610.709 193.882C610.705 193.845 610.578 193.987 610.576 193.762C610.571 192.967 610.62 192.136 610.618 191.32C610.617 191.102 610.479 191.421 610.482 191.096C610.489 190.203 610.569 189.091 610.646 188.22C610.674 187.9 610.768 188.126 610.78 188.103C610.979 187.735 610.742 187.502 610.733 187.377C610.681 186.596 610.822 186.01 610.823 185.293C610.823 185.095 610.7 185.23 610.691 185.19C610.607 184.778 610.804 185.091 610.839 184.834C610.936 184.114 610.961 183.307 610.978 182.575C610.984 182.307 610.835 182.603 610.842 182.361C610.881 180.934 610.958 179.451 611.094 178.062C611.119 177.8 611.217 177.97 611.243 177.916C611.427 177.547 611.223 176.985 611.206 176.857C611.132 176.276 611.235 176.055 611.239 175.545C611.262 173.05 611.457 169.977 611.597 167.627C611.779 164.565 611.982 162.191 612.083 159.268C612.089 159.082 611.942 159.263 611.946 159.103C612.002 157.035 612.145 155.002 612.195 152.93C612.199 152.759 612.056 152.999 612.059 152.726C612.063 152.165 612.101 151.457 612.168 150.893C612.2 150.618 612.297 150.993 612.327 150.716C612.398 150.071 612.438 149.378 612.445 148.713C612.448 148.43 612.295 148.851 612.309 148.483C612.404 145.98 612.488 143.52 612.773 140.999C612.792 140.826 613.074 140.686 613.037 140.315C612.962 140.284 612.872 140.281 612.791 140.265C612.793 140.22 612.794 140.174 612.796 140.128L613.154 141.082C610.64 138.505 608.246 135.862 605.763 133.239C605.657 133.127 605.735 133.421 605.53 133.204C604.338 131.953 603.151 130.767 602.035 129.388C601.924 129.252 602.172 129.14 601.787 128.793C601.719 128.732 601.157 128.192 600.978 128.085C600.953 128.071 600.964 128.257 600.789 128.078C599.769 127.036 598.734 125.912 597.783 124.809C597.629 124.631 597.894 124.724 597.785 124.596C597.015 123.691 596.054 122.825 595.355 121.925C594.888 121.322 595.241 121.373 595.119 120.932C595.102 120.869 594.781 120.526 594.856 120.422C595.042 120.158 595.45 120.082 595.63 119.782C595.669 119.717 595.178 119.316 595.562 119.464C595.589 119.475 595.946 119.765 596.067 119.805C596.151 119.833 596.146 119.642 596.295 119.721C596.443 119.8 596.486 120.001 596.714 120.15C596.942 120.298 596.967 120.113 597.344 120.483ZM596.798 192.121C596.684 192.541 597.133 192.594 597.017 192.144C597.011 192.123 596.803 192.099 596.798 192.121ZM595.728 141.595C595.541 142.144 595.84 142.512 595.985 142.124C596.13 141.736 595.785 141.427 595.728 141.595ZM595.472 135.936C595.329 136.577 595.967 136.665 595.825 135.984C595.816 135.945 595.48 135.899 595.472 135.936ZM596.455 122.242C596.455 122.234 596.226 121.985 596.216 121.984C595.989 121.952 596.447 122.448 596.455 122.242ZM595.204 130.321C595.122 130.522 595.232 131.094 595.334 130.844C595.416 130.643 595.306 130.071 595.204 130.321ZM596.75 213.915C596.743 213.922 596.742 214.164 596.78 214.159C596.901 214.14 596.86 213.804 596.75 213.915ZM595.008 120.773C595.011 122.184 594.503 123.05 594.532 121.512C594.537 121.234 594.711 122.109 594.752 121.754C594.825 121.104 594.487 120.68 594.65 120.016C594.68 119.895 595.008 120.692 595.008 120.775C595.008 120.774 595.008 120.774 595.008 120.773ZM596.264 192.372C596.258 192.381 596.259 192.716 596.265 192.724C596.411 192.903 596.409 192.227 596.264 192.372ZM603.941 218.344C603.962 218.35 604.701 218.107 604.721 218.088C605.029 217.735 603.534 218.226 603.941 218.344ZM595.489 169.806C595.339 169.444 595.313 169.006 595.488 168.711C595.485 169.075 595.491 169.441 595.489 169.806Z" fill="#D6DBFF"/>
<path d="M687.293 109.854L750.255 106.712L723.661 230.366L673 224.024L687.293 109.854Z" fill="#BFD4F5"/>
<path d="M750.255 106.712L773.619 120.661L745.141 233.055L723.661 230.366L750.255 106.712Z" fill="url(#paint10_linear_1077_1664)"/>
<path d="M680.102 174.784C679.276 179.778 679.656 183.838 678.766 189.94C677.877 196.042 677.298 196.9 676.526 203.919C675.753 210.937 674.558 217.907 674.358 221.05C674.27 222.439 674.1 223.264 673.901 224.137L673.113 223.123C674.214 223.374 675.391 223.672 677.871 223.91C682.317 224.336 684.992 224.748 688.842 225.42C692.693 226.092 704.574 227.742 708.931 228.054C713.287 228.365 718.173 229.383 721.13 229.849C722.051 229.994 722.773 230.126 723.326 230.238C723.56 230.285 723.665 230.336 723.66 230.373C723.66 230.373 723.66 230.373 723.66 230.373C723.654 230.419 723.479 230.443 723.175 230.41C721.697 230.254 719.484 230.052 716.86 229.893C711.968 229.595 711.48 229.186 704.906 228.525C698.332 227.863 694.355 227.689 686.669 226.517C680.874 225.634 678.38 225.781 672.864 225.113L671.763 224.96L671.911 223.888C672.129 222.088 672.434 219.966 672.889 217.303C674.74 206.479 673.983 205.22 675.221 194.358C676.459 183.495 678.671 169.864 679.448 163.319C680.225 156.775 681.22 147.979 682.499 138.724C683.699 130.047 684.769 119.413 686.129 109.708L686.266 108.718L687.234 108.682C687.887 108.659 688.536 108.638 689.18 108.62C699.491 108.319 714.066 107.862 720.802 107.707C727.538 107.552 729.18 107.511 735.649 107.077C739.368 106.828 744.499 106.632 748.841 106.649C751.027 106.658 750.541 106.846 748.351 107.034C745.149 107.308 742.511 107.363 740.868 107.65C737.586 108.223 736.19 108.45 732.008 108.42C727.826 108.391 725.889 109.029 723.455 109.088C721.021 109.147 721.045 108.827 708.698 109.689C698.351 110.411 691.92 110.81 687.355 111.092L688.523 110.008C688.423 110.887 688.332 111.696 688.247 112.451C687.723 117.108 686.233 126.784 685.383 134.374C684.534 141.965 682.514 157.36 681.899 163.591C681.284 169.822 680.928 169.79 680.102 174.784ZM736.268 176.171C735.486 178.859 735.886 181.193 735.049 184.493C734.211 187.794 733.647 188.193 732.931 192.025C732.214 195.857 731.082 199.602 730.905 201.338C730.728 203.075 730.121 203.132 729.729 205.568C729.337 208.004 728.949 209.448 728.311 211.514C727.674 213.582 726.124 220.02 725.845 222.422C725.565 224.824 724.595 227.424 724.154 229.018C724.017 229.515 723.892 229.902 723.785 230.196C723.74 230.321 723.691 230.373 723.654 230.365C723.654 230.365 723.654 230.365 723.654 230.365C723.609 230.355 723.585 230.253 723.614 230.087C723.759 229.279 723.944 228.065 724.085 226.615C724.347 223.909 724.746 223.694 725.356 220.096C725.966 216.498 726.113 214.289 727.217 210.139C728.322 205.989 727.681 204.843 729.435 199.026C731.189 193.21 730.436 192.396 731.586 186.472C732.737 180.547 734.828 173.206 735.552 169.641C736.277 166.076 737.2 161.278 738.402 156.262C739.603 151.246 740.646 144.959 742.052 139.439C743.457 133.919 745.413 126.109 746.372 122.512C747.33 118.916 747.561 118.039 748.205 114.517C748.575 112.493 749.23 109.735 749.961 107.444C750.33 106.291 750.432 106.593 750.254 107.795C749.993 109.552 749.612 110.959 749.62 111.895C749.636 113.765 749.626 114.557 748.909 116.759C748.192 118.962 748.492 120.137 748.149 121.438C747.806 122.738 747.499 122.649 746.303 129.378C745.107 136.107 744.381 139.781 743.895 142.322C743.409 144.863 742.002 150.085 741.214 154.228C740.425 158.37 738.534 166.729 737.967 170.141C737.401 173.552 737.05 173.484 736.268 176.171ZM758.531 183.998C757.444 187.475 757.595 190.468 756.385 194.735C755.176 199.002 754.559 199.531 753.414 204.479C752.269 209.427 750.711 214.273 750.342 216.512C749.973 218.75 749.351 218.839 748.688 221.983C748.024 225.126 747.473 226.994 746.6 229.669C746.347 230.446 745.975 231.699 745.562 233.162L745.476 233.528L745.087 233.486C741.415 232.925 736.467 232.272 734.238 232.159C731.097 231.999 727.597 231.155 725.474 230.793C724.813 230.681 724.295 230.575 723.899 230.483C723.731 230.443 723.657 230.396 723.662 230.36C723.662 230.36 723.662 230.36 723.662 230.359C723.668 230.314 723.795 230.284 724.014 230.305C725.078 230.41 726.672 230.534 728.565 230.603C732.094 230.73 732.433 231.12 737.166 231.551C740.231 231.83 742.516 231.943 745.244 232.233L744.338 232.852C744.678 231.397 745.085 229.819 745.64 227.927C747.214 222.56 746.688 221.102 749.102 213.575C751.517 206.048 750.841 205.02 752.655 197.369C754.469 189.717 757.392 180.22 758.516 175.615C759.64 171.011 761.101 164.814 762.867 158.33C764.634 151.847 766.378 143.732 768.407 136.595C769.793 131.718 771.557 125.457 772.971 120.497L773.276 121.235C771.262 119.951 769.494 118.818 768.207 117.983C764.141 115.344 763.148 114.704 759.088 112.409C756.754 111.089 753.615 109.145 751.057 107.346C749.77 106.441 750.159 106.482 751.555 107.225C753.598 108.311 755.187 109.348 756.313 109.783C758.565 110.651 759.514 111.035 761.97 112.778C764.426 114.522 765.918 114.783 767.388 115.733C768.689 116.574 768.692 116.874 774.048 119.942L774.577 120.244L774.431 120.867C774.247 121.653 774.044 122.54 773.819 123.544C771.871 132.231 770.734 136.976 769.963 140.258C769.192 143.539 767.196 150.293 765.943 155.642C764.691 160.991 761.86 171.793 760.913 176.197C759.966 180.6 759.617 180.521 758.531 183.998Z" fill="#9BB6FF"/>
<path fill-rule="evenodd" clip-rule="evenodd" d="M589.196 83.7774C588.054 78.5546 592.293 73.984 591.804 76.922C592.65 79.4638 593.81 80.7125 594.896 81.4796C595.668 81.0176 596.521 80.2572 597.13 78.5675C596.804 76.7594 599.63 79.5721 598.869 82.7862C598.869 83.605 598.537 84.3515 597.992 84.919C597.91 87.504 597.128 88.9999 594.413 89.0001C591.532 89.0001 589.196 86.6618 589.196 83.7774Z" fill="url(#paint11_linear_1077_1664)"/>
<defs>
<linearGradient id="paint0_linear_1077_1664" x1="710" y1="94" x2="710" y2="111" gradientUnits="userSpaceOnUse">
<stop offset="0.302885" stop-color="#FFAA00" stop-opacity="0.65"/>
<stop offset="1" stop-color="#FF0000"/>
</linearGradient>
<linearGradient id="paint1_linear_1077_1664" x1="710" y1="94" x2="710" y2="111" gradientUnits="userSpaceOnUse">
<stop stop-color="#FCB934"/>
<stop offset="1" stop-color="#FF5500"/>
</linearGradient>
<linearGradient id="paint2_linear_1077_1664" x1="650" y1="51" x2="650" y2="86" gradientUnits="userSpaceOnUse">
<stop offset="0.302885" stop-color="#FFAA00" stop-opacity="0.65"/>
<stop offset="1" stop-color="#FF0000"/>
</linearGradient>
<linearGradient id="paint3_linear_1077_1664" x1="650" y1="51" x2="650" y2="86" gradientUnits="userSpaceOnUse">
<stop stop-color="#FCB934"/>
<stop offset="1" stop-color="#FF5500"/>
</linearGradient>
<linearGradient id="paint4_linear_1077_1664" x1="680.244" y1="60.3765" x2="676.151" y2="79.9533" gradientUnits="userSpaceOnUse">
<stop offset="0.302885" stop-color="#FFAA00" stop-opacity="0.65"/>
<stop offset="1" stop-color="#FF0000"/>
</linearGradient>
<linearGradient id="paint5_linear_1077_1664" x1="680.244" y1="60.3765" x2="676.151" y2="79.9533" gradientUnits="userSpaceOnUse">
<stop stop-color="#FCB934"/>
<stop offset="1" stop-color="#FF5500"/>
</linearGradient>
<linearGradient id="paint6_linear_1077_1664" x1="764.638" y1="106.764" x2="761.281" y2="115.605" gradientUnits="userSpaceOnUse">
<stop offset="0.302885" stop-color="#FFAA00" stop-opacity="0.65"/>
<stop offset="1" stop-color="#FF0000"/>
</linearGradient>
<linearGradient id="paint7_linear_1077_1664" x1="764.638" y1="106.764" x2="761.281" y2="115.605" gradientUnits="userSpaceOnUse">
<stop stop-color="#FCB934"/>
<stop offset="1" stop-color="#FF5500"/>
</linearGradient>
<linearGradient id="paint8_linear_1077_1664" x1="645" y1="71" x2="645" y2="225" gradientUnits="userSpaceOnUse">
<stop stop-color="#77A3E2"/>
<stop offset="1" stop-color="#335987"/>
</linearGradient>
<linearGradient id="paint9_linear_1077_1664" x1="597.558" y1="119.645" x2="610.454" y2="218.81" gradientUnits="userSpaceOnUse">
<stop stop-color="#78A1D4"/>
<stop offset="1" stop-color="#1D4A80"/>
</linearGradient>
<linearGradient id="paint10_linear_1077_1664" x1="731.815" y1="104.404" x2="716.163" y2="229.428" gradientUnits="userSpaceOnUse">
<stop stop-color="#7DABD6"/>
<stop offset="1" stop-color="#386D9C"/>
</linearGradient>
<linearGradient id="paint11_linear_1077_1664" x1="596" y1="78" x2="596" y2="86.0001" gradientUnits="userSpaceOnUse">
<stop stop-color="#FFCE2C"/>
<stop offset="1" stop-color="#D26333"/>
</linearGradient>
</defs>
</svg>
