<svg width="1440" height="1178" viewBox="0 0 1440 1178" fill="none" xmlns="http://www.w3.org/2000/svg">
<g style="mix-blend-mode:screen" opacity="0.49">
<path d="M1075.76 771.5C1052.26 738 1008.76 771.5 1018.26 788.5C982.261 777.299 957.261 790 979.261 802.5C1001.26 815 1661.66 845.969 1663.26 788.5C1663.66 774.099 1636.09 774.5 1622.26 776.5C1607.46 754.1 1584.76 758.167 1575.26 763C1560.06 721.4 1528.93 735 1515.26 747C1525.09 713.833 1515.26 619 1392.76 619C1269.04 619 1244.76 682.167 1260.26 731C1222.76 683 1170.26 694.833 1146.26 737.5C1096.76 728 1075.76 747.5 1075.76 771.5Z" fill="url(#paint0_linear_1035_15)"/>
</g>
<g style="mix-blend-mode:screen" opacity="0.49">
<path d="M-290.146 1020.42C-317.032 986.94 -366.799 1020.42 -355.93 1037.41C-397.116 1026.22 -425.718 1038.91 -400.549 1051.41C-375.379 1063.9 380.169 1094.85 381.995 1037.41C382.453 1023.02 350.914 1023.42 335.088 1025.42C318.156 1003.03 292.186 1007.1 281.317 1011.93C263.927 970.348 228.308 983.941 212.673 995.935C223.923 962.785 212.673 868 72.5244 868C-69.0189 868 -96.798 931.135 -79.065 979.943C-121.968 931.967 -182.032 943.795 -209.489 986.44C-266.121 976.945 -290.146 996.435 -290.146 1020.42Z" fill="url(#paint1_linear_1035_15)"/>
</g>
<path d="M1057 209.975C1020.2 169.175 953 191.476 950.5 209.975C915 209.975 869 209.975 869 230.475C869 265.443 964.333 257.309 999 245.475C1062.5 280.975 1145.5 237.475 1145.5 237.475C1145.5 237.475 1265 255.975 1290.5 230.475C1311 209.975 1238.33 208.309 1199.5 209.975C1167.1 179.575 1091 197.309 1057 209.975Z" fill="url(#paint2_linear_1035_15)"/>
<path d="M638.935 591.051C598.135 516.651 489.435 571.051 489.435 609.051C472.435 600.551 460.935 591.051 429.435 617.551C423.956 622.16 429.435 636.051 429.435 636.051C439.648 646.484 663.404 656.287 727.435 636.051C727.435 581.551 664.935 577.051 638.935 591.051Z" fill="url(#paint3_linear_1035_15)"/>
<path d="M299.454 916.472C326.402 867.332 398.197 903.262 398.197 928.361C409.425 922.747 417.021 916.472 437.826 933.975C441.445 937.019 437.826 946.194 437.826 946.194C431.081 953.085 283.292 959.56 241 946.194C241 910.197 282.281 907.225 299.454 916.472Z" fill="url(#paint4_linear_1035_15)"/>
<path d="M162.331 160.468C126.482 164.369 111.805 203.65 111.805 220.37C74.1917 202.725 45.6336 220.37 45.6336 259.373C36.3464 243.399 14.8192 246.061 12.807 259.373C-21.9271 236.712 -35.8733 263.246 -45.0057 278.183C-78.7491 272.301 -140.339 271.357 -116.749 314.635C-93.1597 357.913 -20.5495 336.692 12.807 320.672C57.1997 371.566 147.548 341.878 187.174 320.672C223.022 350.019 296.376 339.865 328.571 331.12C349.932 347.605 415.638 334.835 428.64 314.635C439.042 298.475 412.543 291.495 397.993 290.024C388.52 271.264 371.292 282.207 363.862 290.024C357.361 261.791 337.626 270.366 328.571 278.183C302.196 231.004 275.17 258.525 264.954 278.183C264.103 269.128 260.543 244.889 253.113 220.37C243.826 189.723 207.141 155.592 162.331 160.468Z" fill="url(#paint5_linear_1035_15)"/>
<path d="M1109.61 989.469C1056.45 993.374 1034.69 1032.7 1034.69 1049.44C978.917 1031.78 936.571 1049.44 936.571 1088.49C922.799 1072.5 890.878 1075.16 887.895 1088.49C836.39 1065.8 815.71 1092.37 802.169 1107.33C752.133 1101.44 660.807 1100.49 695.786 1143.82C730.765 1187.15 838.433 1165.9 887.895 1149.87C953.721 1200.82 1087.69 1171.1 1146.45 1149.87C1199.61 1179.25 1308.38 1169.08 1356.12 1160.33C1387.79 1176.83 1485.22 1164.05 1504.5 1143.82C1519.92 1127.64 1480.63 1120.65 1459.06 1119.18C1445.01 1100.4 1419.46 1111.35 1408.45 1119.18C1398.81 1090.91 1369.54 1099.5 1356.12 1107.33C1317.01 1060.09 1276.93 1087.64 1261.78 1107.33C1260.52 1098.26 1255.24 1073.99 1244.23 1049.44C1230.45 1018.76 1176.06 984.587 1109.61 989.469Z" fill="url(#paint6_linear_1035_15)"/>
<path d="M1411.02 0.642167C1362.86 5.99389 1343.14 59.8883 1343.14 82.8293C1292.6 58.6191 1254.23 82.8293 1254.23 136.341C1241.75 114.425 1212.83 118.078 1210.12 136.341C1163.46 105.25 1144.72 141.656 1132.45 162.149C1087.11 154.079 1004.36 152.784 1036.05 212.162C1067.75 271.541 1165.31 242.425 1210.12 220.445C1269.77 290.272 1391.16 249.539 1444.4 220.445C1492.57 260.71 1591.12 246.779 1634.38 234.78C1663.08 257.397 1751.36 239.877 1768.83 212.162C1782.81 189.991 1747.2 180.413 1727.65 178.396C1714.92 152.656 1691.78 167.671 1681.8 178.396C1673.06 139.659 1646.54 151.425 1634.38 162.149C1598.94 97.419 1562.63 135.178 1548.9 162.149C1547.76 149.726 1542.98 116.469 1532.99 82.8293C1520.52 40.7801 1471.23 -6.04748 1411.02 0.642167Z" fill="url(#paint7_linear_1035_15)"/>
<defs>
<linearGradient id="paint0_linear_1035_15" x1="1355.5" y1="619" x2="1355.5" y2="855" gradientUnits="userSpaceOnUse">
<stop stop-color="#DAAFED"/>
<stop offset="1" stop-color="#7C6487" stop-opacity="0"/>
</linearGradient>
<linearGradient id="paint1_linear_1035_15" x1="29.895" y1="868" x2="29.895" y2="1103.88" gradientUnits="userSpaceOnUse">
<stop stop-color="#DAAFED"/>
<stop offset="1" stop-color="#7C6487" stop-opacity="0"/>
</linearGradient>
<linearGradient id="paint2_linear_1035_15" x1="1105.5" y1="147" x2="1105.1" y2="271.146" gradientUnits="userSpaceOnUse">
<stop stop-color="#DAAFED"/>
<stop offset="1" stop-color="#7C6487" stop-opacity="0"/>
</linearGradient>
<linearGradient id="paint3_linear_1035_15" x1="594.935" y1="518.551" x2="593.868" y2="663.03" gradientUnits="userSpaceOnUse">
<stop stop-color="#DAAFED"/>
<stop offset="1" stop-color="#7C6487" stop-opacity="0"/>
</linearGradient>
<linearGradient id="paint4_linear_1035_15" x1="328.515" y1="868.586" x2="329.219" y2="964.014" gradientUnits="userSpaceOnUse">
<stop stop-color="#DAAFED"/>
<stop offset="1" stop-color="#7C6487" stop-opacity="0"/>
</linearGradient>
<linearGradient id="paint5_linear_1035_15" x1="185.149" y1="160" x2="185.149" y2="379.349" gradientUnits="userSpaceOnUse">
<stop stop-color="#DAAFED"/>
<stop offset="1" stop-color="#7C6487" stop-opacity="0"/>
</linearGradient>
<linearGradient id="paint6_linear_1035_15" x1="1139.5" y1="901" x2="1143.45" y2="1208.61" gradientUnits="userSpaceOnUse">
<stop stop-color="#DAAFED"/>
<stop offset="1" stop-color="#7C6487" stop-opacity="0"/>
</linearGradient>
<linearGradient id="paint7_linear_1035_15" x1="1441.68" y1="1.49568e-05" x2="1441.68" y2="300.951" gradientUnits="userSpaceOnUse">
<stop stop-color="#DAAFED"/>
<stop offset="1" stop-color="#7C6487" stop-opacity="0"/>
</linearGradient>
</defs>
</svg>
