<svg width="1440" height="881" viewBox="0 0 1440 881" fill="none" xmlns="http://www.w3.org/2000/svg">
<mask id="path-1-outside-1_930_1080" maskUnits="userSpaceOnUse" x="-119.256" y="-2.00658" width="901.755" height="873.707" fill="black">
<rect fill="white" x="-119.256" y="-2.00658" width="901.755" height="873.707"/>
<path d="M160.203 336.398C163.145 268.088 201.278 203.264 250.265 158.472C299.258 113.68 358.303 86.1844 417.165 63.0402C439.202 54.3749 462.28 46.1047 484.727 49.1227C507.173 52.1461 528.732 69.7607 530.35 95.0693C532.74 132.415 494.054 159.499 460.581 167.01C427.109 174.521 389.801 174.495 363.53 200.302C333.924 229.383 331.536 278.046 331.595 320.45C331.597 324.147 331.703 328.15 333.789 330.846C336.748 334.66 342.213 334.17 346.888 333.396C397.737 324.985 454.328 318.952 493.029 352.748C516.641 373.37 529.519 405.793 550.569 429.59C582.823 466.06 634.338 482.813 652.661 530.377C660.595 550.967 661.195 575.376 671.841 594.21C680.546 609.612 695.939 621.626 696.651 640.377C697.491 662.517 674.661 681.056 655.035 678.853C635.404 676.656 620.374 659.493 611.773 640.157C603.177 620.821 599.532 598.936 593.079 578.446C589.777 567.968 585.397 557.367 577.289 551.159C568.993 544.807 558.112 544.024 548.494 540.352C531.716 533.949 519.235 518.981 503.928 509.328C488.62 499.674 466.394 496.831 453.585 512.283C502.132 588.8 497.166 705.075 441.955 784.714C427.853 790.972 414.279 775.086 412.669 758.79C411.058 742.494 416.662 725.833 417.724 709.258C421.866 644.669 359.346 602.493 351.643 539.3C341.207 542.481 330.777 545.657 320.341 548.838C327.044 597.968 333.743 648.249 325.23 698.299C316.722 748.35 289.939 799.002 247.816 820.321C235.846 826.383 218.916 828.046 213.869 815.345C210.666 807.289 214.165 797.569 217.239 788.934C241.494 720.787 239.786 643.536 212.637 581.093C203.294 559.605 187.906 537.854 165.924 537.882C146.237 537.904 129.306 555.316 114.859 571.528C79.6737 611.01 44.6428 650.659 9.75613 690.471C-7.0462 678.596 -29.2822 681.172 -49.4654 678.328C-69.6486 675.484 -91.8443 661.654 -90.6795 638.628C-89.457 614.412 -64.8436 600.579 -46.7006 585.875C-29.7786 572.164 -16.0524 553.317 -7.58064 532.16C1.16355 510.328 4.26112 486.635 11.3731 464.188C32.6253 397.11 92.7141 345.073 154.995 339.81"/>
</mask>
<path d="M160.203 336.398C163.145 268.088 201.278 203.264 250.265 158.472C299.258 113.68 358.303 86.1844 417.165 63.0402C439.202 54.3749 462.28 46.1047 484.727 49.1227C507.173 52.1461 528.732 69.7607 530.35 95.0693C532.74 132.415 494.054 159.499 460.581 167.01C427.109 174.521 389.801 174.495 363.53 200.302C333.924 229.383 331.536 278.046 331.595 320.45C331.597 324.147 331.703 328.15 333.789 330.846C336.748 334.66 342.213 334.17 346.888 333.396C397.737 324.985 454.328 318.952 493.029 352.748C516.641 373.37 529.519 405.793 550.569 429.59C582.823 466.06 634.338 482.813 652.661 530.377C660.595 550.967 661.195 575.376 671.841 594.21C680.546 609.612 695.939 621.626 696.651 640.377C697.491 662.517 674.661 681.056 655.035 678.853C635.404 676.656 620.374 659.493 611.773 640.157C603.177 620.821 599.532 598.936 593.079 578.446C589.777 567.968 585.397 557.367 577.289 551.159C568.993 544.807 558.112 544.024 548.494 540.352C531.716 533.949 519.235 518.981 503.928 509.328C488.62 499.674 466.394 496.831 453.585 512.283C502.132 588.8 497.166 705.075 441.955 784.714C427.853 790.972 414.279 775.086 412.669 758.79C411.058 742.494 416.662 725.833 417.724 709.258C421.866 644.669 359.346 602.493 351.643 539.3C341.207 542.481 330.777 545.657 320.341 548.838C327.044 597.968 333.743 648.249 325.23 698.299C316.722 748.35 289.939 799.002 247.816 820.321C235.846 826.383 218.916 828.046 213.869 815.345C210.666 807.289 214.165 797.569 217.239 788.934C241.494 720.787 239.786 643.536 212.637 581.093C203.294 559.605 187.906 537.854 165.924 537.882C146.237 537.904 129.306 555.316 114.859 571.528C79.6737 611.01 44.6428 650.659 9.75613 690.471C-7.0462 678.596 -29.2822 681.172 -49.4654 678.328C-69.6486 675.484 -91.8443 661.654 -90.6795 638.628C-89.457 614.412 -64.8436 600.579 -46.7006 585.875C-29.7786 572.164 -16.0524 553.317 -7.58064 532.16C1.16355 510.328 4.26112 486.635 11.3731 464.188C32.6253 397.11 92.7141 345.073 154.995 339.81" fill="url(#paint0_linear_930_1080)"/>
<path d="M250.265 158.472L246.946 154.892L246.945 154.892L250.265 158.472ZM417.165 63.0402L418.836 67.6486L418.836 67.6486L417.165 63.0402ZM484.727 49.1227L485.624 44.1967L485.623 44.1965L484.727 49.1227ZM530.35 95.0693L525.335 95.6046L525.335 95.6051L530.35 95.0693ZM363.53 200.302L366.988 203.75L366.988 203.75L363.53 200.302ZM331.595 320.45L336.619 320.223L336.619 320.22L331.595 320.45ZM333.789 330.846L329.749 333.978L329.752 333.983L333.789 330.846ZM346.888 333.396L346.278 328.494L346.277 328.494L346.888 333.396ZM493.029 352.748L496.449 348.958L496.449 348.957L493.029 352.748ZM550.569 429.59L554.414 426.223L554.414 426.223L550.569 429.59ZM652.661 530.377L647.955 532.327L647.955 532.328L652.661 530.377ZM671.841 594.21L676.254 591.638L676.253 591.638L671.841 594.21ZM696.651 640.377L691.629 640.786L691.629 640.786L696.651 640.377ZM655.035 678.853L655.822 673.914L655.821 673.914L655.035 678.853ZM611.773 640.157L607.158 642.327L607.159 642.328L611.773 640.157ZM593.079 578.446L597.882 576.775L597.882 576.774L593.079 578.446ZM577.289 551.159L580.475 547.177L577.289 551.159ZM548.494 540.352L550.484 535.704L550.483 535.704L548.494 540.352ZM453.585 512.283L449.757 509.236L447.402 512.077L449.294 515.059L453.585 512.283ZM441.955 784.714L443.838 789.235L445.206 788.627L446.059 787.398L441.955 784.714ZM417.724 709.258L412.709 709.167L412.709 709.167L417.724 709.258ZM351.643 539.3L356.632 538.487L355.945 532.854L350.363 534.555L351.643 539.3ZM320.341 548.838L319.061 544.093L314.771 545.4L315.36 549.719L320.341 548.838ZM325.23 698.299L320.275 697.69L320.275 697.691L325.23 698.299ZM247.816 820.321L245.689 815.917L245.688 815.918L247.816 820.321ZM213.869 815.345L218.557 813.348L218.557 813.347L213.869 815.345ZM217.239 788.934L221.971 790.395L221.971 790.394L217.239 788.934ZM212.637 581.093L217.267 578.959L217.267 578.958L212.637 581.093ZM165.924 537.882L165.704 542.852L165.705 542.852L165.924 537.882ZM114.859 571.528L118.562 574.72L118.562 574.72L114.859 571.528ZM9.75613 690.471L6.71507 694.56L10.3947 697.161L13.489 693.629L9.75613 690.471ZM-90.6795 638.628L-85.6609 638.653L-85.6608 638.652L-90.6795 638.628ZM-46.7006 585.875L-49.7783 582.087L-49.7788 582.087L-46.7006 585.875ZM-7.58064 532.16L-12.2413 530.511L-12.2415 530.511L-7.58064 532.16ZM11.3731 464.188L16.1623 465.478L16.1623 465.478L11.3731 464.188ZM160.203 336.398L165.223 336.386C168.094 269.738 205.367 206.14 253.585 162.051L250.265 158.472L246.945 154.892C197.189 200.387 158.196 266.439 155.183 336.41L160.203 336.398ZM250.265 158.472L253.585 162.051C301.827 117.946 360.115 90.7379 418.836 67.6486L417.165 63.0402L415.493 58.4317C356.491 81.631 296.688 109.414 246.946 154.892L250.265 158.472ZM417.165 63.0402L418.836 67.6486C441.009 58.93 462.875 51.2313 483.832 54.0488L484.727 49.1227L485.623 44.1965C461.685 40.9782 437.394 49.8198 415.493 58.4318L417.165 63.0402ZM484.727 49.1227L483.831 54.0487C504.498 56.8325 523.892 73.0285 525.335 95.6046L530.35 95.0693L535.365 94.5339C533.573 66.493 509.849 47.4597 485.624 44.1967L484.727 49.1227ZM530.35 95.0693L525.335 95.6051C526.405 112.335 518.34 127.009 505.597 138.645C492.804 150.326 475.63 158.585 459.681 162.164L460.581 167.01L461.481 171.855C479.005 167.923 497.91 158.885 512.231 145.81C526.601 132.689 536.684 115.148 535.365 94.5335L530.35 95.0693ZM460.581 167.01L459.681 162.164C451.48 164.005 443.031 165.386 434.361 166.852C425.753 168.308 416.954 169.844 408.343 171.976C391.093 176.247 374.164 183.01 360.071 196.854L363.53 200.302L366.988 203.75C379.167 191.787 394.027 185.659 410.366 181.614C418.551 179.587 426.997 178.108 435.619 176.65C444.179 175.202 452.946 173.77 461.481 171.855L460.581 167.01ZM363.53 200.302L360.071 196.854C344.234 212.41 335.914 232.97 331.513 254.612C327.114 276.248 326.54 299.447 326.57 320.681L331.595 320.45L336.619 320.22C336.59 299.049 337.181 276.715 341.363 256.148C345.543 235.587 353.22 217.275 366.988 203.75L363.53 200.302ZM331.595 320.45L326.57 320.677C326.571 322.516 326.591 324.793 326.946 327.013C327.303 329.248 328.047 331.78 329.749 333.978L333.789 330.846L337.83 327.715C337.445 327.217 337.093 326.399 336.875 325.033C336.654 323.654 336.621 322.081 336.619 320.223L331.595 320.45ZM333.789 330.846L329.752 333.983C332.25 337.203 335.74 338.43 338.914 338.782C341.975 339.121 345.106 338.694 347.499 338.298L346.888 333.396L346.277 328.494C343.996 328.872 342.056 329.077 340.476 328.901C339.009 328.739 338.287 328.304 337.826 327.71L333.789 330.846ZM346.888 333.396L347.498 338.298C398.673 329.833 452.844 324.433 489.61 356.539L493.029 352.748L496.449 348.957C455.812 313.471 396.802 320.137 346.278 328.494L346.888 333.396ZM493.029 352.748L489.609 356.539C500.871 366.375 509.69 379.132 518.487 392.783C527.172 406.258 535.898 420.72 546.723 432.958L550.569 429.59L554.414 426.223C544.189 414.663 535.952 401.015 527.032 387.174C518.225 373.509 508.799 359.744 496.449 348.958L493.029 352.748ZM550.569 429.59L546.723 432.957C563.25 451.645 584.898 465.454 603.655 479.806C622.691 494.373 639.277 509.799 647.955 532.327L652.661 530.377L657.367 528.427C647.723 503.391 629.39 486.659 610.024 471.841C590.378 456.808 570.142 444.006 554.414 426.223L550.569 429.59ZM652.661 530.377L647.955 532.328C651.76 542.203 653.801 552.97 656.326 564.235C658.803 575.285 661.733 586.706 667.429 596.783L671.841 594.21L676.253 591.638C671.303 582.881 668.61 572.68 666.142 561.67C663.722 550.874 661.496 539.142 657.367 528.427L652.661 530.377ZM671.841 594.21L667.429 596.783C669.756 600.901 672.496 604.732 675.202 608.354C677.964 612.051 680.607 615.425 683.055 618.967C687.897 625.975 691.325 632.767 691.629 640.786L696.651 640.377L701.672 639.968C701.265 629.236 696.641 620.646 691.433 613.109C688.855 609.378 685.973 605.689 683.379 602.216C680.728 598.667 678.279 595.221 676.254 591.638L671.841 594.21ZM696.651 640.377L691.629 640.786C691.981 650.058 687.381 658.808 680.263 665.105C673.101 671.441 663.921 674.823 655.822 673.914L655.035 678.853L654.248 683.793C665.775 685.087 677.823 680.3 686.773 672.382C695.766 664.425 702.161 652.836 701.672 639.968L696.651 640.377ZM655.035 678.853L655.821 673.914C638.768 672.005 624.754 656.795 616.388 637.986L611.773 640.157L607.159 642.328C615.994 662.192 632.04 681.307 654.249 683.793L655.035 678.853ZM611.773 640.157L616.388 637.986C612.246 628.669 609.262 618.658 606.484 608.263C603.737 597.984 601.15 587.151 597.882 576.775L593.079 578.446L588.275 580.117C591.46 590.23 593.923 600.585 596.76 611.204C599.568 621.709 602.704 632.308 607.158 642.327L611.773 640.157ZM593.079 578.446L597.882 576.774C594.575 566.277 589.854 554.358 580.475 547.177L577.289 551.159L574.103 555.141C580.939 560.375 584.98 569.658 588.275 580.117L593.079 578.446ZM577.289 551.159L580.475 547.177C575.623 543.462 570.144 541.478 565.008 539.978C559.585 538.394 555.068 537.454 550.484 535.704L548.494 540.352L546.503 545C551.537 546.922 557.27 548.21 561.767 549.523C566.55 550.92 570.66 552.504 574.104 555.141L577.289 551.159ZM548.494 540.352L550.483 535.704C542.841 532.787 536.012 527.853 528.938 522.149C522.042 516.59 514.723 510.121 506.762 505.101L503.928 509.328L501.093 513.554C508.439 518.187 515.014 524.029 522.381 529.968C529.568 535.762 537.368 541.514 546.504 545L548.494 540.352ZM503.928 509.328L506.762 505.101C498.482 499.879 488.208 496.404 478.038 496.42C467.754 496.436 457.365 500.058 449.757 509.236L453.585 512.283L457.412 515.33C462.613 509.056 469.743 506.374 477.601 506.362C485.573 506.35 494.066 509.123 501.093 513.554L503.928 509.328ZM453.585 512.283L449.294 515.059C496.763 589.877 491.944 704.004 437.852 782.03L441.955 784.714L446.059 787.398C502.387 706.146 507.5 587.723 457.875 509.507L453.585 512.283ZM441.955 784.714L440.073 780.194C435.568 782.193 430.731 780.978 426.236 776.594C421.713 772.181 418.371 765.183 417.67 758.087L412.669 758.79L407.667 759.493C408.576 768.693 412.827 777.786 419.018 783.826C425.239 789.894 434.24 793.493 443.838 789.235L441.955 784.714ZM412.669 758.79L417.67 758.087C416.931 750.604 417.835 742.896 419.156 734.694C420.446 726.679 422.187 717.952 422.738 709.35L417.724 709.258L412.709 709.167C412.198 717.139 410.606 725.03 409.232 733.564C407.889 741.909 406.796 750.68 407.667 759.493L412.669 758.79ZM417.724 709.258L422.738 709.35C424.917 675.379 409.511 647.527 393.466 621.06C377.183 594.2 360.332 568.834 356.632 538.487L351.643 539.3L346.654 540.113C350.658 572.959 368.918 600.278 384.785 626.451C400.891 653.018 414.673 678.548 412.709 709.167L417.724 709.258ZM351.643 539.3L350.363 534.555C345.146 536.146 339.929 537.735 334.713 539.324C329.496 540.913 324.279 542.502 319.061 544.093L320.341 548.838L321.621 553.583C326.838 551.993 332.054 550.404 337.271 548.814C342.487 547.225 347.704 545.636 352.923 544.045L351.643 539.3ZM320.341 548.838L315.36 549.719C322.08 598.968 328.641 648.509 320.275 697.69L325.23 698.299L330.184 698.908C338.845 647.988 332.009 596.968 325.321 547.957L320.341 548.838ZM325.23 698.299L320.275 697.691C311.903 746.942 285.692 795.67 245.689 815.917L247.816 820.321L249.943 824.726C294.185 802.333 321.54 749.758 330.184 698.907L325.23 698.299ZM247.816 820.321L245.688 815.918C240.315 818.639 234.024 820.249 228.801 819.909C223.765 819.581 220.23 817.558 218.557 813.348L213.869 815.345L209.181 817.341C212.555 825.833 220.008 829.329 227.692 829.829C235.189 830.318 243.348 828.066 249.944 824.725L247.816 820.321ZM213.869 815.345L218.557 813.347C217.421 810.491 217.372 807.087 218.137 803.061C218.909 799 220.405 794.793 221.971 790.395L217.239 788.934L212.508 787.473C210.999 791.709 209.208 796.68 208.263 801.652C207.311 806.659 207.114 812.142 209.182 817.342L213.869 815.345ZM217.239 788.934L221.971 790.394C246.635 721.099 244.921 642.563 217.267 578.959L212.637 581.093L208.006 583.228C234.65 644.51 236.354 720.474 212.508 787.473L217.239 788.934ZM212.637 581.093L217.267 578.958C212.478 567.943 206.03 556.587 197.744 547.919C189.447 539.24 178.938 532.895 166.144 532.911L165.924 537.882L165.705 542.852C174.892 542.841 183.068 547.357 190.296 554.919C197.535 562.492 203.453 572.756 208.006 583.229L212.637 581.093ZM165.924 537.882L166.145 532.911C154.746 532.924 144.488 537.978 135.504 544.724C126.537 551.458 118.385 560.224 111.155 568.337L114.859 571.528L118.562 574.72C125.78 566.62 133.317 558.574 141.348 552.543C149.364 546.525 157.415 542.862 165.704 542.852L165.924 537.882ZM114.859 571.528L111.155 568.337C75.9602 607.829 40.9194 647.49 6.02325 687.313L9.75613 690.471L13.489 693.629C48.3661 653.828 83.3872 614.19 118.562 574.72L114.859 571.528ZM9.75613 690.471L12.7972 686.383C3.44266 679.771 -7.26076 677.311 -17.7741 676.077C-23.0205 675.46 -28.366 675.136 -33.4999 674.796C-38.6908 674.451 -43.6963 674.089 -48.5386 673.406L-49.4654 678.328L-50.3922 683.25C-45.1429 683.99 -39.8003 684.372 -34.6203 684.715C-29.3834 685.063 -24.3353 685.37 -19.3995 685.95C-9.54848 687.107 -0.73273 689.296 6.71507 694.56L9.75613 690.471ZM-49.4654 678.328L-48.5386 673.406C-57.8652 672.092 -67.5765 668.233 -74.7179 662.204C-81.788 656.236 -86.1511 648.345 -85.6609 638.653L-90.6795 638.628L-95.6981 638.603C-96.3726 651.937 -90.2204 662.474 -81.4379 669.888C-72.7269 677.242 -61.2488 681.72 -50.3922 683.25L-49.4654 678.328ZM-90.6795 638.628L-85.6608 638.652C-85.1413 628.361 -79.7019 620.02 -71.5989 612.154C-67.5411 608.215 -62.925 604.503 -58.088 600.791C-53.3429 597.15 -48.2273 593.395 -43.6223 589.663L-46.7006 585.875L-49.7788 582.087C-54.2454 585.707 -59.0101 589.194 -64.0209 593.039C-68.9398 596.814 -73.9553 600.83 -78.4715 605.214C-87.5166 613.995 -94.9951 624.678 -95.6981 638.603L-90.6795 638.628ZM-46.7006 585.875L-43.6228 589.663C-25.955 575.348 -11.704 555.745 -2.91979 533.808L-7.58064 532.16L-12.2415 530.511C-20.4008 550.888 -33.6022 568.98 -49.7783 582.087L-46.7006 585.875ZM-7.58064 532.16L-2.91998 533.808C1.60089 522.521 4.63175 510.83 7.39412 499.348C10.1815 487.761 12.6769 476.479 16.1623 465.478L11.3731 464.188L6.58396 462.898C2.95732 474.345 0.347999 486.132 -2.37749 497.462C-5.12796 508.895 -8.01798 519.967 -12.2413 530.511L-7.58064 532.16ZM11.3731 464.188L16.1623 465.478C36.8807 400.084 95.3603 349.819 155.198 344.763L154.995 339.81L154.792 334.857C90.0678 340.327 28.37 394.135 6.58395 462.898L11.3731 464.188Z" fill="url(#paint1_linear_930_1080)" mask="url(#path-1-outside-1_930_1080)"/>
<path d="M163.298 336.689C164.736 304.964 173.747 273.766 188.095 245.079C202.304 216.671 221.623 190.741 244.031 168.67C267.341 145.715 294.001 126.725 321.9 110.776C349.839 94.8038 379.077 81.7403 408.612 69.8669C436.824 58.525 470.568 43.6253 499.188 56.7898C510.219 61.8611 519.782 70.8602 524.391 82.6668C529.014 94.5134 527.975 108.181 522.218 120.03C516.417 131.968 506.394 141.418 495.726 148.554C484.498 156.067 471.876 161.236 459.058 164.039C432.728 169.801 404.718 170.834 380.087 184.274C367.802 190.978 357.162 200.738 349.433 212.865C341.704 224.986 336.916 238.672 333.865 252.603C330.651 267.285 329.375 282.258 328.836 297.119C328.566 304.541 328.484 311.953 328.487 319.362C328.486 326.429 329.193 334.4 336.649 336.58C343.248 338.51 351.188 335.949 357.937 334.912C365.433 333.764 372.934 332.732 380.451 331.916C395.412 330.288 410.447 329.51 425.319 330.595C439.679 331.644 453.846 334.47 466.959 340.182C480.274 345.986 491.873 354.817 501.43 365.947C520.171 387.765 532.061 415.253 552.034 436.002C569.907 454.566 591.895 467.83 611.74 483.885C621.35 491.66 630.467 500.16 637.896 510.259C646.04 521.329 651.243 533.923 654.556 547.619C658.09 562.239 660.29 577.571 666.625 591.104C672.337 603.312 681.999 612.463 688.503 624.089C691.558 629.554 693.748 635.862 693.559 642.443C693.37 649.025 690.702 655.621 686.587 660.964C678.44 671.526 665.196 677.474 652.842 675.203C639.475 672.744 628.937 662.607 621.569 651.445C612.943 638.381 608.352 622.77 604.279 607.422C600.225 592.158 597.235 575.639 589.892 561.808C586.46 555.345 581.953 549.767 575.703 546.173C569.197 542.435 561.797 541.047 554.662 538.924C527.578 530.878 511.952 501.47 482.72 498.372C471.092 497.139 459.355 500.727 451.147 510.391C450.152 511.559 450.367 513.265 451.076 514.389C470.375 544.945 480.767 581.338 483.241 618.569C485.739 656.183 480.16 695.067 466.542 731.011C463.145 739.974 459.25 748.759 454.858 757.287C452.646 761.58 450.301 765.806 447.817 769.947C446.711 771.793 445.582 773.621 444.423 775.434C443.116 777.482 441.837 780.039 440.202 781.82C439.906 782.139 439.593 782.247 438.614 782.486C437.716 782.705 436.799 782.839 435.889 782.848C434 782.863 432.208 782.42 430.504 781.687C426.77 780.082 423.767 777.063 421.434 773.704C415.696 765.438 414.905 755.278 415.87 745.035C417.004 733.039 420.11 721.207 420.84 709.184C421.348 700.743 420.823 692.327 419.262 684.155C416.159 667.918 409.468 653.018 401.71 638.945C385.965 610.379 364.816 583.874 356.958 550.974C355.998 546.951 355.268 542.856 354.748 538.72C354.545 537.12 352.928 535.581 351.263 536.086C340.827 539.266 330.397 542.442 319.961 545.623C318.34 546.116 316.979 547.547 317.237 549.433C325.422 609.42 334.245 673.527 312.889 733.55C304.429 757.336 291.583 780.325 273.496 797.898C264.909 806.243 254.944 813.874 244.149 818.531C235.958 822.059 222.522 824.585 217.443 815.416C214.256 809.659 216.049 802.226 218.033 796.071C220.194 789.355 222.685 782.753 224.708 775.985C228.87 762.07 232.04 747.886 234.151 733.586C238.324 705.333 238.505 676.596 234.642 648.792C230.886 621.757 223.613 594.316 211.217 570.647C205.345 559.433 197.863 548.486 187.474 541.492C177.481 534.761 165.451 532.785 153.559 536.777C141.803 540.726 131.749 549.325 122.926 558.308C111.939 569.491 101.752 581.602 91.3238 593.343C68.7918 618.713 46.3237 644.149 23.9252 669.647C18.3836 675.953 12.8464 682.264 7.31359 688.582L11.7112 687.809C-4.11558 676.874 -23.7867 677.559 -42.3665 675.834C-56.6248 674.509 -71.4741 670.143 -80.8612 658.588C-85.1095 653.359 -87.7555 646.804 -87.6173 639.656C-87.4672 631.755 -84.2417 624.422 -79.4388 618.169C-69.2729 604.948 -54.4745 596.751 -42.1243 586.126C-27.8244 573.821 -16.1988 558.171 -8.0419 540.923C1.25928 521.26 5.03728 499.822 10.3716 478.983C19.1019 444.845 36.1712 413.631 61.3065 389.029C84.4666 366.362 113.419 349.829 144.226 344.481C147.932 343.837 151.65 343.365 155.378 343.042C159.392 342.691 158.617 336.245 154.618 336.597C122.836 339.375 92.0126 354.014 66.8221 375.555C40.7456 397.86 20.2136 427.73 9.26731 460.724C2.23693 481.922 -0.791058 504.118 -8.249 525.199C-14.9443 544.127 -25.6917 561.705 -39.9508 575.687C-52.4397 587.93 -67.812 596.382 -79.8417 609.185C-90.9622 621.022 -97.4579 637.379 -91.6311 652.852C-86.3336 666.927 -72.6572 675.695 -59.1483 679.599C-41.5473 684.68 -22.3114 681.63 -4.80311 687.11C-0.314935 688.517 3.92796 690.479 7.79873 693.155C9.27039 694.169 10.9651 693.782 12.1963 692.383C34.8049 666.58 57.4832 640.838 80.2252 615.163C91.5955 602.331 102.98 589.511 114.382 576.71C123.434 566.547 132.647 555.975 143.966 548.558C154.439 541.696 166.551 538.898 177.737 543.675C189.067 548.516 197.202 559.094 203.368 569.741C210.063 581.308 214.872 594.285 218.915 607.212C223.083 620.519 226.147 634.241 228.174 648.202C232.267 676.337 232.143 705.332 227.826 733.946C225.667 748.258 222.481 762.474 218.175 776.376C216.096 783.099 213.454 789.666 211.506 796.418C209.558 803.171 208.409 810.339 210.963 816.77C215.137 827.28 226.588 829.472 236.676 827.542C247.735 825.427 258.168 818.737 267.222 811.676C287.037 796.225 301.961 774.511 312.36 751.425C338.124 694.233 334.135 630.97 326.593 571.903C325.586 564.019 324.515 556.147 323.443 548.279L320.718 552.089C331.154 548.908 341.584 545.732 352.02 542.552L348.535 539.917C353.003 575.529 373.89 604.152 391.112 633.396C399.528 647.697 407.408 662.691 411.672 679.169C413.751 687.197 414.868 695.63 414.813 704.081C414.733 715.943 411.842 727.653 410.264 739.431C408.782 750.491 408.381 762.065 413.031 772.019C416.688 779.853 422.934 786.999 431.406 788.938C434.903 789.74 440.675 789.857 443.81 787.253C445.507 785.848 446.776 783.141 447.982 781.293C449.301 779.268 450.592 777.219 451.849 775.155C457.039 766.63 461.726 757.782 465.863 748.69C482.466 712.211 490.372 672.046 490.009 632.661C489.65 593.799 480.946 555.069 462.979 521.987C460.804 517.983 458.51 514.055 456.083 510.214L456.011 514.212C464.445 504.283 477.719 503.131 488.789 506.251C502.302 510.056 512.644 519.833 523.358 528.494C529.174 533.198 535.2 537.673 541.859 541.063C548.519 544.452 556.096 545.994 563.353 548.222C570.654 550.465 576.886 553.919 581.421 560.342C585.956 566.766 588.34 573.919 590.593 581.23C599.851 611.27 603.869 645.358 626.456 667.806C635.857 677.148 648.826 683.739 662.507 682.036C675.316 680.443 687.889 671.8 694.632 659.994C701.779 647.477 700.815 633.384 694.439 621.588C687.994 609.659 677.963 600.38 672.239 587.962C665.852 574.093 663.789 558.416 660.026 543.532C656.589 529.935 651.192 517.427 643.123 506.375C627.766 485.343 605.853 471.138 585.505 455.95C575.279 448.316 565.15 440.366 556.291 431.036C546.262 420.473 538.197 408.139 530.297 395.776C522.308 383.272 514.398 370.578 504.541 359.612C494.684 348.647 483.12 340.088 469.854 334.24C442.655 322.255 411.547 322.21 381.861 325.273C374.191 326.063 366.534 327.086 358.891 328.243C355.181 328.804 351.478 329.393 347.778 330C344.665 330.512 340.748 331.472 337.846 330.005C334.681 328.403 334.735 324.04 334.7 320.759C334.657 317.098 334.698 313.422 334.739 309.752C334.827 302.142 335.069 294.519 335.571 286.904C337.443 258.403 342.942 226.733 363.402 204.882C383.639 183.268 412.74 178.835 439.282 174.348C452.639 172.091 466.005 169.84 478.819 164.613C491.194 159.57 503.188 152.294 513.006 142.66C522.466 133.378 529.906 121.825 532.556 108.627C535.259 95.1702 532.483 81.4752 525.365 70.6122C518.247 59.7492 507.818 52.4096 496.168 48.4756C481.635 43.5663 465.538 44.8064 450.415 48.512C434.071 52.5107 418.21 59.1271 402.486 65.5086C387.666 71.5229 372.947 77.8553 358.429 84.7243C329.097 98.6053 300.511 114.759 274.191 134.602C248.583 153.91 225.389 176.783 206.358 203.219C187.47 229.465 172.692 258.949 164.307 290.222C160.264 305.294 157.816 320.697 157.111 336.143C156.921 340.317 163.108 340.94 163.299 336.722L163.298 336.689Z" fill="url(#paint2_linear_930_1080)"/>
<path d="M511.442 123.017C497.384 112.049 483.332 101.081 469.274 90.1175C466.755 88.1518 464.154 86.1452 461.089 85.4228C451.078 83.0579 441.821 95.268 439.328 106.751C433.444 133.842 452.777 162.085 477.266 162.182" fill="white"/>
<path d="M513.395 120.345C501.231 110.854 489.072 101.364 476.907 91.8731C471.974 88.023 466.785 82.6838 460.272 81.9302C455.408 81.3698 450.503 83.6368 446.792 87.1009C429.03 103.664 433.546 133.436 446.558 149.606C454.006 158.864 464.751 165.258 476.8 165.434C480.788 165.494 481.742 158.968 477.717 158.91C458.657 158.628 444.289 141.329 441.786 122.47C440.5 112.781 442.197 102.127 448.623 94.1801C451.215 90.9747 454.96 88.0867 459.039 88.4303C461.677 88.6501 463.876 90.1781 465.932 91.7204C468.593 93.7104 471.182 95.8039 473.804 97.8509C485.696 107.129 497.591 116.413 509.483 125.691C512.622 128.144 516.535 122.798 513.4 120.351L513.395 120.345Z" fill="#39783A"/>
<path d="M479.615 101.662C471.064 113.101 462.786 126.827 464.116 140.997C465.446 155.168 495.513 158.718 511.862 123.318" fill="#2D2020"/>
<path d="M477.182 99.7637C470.1 109.284 463.357 119.92 461.382 131.811C460.265 138.529 460.401 145.573 465.394 150.096C473.912 157.816 487.604 154.186 496.541 147.871C504.644 142.144 510.488 133.493 514.715 124.464C516.527 120.59 510.806 118.321 509.002 122.174C503.509 133.895 494.058 145.79 481.108 147.668C477.433 148.204 473.444 147.676 470.804 145.932C470.447 145.695 470.112 145.438 469.775 145.17C469.615 145.039 468.94 144.393 469.199 144.664C468.954 144.405 468.732 144.125 468.517 143.836C468.425 143.712 467.801 142.696 468.028 143.124C466.888 140.954 466.931 138.202 467.201 135.168C468.254 123.377 475.142 112.826 482.049 103.543C484.596 100.123 479.719 96.3373 477.178 99.7524L477.182 99.7637Z" fill="#39783A"/>
<path d="M560.929 83.5168C581.437 80.5788 602.021 81.382 621.885 85.7852C621.431 83.886 620.973 81.9809 620.518 80.0817C603.928 93.5322 587.333 106.982 570.743 120.433C567.598 122.986 563.188 125.592 563.174 130.277C563.167 132.595 564.197 134.789 564.962 136.87C565.792 139.142 566.644 141.406 567.518 143.655C571.063 152.783 574.952 161.741 579.19 170.493C583.868 180.153 588.967 189.564 594.435 198.705C595.398 196.941 596.367 195.171 597.33 193.407C580.981 193.861 564.633 194.315 548.29 194.77C546.26 194.827 544.665 196.303 544.813 198.576C546.276 220.307 548.379 241.941 551.126 263.451C552.772 262.377 554.418 261.303 556.059 260.229C543.722 251.932 531.385 243.634 519.048 235.336C515.834 233.175 512.001 238.444 515.229 240.612C527.566 248.91 539.904 257.208 552.241 265.505C554.341 266.919 557.547 265.21 557.175 262.284C554.433 240.774 552.33 219.141 550.861 197.409C549.703 198.676 548.544 199.943 547.384 201.215C563.733 200.761 580.081 200.307 596.424 199.852C599.134 199.778 600.771 196.973 599.319 194.554C590.302 179.475 582.399 163.63 575.662 147.167C573.959 143.005 572.328 138.8 570.772 134.565C570.384 133.51 569.959 132.457 569.616 131.374C569.272 130.291 569.099 130.035 569.848 129.083C571.194 127.382 573.514 126.074 575.179 124.724C582.857 118.498 590.534 112.278 598.213 106.052C606.849 99.0513 615.491 92.0461 624.127 85.0458C626.491 83.1315 625.146 79.8686 622.76 79.3423C602.376 74.8245 581.201 74.1393 560.168 77.1525C556.256 77.7112 556.996 84.079 560.908 83.5202L560.929 83.5168Z" fill="#FEB963"/>
<path d="M1382.39 595.82C1180.18 439.898 936.067 441.36 874.186 542.708C812.304 644.057 840.257 754.458 874.186 761.487C996.487 786.826 1420.89 856.502 1439.4 826.779C1467.63 781.464 1418.13 638.861 1382.39 595.82Z" fill="url(#paint3_linear_930_1080)"/>
<path d="M1064.22 520.296L1032.06 572.432C1032.06 572.432 1044.99 543.847 1036.44 539.299C1006.23 523.22 970.435 493.533 957.994 481.803L1064.22 520.296Z" fill="#999B9E"/>
<path d="M1247.42 407.491C1247.42 481.895 1176.09 535.888 1088.09 535.888C999.41 531.99 928.758 481.895 928.758 407.491C928.758 333.087 1026.21 279.592 1138.28 301.518C1196.58 312.925 1247.42 333.087 1247.42 407.491Z" fill="#71C4E1"/>
<g style="mix-blend-mode:multiply" opacity="0.17">
<path d="M1286.4 411.964C1286.4 486.368 1215.07 540.362 1127.07 540.362C1043.75 531.502 959.383 494.758 972.124 418.946C974.598 404.227 981.3 376.387 987.716 362.912C1017.04 301.319 1030.5 262.646 1127.07 281.54C1185.38 292.948 1286.4 337.56 1286.4 411.964Z" fill="#527D9E"/>
</g>
<path d="M996.974 396.041C1005.55 362.128 996.974 331.198 1018.41 310.286C1057.88 271.791 1093.33 265.352 1149.97 265.46C1221.64 265.598 1298.1 304.438 1315.64 351.701C1333.18 398.965 1332.69 455 1315.64 481.312C1284.63 529.151 1252.78 534.909 1218.68 540.27C1169.13 548.055 1070.18 537.988 1049.6 531.502C1004.77 517.375 981.382 489.111 981.382 470.105C981.382 430.149 989.335 426.25 996.974 396.041Z" fill="#31A383"/>
<path d="M1208.44 464.749C1222.09 488.791 1199.25 505.189 1176.77 508.601C1166.07 510.226 1139.74 505.19 1129.51 508.601C1099.32 518.664 1070.55 521.27 1070.55 500.805C1070.55 474.98 1100.12 459.911 1135.35 452.08C1166.05 445.258 1196.44 443.596 1208.44 464.749Z" fill="#BDBFC0"/>
<path d="M1165.08 429.666C1159.52 431.522 1148.4 405.618 1148.02 395.558L1183.11 391.173L1238.65 368.759C1240.6 378.115 1232.32 404.329 1226.96 416.023C1206.98 418.947 1165.08 429.666 1165.08 429.666Z" fill="#BDBFC0"/>
<path d="M1031.57 340.011C1019.1 346.248 1014.35 364.536 1015 372.17C1015 397.994 1052.15 416.997 1047.76 412.125C1044.25 408.227 1062.92 391.173 1071.52 382.402C1050.67 369.219 1042.09 359.842 1031.57 340.011Z" fill="#BDBFC0"/>
<path d="M1171.36 432.105C1172.62 431.694 1173.88 431.289 1175.14 430.896C1177.67 430.11 1180.2 429.366 1182.74 428.669C1187.71 427.296 1192.7 426.107 1197.71 425.077C1207.8 423.005 1217.93 421.619 1228.05 420.873C1232.09 420.571 1232.03 413.87 1227.98 414.17C1216.41 415.028 1204.83 416.721 1193.33 419.303C1187.79 420.545 1182.27 421.98 1176.78 423.602C1173.93 424.446 1171.1 425.338 1168.27 426.29C1165.55 427.203 1163.76 428.155 1162.66 431.127C1162.01 432.884 1163.41 434.714 1164.89 434.996C1166.42 435.289 1169.77 432.625 1171.36 432.105Z" fill="black"/>
<path d="M1011.18 370.689C1013.86 380.687 1016.93 390.845 1023.01 398.868C1028.87 406.592 1036.65 411.975 1045.71 414.929C1049.39 416.128 1050.93 409.625 1047.29 408.438C1039.35 405.848 1032.25 400.635 1027.37 393.677C1022.18 386.28 1019.54 377.281 1017.14 368.325C1016.09 364.375 1010.12 366.721 1011.18 370.689Z" fill="black"/>
<path d="M1125.4 359.242C1122.84 368.725 1122.68 378.449 1124.86 387.539C1125.79 391.415 1131.44 389.121 1130.51 385.24C1128.57 377.173 1128.79 368.674 1131.07 360.274C1132.16 356.234 1126.49 355.207 1125.4 359.242Z" fill="black"/>
<path d="M1173.85 442.48C1190.13 442.882 1209.84 447.297 1214.5 465.934C1219.24 484.922 1203.77 502.02 1188.54 510.672C1184.9 512.737 1180.89 508.827 1184.57 506.739C1192.1 502.459 1199.61 496.889 1204.14 488.901C1208.62 481.012 1209.75 471.724 1205.42 464.383C1200.78 456.497 1195.36 453.005 1186.67 451.518C1186.65 451.637 1186.64 451.759 1186.61 451.884C1183.78 467.186 1180.73 482.456 1177.46 497.691C1176.59 501.746 1169.66 500.699 1170.44 496.666C1173.39 481.385 1176.75 466.173 1179.59 450.86C1179.59 450.855 1179.59 450.85 1179.59 450.845C1174.8 450.441 1171.67 450.496 1167.2 450.649C1156.05 451.031 1146.23 452.543 1135.19 455.448C1135.79 468.505 1136.38 484.538 1136.82 496.666C1136.96 500.764 1129.68 501.563 1129.53 497.493C1129.05 484.086 1128.56 470.674 1128.08 457.269C1128.08 457.247 1128.08 457.226 1128.08 457.205C1125.97 457.847 1123.87 458.534 1121.77 459.268C1114.36 461.868 1108.88 464.418 1101.81 468.111C1099.76 469.179 1097.71 470.308 1095.7 471.528C1098.4 482.55 1101.72 493.319 1105.63 503.809C1107.03 507.55 1099.38 510.432 1098 506.739C1094.25 496.686 1091.05 486.367 1088.41 475.818C1085.71 477.836 1083.19 479.047 1080.97 481.654C1076.12 487.337 1072.47 495.448 1073.94 502.754C1075.65 511.239 1094.43 515.91 1094.43 515.91C1094.43 515.91 1091.5 521.27 1084.78 519.508C1076.13 517.241 1068.76 514.224 1066.44 505.79C1063.87 496.432 1067.81 485.745 1073.94 478.014C1079.72 470.733 1087.56 465.792 1095.36 461.634C1103.64 457.219 1112.24 453.55 1120.98 450.649C1138.3 444.895 1156.25 442.047 1173.85 442.48Z" fill="black"/>
<path d="M1069.23 432.856C1069.95 435.374 1070.67 437.892 1071.39 440.41C1072.49 444.284 1078.36 441.967 1077.25 438.076C1076.53 435.558 1075.81 433.04 1075.09 430.522C1073.99 426.648 1068.12 428.964 1069.23 432.856Z" fill="black"/>
<path fill-rule="evenodd" clip-rule="evenodd" d="M1023.87 338.672C1021.54 335.404 1026.96 331.524 1029.28 334.761C1036.74 345.201 1044.92 354.99 1053.8 364.045C1057.76 368.092 1063.03 373.79 1068.49 375.648C1072.44 376.988 1078.24 376.436 1081.05 372.136L1081.04 372.135C1083.42 368.488 1088.85 371.242 1086.45 374.93C1082.78 380.542 1076.99 383.196 1070.99 382.942C1067.31 382.788 1064.02 381.449 1061.03 379.54C1059.17 384.067 1052.65 389.32 1048.31 391.669C1041.79 395.197 1034.66 394.342 1029.28 390.198C1023.78 385.959 1020.67 378.73 1020.83 371.191C1020.99 363.67 1026.97 354.894 1031.37 348.683C1028.8 345.409 1026.3 342.072 1023.87 338.672Z" fill="black"/>
<path fill-rule="evenodd" clip-rule="evenodd" d="M1236.72 361.681C1238.67 360.721 1240.65 362.449 1240.69 364.456C1240.91 373.405 1239.82 382.457 1237.45 391.307C1236.32 395.551 1230.25 394.469 1231.39 390.225C1233.2 383.478 1234.21 376.702 1234.41 369.897C1224.79 374.556 1215.08 378.953 1205.29 383.08C1205.51 385.058 1205.15 387.351 1204.9 389.067C1202.73 404 1190.14 419.521 1176.28 421.869C1169.68 422.988 1162.01 421.984 1157.08 417.555C1153.19 414.059 1152.88 405.472 1153.01 400.117C1145.38 400.191 1137.32 396.229 1137.47 387.002L1137.48 386.998C1137.55 382.685 1143.82 381.972 1143.75 386.279C1143.62 393.766 1156.76 393.341 1162.17 392.047C1170.54 390.045 1178.8 386.697 1186.95 383.548C1203.77 377.051 1220.38 369.737 1236.72 361.681Z" fill="black"/>
<path d="M1054.96 379.965C1054.96 384.54 1048.68 390.685 1040.34 390.685C1032 390.685 1026.21 385.515 1026.21 380.94C1026.21 376.365 1032 380.94 1040.34 380.94C1048.68 380.94 1054.96 375.391 1054.96 379.965Z" fill="#24303F"/>
<path d="M1194.79 401.041C1196.36 405.338 1191.21 413.763 1181.55 417.29C1171.89 420.818 1163.42 418.409 1161.85 414.112C1160.28 409.815 1168.55 411.664 1178.21 408.137C1187.86 404.61 1193.22 396.744 1194.79 401.041Z" fill="#24303F"/>
<path d="M1040.64 362.425C1040.64 365.385 1038.03 368.759 1034.8 368.759C1031.57 368.759 1028.95 365.385 1028.95 362.425C1028.95 359.464 1031.57 355.116 1034.8 355.116C1038.03 355.116 1040.64 359.464 1040.64 362.425Z" fill="#BDBFC0"/>
<path d="M1167.85 401.786C1168.15 404.731 1165.79 407.386 1162.58 407.717C1159.37 408.048 1156.52 405.93 1156.21 402.986C1155.91 400.041 1158.52 399.809 1161.73 399.477C1164.94 399.146 1167.54 398.842 1167.85 401.786Z" fill="#BDBFC0"/>
<path d="M1062.35 309.917C1062.35 282.613 1071.62 281.002 1079.47 273.174C1120.46 277.815 1220.77 292.111 1206.58 301.634C1192.39 311.156 1182.45 346.518 1185.14 363.705C1161.26 353.778 1153.96 350.359 1143.24 337.691L1143.24 367.413C1111.21 353.053 1099.87 332.331 1099.87 332.331L1099.87 354.745C1079.47 345.371 1062.35 332.331 1062.35 309.917Z" fill="#186F56"/>
<path d="M1252.78 352.192C1166.36 290.845 1047.32 302.817 988.204 320.033C1008.67 287.875 1063.94 217.608 1132.92 213.811C1239.14 207.964 1323.79 225.761 1383.86 298.594C1422.84 345.858 1397.5 541.733 1287.87 561.224L1209.42 541.735C1287.87 525.168 1361.93 429.666 1252.78 352.192Z" fill="#CBCCCE"/>
<path d="M1074.19 284.949C1075 254.1 1135.08 204.787 1179.93 204.55C1224.77 204.314 1265.45 223.069 1271.79 225.51C1246.94 236.23 1174.25 247.145 1164.1 289.821C1166.08 295.472 1166.05 313.013 1164.1 315.646C1140.39 315.646 1076.12 309.511 1073.09 306.392C1070.05 303.274 1072.93 287.81 1074.19 284.949Z" fill="#38509E"/>
<path d="M1271.79 225.506C1182.57 244.04 1167.27 267.269 1164.1 285.438L1162.15 315.648C1162.15 315.648 1242.38 259.192 1271.79 225.506Z" fill="#2B395E"/>
<g style="mix-blend-mode:hard-light">
<path d="M945.812 363.885C946.497 359.78 966.277 337.087 972.124 337.574C974.56 337.777 983.818 343.909 983.331 345.371C982.844 346.832 982.357 346.832 980.895 347.32C970.722 350.711 960.421 361.963 956.532 371.682C955.558 374.118 945.325 366.81 945.812 363.885Z" fill="#D9D9D9"/>
</g>
<g style="mix-blend-mode:hard-light">
<path d="M935.58 389.91C933.631 386.791 937.042 377.241 942.402 373.344C944.524 371.801 952.634 377.043 951.659 378.991C947.473 387.363 945.919 393.609 942.889 393.609C939.965 393.609 938.016 393.808 935.58 389.91Z" fill="#D9D9D9"/>
</g>
<path d="M1309.31 368.272C1309.31 368.272 1390.95 364.021 1417.73 394.915C1433.19 412.746 1429.1 489.319 1400.15 500.072C1372.6 510.309 1321.87 508.117 1303.95 500.072C1336.59 455.732 1328.8 392.479 1309.31 368.272Z" fill="#38509E"/>
<ellipse cx="1401.71" cy="444.565" rx="17.054" ry="53.1109" transform="rotate(7.34223 1401.71 444.565)" fill="#2B395E"/>
<path opacity="0.07" d="M923.399 771.72C901.959 715.685 953.608 537.35 953.608 537.35C953.608 537.35 864.928 664.036 824.486 751.742L923.399 771.72Z" fill="#999B9E"/>
<path d="M1256.68 558.789C1295.3 557.886 1325.79 532.7 1362.42 507.627C1355.59 518.347 1333.18 563.174 1273.25 583.152C1223.45 599.751 1231.02 610.925 1174.82 601.667V573.894C1174.82 573.894 1207.17 559.947 1256.68 558.789Z" fill="#999B9E"/>
<path d="M1187 813.137C1188.97 771.659 1173.35 747.928 1121.71 704.966H1242.55L1317.1 839.449L1187 813.137Z" fill="url(#paint4_linear_930_1080)"/>
<path d="M1049.11 531.015C1058.96 534.073 1065 535.01 1074.93 535.888C1050 584.05 1032.82 646.71 1023.75 699.153C1058.35 705.771 1098.78 714.469 1136.17 724.178C1108.64 725.27 1068.83 718.166 1066.69 728.479C1065.59 733.79 1091.2 753.166 1102.5 767.016C1077.85 754.855 1047.36 741.533 1019.29 729.212C1016.28 753.83 1015.48 774.353 1016.95 787.312L993.564 783.414C987.997 771.166 988.661 746.976 993.165 717.675C960.444 703.067 935.991 691.219 936.949 686.608C937.291 684.962 961.9 688.067 997.336 694.299C1008.75 637.416 1030.71 569.541 1049.11 531.015Z" fill="url(#paint5_linear_930_1080)"/>
<path d="M1267.4 614.824C1283.1 668.909 1246.68 693.95 1202.11 707.89C1180.32 714.706 1147.05 709.839 1147.05 709.839C1147.05 709.839 1168.63 725.743 1185.5 738C1238.97 776.841 1240.1 823.034 1293.23 846.758C1330.76 863.516 1423.22 859.334 1434.04 842.372C1451.47 815.045 1460.9 778.893 1454.51 746.87C1446.92 708.86 1439.93 702.165 1410.17 669.884C1389.19 647.126 1344.81 636.845 1314.08 629.724L1313.76 629.648C1293.19 624.884 1267.4 614.824 1267.4 614.824Z" fill="url(#paint6_linear_930_1080)"/>
<path d="M1421.05 855.014C1401.42 859.577 1386.29 864.992 1361.99 864.661C1337.78 863.387 1334.42 861.646 1307.01 856.465C1301.65 855.228 1296.32 853.606 1291.2 851.299C1270.63 842.359 1256.66 826.709 1249.86 819.649C1241.26 810.651 1242.83 807.805 1232.5 794.161C1222.21 780.521 1216.56 772.149 1207.17 760.768C1203.14 755.899 1194.83 747.277 1184.4 739.513C1170.48 729.062 1155.08 717.765 1147.01 712.623C1146.58 712.351 1146.07 712.019 1145.65 711.742L1147.39 707.499C1163.31 708.741 1181.41 710.582 1192.35 709.14C1195.86 708.72 1198.61 708.26 1200.72 707.869C1201.62 707.702 1202.06 707.748 1202.12 707.921C1202.12 707.921 1202.12 707.921 1202.12 707.921C1202.19 708.135 1201.64 708.548 1200.5 708.895C1195 710.598 1186.56 712.272 1176.4 713.302C1162.75 714.519 1157.85 713.503 1146.72 712.061L1148.38 708.031C1151.83 710.626 1156.09 713.727 1161.95 717.76C1171.57 724.369 1179.56 729.561 1187.67 735.009C1197.38 741.592 1206.88 749.344 1217.28 762.049C1236.34 785.377 1240.23 792.036 1265.93 823.104C1276.91 834.739 1286.45 839.494 1294.98 842.834C1307.87 847.24 1319.42 848.091 1343.99 849.605C1372.09 850.832 1413.96 850.647 1429.08 839.208C1434.61 830.972 1438.48 823.08 1440.94 816.855C1448.03 798.952 1453.6 773.808 1448.69 748.031C1447.36 741.2 1445.93 734.423 1444.01 727.789C1439.38 708.101 1422.42 691.73 1405.85 673.867C1395.35 662.782 1380.06 655.608 1365.47 649.732C1350.25 643.613 1331.35 638.401 1312.83 633.669C1295.34 629.023 1279.27 622.771 1266.37 617.462L1270.12 614.035C1271.78 620.401 1272.68 626.222 1273.01 631.037C1273.18 657.299 1269.67 665.319 1252.66 683.741C1242.12 694.059 1223.6 702.747 1207.45 706.835C1199.3 708.885 1200.93 707.586 1208.73 704.546C1220.1 700.031 1229.3 695.946 1234.2 691.963C1243.71 683.758 1247.69 680.703 1257.74 669.63C1267.12 657.594 1265.16 649.21 1266.02 640.968C1266.08 634.819 1268.01 632.909 1263.61 615.924L1261.3 608.317L1268.84 611.146C1275.33 613.635 1284.31 616.843 1296.95 620.453C1303.3 622.248 1309.28 623.77 1314.85 624.925C1350 631.935 1371.05 638.697 1385.62 645.454C1393.14 649.005 1404.52 654.934 1414.5 665.885C1425.34 678.341 1438.79 691.637 1447.53 706.897C1453.22 716.518 1457.36 730.911 1460.27 745.721C1466.47 774.608 1457.94 806.317 1452.13 821.243C1446.82 835.193 1443.02 840.167 1438.99 845.529C1434.32 851.243 1429.07 852.675 1421.05 855.014Z" fill="url(#paint7_linear_930_1080)"/>
<path d="M954.801 572.238C953.976 568.665 955.807 560.285 961.349 556.785C966.325 553.642 1022.64 568.571 1023.42 571.716C1024.21 574.86 1021.59 586.645 1018.45 588.478C1016.35 589.701 998.28 583.763 998.28 583.763C996.714 594.28 994.887 600.194 990.16 610.742C990.16 610.742 1009.06 612.837 1010.33 615.717C1011.6 618.597 1006.92 634.314 1002.47 634.314C996.446 634.314 941.74 618.752 939.871 615.717C937.776 612.314 944.586 600.364 947.729 599.217C950.872 598.071 966.325 605.242 966.325 605.242C966.067 603.636 976.755 579.479 976.278 578.786C975.349 577.434 955.224 574.071 954.801 572.238Z" fill="#A25831"/>
<path d="M976.766 595.12C991.661 626.411 993.11 645.581 975.429 674.951C963.116 695.405 950.436 709.774 936.647 721.02C921.254 733.575 902.8 770.826 883.612 779.719C864.423 788.612 779.172 753.892 788.992 718.967C794.521 699.303 779.602 629.216 788.992 613.258C795.573 602.074 806.457 595.12 806.457 595.12C806.457 595.12 809.407 571.516 819.567 557.711C840.634 529.086 863.69 523.361 898.503 535.297C923.846 543.987 963.778 567.834 976.766 595.12Z" fill="url(#paint8_linear_930_1080)"/>
<path d="M785.57 671.394C787.09 686.749 786.974 700.361 784.766 717.175C784.72 717.376 784.674 717.564 784.627 717.74C782.025 728.937 786.119 735.219 789.371 740.367C792.992 745.513 797.441 750.451 806.097 757.48C823.973 771.734 845.727 778.268 855.169 781.571C864.899 784.468 865.926 784.05 881.004 783.434C882.242 783.246 883.651 782.884 884.839 782.368C896.727 776.5 901.449 769.276 908.063 760.27C913.592 753.11 925.341 732.832 937.654 722.256C942.22 718.635 946.048 715.271 948.75 712.998C959.458 704.156 967.407 690.305 971.993 682.253C973.458 679.742 974.494 677.691 975.225 676.096C975.535 675.417 975.556 675.027 975.401 674.934C975.401 674.934 975.401 674.934 975.401 674.933C975.208 674.817 974.744 675.162 974.228 675.955C971.717 679.809 967.719 685.442 962.278 691.452C951.893 702.322 952.384 705.045 936.791 717.986C936.253 718.409 935.715 718.824 935.184 719.227C919.874 732.497 913.743 743.43 899.794 761.596C893.495 769.627 888.003 774.087 882.107 776.472C875.377 778.292 864.765 776.505 846.837 771.498C830.849 766.617 822.836 761.409 815.533 755.999C808.706 750.321 800.17 744.492 794.156 731.257C792.806 727.667 792.415 723.903 793.404 720.208C797.021 686.435 787.979 653.971 788.668 636.143C788.676 629.43 788.372 620.856 791.393 614.672C795.149 608.254 801.087 602.093 807.879 597.345L808.94 596.652L809.078 595.447C810.265 586.785 812.393 577.542 815.918 568.92C817.34 565.498 819.071 562.083 821.298 558.985C828.875 548.459 839.111 538.037 852.447 533.722C865.734 529.267 880.543 531.46 893.637 535.269C895.11 535.696 896.531 536.133 898.047 536.626C927.95 546.121 963.115 571.601 973.094 589.105C974.479 591.256 975.62 593.307 976.55 595.223C982.838 609.101 986.164 614.704 988.087 632.226C989.29 643.829 984.452 659.606 977.633 671.159C974.229 677.025 975.063 675.71 978.405 669.791C983.26 661.052 985.897 653.24 987.026 648.219C989.022 638.196 989.457 633.501 986.753 620.801C983.439 608.235 980.774 602.614 977.71 595.727C977.57 595.428 977.435 595.142 977.303 594.864C973.582 589.542 976.007 585.059 947.687 561.227C927.836 546.018 911.547 538.517 898.995 533.862C892.09 531.393 886.256 529.839 881.111 528.861C873.933 527.505 861.929 526.193 849.695 530.611C837.39 534.853 826.892 544.822 819.491 554.248C818.947 554.93 818.386 555.652 817.807 556.416C810.943 565.495 806.203 579.914 803.867 594.796L805.052 592.921C797.369 598.081 790.935 604.553 786.515 611.801C781.736 621.987 782.954 630.265 782.53 636.117C782.57 655.855 783.866 655.756 785.57 671.394Z" fill="url(#paint9_linear_930_1080)"/>
<path d="M887.342 729.817C866.168 739.441 792.814 716.174 792.814 716.174C792.814 716.174 786.967 731.279 792.814 737.613C823.511 780.979 877.109 782.928 881.982 782.44C886.854 781.953 898.061 768.797 900.985 765.874C903.908 762.95 926.281 732.244 930.22 727.868C934.606 722.995 949.71 712.276 958.968 701.069C997.461 662.088 991.127 621.646 979.433 601.181C987.716 640.162 914.141 717.635 887.342 729.817Z" fill="url(#paint10_linear_930_1080)"/>
<path d="M820.1 584.127C820.1 573.896 848.848 538.813 872.237 538.812C886.267 538.812 920.475 555.135 905.857 558.79C891.24 562.445 861.03 592.411 849.823 594.847C840.857 596.796 820.1 595.971 820.1 584.127Z" fill="#557ACB"/>
<path d="M1040.18 600.829C1039.8 637.761 1046.99 656.946 1077.25 677.423C1121.85 707.603 1155.48 715.686 1198.21 715.686C1236.43 715.686 1297.44 663.876 1303.46 632.852C1305.3 623.346 1274.71 622.62 1267.4 615.311C1252.01 599.917 1252.89 551.354 1236.66 540.131C1225.28 532.266 1199.62 529.354 1199.62 529.354C1199.62 529.354 1184.12 507.643 1168.11 498.847C1134.92 480.609 1110.76 501.336 1082.44 528.478L1082.36 528.557C1061.77 548.292 1040.52 568.669 1040.18 600.829Z" fill="#38509E"/>
<path d="M1261.35 597.366C1263.22 603.632 1266.13 609.225 1270.18 612.532C1275.41 615.82 1285.92 615.735 1297.98 620.09C1300.37 621.038 1302.68 622.07 1304.97 623.957C1306.13 624.94 1307.33 626.214 1308.16 628.056C1309.02 629.911 1309.16 632.16 1308.76 633.88C1304.96 646.204 1300.92 651.024 1289.72 665.786C1274.77 684.592 1254.45 697.35 1245.94 703.596C1237.26 709.803 1235.15 708.313 1221.43 714.542C1212.9 718.101 1205.64 719.683 1198.21 719.502C1193.79 719.354 1189.34 719.014 1184.31 718.417C1171.23 717.99 1132.36 709.269 1118.86 703.639C1104.83 699.32 1091.56 688.918 1083.66 683.099C1081.17 681.292 1079.31 679.759 1077.91 678.507C1077.32 677.976 1077.15 677.578 1077.27 677.388C1077.27 677.388 1077.28 677.388 1077.28 677.388C1077.44 677.152 1078.06 677.239 1078.92 677.771C1083.04 680.326 1089.41 683.941 1097.29 687.344C1112.05 693.342 1112.53 696.455 1132.88 703.101C1153.47 708.898 1166.17 709.479 1191.18 711.595C1193.69 711.776 1196.01 711.862 1198.21 711.884C1216.54 710.379 1223.3 704.951 1250.68 689.71C1279.33 669.986 1282.51 663.883 1296.72 635.232C1297.09 634.094 1297.43 632.843 1297.65 631.726C1297.59 631.937 1297.66 632.612 1297.83 632.908C1297.99 633.214 1298.02 633.13 1297.79 632.933C1297.33 632.508 1296.15 631.836 1294.84 631.279C1292.17 630.13 1288.91 629.16 1285.58 628.189C1278.81 625.872 1271.95 625.618 1263.83 618.885C1248.16 596.949 1249.98 575.47 1245.37 563.572C1243.24 556.519 1240.57 547.475 1234.66 543.03C1225.74 537.276 1212.3 534.502 1199.26 532.517L1197.81 532.335L1197.02 531.203C1194.04 526.995 1190.59 522.668 1187.03 518.595C1181.37 512.212 1174.78 505.642 1166.86 501.121C1146.22 487.316 1119.06 497.786 1101.43 513.651C1095.66 518.321 1089.62 523.782 1083.43 529.513C1060.76 548.511 1041.09 576.206 1040.94 594.139C1040.67 596.546 1040.54 598.752 1040.49 600.833C1040.62 617.478 1039.91 624.249 1046.03 642.139C1050.11 653.767 1061.78 666.706 1073.45 674.765C1079.32 678.878 1077.94 677.987 1072.1 673.799C1063.56 667.584 1057.54 661.276 1054.2 656.984C1047.77 648.297 1045.21 644.019 1042.08 630.633C1039.6 617.113 1039.57 610.552 1039.42 602.568C1039.42 601.949 1039.43 601.374 1039.43 600.822C1039.52 597.545 1039.55 595.183 1040.58 589.024C1041.81 583.003 1043.73 572.467 1054.64 556.913C1063.96 543.969 1073.65 535.034 1081.32 527.312C1093.52 515.179 1102.54 507.106 1110.41 501.564C1115.78 497.826 1124.2 492.416 1135.27 490.301C1146.35 487.998 1159.2 490.948 1169.34 496.612C1173.28 498.739 1176.77 501.291 1179.94 503.866C1186.68 509.341 1194.69 517.598 1202.18 527.522L1199.97 526.219C1213.09 527.966 1226.96 530 1238.72 537.153C1248.95 545.325 1250.4 555.365 1252.8 561.29C1259.04 581.277 1257.06 581.695 1261.35 597.366Z" fill="#2B395E"/>
<path d="M1078.35 684.014C1019.88 644.859 1034.49 603.617 1045.21 574.381C1048.14 627.98 1065.19 645.033 1085.17 657.215C1113.29 674.361 1134.87 677.192 1149.49 684.014C1160.69 686.45 1202.86 693.208 1230.37 684.014C1265.94 672.128 1300.53 631.878 1300.53 631.878C1300.53 631.878 1290.3 659.164 1284.94 667.447C1271.4 688.371 1213.99 734.443 1182.13 736.15C1160.69 715.686 1108.25 704.04 1078.35 684.014Z" fill="#2B395E"/>
<path d="M1057.88 581.203C1057.88 570.971 1102.99 520.399 1117.81 512.987C1123.66 510.063 1149 520.438 1137.3 537.005C1125.61 553.572 1095.89 592.552 1084.68 594.988C1075.71 596.937 1057.88 593.046 1057.88 581.203Z" fill="#557ACB"/>
<g style="mix-blend-mode:multiply" opacity="0.3">
<path d="M1109.5 393.5C1113.54 403.483 1116.56 416.116 1094.42 425.077C1088.71 427.386 1078.3 432.17 1078.5 425.077C1078.7 417.984 1086.53 412.332 1094.42 402.9C1099.87 396.379 1105.46 383.517 1109.5 393.5Z" fill="#2E7037"/>
</g>
<g style="mix-blend-mode:lighten" opacity="0.54">
<rect x="720" y="164" width="829" height="717" fill="url(#paint11_linear_930_1080)"/>
</g>
<defs>
<linearGradient id="paint0_linear_930_1080" x1="387.489" y1="39.9551" x2="309.388" y2="782.119" gradientUnits="userSpaceOnUse">
<stop stop-color="#65A543"/>
<stop offset="1" stop-color="#65A543" stop-opacity="0"/>
</linearGradient>
<linearGradient id="paint1_linear_930_1080" x1="387.493" y1="39.9546" x2="313.19" y2="832.839" gradientUnits="userSpaceOnUse">
<stop stop-color="#22522F"/>
<stop offset="1" stop-color="#13321B" stop-opacity="0"/>
</linearGradient>
<linearGradient id="paint2_linear_930_1080" x1="387.919" y1="36.7063" x2="313.01" y2="836.045" gradientUnits="userSpaceOnUse">
<stop stop-color="#207139"/>
<stop offset="1" stop-color="#231F20" stop-opacity="0"/>
</linearGradient>
<linearGradient id="paint3_linear_930_1080" x1="1143" y1="680" x2="1120.5" y2="808" gradientUnits="userSpaceOnUse">
<stop stop-color="#CBCCCE"/>
<stop offset="1" stop-color="#666768" stop-opacity="0"/>
</linearGradient>
<linearGradient id="paint4_linear_930_1080" x1="1219.41" y1="704.966" x2="1219" y2="813.5" gradientUnits="userSpaceOnUse">
<stop stop-color="#999B9E"/>
<stop offset="1" stop-color="#363738" stop-opacity="0"/>
</linearGradient>
<linearGradient id="paint5_linear_930_1080" x1="1036.55" y1="531.015" x2="1036.55" y2="787.312" gradientUnits="userSpaceOnUse">
<stop stop-color="#999B9E"/>
<stop offset="1" stop-color="#363738" stop-opacity="0"/>
</linearGradient>
<linearGradient id="paint6_linear_930_1080" x1="1302" y1="653.5" x2="1302" y2="828.5" gradientUnits="userSpaceOnUse">
<stop offset="0.533654" stop-color="#CBCCCE"/>
<stop offset="1" stop-color="#CBCCCE" stop-opacity="0"/>
</linearGradient>
<linearGradient id="paint7_linear_930_1080" x1="1301.78" y1="614.824" x2="1301.78" y2="857.412" gradientUnits="userSpaceOnUse">
<stop stop-color="#999B9E"/>
<stop offset="1" stop-color="#363738" stop-opacity="0"/>
</linearGradient>
<linearGradient id="paint8_linear_930_1080" x1="921.606" y1="544.103" x2="838.999" y2="769.5" gradientUnits="userSpaceOnUse">
<stop offset="0.778846" stop-color="#38509E"/>
<stop offset="1" stop-color="#38509E" stop-opacity="0"/>
</linearGradient>
<linearGradient id="paint9_linear_930_1080" x1="884" y1="687" x2="846.999" y2="748.5" gradientUnits="userSpaceOnUse">
<stop stop-color="#2B395E"/>
<stop offset="1" stop-color="#2B395E" stop-opacity="0"/>
</linearGradient>
<linearGradient id="paint10_linear_930_1080" x1="953.499" y1="658" x2="832.999" y2="823.5" gradientUnits="userSpaceOnUse">
<stop stop-color="#2B395E"/>
<stop offset="1" stop-color="#2B395E" stop-opacity="0"/>
</linearGradient>
<linearGradient id="paint11_linear_930_1080" x1="1134.5" y1="164" x2="1134.5" y2="881" gradientUnits="userSpaceOnUse">
<stop stop-color="#181946"/>
<stop offset="1" stop-color="#3A2F68"/>
</linearGradient>
</defs>
</svg>
