<svg width="892" height="127" viewBox="0 0 892 127" fill="none" xmlns="http://www.w3.org/2000/svg">
<path d="M49.3065 21.772L39.061 15.0483H20.8112L0 24.9737V116.223L7.04379 126.148H30.4164L36.8198 118.784H67.5564L71.7186 126.148H122.946L128.389 118.784H162.007L166.49 126.148H191.143L195.625 118.784L201.388 126.148H277.91L283.032 118.784L288.795 126.148H308.646L317.291 118.784H351.869L358.913 126.148H377.803L381.325 121.986L385.487 126.148H405.338L412.382 118.784H426.79H452.083H464.89L471.294 126.148H492.745L500.109 118.784L509.394 126.148H585.595L595.52 115.582H610.889L617.612 126.148H649.95L657.314 115.582H671.081L678.445 126.148H703.739L709.822 115.582H744.08L752.725 126.148H770.335L773.536 121.025L776.738 126.148H795.308L806.194 115.582H838.211L843.974 126.148H880.154L892 108.859L871.189 38.7411L857.742 30.4166L799.47 38.7411L787.304 45.4647L778.659 38.7411H694.133L689.651 45.4647L681.967 38.7411H598.722L591.038 45.4647L574.709 38.7411H521.561L501.39 45.4647L493.065 30.0964L477.697 21.772H414.623L401.176 30.0964L390.61 45.4647L376.843 38.7411H299.361L292.317 45.4647L283.032 38.7411H205.23L196.586 45.4647L178.656 38.7411H134.152L117.823 45.4647L101.815 33.9385L105.017 15.0483H90.6088L80.3632 21.772H49.3065Z" fill="url(#paint0_linear_930_1023)"/>
<path d="M40.0215 6.72362L29.776 0H11.5262L0 10.2455V103.736L5.12276 111.1H27.855L34.2584 103.736H71.0782L75.8808 111.1H120.065L125.508 103.736H163.928L168.09 111.1H188.902L195.625 103.736L202.989 111.1H277.91L283.032 103.736L288.795 111.1H307.686L316.33 103.736H350.909L357.953 111.1H376.843L380.365 106.938L384.527 111.1H404.378L411.421 103.736H425.829H451.123H463.93L470.333 111.1H491.785L499.149 103.736L508.434 111.1H584.635L594.56 100.534H612.81L619.533 111.1H648.989L656.353 100.534H672.682L680.366 111.1H702.778L708.861 100.534H746.962L756.567 111.1H769.374L773.536 105.977L777.378 111.1H794.347L805.233 100.534H839.172L846.215 111.1H870.869L878.873 100.534L858.062 30.4164L842.373 23.6928H790.185L778.019 30.4164L769.374 23.6928H684.849L680.366 30.4164L672.682 23.6928H589.437L581.753 30.4164L565.424 23.6928H512.276L492.105 30.4164L483.78 15.0481L468.412 6.72362H405.338L391.891 15.0481L381.325 30.4164L367.558 23.6928H290.076L283.032 30.4164L273.747 23.6928H195.945L187.301 30.4164L169.371 23.6928H124.867L108.538 30.4164V10.2455L95.7315 0H81.3238L71.0782 6.72362H40.0215Z" fill="#62318E"/>
<path d="M145.599 38.7412C145.599 42.2893 145.599 45.0685 145.599 48.6166C139.168 48.5439 132.779 50.4598 129.879 52.1717C125.261 54.8986 122.377 57.8658 122.377 60.9162C122.377 61.6416 122.35 62.2026 122.707 62.4963C123.065 62.7901 124.029 62.8811 124.878 62.8811C131.499 62.8811 134.166 62.8811 140.24 62.8811C142.383 62.8811 145.678 57.9515 145.678 57.9515C145.678 57.9515 148.814 62.8811 150.957 62.8811C161.954 62.8811 162.924 62.8913 165.578 62.8913C166.436 62.8913 167.312 62.8327 167.721 62.4963C168.131 62.1599 168.106 61.4023 168.106 60.5211C168.106 57.7561 165.275 54.3733 160.961 52.1717C157.361 50.3348 152.029 48.6892 145.599 48.6166C145.599 45.0685 145.599 42.2893 145.599 38.7412C157.388 38.7412 176.323 39.5312 179.538 52.9617C182.753 66.3923 187.545 86.5383 187.903 91.6736C188.26 96.8089 186.095 99.5739 182.544 99.5739H180.31C176.758 99.5739 173.795 97.5989 172.366 93.6487C170.937 89.6985 170.937 87.1394 168.436 79.4821C168.165 78.6533 167.755 77.1195 166.319 75.5318C165.504 74.6303 161.805 74.6303 160.961 74.6303C152.092 74.6303 157.808 74.6303 150.957 74.6303C148.814 74.6303 145.599 80.3636 145.599 80.3636C145.599 80.3636 142.383 74.6303 140.24 74.6303C133.735 74.6303 138.075 74.6303 129.879 74.6303C129.165 74.6303 126.253 74.7335 124.878 75.9268C123.503 77.1202 122.848 77.7685 122.377 79.33C119.4 89.2055 119.849 89.5466 118.42 93.6487C116.991 97.7508 114.854 99.5739 111.302 99.5739H109.873C106.322 99.5739 103.085 97.2039 103.443 91.6736C103.8 86.1433 108.903 66.3923 112.374 52.9617C115.844 39.5312 135.238 38.7412 145.599 38.7412Z" fill="white"/>
<path d="M820.522 38.4209C820.522 41.969 820.522 44.7482 820.522 48.2962C814.091 48.2236 807.702 50.1395 804.803 51.8514C800.184 54.5783 797.3 57.5455 797.3 60.5958C797.3 61.3213 797.273 61.8823 797.631 62.176C797.988 62.4697 798.952 62.5608 799.801 62.5608C806.422 62.5608 809.09 62.5608 815.163 62.5608C817.307 62.5608 820.602 57.6312 820.602 57.6312C820.602 57.6312 823.737 62.5608 825.881 62.5608C836.877 62.5608 837.847 62.571 840.501 62.571C841.359 62.571 842.236 62.5124 842.645 62.176C843.054 61.8396 843.029 61.082 843.029 60.2008C843.029 57.4358 840.198 54.053 835.884 51.8514C832.284 50.0144 826.952 48.3689 820.522 48.2962C820.522 44.7482 820.522 41.969 820.522 38.4209C832.311 38.4209 851.246 39.2109 854.461 52.6414C857.676 66.072 862.468 86.218 862.826 91.3533C863.183 96.4886 861.019 99.2536 857.467 99.2536H855.233C851.682 99.2536 848.718 97.2785 847.289 93.3284C845.86 89.3782 845.86 86.8191 843.359 79.1618C843.089 78.333 842.679 76.7992 841.243 75.2115C840.427 74.31 836.728 74.31 835.884 74.31C827.016 74.31 832.731 74.31 825.881 74.31C823.737 74.31 820.522 80.0433 820.522 80.0433C820.522 80.0433 817.307 74.31 815.163 74.31C808.659 74.31 812.999 74.31 804.803 74.31C804.088 74.31 801.176 74.4132 799.801 75.6065C798.426 76.7998 797.771 77.4482 797.3 79.0097C794.323 88.8851 794.773 89.2262 793.344 93.3284C791.914 97.4305 789.777 99.2536 786.225 99.2536H784.796C781.245 99.2536 778.009 96.8836 778.366 91.3533C778.723 85.823 783.827 66.072 787.297 52.6414C790.768 39.2109 810.162 38.4209 820.522 38.4209Z" fill="white"/>
<path d="M19.5945 15.0483C23.0957 15.0483 25.934 17.9594 25.934 21.5503C25.934 21.5503 25.934 34.5542 25.934 42.1398C25.934 43.032 25.934 43.9459 26.2861 44.3072C26.6383 44.6684 27.5627 44.6684 28.3993 44.6684C34.9261 44.6684 42.1347 44.6684 48.1219 44.6684C50.235 44.6684 53.4047 39.6113 53.4047 39.6113C53.4047 39.6113 56.5744 44.6684 58.6876 44.6684C69.5282 44.6684 77.2028 44.6684 79.819 44.6684C80.6648 44.6684 81.5799 44.6684 81.9321 44.3072C82.2843 43.9459 82.2843 43.2235 82.2843 42.1398C82.2843 33.8318 82.2843 21.5503 82.2843 21.5503C82.2843 17.9594 85.1225 15.0483 88.6237 15.0483H90.0324C93.5336 15.0483 96.3719 17.9594 96.3719 21.5503V93.0719C96.3719 96.6628 93.5336 99.5738 90.0324 99.5738H88.6237C85.1225 99.5738 82.2843 96.6628 82.2843 93.0719C82.2843 93.0719 82.2843 74.6237 82.2843 61.6457C82.2843 60.5621 82.2843 59.8396 81.9321 59.4784C81.5799 59.1172 80.8755 59.1172 79.819 59.1172C71.0764 59.1172 65.441 59.1172 58.6876 59.1172C56.5744 59.1172 53.4047 64.8967 53.4047 64.8967C53.4047 64.8967 50.235 59.1172 48.1219 59.1172C41.7097 59.1172 36.479 59.1172 28.3993 59.1172C27.6949 59.1172 26.7276 59.0257 26.2861 59.4784C25.8447 59.9312 25.934 60.9883 25.934 61.6457C25.934 73.9184 25.934 93.0719 25.934 93.0719C25.934 96.6628 23.0957 99.5738 19.5945 99.5738H18.1858C14.6846 99.5738 11.8464 96.6628 11.8464 93.0719V21.5503C11.8464 17.9594 14.6846 15.0483 18.1858 15.0483H19.5945Z" fill="white"/>
<path d="M59.5006 26.2094C59.5006 26.2094 57.0577 27.1543 55.7652 28.3077C54.6677 29.2871 53.69 32.5043 53.69 32.5043C53.69 32.5043 52.7304 29.3761 51.6147 28.3077C50.4166 27.1604 47.8793 26.2094 47.8793 26.2094C47.8793 26.2094 50.4166 25.6781 51.6147 24.5308C52.7304 23.4624 53.69 19.9146 53.69 19.9146C53.69 19.9146 54.6677 23.5514 55.7652 24.5308C57.0577 25.6842 59.5006 26.2094 59.5006 26.2094Z" fill="white"/>
<path d="M59.1359 79.4026C59.1359 79.4026 56.6328 80.3707 55.3085 81.5526C54.1839 82.5562 53.1821 85.8526 53.1821 85.8526C53.1821 85.8526 52.1989 82.6473 51.0557 81.5526C49.8281 80.377 47.2283 79.4026 47.2283 79.4026C47.2283 79.4026 49.8281 78.8582 51.0557 77.6826C52.1989 76.5879 53.1821 72.9526 53.1821 72.9526C53.1821 72.9526 54.1839 76.6791 55.3085 77.6826C56.6328 78.8645 59.1359 79.4026 59.1359 79.4026Z" fill="white"/>
<path d="M245.572 68.5171C245.572 68.5171 242.072 70.0069 240.221 71.8256C238.648 73.3699 237.248 78.4425 237.248 78.4425C237.248 78.4425 235.873 73.5101 234.275 71.8256C232.558 70.0166 228.923 68.5171 228.923 68.5171C228.923 68.5171 232.558 67.6794 234.275 65.8704C235.873 64.1859 237.248 58.5918 237.248 58.5918C237.248 58.5918 238.648 64.3261 240.221 65.8704C242.072 67.6891 245.572 68.5171 245.572 68.5171Z" fill="white"/>
<path d="M262.879 40.0987C270.839 41.4951 276.926 44.37 278.799 50.7167C279.833 54.2202 278.393 56.8145 274.585 57.5396C273.343 57.7761 270.217 57.7441 268.966 57.5396C265.55 56.9817 264.284 56.018 262.879 54.9502C261.474 53.8824 257.082 52.562 254.747 52.3558C242.413 51.2664 240.219 51.1851 228.663 51.9656C223.965 52.2829 218.917 53.0968 216.777 54.3069C215.669 54.933 213.687 55.7366 212.154 57.4288C210.415 59.3482 208.852 62.5804 208.852 66.0139V70.3065C208.852 73.5096 210.371 77.4702 212.154 79.6721C212.916 80.6124 213.805 82.1305 216.777 83.1842C220.078 84.3549 221.399 84.7451 226.352 85.1353C231.304 85.5256 241.34 86.0146 253.046 84.5909C255.508 84.2914 260.725 82.9253 262.879 82.0135C265.22 81.3016 267.55 78.8091 268.966 78.54C270.382 78.2708 272.487 78.0494 274.585 78.54C280.672 79.9637 279.798 85.6551 278.799 88.1503C275.664 95.9809 268.966 96.8297 257.728 98.4725C246.959 100.047 231.039 99.8315 221.206 98.4725C206.44 96.4317 194.985 91.379 194.985 71.4772V64.8432C194.985 48.0632 209.099 41.6199 221.206 40.0987C238.568 37.9172 254.919 38.7023 262.879 40.0987Z" fill="white"/>
<path d="M437.257 16.9697C437.257 21.8997 437.257 23.2458 437.257 28.1758C426.977 28.1758 418.4 30.2796 414.819 32.6582C409.117 36.4471 408.972 36.8708 407.703 40.9826C407.308 42.2633 406.912 45.1449 407.703 45.7852C408.494 46.4256 409.818 46.1054 410.866 46.1054C419.041 46.1054 422.336 46.1054 429.836 46.1054C432.482 46.1054 437.257 40.9826 437.257 40.9826C437.257 40.9826 441.227 46.3169 443.874 46.3169C457.453 46.3169 458.651 46.3312 461.928 46.3312C462.988 46.3312 468.194 46.4712 468.589 46.1054C468.984 45.7396 468.984 43.2239 468.589 41.9432C467.438 38.216 465.218 35.7172 459.891 32.6582C455.446 30.1058 447.536 28.1758 437.257 28.1758C437.257 23.2458 437.257 21.8997 437.257 16.9697C464.394 16.9697 473.333 19.5311 479.167 36.7288C485 53.9265 489.054 83.3825 489.496 90.5179C489.937 97.6532 487.264 101.495 482.879 101.495H480.12C475.734 101.495 475.206 98.5396 473.442 93.0509C471.677 87.5622 471.677 76.4403 468.589 65.8006C468.255 64.649 467.749 62.5178 465.975 60.3118C464.969 59.0592 457.269 59.2705 456.227 59.2705C445.276 59.2705 452.334 59.2705 443.874 59.2705C441.227 59.2705 437.257 67.2368 437.257 67.2368C437.257 67.2368 433.286 59.2705 430.64 59.2705C422.608 59.2705 427.967 59.2705 417.846 59.2705C416.964 59.2705 410.848 59.4139 409.15 61.072C407.452 62.7301 406.643 63.6309 406.062 65.8006C402.386 79.5223 402.94 87.5624 401.176 93.2622C399.411 98.962 399.292 101.495 394.906 101.495H393.141C388.756 101.495 384.76 98.2021 385.201 90.5179C385.641 82.8337 389.207 54.1097 396.229 36.7288C403.252 19.3479 410.12 16.9697 437.257 16.9697Z" fill="white"/>
<path d="M442.059 77.5354C442.059 77.5354 439.926 78.3603 438.798 79.3675C437.84 80.2226 436.986 83.0316 436.986 83.0316C436.986 83.0316 436.148 80.3003 435.174 79.3675C434.128 78.3657 431.912 77.5354 431.912 77.5354C431.912 77.5354 434.128 77.0714 435.174 76.0697C436.148 75.1369 436.986 72.0391 436.986 72.0391C436.986 72.0391 437.84 75.2145 438.798 76.0697C439.926 77.0768 442.059 77.5354 442.059 77.5354Z" fill="white"/>
<path d="M442.059 92.9035C442.059 92.9035 439.926 93.7285 438.798 94.7356C437.84 95.5908 436.986 98.3998 436.986 98.3998C436.986 98.3998 436.148 95.6684 435.174 94.7356C434.128 93.7339 431.912 92.9035 431.912 92.9035C431.912 92.9035 434.128 92.4396 435.174 91.4378C436.148 90.505 436.986 87.4072 436.986 87.4072C436.986 87.4072 437.84 90.5827 438.798 91.4378C439.926 92.445 442.059 92.9035 442.059 92.9035Z" fill="white"/>
<path d="M527.459 40.0987C544.821 37.9172 561.172 38.7023 569.132 40.0987C577.092 41.4951 583.179 44.3697 585.052 50.7163C586.086 54.2198 584.646 56.8142 580.838 57.5393C579.596 57.7757 576.47 57.7438 575.219 57.5393C571.803 56.9814 570.537 56.0176 569.132 54.9498C567.727 53.882 563.335 52.5615 561 52.3553C548.666 51.2659 548.333 50.7675 536.777 51.548C532.079 51.8653 526.852 52.5085 523.03 53.1489C519.208 53.7892 516.418 55.3015 515.966 57.5393C515.125 61.6947 522.049 62.2696 523.03 62.4339C526.852 63.0742 527.652 63.1448 532.605 63.5351C533.46 63.6025 535.548 63.5351 537.097 63.3942C540.619 63.0741 544.781 57.6311 544.781 57.6311C544.781 57.6311 549.552 63.3936 551.825 63.5351C554.707 63.7144 557.255 63.5351 558.869 63.5351C567.403 63.5351 569.92 64.3003 575.219 65.9556C581.614 67.9534 587.044 74.8353 587.044 77.802V84.3269C587.044 96.372 574.557 98.9334 560.823 100.786C546.688 102.693 535.07 102.361 524.301 100.786C513.063 99.1436 505.339 95.7316 503.23 90.4639C502.231 87.9687 501.357 82.2775 507.444 80.8538C509.542 80.3633 511.647 80.5847 513.063 80.8538C514.479 81.1229 516.809 83.615 519.15 84.3269C521.304 85.2387 526.521 86.605 528.983 86.9045C540.689 88.3283 547.513 88.1176 552.465 87.7273C557.418 87.3371 562.726 87.631 566.233 86.1265C569.267 84.825 572.316 83.095 572.316 80.8538C572.316 78.6126 571.035 77.802 566.233 76.5213C561.268 75.1972 557.054 75.4279 551.825 75.5608C549.775 75.6129 544.781 81.3239 544.781 81.3239C544.781 81.3239 539.966 75.3117 537.417 75.2406C532.24 75.0962 527.364 75.0236 524.301 74.6003C509.535 72.5595 501.07 70.7582 501.07 61.584V54.9498C501.07 46.7453 515.352 41.6199 527.459 40.0987Z" fill="white"/>
<path d="M346.106 53.4695C350.268 49.3075 353.15 46.6717 356.352 43.2236C359.553 39.7756 363.05 39.0614 365.637 40.3421C366.445 40.7421 367.545 41.5371 368.198 42.2631C369.891 44.1453 369.052 47.0657 368.198 48.9867C367.344 50.9077 364.676 52.8288 361.795 56.0305C358.913 59.2322 356.352 61.7937 356.352 62.1138C356.352 62.434 364.234 62.1445 364.676 62.1445C371.08 62.1138 373.641 68.197 373.641 71.3988V93.072C373.641 96.1419 371.976 99.5736 368.838 99.5736H367.238C363.736 99.5736 361.474 96.6628 361.474 93.072V79.4031C361.474 76.5216 359.233 73.64 355.711 73.64H328.176C326.07 73.64 323.054 79.4031 323.054 79.4031C323.054 79.4031 319.398 73.64 317.291 73.64H307.589C306.885 73.64 305.989 73.5476 305.476 74.2803C304.804 75.2409 305.124 78.7451 305.124 79.4031V93.072C305.124 96.6628 302.286 99.5736 298.784 99.5736H297.376C293.875 99.5736 291.037 96.6628 291.036 93.072V44.6684C291.036 41.0775 293.875 39.6113 297.376 39.6113H298.784C302.286 39.6113 305.124 41.0775 305.124 44.6684V58.9121C305.124 59.5521 305.124 60.5475 305.476 61.1533C305.951 61.9698 306.802 62.1138 307.589 62.1138C314.116 62.1138 311.303 62.1445 317.291 62.1445C319.404 62.1445 323.054 56.3511 323.054 56.3511C323.054 56.3511 326.063 62.1445 328.176 62.1445C331.007 62.1445 333.223 62.1445 334.9 62.1445C336.181 62.1445 339.383 60.1928 346.106 53.4695Z" fill="white"/>
<path d="M672.682 40.6621C675.865 40.6621 678.445 44.184 678.445 46.4252V48.0261C678.445 50.5875 675.865 53.7892 672.682 53.7892C672.682 53.7892 656.025 53.7892 645.147 53.7892C644.272 53.7892 643.845 53.8106 643.226 54.4295C642.607 55.0484 642.586 55.4753 642.586 56.3506C642.586 61.1019 642.586 59.8724 642.586 64.675C642.586 68.0394 648.669 71.3986 648.669 71.3986C648.669 71.3986 642.586 74.6004 642.586 77.4819C642.586 82.6047 642.586 96.3721 642.586 96.3721C642.586 99.555 640.005 102.135 636.823 102.135H634.261C631.078 102.135 628.498 99.555 628.498 96.3721C628.498 96.3721 628.498 82.9249 628.498 77.4819C628.498 74.563 622.415 71.3986 622.415 71.3986C622.415 71.3986 628.498 67.8775 628.498 64.675C628.498 59.8724 628.498 60.833 628.498 56.0304C628.498 55.4803 628.336 54.9081 627.858 54.4295C627.379 53.9509 627.017 53.7892 626.257 53.7892C615.051 53.7892 598.402 53.7892 598.402 53.7892C595.219 53.7892 592.639 50.5875 592.639 48.0261V46.4252C592.639 43.8638 595.219 40.6621 598.402 40.6621H672.682Z" fill="white"/>
<path fill-rule="evenodd" clip-rule="evenodd" d="M754.326 39.3821C761.37 40.4952 762.97 41.9435 763.611 42.9039C765.067 45.0886 764.144 47.0661 763.291 48.9871C762.437 50.9081 760.409 53.1494 757.528 56.3511C754.646 59.5527 751.444 61.7939 751.444 62.1142C751.444 62.4343 759.327 62.1448 759.769 62.1448C766.172 62.1142 768.733 68.1974 768.734 71.3992V93.0721C768.734 96.142 767.069 99.5737 763.931 99.5737H762.33C758.829 99.5737 756.567 96.6629 756.567 93.0721V79.4035C756.567 76.522 754.326 73.6404 750.804 73.6404H723.269C721.163 73.6404 718.15 79.3968 718.146 79.4035C718.142 79.3971 714.489 73.6404 712.383 73.6404H702.682C701.977 73.6404 701.082 73.548 700.569 74.2807C699.897 75.2412 700.217 78.7454 700.217 79.4035V93.0721C700.217 96.6629 697.378 99.5737 693.877 99.5737H692.469C688.968 99.5737 686.129 96.6629 686.129 93.0721V44.6685C686.129 41.2771 688.661 39.0648 691.892 38.9092C709.182 38.0762 747.282 38.2689 754.326 39.3821ZM700.12 50.2678C699.739 50.8396 699.786 52.0317 699.771 53.1493C699.735 55.7294 699.897 56.3511 699.897 58.9124C699.897 59.8262 700.217 60.5478 700.569 61.1536C701.043 61.9702 701.895 62.1141 702.682 62.1142C709.209 62.1142 706.396 62.1448 712.383 62.1448C714.49 62.1448 718.125 56.3859 718.146 56.3517C718.165 56.3876 721.163 62.1448 723.269 62.1448C725.376 62.1448 727.694 62.1454 729.032 62.1454C729.796 62.1454 732.379 62.4146 735.756 61.1543C737.037 60.6763 738.637 59.8731 742.479 56.6714C746.322 53.4696 749.747 51.8687 749.107 50.2684C748.595 48.9877 748.146 48.9872 742.383 48.667C736.62 48.3468 726.104 48.3468 719.651 48.3468C708.125 48.3468 706.354 48.6005 702.682 48.9871C701.721 49.0882 700.761 49.3073 700.12 50.2678Z" fill="white"/>
<defs>
<linearGradient id="paint0_linear_930_1023" x1="0" y1="70.5982" x2="892" y2="70.5982" gradientUnits="userSpaceOnUse">
<stop stop-color="#FFAE5E"/>
<stop offset="0.466346" stop-color="#9802E4"/>
<stop offset="1" stop-color="#FFBB62"/>
</linearGradient>
</defs>
</svg>
