<svg width="582" height="62" viewBox="0 0 582 62" fill="none" xmlns="http://www.w3.org/2000/svg">
<path d="M41.184 1.3679C42.432 1.3679 43.512 1.7999 44.424 2.6639C45.384 3.4799 45.864 4.4879 45.864 5.6879V56.0879C45.864 57.2879 45.384 58.3199 44.424 59.1839C43.512 59.9999 42.432 60.4079 41.184 60.4079C39.936 60.4079 38.856 59.9999 37.944 59.1839C37.032 58.3199 36.576 57.2879 36.576 56.0879V32.3999H9.28801V56.0879C9.28801 57.2879 8.80801 58.3199 7.84801 59.1839C6.93601 59.9999 5.85601 60.4079 4.60801 60.4079C3.36001 60.4079 2.28001 59.9999 1.36801 59.1839C0.456006 58.3199 5.90086e-06 57.2879 5.90086e-06 56.0879V5.6879C5.90086e-06 4.4879 0.456006 3.4799 1.36801 2.6639C2.28001 1.7999 3.36001 1.3679 4.60801 1.3679C5.85601 1.3679 6.93601 1.7999 7.84801 2.6639C8.80801 3.4799 9.28801 4.4879 9.28801 5.6879V23.7599H36.576V5.6879C36.576 4.4879 37.032 3.4799 37.944 2.6639C38.856 1.7999 39.936 1.3679 41.184 1.3679ZM96.495 54.8999C96.695 55.3799 96.795 55.7599 96.795 56.0399C96.795 57.0799 96.435 57.9799 95.715 58.7399C95.035 59.4599 94.175 59.8199 93.135 59.8199C92.415 59.8199 91.735 59.6199 91.095 59.2199C90.495 58.8199 90.055 58.2799 89.775 57.5999L85.095 45.4799H66.795L62.175 57.6599C61.935 58.2999 61.495 58.8199 60.855 59.2199C60.255 59.6199 59.575 59.8199 58.815 59.8199C57.775 59.8199 56.915 59.4599 56.235 58.7399C55.555 58.0199 55.215 57.1599 55.215 56.1599C55.215 55.8399 55.315 55.4399 55.515 54.9599L72.855 12.8399C73.175 12.0799 73.595 11.4999 74.115 11.0999C74.675 10.6999 75.255 10.4999 75.855 10.4999C76.535 10.4999 77.175 10.6999 77.775 11.0999C78.375 11.4999 78.835 12.0999 79.155 12.8999L96.495 54.8999ZM75.435 22.9199L69.375 38.8199H82.515L76.395 22.9199L75.915 21.2399L75.435 22.9199ZM141.644 48.6599C141.964 48.2599 142.364 47.9399 142.844 47.6999C143.364 47.4599 143.864 47.3399 144.344 47.3399C145.344 47.3399 146.184 47.6999 146.864 48.4199C147.584 49.0999 147.944 49.9399 147.944 50.9399C147.944 51.8999 147.604 52.7599 146.924 53.5199C145.084 55.4799 142.504 57.0999 139.184 58.3799C135.864 59.6199 132.564 60.2399 129.284 60.2399C124.524 60.2399 120.224 59.1999 116.384 57.1199C112.544 55.0399 109.524 52.1199 107.324 48.3599C105.124 44.5999 104.024 40.2799 104.024 35.3999C104.024 30.5599 105.124 26.2399 107.324 22.4399C109.524 18.6399 112.544 15.6999 116.384 13.6199C120.224 11.4999 124.524 10.4399 129.284 10.4399C132.564 10.4399 135.844 11.0999 139.124 12.4199C142.404 13.7399 144.984 15.4799 146.864 17.6399C147.544 18.4399 147.884 19.2999 147.884 20.2199C147.884 21.2199 147.524 22.0799 146.804 22.7999C146.084 23.4799 145.224 23.8199 144.224 23.8199C143.744 23.8199 143.264 23.7199 142.784 23.5199C142.304 23.3199 141.924 23.0399 141.644 22.6799C140.484 21.2799 138.764 20.1799 136.484 19.3799C134.204 18.5799 131.804 18.1799 129.284 18.1799C125.844 18.1799 122.784 18.8799 120.104 20.2799C117.464 21.6399 115.404 23.6199 113.924 26.2199C112.484 28.7799 111.764 31.8399 111.764 35.3999C111.764 38.9199 112.504 41.9799 113.984 44.5799C115.464 47.1399 117.524 49.1199 120.164 50.5199C122.804 51.8799 125.844 52.5599 129.284 52.5599C132.044 52.5599 134.564 52.1999 136.844 51.4799C139.124 50.7599 140.724 49.8199 141.644 48.6599ZM188.677 54.3599C189.037 54.7199 189.317 55.1399 189.517 55.6199C189.757 56.0999 189.877 56.5799 189.877 57.0599C189.877 58.0599 189.517 58.8999 188.797 59.5799C188.117 60.2999 187.277 60.6599 186.277 60.6599C185.357 60.6599 184.557 60.3599 183.877 59.7599L162.697 39.8999V56.6399C162.697 57.6399 162.337 58.4999 161.617 59.2199C160.937 59.8999 160.097 60.2399 159.097 60.2399C158.097 60.2399 157.237 59.8999 156.517 59.2199C155.837 58.4999 155.497 57.6399 155.497 56.6399V13.9799C155.497 12.9799 155.837 12.1399 156.517 11.4599C157.237 10.7399 158.097 10.3799 159.097 10.3799C160.097 10.3799 160.937 10.7399 161.617 11.4599C162.337 12.1399 162.697 12.9799 162.697 13.9799V28.4999L183.457 10.8599C184.137 10.2599 184.937 9.9599 185.857 9.9599C186.817 9.9599 187.637 10.3199 188.317 11.0399C189.037 11.7199 189.397 12.5599 189.397 13.5599C189.397 14.7199 188.997 15.6399 188.197 16.3199L167.197 33.8999C167.077 33.9399 166.997 34.0199 166.957 34.1399L167.197 34.3199L188.677 54.3599Z" fill="white"/>
<path d="M246.875 0.359899C248.123 0.359899 249.155 0.791899 249.971 1.6559C250.835 2.4719 251.267 3.4559 251.267 4.6079C251.267 5.2799 251.147 5.8559 250.907 6.3359L227.507 57.8879C227.075 58.8479 226.499 59.5439 225.779 59.9759C225.059 60.4559 224.291 60.6959 223.475 60.6959C222.803 60.6959 222.155 60.4319 221.531 59.9039C220.907 59.4239 220.379 58.7279 219.947 57.8159L196.979 5.9039C196.739 5.4239 196.619 4.8479 196.619 4.1759C196.619 2.8799 197.027 1.8719 197.843 1.1519C198.707 0.3839 199.763 -0.000101089 201.011 -0.000101089C201.971 -0.000101089 202.835 0.2639 203.603 0.791902C204.419 1.2719 205.019 1.9199 205.403 2.7359L213.539 21.5279L223.043 43.5599L223.763 45.6479L224.483 43.6319L242.843 2.4479C243.179 1.7279 243.659 1.1999 244.283 0.863901C244.955 0.527899 245.819 0.359899 246.875 0.359899ZM283.72 61.1399C279.08 61.1399 274.9 60.0799 271.18 57.9599C267.46 55.7999 264.52 52.7999 262.36 48.9599C260.24 45.1199 259.18 40.7399 259.18 35.8199C259.18 30.8999 260.24 26.5199 262.36 22.6799C264.52 18.8399 267.46 15.8599 271.18 13.7399C274.9 11.5799 279.08 10.4999 283.72 10.4999C288.36 10.4999 292.54 11.5799 296.26 13.7399C299.98 15.8599 302.9 18.8399 305.02 22.6799C307.14 26.5199 308.2 30.8999 308.2 35.8199C308.2 40.7399 307.14 45.1199 305.02 48.9599C302.9 52.7999 299.98 55.7999 296.26 57.9599C292.54 60.0799 288.36 61.1399 283.72 61.1399ZM283.72 53.3999C286.92 53.3999 289.78 52.6799 292.3 51.2399C294.86 49.7599 296.86 47.6999 298.3 45.0599C299.74 42.3799 300.46 39.2999 300.46 35.8199C300.46 32.3399 299.74 29.2799 298.3 26.6399C296.86 23.9599 294.86 21.8999 292.3 20.4599C289.78 18.9799 286.92 18.2399 283.72 18.2399C280.52 18.2399 277.64 18.9799 275.08 20.4599C272.52 21.8999 270.52 23.9599 269.08 26.6399C267.64 29.2799 266.92 32.3399 266.92 35.8199C266.92 39.2999 267.64 42.3799 269.08 45.0599C270.52 47.6999 272.52 49.7599 275.08 51.2399C277.64 52.6799 280.52 53.3999 283.72 53.3999ZM353.711 13.9799C353.711 14.5799 353.511 15.2399 353.111 15.9599L338.171 40.0199V56.5199C338.171 57.6399 337.811 58.5999 337.091 59.3999C336.371 60.1599 335.491 60.5399 334.451 60.5399C333.411 60.5399 332.511 60.1599 331.751 59.3999C331.031 58.5999 330.671 57.6399 330.671 56.5199V40.0199L315.911 15.5399C315.551 14.9399 315.371 14.2999 315.371 13.6199C315.371 12.6599 315.731 11.7799 316.451 10.9799C317.211 10.1399 318.091 9.7199 319.091 9.7199C319.771 9.7199 320.451 9.9199 321.131 10.3199C321.811 10.7199 322.331 11.1999 322.691 11.7599C324.051 14.1599 326.151 17.7999 328.991 22.6799C331.871 27.5599 333.631 30.4599 334.271 31.3799L334.511 31.9799L334.691 31.3799C336.051 29.2599 337.971 26.1599 340.451 22.0799C342.931 17.9599 344.911 14.6399 346.391 12.1199C346.751 11.5199 347.271 11.0199 347.951 10.6199C348.671 10.2199 349.391 10.0199 350.111 10.0199C351.151 10.0199 352.011 10.4199 352.691 11.2199C353.371 11.9799 353.711 12.8999 353.711 13.9799ZM397.901 54.8999C398.101 55.3799 398.201 55.7599 398.201 56.0399C398.201 57.0799 397.841 57.9799 397.121 58.7399C396.441 59.4599 395.581 59.8199 394.541 59.8199C393.821 59.8199 393.141 59.6199 392.501 59.2199C391.901 58.8199 391.461 58.2799 391.181 57.5999L386.501 45.4799H368.201L363.581 57.6599C363.341 58.2999 362.901 58.8199 362.261 59.2199C361.661 59.6199 360.981 59.8199 360.221 59.8199C359.181 59.8199 358.321 59.4599 357.641 58.7399C356.961 58.0199 356.621 57.1599 356.621 56.1599C356.621 55.8399 356.721 55.4399 356.921 54.9599L374.261 12.8399C374.581 12.0799 375.001 11.4999 375.521 11.0999C376.081 10.6999 376.661 10.4999 377.261 10.4999C377.941 10.4999 378.581 10.6999 379.181 11.0999C379.781 11.4999 380.241 12.0999 380.561 12.8999L397.901 54.8999ZM376.841 22.9199L370.781 38.8199H383.921L377.801 22.9199L377.321 21.2399L376.841 22.9199ZM430.33 60.8399C425.57 60.8399 421.29 59.7799 417.49 57.6599C413.73 55.5399 410.77 52.5599 408.61 48.7199C406.49 44.8399 405.43 40.4199 405.43 35.4599C405.43 30.6999 406.57 26.4199 408.85 22.6199C411.13 18.7799 414.23 15.7799 418.15 13.6199C422.07 11.4199 426.43 10.3199 431.23 10.3199C434.59 10.3199 438.01 11.0399 441.49 12.4799C444.97 13.9199 447.65 15.7999 449.53 18.1199C449.77 18.4399 449.97 18.8199 450.13 19.2599C450.29 19.6599 450.37 20.0399 450.37 20.3999C450.37 21.3999 450.03 22.2599 449.35 22.9799C448.67 23.6599 447.81 23.9999 446.77 23.9999C446.33 23.9999 445.83 23.8799 445.27 23.6399C444.75 23.3999 444.35 23.0999 444.07 22.7399C442.87 21.2999 440.97 20.0799 438.37 19.0799C435.77 18.0399 433.39 17.5199 431.23 17.5199C427.83 17.5199 424.75 18.2799 421.99 19.7999C419.23 21.3199 417.07 23.4399 415.51 26.1599C413.95 28.8799 413.17 31.9799 413.17 35.4599C413.17 39.0999 413.89 42.2599 415.33 44.9399C416.77 47.6199 418.77 49.6599 421.33 51.0599C423.93 52.4599 426.93 53.1599 430.33 53.1599C433.21 53.1599 435.75 52.7999 437.95 52.0799C440.19 51.3199 441.91 50.2999 443.11 49.0199C444.35 47.6999 444.97 46.2399 444.97 44.6399C444.97 42.7999 444.33 41.3199 443.05 40.1999C441.81 39.0399 440.11 38.4599 437.95 38.4599C436.15 38.4599 434.21 38.5799 432.13 38.8199C431.93 38.8599 431.57 38.8799 431.05 38.8799C429.93 38.8799 429.03 38.5799 428.35 37.9799C427.67 37.3799 427.33 36.5599 427.33 35.5199C427.33 33.3999 428.79 32.0999 431.71 31.6199C432.27 31.5399 433.17 31.4599 434.41 31.3799C435.69 31.2999 436.83 31.2599 437.83 31.2599C440.71 31.2599 443.23 31.8399 445.39 32.9999C447.55 34.1199 449.21 35.6999 450.37 37.7399C451.57 39.7399 452.17 42.0399 452.17 44.6399C452.17 47.6399 451.23 50.3799 449.35 52.8599C447.47 55.3399 444.85 57.2999 441.49 58.7399C438.17 60.1399 434.45 60.8399 430.33 60.8399ZM498.836 47.3399C499.836 47.3399 500.676 47.6999 501.356 48.4199C502.076 49.0999 502.436 49.9399 502.436 50.9399C502.436 51.8999 502.096 52.7599 501.416 53.5199C499.576 55.4799 496.996 57.0999 493.676 58.3799C490.356 59.6199 487.056 60.2399 483.776 60.2399C479.016 60.2399 474.716 59.1999 470.876 57.1199C467.036 55.0399 464.016 52.1199 461.816 48.3599C459.616 44.5999 458.516 40.2799 458.516 35.3999C458.516 30.5599 459.616 26.2399 461.816 22.4399C464.016 18.6399 467.036 15.6999 470.876 13.6199C474.716 11.4999 479.016 10.4399 483.776 10.4399C487.056 10.4399 490.336 11.0999 493.616 12.4199C496.896 13.7399 499.476 15.4799 501.356 17.6399C502.036 18.4399 502.376 19.2999 502.376 20.2199C502.376 21.2199 502.016 22.0799 501.296 22.7999C500.576 23.4799 499.716 23.8199 498.716 23.8199C498.236 23.8199 497.756 23.7199 497.276 23.5199C496.796 23.3199 496.416 23.0399 496.136 22.6799C494.976 21.2799 493.256 20.1799 490.976 19.3799C488.696 18.5799 486.296 18.1799 483.776 18.1799C479.336 18.1799 475.596 19.2999 472.556 21.5399C469.556 23.7399 467.616 26.8399 466.736 30.8399H485.456C486.456 30.8399 487.296 31.1999 487.976 31.9199C488.696 32.5999 489.056 33.4399 489.056 34.4399C489.056 35.4399 488.696 36.2999 487.976 37.0199C487.296 37.6999 486.456 38.0399 485.456 38.0399H466.436C466.956 42.5599 468.776 46.1199 471.896 48.7199C475.056 51.2799 479.016 52.5599 483.776 52.5599C486.536 52.5599 489.056 52.1999 491.336 51.4799C493.616 50.7599 495.216 49.8199 496.136 48.6599C496.456 48.2599 496.856 47.9399 497.336 47.6999C497.856 47.4599 498.356 47.3399 498.836 47.3399ZM541.009 53.9399C541.409 54.2599 541.829 54.7599 542.269 55.4399C542.749 56.1199 542.989 56.7599 542.989 57.3599C542.989 58.3599 542.649 59.1599 541.969 59.7599C541.289 60.3599 540.429 60.6599 539.389 60.6599C538.389 60.6599 537.649 60.4999 537.169 60.1799C535.569 59.2999 534.409 58.1199 533.689 56.6399C532.969 55.1199 532.449 52.9399 532.129 50.0999C532.009 48.8999 531.889 47.4999 531.769 45.8999C531.649 44.2599 531.549 42.9199 531.469 41.8799C531.389 39.9999 530.349 38.5799 528.349 37.6199C526.389 36.6599 523.989 36.1799 521.149 36.1799H517.189V56.6399C517.189 57.6399 516.829 58.4999 516.109 59.2199C515.429 59.8999 514.589 60.2399 513.589 60.2399C512.589 60.2399 511.729 59.8999 511.009 59.2199C510.329 58.4999 509.989 57.6399 509.989 56.6399V14.4599C509.989 13.3399 510.329 12.4399 511.009 11.7599C511.689 11.0799 512.569 10.6999 513.649 10.6199C515.009 10.5799 516.909 10.5599 519.349 10.5599C521.789 10.5199 523.809 10.4999 525.409 10.4999C528.409 10.4999 531.069 11.0399 533.389 12.1199C535.749 13.1999 537.569 14.7199 538.849 16.6799C540.169 18.6399 540.829 20.8799 540.829 23.3999C540.829 28.5199 538.269 31.9399 533.149 33.6599C536.549 35.0999 538.389 37.6399 538.669 41.2799L538.909 44.0399C538.989 45.3199 539.129 47.0999 539.329 49.3799C539.569 51.7799 540.129 53.2999 541.009 53.9399ZM517.189 29.5199H525.349C528.229 29.5199 530.329 29.0599 531.649 28.1399C532.969 27.2199 533.629 25.6399 533.629 23.3999C533.629 21.5999 532.909 20.1999 531.469 19.1999C530.029 18.1999 528.009 17.6999 525.409 17.6999H517.189V29.5199ZM565.112 60.5399C561.992 60.5399 559.032 59.7799 556.232 58.2599C553.432 56.6999 551.232 54.6199 549.632 52.0199C549.312 51.4599 549.152 50.7999 549.152 50.0399C549.152 48.7999 549.452 47.8199 550.052 47.0999C550.692 46.3799 551.532 46.0199 552.572 46.0199C553.452 46.0199 554.212 46.1999 554.852 46.5599C555.492 46.9199 556.052 47.4999 556.532 48.2999C557.292 49.5799 558.472 50.6399 560.072 51.4799C561.712 52.2799 563.392 52.6799 565.112 52.6799C570.872 52.6799 573.752 50.6799 573.752 46.6799C573.752 44.9599 573.032 43.3999 571.592 41.9999C570.192 40.5999 567.952 39.1799 564.872 37.7399C561.232 36.0599 558.392 34.5399 556.352 33.1799C554.352 31.7799 552.912 30.2999 552.032 28.7399C551.152 27.1399 550.712 25.2599 550.712 23.0999C550.712 20.6199 551.372 18.4199 552.692 16.4999C554.012 14.5399 555.832 13.0199 558.152 11.9399C560.472 10.8199 563.072 10.2599 565.952 10.2599C569.152 10.2599 572.092 10.9799 574.772 12.4199C577.452 13.8199 579.492 15.7399 580.892 18.1799C581.292 18.8199 581.492 19.4799 581.492 20.1599C581.492 21.1199 581.172 21.9599 580.532 22.6799C579.932 23.3999 579.172 23.7599 578.252 23.7599C577.572 23.7599 576.872 23.5799 576.152 23.2199C575.432 22.8199 574.872 22.3399 574.472 21.7799C573.552 20.4999 572.392 19.5599 570.992 18.9599C569.632 18.3599 567.952 18.0599 565.952 18.0599C563.592 18.0599 561.732 18.4999 560.372 19.3799C559.052 20.2199 558.392 21.4599 558.392 23.0999C558.392 24.0999 558.632 24.9399 559.112 25.6199C559.632 26.2599 560.492 26.9199 561.692 27.5999C562.932 28.2799 564.952 29.2599 567.752 30.5399C572.632 32.8199 576.132 35.1999 578.252 37.6799C580.412 40.1599 581.492 43.1599 581.492 46.6799C581.492 49.4399 580.812 51.8799 579.452 53.9999C578.092 56.0799 576.172 57.6999 573.692 58.8599C571.212 59.9799 568.352 60.5399 565.112 60.5399Z" fill="url(#paint0_linear_930_2621)"/>
<defs>
<linearGradient id="paint0_linear_930_2621" x1="-6.08812" y1="28.3999" x2="584.912" y2="28.3999" gradientUnits="userSpaceOnUse">
<stop offset="0.326923" stop-color="#FEB963"/>
<stop offset="0.677885" stop-color="#FF61E2"/>
<stop offset="1" stop-color="#FEB963"/>
</linearGradient>
</defs>
</svg>
