<svg width="166" height="17" viewBox="0 0 166 17" fill="none" xmlns="http://www.w3.org/2000/svg">
<path d="M11.44 0.379999C11.7867 0.379999 12.0867 0.499999 12.34 0.739999C12.6067 0.966666 12.74 1.24667 12.74 1.58V15.58C12.74 15.9133 12.6067 16.2 12.34 16.44C12.0867 16.6667 11.7867 16.78 11.44 16.78C11.0934 16.78 10.7934 16.6667 10.54 16.44C10.2867 16.2 10.16 15.9133 10.16 15.58V9H2.58002V15.58C2.58002 15.9133 2.44669 16.2 2.18002 16.44C1.92669 16.6667 1.62669 16.78 1.28002 16.78C0.933358 16.78 0.633358 16.6667 0.380025 16.44C0.126691 16.2 2.45273e-05 15.9133 2.45273e-05 15.58V1.58C2.45273e-05 1.24667 0.126691 0.966666 0.380025 0.739999C0.633358 0.499999 0.933358 0.379999 1.28002 0.379999C1.62669 0.379999 1.92669 0.499999 2.18002 0.739999C2.44669 0.966666 2.58002 1.24667 2.58002 1.58V6.6H10.16V1.58C10.16 1.24667 10.2867 0.966666 10.54 0.739999C10.7934 0.499999 11.0934 0.379999 11.44 0.379999ZM26.3055 15.3C26.3589 15.428 26.3855 15.5293 26.3855 15.604C26.3855 15.8813 26.2895 16.1213 26.0975 16.324C25.9162 16.516 25.6869 16.612 25.4095 16.612C25.2175 16.612 25.0362 16.5587 24.8655 16.452C24.7055 16.3453 24.5882 16.2013 24.5135 16.02L23.2655 12.788H18.3855L17.1535 16.036C17.0895 16.2067 16.9722 16.3453 16.8015 16.452C16.6415 16.5587 16.4602 16.612 16.2575 16.612C15.9802 16.612 15.7509 16.516 15.5695 16.324C15.3882 16.132 15.2975 15.9027 15.2975 15.636C15.2975 15.5507 15.3242 15.444 15.3775 15.316L20.0015 4.084C20.0869 3.88133 20.1989 3.72667 20.3375 3.62C20.4869 3.51333 20.6415 3.46 20.8015 3.46C20.9829 3.46 21.1535 3.51333 21.3135 3.62C21.4735 3.72667 21.5962 3.88667 21.6815 4.1L26.3055 15.3ZM20.6895 6.772L19.0735 11.012H22.5775L20.9455 6.772L20.8175 6.324L20.6895 6.772ZM38.3451 13.636C38.4305 13.5293 38.5372 13.444 38.6651 13.38C38.8038 13.316 38.9372 13.284 39.0652 13.284C39.3318 13.284 39.5558 13.38 39.7372 13.572C39.9292 13.7533 40.0252 13.9773 40.0252 14.244C40.0252 14.5 39.9345 14.7293 39.7531 14.932C39.2625 15.4547 38.5745 15.8867 37.6891 16.228C36.8038 16.5587 35.9238 16.724 35.0491 16.724C33.7798 16.724 32.6331 16.4467 31.6091 15.892C30.5851 15.3373 29.7798 14.5587 29.1931 13.556C28.6065 12.5533 28.3131 11.4013 28.3131 10.1C28.3131 8.80933 28.6065 7.65733 29.1931 6.644C29.7798 5.63067 30.5851 4.84667 31.6091 4.292C32.6331 3.72667 33.7798 3.444 35.0491 3.444C35.9238 3.444 36.7985 3.62 37.6732 3.972C38.5478 4.324 39.2358 4.788 39.7372 5.364C39.9185 5.57733 40.0091 5.80667 40.0091 6.052C40.0091 6.31867 39.9131 6.548 39.7212 6.74C39.5292 6.92133 39.2998 7.012 39.0331 7.012C38.9052 7.012 38.7772 6.98533 38.6491 6.932C38.5211 6.87867 38.4198 6.804 38.3451 6.708C38.0358 6.33467 37.5772 6.04133 36.9691 5.828C36.3611 5.61467 35.7211 5.508 35.0491 5.508C34.1318 5.508 33.3158 5.69467 32.6011 6.068C31.8971 6.43067 31.3478 6.95867 30.9531 7.652C30.5691 8.33467 30.3771 9.15067 30.3771 10.1C30.3771 11.0387 30.5745 11.8547 30.9691 12.548C31.3638 13.2307 31.9131 13.7587 32.6171 14.132C33.3211 14.4947 34.1318 14.676 35.0491 14.676C35.7851 14.676 36.4571 14.58 37.0652 14.388C37.6732 14.196 38.0998 13.9453 38.3451 13.636ZM50.8874 15.156C50.9834 15.252 51.0581 15.364 51.1114 15.492C51.1754 15.62 51.2074 15.748 51.2074 15.876C51.2074 16.1427 51.1114 16.3667 50.9194 16.548C50.7381 16.74 50.5141 16.836 50.2474 16.836C50.0021 16.836 49.7887 16.756 49.6074 16.596L43.9594 11.3V15.764C43.9594 16.0307 43.8634 16.26 43.6714 16.452C43.4901 16.6333 43.2661 16.724 42.9994 16.724C42.7327 16.724 42.5034 16.6333 42.3114 16.452C42.1301 16.26 42.0394 16.0307 42.0394 15.764V4.388C42.0394 4.12133 42.1301 3.89733 42.3114 3.716C42.5034 3.524 42.7327 3.428 42.9994 3.428C43.2661 3.428 43.4901 3.524 43.6714 3.716C43.8634 3.89733 43.9594 4.12133 43.9594 4.388V8.26L49.4954 3.556C49.6767 3.396 49.8901 3.316 50.1354 3.316C50.3914 3.316 50.6101 3.412 50.7914 3.604C50.9834 3.78533 51.0794 4.00933 51.0794 4.276C51.0794 4.58533 50.9727 4.83067 50.7594 5.012L45.1594 9.7C45.1274 9.71067 45.1061 9.732 45.0954 9.764L45.1594 9.812L50.8874 15.156ZM161.786 12.14C161.786 12.4333 161.679 12.6867 161.466 12.9C161.252 13.1 160.992 13.2 160.686 13.2C160.392 13.2 160.139 13.1 159.926 12.9C159.712 12.6867 159.606 12.4333 159.606 12.14V8.86C159.606 8.28667 159.919 7.89333 160.546 7.68C162.212 7.14667 163.046 6.2 163.046 4.84C163.046 4.06667 162.852 3.48 162.466 3.08C162.079 2.66667 161.499 2.46 160.726 2.46C160.339 2.46 159.879 2.52 159.346 2.64C159.212 2.66667 159.072 2.68 158.926 2.68C158.672 2.68 158.459 2.58667 158.286 2.4C158.112 2.21333 158.026 1.97333 158.026 1.68C158.026 1.38667 158.106 1.13333 158.266 0.919999C158.439 0.706666 158.666 0.559999 158.946 0.479999C159.546 0.293332 160.166 0.199999 160.806 0.199999C161.686 0.199999 162.459 0.393332 163.126 0.78C163.792 1.15333 164.306 1.69333 164.666 2.4C165.039 3.09333 165.226 3.90667 165.226 4.84C165.226 5.88 164.919 6.82 164.306 7.66C163.706 8.48667 162.866 9.12667 161.786 9.58V12.14ZM160.646 17C160.219 17 159.852 16.84 159.546 16.52C159.239 16.2133 159.086 15.8467 159.086 15.42C159.086 15.0067 159.239 14.6467 159.546 14.34C159.852 14.0333 160.219 13.88 160.646 13.88C161.059 13.88 161.419 14.0333 161.726 14.34C162.046 14.6467 162.206 15.0067 162.206 15.42C162.206 15.8467 162.052 16.2133 161.746 16.52C161.439 16.84 161.072 17 160.646 17Z" fill="white"/>
<path d="M67.0131 0.099999C67.3598 0.099999 67.6465 0.219999 67.8732 0.459999C68.1132 0.686666 68.2332 0.959999 68.2332 1.28C68.2332 1.46667 68.1998 1.62667 68.1331 1.76L61.6331 16.08C61.5131 16.3467 61.3531 16.54 61.1532 16.66C60.9531 16.7933 60.7398 16.86 60.5131 16.86C60.3265 16.86 60.1465 16.7867 59.9731 16.64C59.7998 16.5067 59.6531 16.3133 59.5331 16.06L53.1531 1.64C53.0865 1.50667 53.0531 1.34667 53.0531 1.16C53.0531 0.799999 53.1665 0.52 53.3931 0.32C53.6331 0.106666 53.9265 -9.53674e-07 54.2731 -9.53674e-07C54.5398 -9.53674e-07 54.7798 0.0733326 54.9931 0.22C55.2198 0.353333 55.3865 0.533333 55.4931 0.759999L57.7531 5.98L60.3931 12.1L60.5931 12.68L60.7931 12.12L65.8931 0.68C65.9865 0.479999 66.1198 0.333332 66.2932 0.24C66.4798 0.146666 66.7198 0.099999 67.0131 0.099999ZM76.9353 16.964C75.6979 16.964 74.5833 16.6813 73.5913 16.116C72.5993 15.54 71.8153 14.74 71.2393 13.716C70.6739 12.692 70.3913 11.524 70.3913 10.212C70.3913 8.9 70.6739 7.732 71.2393 6.708C71.8153 5.684 72.5993 4.88933 73.5913 4.324C74.5833 3.748 75.6979 3.46 76.9353 3.46C78.1726 3.46 79.2873 3.748 80.2793 4.324C81.2713 4.88933 82.0499 5.684 82.6153 6.708C83.1806 7.732 83.4633 8.9 83.4633 10.212C83.4633 11.524 83.1806 12.692 82.6153 13.716C82.0499 14.74 81.2713 15.54 80.2793 16.116C79.2873 16.6813 78.1726 16.964 76.9353 16.964ZM76.9353 14.9C77.7886 14.9 78.5513 14.708 79.2233 14.324C79.9059 13.9293 80.4393 13.38 80.8233 12.676C81.2073 11.9613 81.3993 11.14 81.3993 10.212C81.3993 9.284 81.2073 8.468 80.8233 7.764C80.4393 7.04933 79.9059 6.5 79.2233 6.116C78.5513 5.72133 77.7886 5.524 76.9353 5.524C76.0819 5.524 75.3139 5.72133 74.6313 6.116C73.9486 6.5 73.4153 7.04933 73.0313 7.764C72.6473 8.468 72.4553 9.284 72.4553 10.212C72.4553 11.14 72.6473 11.9613 73.0313 12.676C73.4153 13.38 73.9486 13.9293 74.6313 14.324C75.3139 14.708 76.0819 14.9 76.9353 14.9ZM95.5997 4.388C95.5997 4.548 95.5463 4.724 95.4396 4.916L91.4556 11.332V15.732C91.4556 16.0307 91.3596 16.2867 91.1676 16.5C90.9756 16.7027 90.741 16.804 90.4636 16.804C90.1863 16.804 89.9463 16.7027 89.7436 16.5C89.5516 16.2867 89.4556 16.0307 89.4556 15.732V11.332L85.5196 4.804C85.4236 4.644 85.3756 4.47333 85.3756 4.292C85.3756 4.036 85.4716 3.80133 85.6636 3.588C85.8663 3.364 86.101 3.252 86.3676 3.252C86.549 3.252 86.7303 3.30533 86.9116 3.412C87.093 3.51867 87.2316 3.64667 87.3276 3.796C87.6903 4.436 88.2503 5.40667 89.0076 6.708C89.7756 8.00933 90.245 8.78267 90.4156 9.028L90.4796 9.188L90.5276 9.028C90.8903 8.46267 91.4023 7.636 92.0636 6.548C92.725 5.44933 93.253 4.564 93.6476 3.892C93.7436 3.732 93.8823 3.59867 94.0637 3.492C94.2557 3.38533 94.4477 3.332 94.6397 3.332C94.917 3.332 95.1463 3.43867 95.3277 3.652C95.509 3.85467 95.5997 4.1 95.5997 4.388ZM107.384 15.3C107.437 15.428 107.464 15.5293 107.464 15.604C107.464 15.8813 107.368 16.1213 107.176 16.324C106.994 16.516 106.765 16.612 106.488 16.612C106.296 16.612 106.114 16.5587 105.944 16.452C105.784 16.3453 105.666 16.2013 105.592 16.02L104.344 12.788H99.4636L98.2316 16.036C98.1676 16.2067 98.0503 16.3453 97.8796 16.452C97.7196 16.5587 97.5383 16.612 97.3356 16.612C97.0583 16.612 96.829 16.516 96.6476 16.324C96.4663 16.132 96.3756 15.9027 96.3756 15.636C96.3756 15.5507 96.4023 15.444 96.4556 15.316L101.08 4.084C101.165 3.88133 101.277 3.72667 101.416 3.62C101.565 3.51333 101.72 3.46 101.88 3.46C102.061 3.46 102.232 3.51333 102.392 3.62C102.552 3.72667 102.674 3.88667 102.76 4.1L107.384 15.3ZM101.768 6.772L100.152 11.012H103.656L102.024 6.772L101.896 6.324L101.768 6.772ZM116.031 16.884C114.762 16.884 113.621 16.6013 112.607 16.036C111.605 15.4707 110.815 14.676 110.239 13.652C109.674 12.6173 109.391 11.4387 109.391 10.116C109.391 8.84667 109.695 7.70533 110.303 6.692C110.911 5.668 111.738 4.868 112.783 4.292C113.829 3.70533 114.991 3.412 116.271 3.412C117.167 3.412 118.079 3.604 119.007 3.988C119.935 4.372 120.65 4.87333 121.151 5.492C121.215 5.57733 121.269 5.67867 121.311 5.796C121.354 5.90267 121.375 6.004 121.375 6.1C121.375 6.36667 121.285 6.596 121.103 6.788C120.922 6.96933 120.693 7.06 120.415 7.06C120.298 7.06 120.165 7.028 120.015 6.964C119.877 6.9 119.77 6.82 119.695 6.724C119.375 6.34 118.869 6.01467 118.175 5.748C117.482 5.47067 116.847 5.332 116.271 5.332C115.365 5.332 114.543 5.53467 113.807 5.94C113.071 6.34533 112.495 6.91067 112.079 7.636C111.663 8.36133 111.455 9.188 111.455 10.116C111.455 11.0867 111.647 11.9293 112.031 12.644C112.415 13.3587 112.949 13.9027 113.631 14.276C114.325 14.6493 115.125 14.836 116.031 14.836C116.799 14.836 117.477 14.74 118.063 14.548C118.661 14.3453 119.119 14.0733 119.439 13.732C119.77 13.38 119.935 12.9907 119.935 12.564C119.935 12.0733 119.765 11.6787 119.423 11.38C119.093 11.0707 118.639 10.916 118.063 10.916C117.583 10.916 117.066 10.948 116.511 11.012C116.458 11.0227 116.362 11.028 116.223 11.028C115.925 11.028 115.685 10.948 115.503 10.788C115.322 10.628 115.231 10.4093 115.231 10.132C115.231 9.56667 115.621 9.22 116.399 9.092C116.549 9.07067 116.789 9.04933 117.119 9.028C117.461 9.00667 117.765 8.996 118.031 8.996C118.799 8.996 119.471 9.15067 120.047 9.46C120.623 9.75867 121.066 10.18 121.375 10.724C121.695 11.2573 121.855 11.8707 121.855 12.564C121.855 13.364 121.605 14.0947 121.103 14.756C120.602 15.4173 119.903 15.94 119.007 16.324C118.122 16.6973 117.13 16.884 116.031 16.884ZM134.3 13.284C134.566 13.284 134.79 13.38 134.972 13.572C135.164 13.7533 135.26 13.9773 135.26 14.244C135.26 14.5 135.169 14.7293 134.988 14.932C134.497 15.4547 133.809 15.8867 132.924 16.228C132.038 16.5587 131.158 16.724 130.284 16.724C129.014 16.724 127.868 16.4467 126.844 15.892C125.82 15.3373 125.014 14.5587 124.428 13.556C123.841 12.5533 123.548 11.4013 123.548 10.1C123.548 8.80933 123.841 7.65733 124.428 6.644C125.014 5.63067 125.82 4.84667 126.844 4.292C127.868 3.72667 129.014 3.444 130.284 3.444C131.158 3.444 132.033 3.62 132.908 3.972C133.782 4.324 134.47 4.788 134.972 5.364C135.153 5.57733 135.244 5.80667 135.244 6.052C135.244 6.31867 135.148 6.548 134.956 6.74C134.764 6.92133 134.534 7.012 134.268 7.012C134.14 7.012 134.012 6.98533 133.884 6.932C133.756 6.87867 133.654 6.804 133.58 6.708C133.27 6.33467 132.812 6.04133 132.204 5.828C131.596 5.61467 130.956 5.508 130.284 5.508C129.1 5.508 128.102 5.80667 127.292 6.404C126.492 6.99067 125.974 7.81733 125.74 8.884H130.732C130.998 8.884 131.222 8.98 131.404 9.172C131.596 9.35333 131.692 9.57733 131.692 9.844C131.692 10.1107 131.596 10.34 131.404 10.532C131.222 10.7133 130.998 10.804 130.732 10.804H125.66C125.798 12.0093 126.284 12.9587 127.116 13.652C127.958 14.3347 129.014 14.676 130.284 14.676C131.02 14.676 131.692 14.58 132.3 14.388C132.908 14.196 133.334 13.9453 133.58 13.636C133.665 13.5293 133.772 13.444 133.9 13.38C134.038 13.316 134.172 13.284 134.3 13.284ZM145.546 15.044C145.652 15.1293 145.764 15.2627 145.882 15.444C146.01 15.6253 146.074 15.796 146.074 15.956C146.074 16.2227 145.983 16.436 145.802 16.596C145.62 16.756 145.391 16.836 145.114 16.836C144.847 16.836 144.65 16.7933 144.522 16.708C144.095 16.4733 143.786 16.1587 143.594 15.764C143.402 15.3587 143.263 14.7773 143.178 14.02C143.146 13.7 143.114 13.3267 143.082 12.9C143.05 12.4627 143.023 12.1053 143.002 11.828C142.98 11.3267 142.703 10.948 142.17 10.692C141.647 10.436 141.007 10.308 140.25 10.308H139.194V15.764C139.194 16.0307 139.098 16.26 138.906 16.452C138.724 16.6333 138.5 16.724 138.234 16.724C137.967 16.724 137.738 16.6333 137.546 16.452C137.364 16.26 137.274 16.0307 137.274 15.764V4.516C137.274 4.21733 137.364 3.97733 137.546 3.796C137.727 3.61467 137.962 3.51333 138.25 3.492C138.612 3.48133 139.119 3.476 139.77 3.476C140.42 3.46533 140.959 3.46 141.386 3.46C142.186 3.46 142.895 3.604 143.514 3.892C144.143 4.18 144.628 4.58533 144.97 5.108C145.322 5.63067 145.498 6.228 145.498 6.9C145.498 8.26533 144.815 9.17733 143.45 9.636C144.356 10.02 144.847 10.6973 144.922 11.668L144.986 12.404C145.007 12.7453 145.044 13.22 145.098 13.828C145.162 14.468 145.311 14.8733 145.546 15.044ZM139.194 8.532H141.37C142.138 8.532 142.698 8.40933 143.05 8.164C143.402 7.91867 143.578 7.49733 143.578 6.9C143.578 6.42 143.386 6.04667 143.002 5.78C142.618 5.51333 142.079 5.38 141.386 5.38H139.194V8.532ZM151.973 16.804C151.141 16.804 150.352 16.6013 149.605 16.196C148.858 15.78 148.272 15.2253 147.845 14.532C147.76 14.3827 147.717 14.2067 147.717 14.004C147.717 13.6733 147.797 13.412 147.957 13.22C148.128 13.028 148.352 12.932 148.629 12.932C148.864 12.932 149.066 12.98 149.237 13.076C149.408 13.172 149.557 13.3267 149.685 13.54C149.888 13.8813 150.202 14.164 150.629 14.388C151.066 14.6013 151.514 14.708 151.973 14.708C153.509 14.708 154.277 14.1747 154.277 13.108C154.277 12.6493 154.085 12.2333 153.701 11.86C153.328 11.4867 152.73 11.108 151.909 10.724C150.938 10.276 150.181 9.87067 149.637 9.508C149.104 9.13467 148.72 8.74 148.485 8.324C148.25 7.89733 148.133 7.396 148.133 6.82C148.133 6.15867 148.309 5.572 148.661 5.06C149.013 4.53733 149.498 4.132 150.117 3.844C150.736 3.54533 151.429 3.396 152.197 3.396C153.05 3.396 153.834 3.588 154.549 3.972C155.264 4.34533 155.808 4.85733 156.181 5.508C156.288 5.67867 156.341 5.85467 156.341 6.036C156.341 6.292 156.256 6.516 156.085 6.708C155.925 6.9 155.722 6.996 155.477 6.996C155.296 6.996 155.109 6.948 154.917 6.852C154.725 6.74533 154.576 6.61733 154.469 6.468C154.224 6.12667 153.914 5.876 153.541 5.716C153.178 5.556 152.73 5.476 152.197 5.476C151.568 5.476 151.072 5.59333 150.709 5.828C150.357 6.052 150.181 6.38267 150.181 6.82C150.181 7.08667 150.245 7.31067 150.373 7.492C150.512 7.66267 150.741 7.83867 151.061 8.02C151.392 8.20133 151.93 8.46267 152.677 8.804C153.978 9.412 154.912 10.0467 155.477 10.708C156.053 11.3693 156.341 12.1693 156.341 13.108C156.341 13.844 156.16 14.4947 155.797 15.06C155.434 15.6147 154.922 16.0467 154.261 16.356C153.6 16.6547 152.837 16.804 151.973 16.804Z" fill="url(#paint0_linear_1677_8)"/>
<defs>
<linearGradient id="paint0_linear_1677_8" x1="-1.7738" y1="8" x2="166.226" y2="8" gradientUnits="userSpaceOnUse">
<stop offset="0.326923" stop-color="#FEB963"/>
<stop offset="0.677885" stop-color="#FF61E2"/>
<stop offset="1" stop-color="#FEB963"/>
</linearGradient>
</defs>
</svg>
