<svg width="516" height="55" viewBox="0 0 516 55" fill="none" xmlns="http://www.w3.org/2000/svg">
<path d="M36.608 1.21605C37.7173 1.21605 38.6773 1.60005 39.488 2.36805C40.3413 3.09338 40.768 3.98938 40.768 5.05605V49.856C40.768 50.9227 40.3413 51.84 39.488 52.608C38.6773 53.3334 37.7173 53.696 36.608 53.696C35.4987 53.696 34.5387 53.3334 33.728 52.608C32.9173 51.84 32.512 50.9227 32.512 49.856V28.8H8.25601V49.856C8.25601 50.9227 7.82934 51.84 6.97601 52.608C6.16534 53.3334 5.20534 53.696 4.09601 53.696C2.98667 53.696 2.02667 53.3334 1.21601 52.608C0.405339 51.84 5.24521e-06 50.9227 5.24521e-06 49.856V5.05605C5.24521e-06 3.98938 0.405339 3.09338 1.21601 2.36805C2.02667 1.60005 2.98667 1.21605 4.09601 1.21605C5.20534 1.21605 6.16534 1.60005 6.97601 2.36805C7.82934 3.09338 8.25601 3.98938 8.25601 5.05605V21.12H32.512V5.05605C32.512 3.98938 32.9173 3.09338 33.728 2.36805C34.5387 1.60005 35.4987 1.21605 36.608 1.21605ZM86.272 48.75C86.452 49.182 86.542 49.524 86.542 49.776C86.542 50.712 86.218 51.522 85.57 52.206C84.958 52.854 84.184 53.178 83.248 53.178C82.6 53.178 81.988 52.998 81.412 52.638C80.872 52.278 80.476 51.792 80.224 51.18L76.012 40.272H59.542L55.384 51.234C55.168 51.81 54.772 52.278 54.196 52.638C53.656 52.998 53.044 53.178 52.36 53.178C51.424 53.178 50.65 52.854 50.038 52.206C49.426 51.558 49.12 50.784 49.12 49.884C49.12 49.596 49.21 49.236 49.39 48.804L64.996 10.896C65.284 10.212 65.662 9.69005 66.13 9.33005C66.634 8.97005 67.156 8.79005 67.696 8.79005C68.308 8.79005 68.884 8.97005 69.424 9.33005C69.964 9.69005 70.378 10.23 70.666 10.95L86.272 48.75ZM67.318 19.968L61.864 34.278H73.69L68.182 19.968L67.75 18.456L67.318 19.968ZM126.906 43.134C127.194 42.774 127.554 42.486 127.986 42.27C128.454 42.054 128.904 41.946 129.336 41.946C130.236 41.946 130.992 42.27 131.604 42.918C132.252 43.53 132.576 44.286 132.576 45.186C132.576 46.05 132.27 46.824 131.658 47.508C130.002 49.272 127.68 50.73 124.692 51.882C121.704 52.998 118.734 53.556 115.782 53.556C111.498 53.556 107.628 52.62 104.172 50.748C100.716 48.876 97.9977 46.248 96.0177 42.864C94.0377 39.48 93.0477 35.592 93.0477 31.2C93.0477 26.844 94.0377 22.956 96.0177 19.536C97.9977 16.116 100.716 13.47 104.172 11.598C107.628 9.69005 111.498 8.73605 115.782 8.73605C118.734 8.73605 121.686 9.33005 124.638 10.518C127.59 11.706 129.912 13.272 131.604 15.216C132.216 15.936 132.522 16.71 132.522 17.538C132.522 18.438 132.198 19.212 131.55 19.86C130.902 20.472 130.128 20.778 129.228 20.778C128.796 20.778 128.364 20.688 127.932 20.508C127.5 20.328 127.158 20.076 126.906 19.752C125.862 18.492 124.314 17.502 122.262 16.782C120.21 16.062 118.05 15.702 115.782 15.702C112.686 15.702 109.932 16.332 107.52 17.592C105.144 18.816 103.29 20.598 101.958 22.938C100.662 25.242 100.014 27.996 100.014 31.2C100.014 34.368 100.68 37.122 102.012 39.462C103.344 41.766 105.198 43.548 107.574 44.808C109.95 46.032 112.686 46.644 115.782 46.644C118.266 46.644 120.534 46.32 122.586 45.672C124.638 45.024 126.078 44.178 126.906 43.134ZM169.236 48.264C169.56 48.588 169.812 48.966 169.992 49.398C170.208 49.83 170.316 50.262 170.316 50.694C170.316 51.594 169.992 52.35 169.344 52.962C168.732 53.61 167.976 53.934 167.076 53.934C166.248 53.934 165.528 53.664 164.916 53.124L145.854 35.25V50.316C145.854 51.216 145.53 51.99 144.882 52.638C144.27 53.25 143.514 53.556 142.614 53.556C141.714 53.556 140.94 53.25 140.292 52.638C139.68 51.99 139.374 51.216 139.374 50.316V11.922C139.374 11.022 139.68 10.266 140.292 9.65405C140.94 9.00605 141.714 8.68205 142.614 8.68205C143.514 8.68205 144.27 9.00605 144.882 9.65405C145.53 10.266 145.854 11.022 145.854 11.922V24.99L164.538 9.11405C165.15 8.57405 165.87 8.30405 166.698 8.30405C167.562 8.30405 168.3 8.62805 168.912 9.27605C169.56 9.88805 169.884 10.644 169.884 11.544C169.884 12.588 169.524 13.416 168.804 14.028L149.904 29.85C149.796 29.886 149.724 29.958 149.688 30.066L149.904 30.228L169.236 48.264ZM504.828 38.848C504.828 39.7867 504.487 40.5974 503.804 41.28C503.121 41.92 502.289 42.24 501.308 42.24C500.369 42.24 499.559 41.92 498.876 41.28C498.193 40.5974 497.852 39.7867 497.852 38.848V28.352C497.852 26.5174 498.855 25.2587 500.86 24.576C506.193 22.8694 508.86 19.84 508.86 15.488C508.86 13.0134 508.241 11.136 507.004 9.85605C505.767 8.53338 503.911 7.87205 501.436 7.87205C500.199 7.87205 498.727 8.06405 497.02 8.44805C496.593 8.53338 496.145 8.57605 495.676 8.57605C494.865 8.57605 494.183 8.27738 493.628 7.68005C493.073 7.08271 492.796 6.31471 492.796 5.37605C492.796 4.43738 493.052 3.62671 493.564 2.94405C494.119 2.26138 494.844 1.79205 495.74 1.53605C497.66 0.938712 499.644 0.640045 501.692 0.640045C504.508 0.640045 506.983 1.25871 509.116 2.49605C511.249 3.69071 512.892 5.41871 514.044 7.68005C515.239 9.89871 515.836 12.5014 515.836 15.488C515.836 18.816 514.855 21.824 512.892 24.512C510.972 27.1574 508.284 29.2054 504.828 30.656V38.848ZM501.18 54.4C499.815 54.4 498.641 53.888 497.66 52.864C496.679 51.8827 496.188 50.7094 496.188 49.344C496.188 48.0214 496.679 46.8694 497.66 45.888C498.641 44.9067 499.815 44.416 501.18 44.416C502.503 44.416 503.655 44.9067 504.636 45.888C505.66 46.8694 506.172 48.0214 506.172 49.344C506.172 50.7094 505.681 51.8827 504.7 52.864C503.719 53.888 502.545 54.4 501.18 54.4Z" fill="white"/>
<path d="M221.007 0.320045C222.117 0.320045 223.034 0.704046 223.759 1.47205C224.527 2.19738 224.911 3.07205 224.911 4.09605C224.911 4.69338 224.805 5.20538 224.591 5.63205L203.791 51.456C203.407 52.3094 202.895 52.928 202.255 53.312C201.615 53.7387 200.933 53.952 200.207 53.952C199.61 53.952 199.034 53.7174 198.479 53.248C197.925 52.8214 197.455 52.2027 197.071 51.392L176.655 5.24805C176.442 4.82138 176.335 4.30938 176.335 3.71205C176.335 2.56005 176.698 1.66405 177.423 1.02405C178.191 0.34138 179.13 4.57764e-05 180.239 4.57764e-05C181.093 4.57764e-05 181.861 0.234713 182.543 0.704048C183.269 1.13071 183.802 1.70671 184.143 2.43204L191.375 19.136L199.823 38.72L200.463 40.576L201.103 38.784L217.423 2.17605C217.722 1.53605 218.149 1.06671 218.703 0.768047C219.301 0.469379 220.069 0.320045 221.007 0.320045ZM254.071 54.366C249.895 54.366 246.133 53.412 242.785 51.504C239.437 49.56 236.791 46.86 234.847 43.404C232.939 39.948 231.985 36.006 231.985 31.578C231.985 27.15 232.939 23.208 234.847 19.752C236.791 16.296 239.437 13.614 242.785 11.706C246.133 9.76205 249.895 8.79005 254.071 8.79005C258.247 8.79005 262.009 9.76205 265.357 11.706C268.705 13.614 271.333 16.296 273.241 19.752C275.149 23.208 276.103 27.15 276.103 31.578C276.103 36.006 275.149 39.948 273.241 43.404C271.333 46.86 268.705 49.56 265.357 51.504C262.009 53.412 258.247 54.366 254.071 54.366ZM254.071 47.4C256.951 47.4 259.525 46.752 261.793 45.456C264.097 44.124 265.897 42.27 267.193 39.894C268.489 37.482 269.137 34.71 269.137 31.578C269.137 28.446 268.489 25.692 267.193 23.316C265.897 20.904 264.097 19.05 261.793 17.754C259.525 16.422 256.951 15.756 254.071 15.756C251.191 15.756 248.599 16.422 246.295 17.754C243.991 19.05 242.191 20.904 240.895 23.316C239.599 25.692 238.951 28.446 238.951 31.578C238.951 34.71 239.599 37.482 240.895 39.894C242.191 42.27 243.991 44.124 246.295 45.456C248.599 46.752 251.191 47.4 254.071 47.4ZM317.064 11.922C317.064 12.462 316.884 13.056 316.524 13.704L303.078 35.358V50.208C303.078 51.216 302.754 52.08 302.106 52.8C301.458 53.484 300.666 53.826 299.73 53.826C298.794 53.826 297.984 53.484 297.3 52.8C296.652 52.08 296.328 51.216 296.328 50.208V35.358L283.044 13.326C282.72 12.786 282.558 12.21 282.558 11.598C282.558 10.734 282.882 9.94205 283.53 9.22205C284.214 8.46605 285.006 8.08805 285.906 8.08805C286.518 8.08805 287.13 8.26805 287.742 8.62805C288.354 8.98805 288.822 9.42005 289.146 9.92405C290.37 12.084 292.26 15.36 294.816 19.752C297.408 24.144 298.992 26.754 299.568 27.582L299.784 28.122L299.946 27.582C301.17 25.674 302.898 22.884 305.13 19.212C307.362 15.504 309.144 12.516 310.476 10.248C310.8 9.70805 311.268 9.25805 311.88 8.89805C312.528 8.53805 313.176 8.35805 313.824 8.35805C314.76 8.35805 315.534 8.71805 316.146 9.43805C316.758 10.122 317.064 10.95 317.064 11.922ZM356.835 48.75C357.015 49.182 357.105 49.524 357.105 49.776C357.105 50.712 356.781 51.522 356.133 52.206C355.521 52.854 354.747 53.178 353.811 53.178C353.163 53.178 352.551 52.998 351.975 52.638C351.435 52.278 351.039 51.792 350.787 51.18L346.575 40.272H330.105L325.947 51.234C325.731 51.81 325.335 52.278 324.759 52.638C324.219 52.998 323.607 53.178 322.923 53.178C321.987 53.178 321.213 52.854 320.601 52.206C319.989 51.558 319.683 50.784 319.683 49.884C319.683 49.596 319.773 49.236 319.953 48.804L335.559 10.896C335.847 10.212 336.225 9.69005 336.693 9.33005C337.197 8.97005 337.719 8.79005 338.259 8.79005C338.871 8.79005 339.447 8.97005 339.987 9.33005C340.527 9.69005 340.941 10.23 341.229 10.95L356.835 48.75ZM337.881 19.968L332.427 34.278H344.253L338.745 19.968L338.313 18.456L337.881 19.968ZM386.02 54.096C381.736 54.096 377.884 53.142 374.464 51.234C371.08 49.326 368.416 46.644 366.472 43.188C364.564 39.696 363.61 35.718 363.61 31.254C363.61 26.97 364.636 23.118 366.688 19.698C368.74 16.242 371.53 13.542 375.058 11.598C378.586 9.61805 382.51 8.62805 386.83 8.62805C389.854 8.62805 392.932 9.27605 396.064 10.572C399.196 11.868 401.608 13.56 403.3 15.648C403.516 15.936 403.696 16.278 403.84 16.674C403.984 17.034 404.056 17.376 404.056 17.7C404.056 18.6 403.75 19.374 403.138 20.022C402.526 20.634 401.752 20.94 400.816 20.94C400.42 20.94 399.97 20.832 399.466 20.616C398.998 20.4 398.638 20.13 398.386 19.806C397.306 18.51 395.596 17.412 393.256 16.512C390.916 15.576 388.774 15.108 386.83 15.108C383.77 15.108 380.998 15.792 378.514 17.16C376.03 18.528 374.086 20.436 372.682 22.884C371.278 25.332 370.576 28.122 370.576 31.254C370.576 34.53 371.224 37.374 372.52 39.786C373.816 42.198 375.616 44.034 377.92 45.294C380.26 46.554 382.96 47.184 386.02 47.184C388.612 47.184 390.898 46.86 392.878 46.212C394.894 45.528 396.442 44.61 397.522 43.458C398.638 42.27 399.196 40.956 399.196 39.516C399.196 37.86 398.62 36.528 397.468 35.52C396.352 34.476 394.822 33.954 392.878 33.954C391.258 33.954 389.512 34.062 387.64 34.278C387.46 34.314 387.136 34.332 386.668 34.332C385.66 34.332 384.85 34.062 384.238 33.522C383.626 32.982 383.32 32.244 383.32 31.308C383.32 29.4 384.634 28.23 387.262 27.798C387.766 27.726 388.576 27.654 389.692 27.582C390.844 27.51 391.87 27.474 392.77 27.474C395.362 27.474 397.63 27.996 399.574 29.04C401.518 30.048 403.012 31.47 404.056 33.306C405.136 35.106 405.676 37.176 405.676 39.516C405.676 42.216 404.83 44.682 403.138 46.914C401.446 49.146 399.088 50.91 396.064 52.206C393.076 53.466 389.728 54.096 386.02 54.096ZM447.676 41.946C448.576 41.946 449.332 42.27 449.944 42.918C450.592 43.53 450.916 44.286 450.916 45.186C450.916 46.05 450.61 46.824 449.998 47.508C448.342 49.272 446.02 50.73 443.032 51.882C440.044 52.998 437.074 53.556 434.122 53.556C429.838 53.556 425.968 52.62 422.512 50.748C419.056 48.876 416.338 46.248 414.358 42.864C412.378 39.48 411.388 35.592 411.388 31.2C411.388 26.844 412.378 22.956 414.358 19.536C416.338 16.116 419.056 13.47 422.512 11.598C425.968 9.69005 429.838 8.73605 434.122 8.73605C437.074 8.73605 440.026 9.33005 442.978 10.518C445.93 11.706 448.252 13.272 449.944 15.216C450.556 15.936 450.862 16.71 450.862 17.538C450.862 18.438 450.538 19.212 449.89 19.86C449.242 20.472 448.468 20.778 447.568 20.778C447.136 20.778 446.704 20.688 446.272 20.508C445.84 20.328 445.498 20.076 445.246 19.752C444.202 18.492 442.654 17.502 440.602 16.782C438.55 16.062 436.39 15.702 434.122 15.702C430.126 15.702 426.76 16.71 424.024 18.726C421.324 20.706 419.578 23.496 418.786 27.096H435.634C436.534 27.096 437.29 27.42 437.902 28.068C438.55 28.68 438.874 29.436 438.874 30.336C438.874 31.236 438.55 32.01 437.902 32.658C437.29 33.27 436.534 33.576 435.634 33.576H418.516C418.984 37.644 420.622 40.848 423.43 43.188C426.274 45.492 429.838 46.644 434.122 46.644C436.606 46.644 438.874 46.32 440.926 45.672C442.978 45.024 444.418 44.178 445.246 43.134C445.534 42.774 445.894 42.486 446.326 42.27C446.794 42.054 447.244 41.946 447.676 41.946ZM485.632 47.886C485.992 48.174 486.37 48.624 486.766 49.236C487.198 49.848 487.414 50.424 487.414 50.964C487.414 51.864 487.108 52.584 486.496 53.124C485.884 53.664 485.11 53.934 484.174 53.934C483.274 53.934 482.608 53.79 482.176 53.502C480.736 52.71 479.692 51.648 479.044 50.316C478.396 48.948 477.928 46.986 477.64 44.43C477.532 43.35 477.424 42.09 477.316 40.65C477.208 39.174 477.118 37.968 477.046 37.032C476.974 35.34 476.038 34.062 474.238 33.198C472.474 32.334 470.314 31.902 467.758 31.902H464.194V50.316C464.194 51.216 463.87 51.99 463.222 52.638C462.61 53.25 461.854 53.556 460.954 53.556C460.054 53.556 459.28 53.25 458.632 52.638C458.02 51.99 457.714 51.216 457.714 50.316V12.354C457.714 11.346 458.02 10.536 458.632 9.92405C459.244 9.31205 460.036 8.97005 461.008 8.89805C462.232 8.86205 463.942 8.84405 466.138 8.84405C468.334 8.80805 470.152 8.79005 471.592 8.79005C474.292 8.79005 476.686 9.27605 478.774 10.248C480.898 11.22 482.536 12.588 483.688 14.352C484.876 16.116 485.47 18.132 485.47 20.4C485.47 25.008 483.166 28.086 478.558 29.634C481.618 30.93 483.274 33.216 483.526 36.492L483.742 38.976C483.814 40.128 483.94 41.73 484.12 43.782C484.336 45.942 484.84 47.31 485.632 47.886ZM464.194 25.908H471.538C474.13 25.908 476.02 25.494 477.208 24.666C478.396 23.838 478.99 22.416 478.99 20.4C478.99 18.78 478.342 17.52 477.046 16.62C475.75 15.72 473.932 15.27 471.592 15.27H464.194V25.908Z" fill="url(#paint0_linear_1298_13)"/>
<defs>
<linearGradient id="paint0_linear_1298_13" x1="-5.31921" y1="25.3" x2="518.681" y2="25.3" gradientUnits="userSpaceOnUse">
<stop offset="0.326923" stop-color="#FEB963"/>
<stop offset="0.677885" stop-color="#FF61E2"/>
<stop offset="1" stop-color="#FEB963"/>
</linearGradient>
</defs>
</svg>
