<svg width="689" height="208" viewBox="0 0 689 208" fill="none" xmlns="http://www.w3.org/2000/svg">
<path d="M114.184 74.3679C115.432 74.3679 116.512 74.7999 117.424 75.6639C118.384 76.4799 118.864 77.4879 118.864 78.6879V129.088C118.864 130.288 118.384 131.32 117.424 132.184C116.512 133 115.432 133.408 114.184 133.408C112.936 133.408 111.856 133 110.944 132.184C110.032 131.32 109.576 130.288 109.576 129.088V105.4H82.288V129.088C82.288 130.288 81.808 131.32 80.848 132.184C79.936 133 78.856 133.408 77.608 133.408C76.36 133.408 75.28 133 74.368 132.184C73.456 131.32 73 130.288 73 129.088V78.6879C73 77.4879 73.456 76.4799 74.368 75.6639C75.28 74.7999 76.36 74.3679 77.608 74.3679C78.856 74.3679 79.936 74.7999 80.848 75.6639C81.808 76.4799 82.288 77.4879 82.288 78.6879V96.7599H109.576V78.6879C109.576 77.4879 110.032 76.4799 110.944 75.6639C111.856 74.7999 112.936 74.3679 114.184 74.3679ZM169.495 127.9C169.695 128.38 169.795 128.76 169.795 129.04C169.795 130.08 169.435 130.98 168.715 131.74C168.035 132.46 167.175 132.82 166.135 132.82C165.415 132.82 164.735 132.62 164.095 132.22C163.495 131.82 163.055 131.28 162.775 130.6L158.095 118.48H139.795L135.175 130.66C134.935 131.3 134.495 131.82 133.855 132.22C133.255 132.62 132.575 132.82 131.815 132.82C130.775 132.82 129.915 132.46 129.235 131.74C128.555 131.02 128.215 130.16 128.215 129.16C128.215 128.84 128.315 128.44 128.515 127.96L145.855 85.8399C146.175 85.0799 146.595 84.4999 147.115 84.0999C147.675 83.6999 148.255 83.4999 148.855 83.4999C149.535 83.4999 150.175 83.6999 150.775 84.0999C151.375 84.4999 151.835 85.0999 152.155 85.8999L169.495 127.9ZM148.435 95.9199L142.375 111.82H155.515L149.395 95.9199L148.915 94.2399L148.435 95.9199ZM214.644 121.66C214.964 121.26 215.364 120.94 215.844 120.7C216.364 120.46 216.864 120.34 217.344 120.34C218.344 120.34 219.184 120.7 219.864 121.42C220.584 122.1 220.944 122.94 220.944 123.94C220.944 124.9 220.604 125.76 219.924 126.52C218.084 128.48 215.504 130.1 212.184 131.38C208.864 132.62 205.564 133.24 202.284 133.24C197.524 133.24 193.224 132.2 189.384 130.12C185.544 128.04 182.524 125.12 180.324 121.36C178.124 117.6 177.024 113.28 177.024 108.4C177.024 103.56 178.124 99.2399 180.324 95.4399C182.524 91.6399 185.544 88.6999 189.384 86.6199C193.224 84.4999 197.524 83.4399 202.284 83.4399C205.564 83.4399 208.844 84.0999 212.124 85.4199C215.404 86.7399 217.984 88.4799 219.864 90.6399C220.544 91.4399 220.884 92.2999 220.884 93.2199C220.884 94.2199 220.524 95.0799 219.804 95.7999C219.084 96.4799 218.224 96.8199 217.224 96.8199C216.744 96.8199 216.264 96.7199 215.784 96.5199C215.304 96.3199 214.924 96.0399 214.644 95.6799C213.484 94.2799 211.764 93.1799 209.484 92.3799C207.204 91.5799 204.804 91.1799 202.284 91.1799C198.844 91.1799 195.784 91.8799 193.104 93.2799C190.464 94.6399 188.404 96.6199 186.924 99.2199C185.484 101.78 184.764 104.84 184.764 108.4C184.764 111.92 185.504 114.98 186.984 117.58C188.464 120.14 190.524 122.12 193.164 123.52C195.804 124.88 198.844 125.56 202.284 125.56C205.044 125.56 207.564 125.2 209.844 124.48C212.124 123.76 213.724 122.82 214.644 121.66ZM261.677 127.36C262.037 127.72 262.317 128.14 262.517 128.62C262.757 129.1 262.877 129.58 262.877 130.06C262.877 131.06 262.517 131.9 261.797 132.58C261.117 133.3 260.277 133.66 259.277 133.66C258.357 133.66 257.557 133.36 256.877 132.76L235.697 112.9V129.64C235.697 130.64 235.337 131.5 234.617 132.22C233.937 132.9 233.097 133.24 232.097 133.24C231.097 133.24 230.237 132.9 229.517 132.22C228.837 131.5 228.497 130.64 228.497 129.64V86.9799C228.497 85.9799 228.837 85.1399 229.517 84.4599C230.237 83.7399 231.097 83.3799 232.097 83.3799C233.097 83.3799 233.937 83.7399 234.617 84.4599C235.337 85.1399 235.697 85.9799 235.697 86.9799V101.5L256.457 83.8599C257.137 83.2599 257.937 82.9599 258.857 82.9599C259.817 82.9599 260.637 83.3199 261.317 84.0399C262.037 84.7199 262.397 85.5599 262.397 86.5599C262.397 87.7199 261.997 88.6399 261.197 89.3199L240.197 106.9C240.077 106.94 239.997 107.02 239.957 107.14L240.197 107.32L261.677 127.36Z" fill="white"/>
<path d="M319.875 73.3599C321.123 73.3599 322.155 73.7919 322.971 74.6559C323.835 75.4719 324.267 76.4559 324.267 77.6079C324.267 78.2799 324.147 78.8559 323.907 79.3359L300.507 130.888C300.075 131.848 299.499 132.544 298.779 132.976C298.059 133.456 297.291 133.696 296.475 133.696C295.803 133.696 295.155 133.432 294.531 132.904C293.907 132.424 293.379 131.728 292.947 130.816L269.979 78.9039C269.739 78.4239 269.619 77.8479 269.619 77.1759C269.619 75.8799 270.027 74.8719 270.843 74.1519C271.707 73.3839 272.763 72.9999 274.011 72.9999C274.971 72.9999 275.835 73.2639 276.603 73.7919C277.419 74.2719 278.019 74.9199 278.403 75.7359L286.539 94.5279L296.043 116.56L296.763 118.648L297.483 116.632L315.843 75.4479C316.179 74.7279 316.659 74.1999 317.283 73.8639C317.955 73.5279 318.819 73.3599 319.875 73.3599ZM356.72 134.14C352.08 134.14 347.9 133.08 344.18 130.96C340.46 128.8 337.52 125.8 335.36 121.96C333.24 118.12 332.18 113.74 332.18 108.82C332.18 103.9 333.24 99.5199 335.36 95.6799C337.52 91.8399 340.46 88.8599 344.18 86.7399C347.9 84.5799 352.08 83.4999 356.72 83.4999C361.36 83.4999 365.54 84.5799 369.26 86.7399C372.98 88.8599 375.9 91.8399 378.02 95.6799C380.14 99.5199 381.2 103.9 381.2 108.82C381.2 113.74 380.14 118.12 378.02 121.96C375.9 125.8 372.98 128.8 369.26 130.96C365.54 133.08 361.36 134.14 356.72 134.14ZM356.72 126.4C359.92 126.4 362.78 125.68 365.3 124.24C367.86 122.76 369.86 120.7 371.3 118.06C372.74 115.38 373.46 112.3 373.46 108.82C373.46 105.34 372.74 102.28 371.3 99.6399C369.86 96.9599 367.86 94.8999 365.3 93.4599C362.78 91.9799 359.92 91.2399 356.72 91.2399C353.52 91.2399 350.64 91.9799 348.08 93.4599C345.52 94.8999 343.52 96.9599 342.08 99.6399C340.64 102.28 339.92 105.34 339.92 108.82C339.92 112.3 340.64 115.38 342.08 118.06C343.52 120.7 345.52 122.76 348.08 124.24C350.64 125.68 353.52 126.4 356.72 126.4ZM426.711 86.9799C426.711 87.5799 426.511 88.2399 426.111 88.9599L411.171 113.02V129.52C411.171 130.64 410.811 131.6 410.091 132.4C409.371 133.16 408.491 133.54 407.451 133.54C406.411 133.54 405.511 133.16 404.751 132.4C404.031 131.6 403.671 130.64 403.671 129.52V113.02L388.911 88.5399C388.551 87.9399 388.371 87.2999 388.371 86.6199C388.371 85.6599 388.731 84.7799 389.451 83.9799C390.211 83.1399 391.091 82.7199 392.091 82.7199C392.771 82.7199 393.451 82.9199 394.131 83.3199C394.811 83.7199 395.331 84.1999 395.691 84.7599C397.051 87.1599 399.151 90.7999 401.991 95.6799C404.871 100.56 406.631 103.46 407.271 104.38L407.511 104.98L407.691 104.38C409.051 102.26 410.971 99.1599 413.451 95.0799C415.931 90.9599 417.911 87.6399 419.391 85.1199C419.751 84.5199 420.271 84.0199 420.951 83.6199C421.671 83.2199 422.391 83.0199 423.111 83.0199C424.151 83.0199 425.011 83.4199 425.691 84.2199C426.371 84.9799 426.711 85.8999 426.711 86.9799ZM470.901 127.9C471.101 128.38 471.201 128.76 471.201 129.04C471.201 130.08 470.841 130.98 470.121 131.74C469.441 132.46 468.581 132.82 467.541 132.82C466.821 132.82 466.141 132.62 465.501 132.22C464.901 131.82 464.461 131.28 464.181 130.6L459.501 118.48H441.201L436.581 130.66C436.341 131.3 435.901 131.82 435.261 132.22C434.661 132.62 433.981 132.82 433.221 132.82C432.181 132.82 431.321 132.46 430.641 131.74C429.961 131.02 429.621 130.16 429.621 129.16C429.621 128.84 429.721 128.44 429.921 127.96L447.261 85.8399C447.581 85.0799 448.001 84.4999 448.521 84.0999C449.081 83.6999 449.661 83.4999 450.261 83.4999C450.941 83.4999 451.581 83.6999 452.181 84.0999C452.781 84.4999 453.241 85.0999 453.561 85.8999L470.901 127.9ZM449.841 95.9199L443.781 111.82H456.921L450.801 95.9199L450.321 94.2399L449.841 95.9199ZM503.33 133.84C498.57 133.84 494.29 132.78 490.49 130.66C486.73 128.54 483.77 125.56 481.61 121.72C479.49 117.84 478.43 113.42 478.43 108.46C478.43 103.7 479.57 99.4199 481.85 95.6199C484.13 91.7799 487.23 88.7799 491.15 86.6199C495.07 84.4199 499.43 83.3199 504.23 83.3199C507.59 83.3199 511.01 84.0399 514.49 85.4799C517.97 86.9199 520.65 88.7999 522.53 91.1199C522.77 91.4399 522.97 91.8199 523.13 92.2599C523.29 92.6599 523.37 93.0399 523.37 93.3999C523.37 94.3999 523.03 95.2599 522.35 95.9799C521.67 96.6599 520.81 96.9999 519.77 96.9999C519.33 96.9999 518.83 96.8799 518.27 96.6399C517.75 96.3999 517.35 96.0999 517.07 95.7399C515.87 94.2999 513.97 93.0799 511.37 92.0799C508.77 91.0399 506.39 90.5199 504.23 90.5199C500.83 90.5199 497.75 91.2799 494.99 92.7999C492.23 94.3199 490.07 96.4399 488.51 99.1599C486.95 101.88 486.17 104.98 486.17 108.46C486.17 112.1 486.89 115.26 488.33 117.94C489.77 120.62 491.77 122.66 494.33 124.06C496.93 125.46 499.93 126.16 503.33 126.16C506.21 126.16 508.75 125.8 510.95 125.08C513.19 124.32 514.91 123.3 516.11 122.02C517.35 120.7 517.97 119.24 517.97 117.64C517.97 115.8 517.33 114.32 516.05 113.2C514.81 112.04 513.11 111.46 510.95 111.46C509.15 111.46 507.21 111.58 505.13 111.82C504.93 111.86 504.57 111.88 504.05 111.88C502.93 111.88 502.03 111.58 501.35 110.98C500.67 110.38 500.33 109.56 500.33 108.52C500.33 106.4 501.79 105.1 504.71 104.62C505.27 104.54 506.17 104.46 507.41 104.38C508.69 104.3 509.83 104.26 510.83 104.26C513.71 104.26 516.23 104.84 518.39 106C520.55 107.12 522.21 108.7 523.37 110.74C524.57 112.74 525.17 115.04 525.17 117.64C525.17 120.64 524.23 123.38 522.35 125.86C520.47 128.34 517.85 130.3 514.49 131.74C511.17 133.14 507.45 133.84 503.33 133.84ZM571.836 120.34C572.836 120.34 573.676 120.7 574.356 121.42C575.076 122.1 575.436 122.94 575.436 123.94C575.436 124.9 575.096 125.76 574.416 126.52C572.576 128.48 569.996 130.1 566.676 131.38C563.356 132.62 560.056 133.24 556.776 133.24C552.016 133.24 547.716 132.2 543.876 130.12C540.036 128.04 537.016 125.12 534.816 121.36C532.616 117.6 531.516 113.28 531.516 108.4C531.516 103.56 532.616 99.2399 534.816 95.4399C537.016 91.6399 540.036 88.6999 543.876 86.6199C547.716 84.4999 552.016 83.4399 556.776 83.4399C560.056 83.4399 563.336 84.0999 566.616 85.4199C569.896 86.7399 572.476 88.4799 574.356 90.6399C575.036 91.4399 575.376 92.2999 575.376 93.2199C575.376 94.2199 575.016 95.0799 574.296 95.7999C573.576 96.4799 572.716 96.8199 571.716 96.8199C571.236 96.8199 570.756 96.7199 570.276 96.5199C569.796 96.3199 569.416 96.0399 569.136 95.6799C567.976 94.2799 566.256 93.1799 563.976 92.3799C561.696 91.5799 559.296 91.1799 556.776 91.1799C552.336 91.1799 548.596 92.2999 545.556 94.5399C542.556 96.7399 540.616 99.8399 539.736 103.84H558.456C559.456 103.84 560.296 104.2 560.976 104.92C561.696 105.6 562.056 106.44 562.056 107.44C562.056 108.44 561.696 109.3 560.976 110.02C560.296 110.7 559.456 111.04 558.456 111.04H539.436C539.956 115.56 541.776 119.12 544.896 121.72C548.056 124.28 552.016 125.56 556.776 125.56C559.536 125.56 562.056 125.2 564.336 124.48C566.616 123.76 568.216 122.82 569.136 121.66C569.456 121.26 569.856 120.94 570.336 120.7C570.856 120.46 571.356 120.34 571.836 120.34ZM614.009 126.94C614.409 127.26 614.829 127.76 615.269 128.44C615.749 129.12 615.989 129.76 615.989 130.36C615.989 131.36 615.649 132.16 614.969 132.76C614.289 133.36 613.429 133.66 612.389 133.66C611.389 133.66 610.649 133.5 610.169 133.18C608.569 132.3 607.409 131.12 606.689 129.64C605.969 128.12 605.449 125.94 605.129 123.1C605.009 121.9 604.889 120.5 604.769 118.9C604.649 117.26 604.549 115.92 604.469 114.88C604.389 113 603.349 111.58 601.349 110.62C599.389 109.66 596.989 109.18 594.149 109.18H590.189V129.64C590.189 130.64 589.829 131.5 589.109 132.22C588.429 132.9 587.589 133.24 586.589 133.24C585.589 133.24 584.729 132.9 584.009 132.22C583.329 131.5 582.989 130.64 582.989 129.64V87.4599C582.989 86.3399 583.329 85.4399 584.009 84.7599C584.689 84.0799 585.569 83.6999 586.649 83.6199C588.009 83.5799 589.909 83.5599 592.349 83.5599C594.789 83.5199 596.809 83.4999 598.409 83.4999C601.409 83.4999 604.069 84.0399 606.389 85.1199C608.749 86.1999 610.569 87.7199 611.849 89.6799C613.169 91.6399 613.829 93.8799 613.829 96.3999C613.829 101.52 611.269 104.94 606.149 106.66C609.549 108.1 611.389 110.64 611.669 114.28L611.909 117.04C611.989 118.32 612.129 120.1 612.329 122.38C612.569 124.78 613.129 126.3 614.009 126.94ZM590.189 102.52H598.349C601.229 102.52 603.329 102.06 604.649 101.14C605.969 100.22 606.629 98.6399 606.629 96.3999C606.629 94.5999 605.909 93.1999 604.469 92.1999C603.029 91.1999 601.009 90.6999 598.409 90.6999H590.189V102.52Z" fill="url(#paint0_linear_1330_2308)"/>
<g style="mix-blend-mode:plus-lighter" filter="url(#filter0_f_1330_2308)">
<path d="M114.184 74.3679C115.432 74.3679 116.512 74.7999 117.424 75.6639C118.384 76.4799 118.864 77.4879 118.864 78.6879V129.088C118.864 130.288 118.384 131.32 117.424 132.184C116.512 133 115.432 133.408 114.184 133.408C112.936 133.408 111.856 133 110.944 132.184C110.032 131.32 109.576 130.288 109.576 129.088V105.4H82.288V129.088C82.288 130.288 81.808 131.32 80.848 132.184C79.936 133 78.856 133.408 77.608 133.408C76.36 133.408 75.28 133 74.368 132.184C73.456 131.32 73 130.288 73 129.088V78.6879C73 77.4879 73.456 76.4799 74.368 75.6639C75.28 74.7999 76.36 74.3679 77.608 74.3679C78.856 74.3679 79.936 74.7999 80.848 75.6639C81.808 76.4799 82.288 77.4879 82.288 78.6879V96.7599H109.576V78.6879C109.576 77.4879 110.032 76.4799 110.944 75.6639C111.856 74.7999 112.936 74.3679 114.184 74.3679ZM169.495 127.9C169.695 128.38 169.795 128.76 169.795 129.04C169.795 130.08 169.435 130.98 168.715 131.74C168.035 132.46 167.175 132.82 166.135 132.82C165.415 132.82 164.735 132.62 164.095 132.22C163.495 131.82 163.055 131.28 162.775 130.6L158.095 118.48H139.795L135.175 130.66C134.935 131.3 134.495 131.82 133.855 132.22C133.255 132.62 132.575 132.82 131.815 132.82C130.775 132.82 129.915 132.46 129.235 131.74C128.555 131.02 128.215 130.16 128.215 129.16C128.215 128.84 128.315 128.44 128.515 127.96L145.855 85.8399C146.175 85.0799 146.595 84.4999 147.115 84.0999C147.675 83.6999 148.255 83.4999 148.855 83.4999C149.535 83.4999 150.175 83.6999 150.775 84.0999C151.375 84.4999 151.835 85.0999 152.155 85.8999L169.495 127.9ZM148.435 95.9199L142.375 111.82H155.515L149.395 95.9199L148.915 94.2399L148.435 95.9199ZM214.644 121.66C214.964 121.26 215.364 120.94 215.844 120.7C216.364 120.46 216.864 120.34 217.344 120.34C218.344 120.34 219.184 120.7 219.864 121.42C220.584 122.1 220.944 122.94 220.944 123.94C220.944 124.9 220.604 125.76 219.924 126.52C218.084 128.48 215.504 130.1 212.184 131.38C208.864 132.62 205.564 133.24 202.284 133.24C197.524 133.24 193.224 132.2 189.384 130.12C185.544 128.04 182.524 125.12 180.324 121.36C178.124 117.6 177.024 113.28 177.024 108.4C177.024 103.56 178.124 99.2399 180.324 95.4399C182.524 91.6399 185.544 88.6999 189.384 86.6199C193.224 84.4999 197.524 83.4399 202.284 83.4399C205.564 83.4399 208.844 84.0999 212.124 85.4199C215.404 86.7399 217.984 88.4799 219.864 90.6399C220.544 91.4399 220.884 92.2999 220.884 93.2199C220.884 94.2199 220.524 95.0799 219.804 95.7999C219.084 96.4799 218.224 96.8199 217.224 96.8199C216.744 96.8199 216.264 96.7199 215.784 96.5199C215.304 96.3199 214.924 96.0399 214.644 95.6799C213.484 94.2799 211.764 93.1799 209.484 92.3799C207.204 91.5799 204.804 91.1799 202.284 91.1799C198.844 91.1799 195.784 91.8799 193.104 93.2799C190.464 94.6399 188.404 96.6199 186.924 99.2199C185.484 101.78 184.764 104.84 184.764 108.4C184.764 111.92 185.504 114.98 186.984 117.58C188.464 120.14 190.524 122.12 193.164 123.52C195.804 124.88 198.844 125.56 202.284 125.56C205.044 125.56 207.564 125.2 209.844 124.48C212.124 123.76 213.724 122.82 214.644 121.66ZM261.677 127.36C262.037 127.72 262.317 128.14 262.517 128.62C262.757 129.1 262.877 129.58 262.877 130.06C262.877 131.06 262.517 131.9 261.797 132.58C261.117 133.3 260.277 133.66 259.277 133.66C258.357 133.66 257.557 133.36 256.877 132.76L235.697 112.9V129.64C235.697 130.64 235.337 131.5 234.617 132.22C233.937 132.9 233.097 133.24 232.097 133.24C231.097 133.24 230.237 132.9 229.517 132.22C228.837 131.5 228.497 130.64 228.497 129.64V86.9799C228.497 85.9799 228.837 85.1399 229.517 84.4599C230.237 83.7399 231.097 83.3799 232.097 83.3799C233.097 83.3799 233.937 83.7399 234.617 84.4599C235.337 85.1399 235.697 85.9799 235.697 86.9799V101.5L256.457 83.8599C257.137 83.2599 257.937 82.9599 258.857 82.9599C259.817 82.9599 260.637 83.3199 261.317 84.0399C262.037 84.7199 262.397 85.5599 262.397 86.5599C262.397 87.7199 261.997 88.6399 261.197 89.3199L240.197 106.9C240.077 106.94 239.997 107.02 239.957 107.14L240.197 107.32L261.677 127.36Z" fill="white"/>
<path d="M319.875 73.3599C321.123 73.3599 322.155 73.7919 322.971 74.6559C323.835 75.4719 324.267 76.4559 324.267 77.6079C324.267 78.2799 324.147 78.8559 323.907 79.3359L300.507 130.888C300.075 131.848 299.499 132.544 298.779 132.976C298.059 133.456 297.291 133.696 296.475 133.696C295.803 133.696 295.155 133.432 294.531 132.904C293.907 132.424 293.379 131.728 292.947 130.816L269.979 78.9039C269.739 78.4239 269.619 77.8479 269.619 77.1759C269.619 75.8799 270.027 74.8719 270.843 74.1519C271.707 73.3839 272.763 72.9999 274.011 72.9999C274.971 72.9999 275.835 73.2639 276.603 73.7919C277.419 74.2719 278.019 74.9199 278.403 75.7359L286.539 94.5279L296.043 116.56L296.763 118.648L297.483 116.632L315.843 75.4479C316.179 74.7279 316.659 74.1999 317.283 73.8639C317.955 73.5279 318.819 73.3599 319.875 73.3599ZM356.72 134.14C352.08 134.14 347.9 133.08 344.18 130.96C340.46 128.8 337.52 125.8 335.36 121.96C333.24 118.12 332.18 113.74 332.18 108.82C332.18 103.9 333.24 99.5199 335.36 95.6799C337.52 91.8399 340.46 88.8599 344.18 86.7399C347.9 84.5799 352.08 83.4999 356.72 83.4999C361.36 83.4999 365.54 84.5799 369.26 86.7399C372.98 88.8599 375.9 91.8399 378.02 95.6799C380.14 99.5199 381.2 103.9 381.2 108.82C381.2 113.74 380.14 118.12 378.02 121.96C375.9 125.8 372.98 128.8 369.26 130.96C365.54 133.08 361.36 134.14 356.72 134.14ZM356.72 126.4C359.92 126.4 362.78 125.68 365.3 124.24C367.86 122.76 369.86 120.7 371.3 118.06C372.74 115.38 373.46 112.3 373.46 108.82C373.46 105.34 372.74 102.28 371.3 99.6399C369.86 96.9599 367.86 94.8999 365.3 93.4599C362.78 91.9799 359.92 91.2399 356.72 91.2399C353.52 91.2399 350.64 91.9799 348.08 93.4599C345.52 94.8999 343.52 96.9599 342.08 99.6399C340.64 102.28 339.92 105.34 339.92 108.82C339.92 112.3 340.64 115.38 342.08 118.06C343.52 120.7 345.52 122.76 348.08 124.24C350.64 125.68 353.52 126.4 356.72 126.4ZM426.711 86.9799C426.711 87.5799 426.511 88.2399 426.111 88.9599L411.171 113.02V129.52C411.171 130.64 410.811 131.6 410.091 132.4C409.371 133.16 408.491 133.54 407.451 133.54C406.411 133.54 405.511 133.16 404.751 132.4C404.031 131.6 403.671 130.64 403.671 129.52V113.02L388.911 88.5399C388.551 87.9399 388.371 87.2999 388.371 86.6199C388.371 85.6599 388.731 84.7799 389.451 83.9799C390.211 83.1399 391.091 82.7199 392.091 82.7199C392.771 82.7199 393.451 82.9199 394.131 83.3199C394.811 83.7199 395.331 84.1999 395.691 84.7599C397.051 87.1599 399.151 90.7999 401.991 95.6799C404.871 100.56 406.631 103.46 407.271 104.38L407.511 104.98L407.691 104.38C409.051 102.26 410.971 99.1599 413.451 95.0799C415.931 90.9599 417.911 87.6399 419.391 85.1199C419.751 84.5199 420.271 84.0199 420.951 83.6199C421.671 83.2199 422.391 83.0199 423.111 83.0199C424.151 83.0199 425.011 83.4199 425.691 84.2199C426.371 84.9799 426.711 85.8999 426.711 86.9799ZM470.901 127.9C471.101 128.38 471.201 128.76 471.201 129.04C471.201 130.08 470.841 130.98 470.121 131.74C469.441 132.46 468.581 132.82 467.541 132.82C466.821 132.82 466.141 132.62 465.501 132.22C464.901 131.82 464.461 131.28 464.181 130.6L459.501 118.48H441.201L436.581 130.66C436.341 131.3 435.901 131.82 435.261 132.22C434.661 132.62 433.981 132.82 433.221 132.82C432.181 132.82 431.321 132.46 430.641 131.74C429.961 131.02 429.621 130.16 429.621 129.16C429.621 128.84 429.721 128.44 429.921 127.96L447.261 85.8399C447.581 85.0799 448.001 84.4999 448.521 84.0999C449.081 83.6999 449.661 83.4999 450.261 83.4999C450.941 83.4999 451.581 83.6999 452.181 84.0999C452.781 84.4999 453.241 85.0999 453.561 85.8999L470.901 127.9ZM449.841 95.9199L443.781 111.82H456.921L450.801 95.9199L450.321 94.2399L449.841 95.9199ZM503.33 133.84C498.57 133.84 494.29 132.78 490.49 130.66C486.73 128.54 483.77 125.56 481.61 121.72C479.49 117.84 478.43 113.42 478.43 108.46C478.43 103.7 479.57 99.4199 481.85 95.6199C484.13 91.7799 487.23 88.7799 491.15 86.6199C495.07 84.4199 499.43 83.3199 504.23 83.3199C507.59 83.3199 511.01 84.0399 514.49 85.4799C517.97 86.9199 520.65 88.7999 522.53 91.1199C522.77 91.4399 522.97 91.8199 523.13 92.2599C523.29 92.6599 523.37 93.0399 523.37 93.3999C523.37 94.3999 523.03 95.2599 522.35 95.9799C521.67 96.6599 520.81 96.9999 519.77 96.9999C519.33 96.9999 518.83 96.8799 518.27 96.6399C517.75 96.3999 517.35 96.0999 517.07 95.7399C515.87 94.2999 513.97 93.0799 511.37 92.0799C508.77 91.0399 506.39 90.5199 504.23 90.5199C500.83 90.5199 497.75 91.2799 494.99 92.7999C492.23 94.3199 490.07 96.4399 488.51 99.1599C486.95 101.88 486.17 104.98 486.17 108.46C486.17 112.1 486.89 115.26 488.33 117.94C489.77 120.62 491.77 122.66 494.33 124.06C496.93 125.46 499.93 126.16 503.33 126.16C506.21 126.16 508.75 125.8 510.95 125.08C513.19 124.32 514.91 123.3 516.11 122.02C517.35 120.7 517.97 119.24 517.97 117.64C517.97 115.8 517.33 114.32 516.05 113.2C514.81 112.04 513.11 111.46 510.95 111.46C509.15 111.46 507.21 111.58 505.13 111.82C504.93 111.86 504.57 111.88 504.05 111.88C502.93 111.88 502.03 111.58 501.35 110.98C500.67 110.38 500.33 109.56 500.33 108.52C500.33 106.4 501.79 105.1 504.71 104.62C505.27 104.54 506.17 104.46 507.41 104.38C508.69 104.3 509.83 104.26 510.83 104.26C513.71 104.26 516.23 104.84 518.39 106C520.55 107.12 522.21 108.7 523.37 110.74C524.57 112.74 525.17 115.04 525.17 117.64C525.17 120.64 524.23 123.38 522.35 125.86C520.47 128.34 517.85 130.3 514.49 131.74C511.17 133.14 507.45 133.84 503.33 133.84ZM571.836 120.34C572.836 120.34 573.676 120.7 574.356 121.42C575.076 122.1 575.436 122.94 575.436 123.94C575.436 124.9 575.096 125.76 574.416 126.52C572.576 128.48 569.996 130.1 566.676 131.38C563.356 132.62 560.056 133.24 556.776 133.24C552.016 133.24 547.716 132.2 543.876 130.12C540.036 128.04 537.016 125.12 534.816 121.36C532.616 117.6 531.516 113.28 531.516 108.4C531.516 103.56 532.616 99.2399 534.816 95.4399C537.016 91.6399 540.036 88.6999 543.876 86.6199C547.716 84.4999 552.016 83.4399 556.776 83.4399C560.056 83.4399 563.336 84.0999 566.616 85.4199C569.896 86.7399 572.476 88.4799 574.356 90.6399C575.036 91.4399 575.376 92.2999 575.376 93.2199C575.376 94.2199 575.016 95.0799 574.296 95.7999C573.576 96.4799 572.716 96.8199 571.716 96.8199C571.236 96.8199 570.756 96.7199 570.276 96.5199C569.796 96.3199 569.416 96.0399 569.136 95.6799C567.976 94.2799 566.256 93.1799 563.976 92.3799C561.696 91.5799 559.296 91.1799 556.776 91.1799C552.336 91.1799 548.596 92.2999 545.556 94.5399C542.556 96.7399 540.616 99.8399 539.736 103.84H558.456C559.456 103.84 560.296 104.2 560.976 104.92C561.696 105.6 562.056 106.44 562.056 107.44C562.056 108.44 561.696 109.3 560.976 110.02C560.296 110.7 559.456 111.04 558.456 111.04H539.436C539.956 115.56 541.776 119.12 544.896 121.72C548.056 124.28 552.016 125.56 556.776 125.56C559.536 125.56 562.056 125.2 564.336 124.48C566.616 123.76 568.216 122.82 569.136 121.66C569.456 121.26 569.856 120.94 570.336 120.7C570.856 120.46 571.356 120.34 571.836 120.34ZM614.009 126.94C614.409 127.26 614.829 127.76 615.269 128.44C615.749 129.12 615.989 129.76 615.989 130.36C615.989 131.36 615.649 132.16 614.969 132.76C614.289 133.36 613.429 133.66 612.389 133.66C611.389 133.66 610.649 133.5 610.169 133.18C608.569 132.3 607.409 131.12 606.689 129.64C605.969 128.12 605.449 125.94 605.129 123.1C605.009 121.9 604.889 120.5 604.769 118.9C604.649 117.26 604.549 115.92 604.469 114.88C604.389 113 603.349 111.58 601.349 110.62C599.389 109.66 596.989 109.18 594.149 109.18H590.189V129.64C590.189 130.64 589.829 131.5 589.109 132.22C588.429 132.9 587.589 133.24 586.589 133.24C585.589 133.24 584.729 132.9 584.009 132.22C583.329 131.5 582.989 130.64 582.989 129.64V87.4599C582.989 86.3399 583.329 85.4399 584.009 84.7599C584.689 84.0799 585.569 83.6999 586.649 83.6199C588.009 83.5799 589.909 83.5599 592.349 83.5599C594.789 83.5199 596.809 83.4999 598.409 83.4999C601.409 83.4999 604.069 84.0399 606.389 85.1199C608.749 86.1999 610.569 87.7199 611.849 89.6799C613.169 91.6399 613.829 93.8799 613.829 96.3999C613.829 101.52 611.269 104.94 606.149 106.66C609.549 108.1 611.389 110.64 611.669 114.28L611.909 117.04C611.989 118.32 612.129 120.1 612.329 122.38C612.569 124.78 613.129 126.3 614.009 126.94ZM590.189 102.52H598.349C601.229 102.52 603.329 102.06 604.649 101.14C605.969 100.22 606.629 98.6399 606.629 96.3999C606.629 94.5999 605.909 93.1999 604.469 92.1999C603.029 91.1999 601.009 90.6999 598.409 90.6999H590.189V102.52Z" fill="url(#paint1_linear_1330_2308)"/>
</g>
<defs>
<filter id="filter0_f_1330_2308" x="-0.000244141" y="0" width="688.989" height="207.14" filterUnits="userSpaceOnUse" color-interpolation-filters="sRGB">
<feFlood flood-opacity="0" result="BackgroundImageFix"/>
<feBlend mode="normal" in="SourceGraphic" in2="BackgroundImageFix" result="shape"/>
<feGaussianBlur stdDeviation="36.5" result="effect1_foregroundBlur_1330_2308"/>
</filter>
<linearGradient id="paint0_linear_1330_2308" x1="67.0759" y1="101.4" x2="619.076" y2="101.4" gradientUnits="userSpaceOnUse">
<stop offset="0.326923" stop-color="#FEB963"/>
<stop offset="0.677885" stop-color="#FF61E2"/>
<stop offset="1" stop-color="#FEB963"/>
</linearGradient>
<linearGradient id="paint1_linear_1330_2308" x1="67.0759" y1="101.4" x2="619.076" y2="101.4" gradientUnits="userSpaceOnUse">
<stop offset="0.326923" stop-color="#FEB963"/>
<stop offset="0.677885" stop-color="#FF61E2"/>
<stop offset="1" stop-color="#FEB963"/>
</linearGradient>
</defs>
</svg>
