<svg width="352" height="35" viewBox="0 0 352 35" fill="none" xmlns="http://www.w3.org/2000/svg">
<path d="M-7.15256e-07 33.9839V0.383884H4.8V33.9839H-7.15256e-07ZM14.8594 33.9839V0.383884H18.7954L41.0194 27.9839H38.9554V0.383884H43.7554V33.9839H39.8194L17.5954 6.38388H19.6594V33.9839H14.8594ZM60.4845 33.9839V4.55989H48.9645V0.383884H76.7565V4.55989H65.2365V33.9839H60.4845ZM81.9844 33.9839V0.383884H95.0884C98.0324 0.383884 100.544 0.847885 102.624 1.77589C104.704 2.70389 106.304 4.04789 107.424 5.80789C108.544 7.56789 109.104 9.66389 109.104 12.0959C109.104 14.5279 108.544 16.6239 107.424 18.3839C106.304 20.1119 104.704 21.4399 102.624 22.3679C100.544 23.2959 98.0324 23.7599 95.0884 23.7599H84.6244L86.7844 21.5519V33.9839H81.9844ZM104.448 33.9839L95.9044 21.7919H101.04L109.68 33.9839H104.448ZM86.7844 22.0319L84.6244 19.6799H94.9444C98.0164 19.6799 100.336 19.0239 101.904 17.7119C103.504 16.3679 104.304 14.4959 104.304 12.0959C104.304 9.69589 103.504 7.83989 101.904 6.52789C100.336 5.21589 98.0164 4.55989 94.9444 4.55989H84.6244L86.7844 2.15988V22.0319ZM132.027 34.3679C129.467 34.3679 127.083 33.9359 124.875 33.0719C122.699 32.2079 120.811 31.0079 119.211 29.4719C117.611 27.9039 116.363 26.0799 115.467 23.9999C114.571 21.9199 114.123 19.6479 114.123 17.1839C114.123 14.7199 114.571 12.4479 115.467 10.3679C116.363 8.28789 117.611 6.47989 119.211 4.94389C120.811 3.37589 122.699 2.15988 124.875 1.29588C127.051 0.431886 129.435 -0.000113487 132.027 -0.000113487C134.587 -0.000113487 136.939 0.431886 139.083 1.29588C141.259 2.12788 143.147 3.32789 144.747 4.89589C146.379 6.43189 147.627 8.23989 148.491 10.3199C149.387 12.3999 149.835 14.6879 149.835 17.1839C149.835 19.6799 149.387 21.9679 148.491 24.0479C147.627 26.1279 146.379 27.9519 144.747 29.5199C143.147 31.0559 141.259 32.2559 139.083 33.1199C136.939 33.9519 134.587 34.3679 132.027 34.3679ZM132.027 30.0959C133.883 30.0959 135.595 29.7759 137.163 29.1359C138.763 28.4959 140.139 27.5999 141.291 26.4479C142.475 25.2639 143.387 23.8879 144.027 22.3199C144.699 20.7519 145.035 19.0399 145.035 17.1839C145.035 15.3279 144.699 13.6159 144.027 12.0479C143.387 10.4799 142.475 9.11988 141.291 7.96788C140.139 6.78388 138.763 5.87188 137.163 5.23188C135.595 4.59189 133.883 4.27189 132.027 4.27189C130.139 4.27189 128.395 4.59189 126.795 5.23188C125.227 5.87188 123.851 6.78388 122.667 7.96788C121.483 9.11988 120.555 10.4799 119.883 12.0479C119.243 13.6159 118.923 15.3279 118.923 17.1839C118.923 19.0399 119.243 20.7519 119.883 22.3199C120.555 23.8879 121.483 25.2639 122.667 26.4479C123.851 27.5999 125.227 28.4959 126.795 29.1359C128.395 29.7759 130.139 30.0959 132.027 30.0959ZM157.172 33.9839V0.383884H171.332C174.916 0.383884 178.068 1.08788 180.788 2.49589C183.54 3.90388 185.668 5.87188 187.172 8.39988C188.708 10.9279 189.476 13.8559 189.476 17.1839C189.476 20.5119 188.708 23.4399 187.172 25.9679C185.668 28.4959 183.54 30.4639 180.788 31.8719C178.068 33.2799 174.916 33.9839 171.332 33.9839H157.172ZM161.972 29.8079H171.044C173.828 29.8079 176.228 29.2799 178.244 28.2239C180.292 27.1679 181.876 25.6959 182.996 23.8079C184.116 21.8879 184.676 19.6799 184.676 17.1839C184.676 14.6559 184.116 12.4479 182.996 10.5599C181.876 8.67188 180.292 7.19988 178.244 6.14388C176.228 5.08788 173.828 4.55989 171.044 4.55989H161.972V29.8079ZM210.748 34.3679C206.332 34.3679 202.86 33.1039 200.332 30.5759C197.804 28.0479 196.54 24.3519 196.54 19.4879V0.383884H201.34V19.2959C201.34 23.0399 202.156 25.7759 203.788 27.5039C205.452 29.2319 207.788 30.0959 210.796 30.0959C213.836 30.0959 216.172 29.2319 217.804 27.5039C219.468 25.7759 220.3 23.0399 220.3 19.2959V0.383884H224.956V19.4879C224.956 24.3519 223.692 28.0479 221.164 30.5759C218.668 33.1039 215.196 34.3679 210.748 34.3679ZM249.821 34.3679C247.261 34.3679 244.893 33.9519 242.717 33.1199C240.573 32.2559 238.701 31.0559 237.101 29.5199C235.533 27.9519 234.301 26.1279 233.405 24.0479C232.509 21.9679 232.061 19.6799 232.061 17.1839C232.061 14.6879 232.509 12.3999 233.405 10.3199C234.301 8.23989 235.549 6.43189 237.149 4.89589C238.749 3.32789 240.621 2.12788 242.765 1.29588C244.941 0.431886 247.309 -0.000113487 249.869 -0.000113487C252.461 -0.000113487 254.845 0.447886 257.021 1.34389C259.229 2.20788 261.101 3.50388 262.637 5.23188L259.517 8.25589C258.237 6.91189 256.797 5.91989 255.197 5.27988C253.597 4.60789 251.885 4.27189 250.061 4.27189C248.173 4.27189 246.413 4.59189 244.781 5.23188C243.181 5.87188 241.789 6.76788 240.605 7.91988C239.421 9.07189 238.493 10.4479 237.821 12.0479C237.181 13.6159 236.861 15.3279 236.861 17.1839C236.861 19.0399 237.181 20.7679 237.821 22.3679C238.493 23.9359 239.421 25.2959 240.605 26.4479C241.789 27.5999 243.181 28.4959 244.781 29.1359C246.413 29.7759 248.173 30.0959 250.061 30.0959C251.885 30.0959 253.597 29.7759 255.197 29.1359C256.797 28.4639 258.237 27.4399 259.517 26.0639L262.637 29.0879C261.101 30.8159 259.229 32.1279 257.021 33.0239C254.845 33.9199 252.445 34.3679 249.821 34.3679ZM269.484 33.9839V0.383884H274.284V33.9839H269.484ZM284.344 33.9839V0.383884H288.28L310.504 27.9839H308.44V0.383884H313.24V33.9839H309.304L287.08 6.38388H289.144V33.9839H284.344ZM338.465 34.3679C335.873 34.3679 333.489 33.9519 331.313 33.1199C329.137 32.2559 327.249 31.0559 325.649 29.5199C324.049 27.9519 322.801 26.1279 321.905 24.0479C321.009 21.9679 320.561 19.6799 320.561 17.1839C320.561 14.6879 321.009 12.3999 321.905 10.3199C322.801 8.23989 324.049 6.43189 325.649 4.89589C327.281 3.32789 329.185 2.12788 331.361 1.29588C333.537 0.431886 335.937 -0.000113487 338.561 -0.000113487C341.217 -0.000113487 343.649 0.431886 345.857 1.29588C348.065 2.15988 349.937 3.45588 351.473 5.18389L348.497 8.15988C347.121 6.81588 345.617 5.83988 343.985 5.23188C342.385 4.59189 340.641 4.27189 338.753 4.27189C336.833 4.27189 335.041 4.59189 333.377 5.23188C331.745 5.87188 330.321 6.76788 329.105 7.91988C327.921 9.07189 326.993 10.4479 326.321 12.0479C325.681 13.6159 325.361 15.3279 325.361 17.1839C325.361 19.0079 325.681 20.7199 326.321 22.3199C326.993 23.8879 327.921 25.2639 329.105 26.4479C330.321 27.5999 331.745 28.4959 333.377 29.1359C335.009 29.7759 336.785 30.0959 338.705 30.0959C340.497 30.0959 342.209 29.8239 343.841 29.2799C345.505 28.7039 347.041 27.7599 348.449 26.4479L351.185 30.0959C349.521 31.5039 347.569 32.5759 345.329 33.3119C343.121 34.0159 340.833 34.3679 338.465 34.3679ZM346.577 29.4719V16.9919H351.185V30.0959L346.577 29.4719Z" fill="white"/>
</svg>
