<svg width="722" height="79" viewBox="0 0 722 79" fill="none" xmlns="http://www.w3.org/2000/svg">
<rect x="2.55625" y="2.55606" width="716.112" height="73.1125" rx="36.5562" fill="#F1F2F2" stroke="url(#paint0_linear_956_4359)" stroke-width="5.11248"/>
<rect x="454.524" y="5.1123" width="261.589" height="67.8525" rx="33.9262" fill="#401A79"/>
<path d="M528.844 5.1123H566.998L527.613 72.9648H489.459L528.844 5.1123Z" fill="#894697" fill-opacity="0.49"/>
<path d="M509.674 51.6341C508.246 51.6341 506.891 51.2862 505.609 50.5905C504.328 49.8765 503.321 48.9246 502.589 47.7346C502.442 47.4783 502.369 47.1762 502.369 46.8283C502.369 46.2608 502.506 45.8123 502.781 45.4827C503.074 45.1532 503.458 44.9884 503.934 44.9884C504.337 44.9884 504.685 45.0708 504.978 45.2356C505.271 45.4003 505.527 45.6658 505.747 46.032C506.095 46.6178 506.635 47.103 507.367 47.4874C508.118 47.8536 508.887 48.0366 509.674 48.0366C512.31 48.0366 513.628 47.1213 513.628 45.2905C513.628 44.5033 513.299 43.7893 512.64 43.1485C511.999 42.5078 510.974 41.8578 509.564 41.1988C507.898 40.4298 506.598 39.7342 505.664 39.1117C504.749 38.4709 504.09 37.7936 503.687 37.0796C503.284 36.3473 503.083 35.4868 503.083 34.4982C503.083 33.3631 503.385 32.3562 503.989 31.4775C504.593 30.5804 505.426 29.8847 506.488 29.3904C507.55 28.8778 508.74 28.6215 510.058 28.6215C511.523 28.6215 512.868 28.951 514.095 29.6101C515.322 30.2509 516.255 31.1296 516.896 32.2464C517.079 32.5393 517.171 32.8414 517.171 33.1526C517.171 33.592 517.024 33.9764 516.731 34.306C516.457 34.6355 516.109 34.8003 515.688 34.8003C515.377 34.8003 515.056 34.7179 514.727 34.5531C514.397 34.3701 514.141 34.1504 513.958 33.8941C513.537 33.3082 513.006 32.878 512.365 32.6034C511.743 32.3288 510.974 32.1915 510.058 32.1915C508.978 32.1915 508.127 32.3928 507.504 32.7956C506.9 33.1801 506.598 33.7476 506.598 34.4982C506.598 34.9559 506.708 35.3404 506.928 35.6516C507.166 35.9445 507.559 36.2466 508.108 36.5578C508.676 36.869 509.601 37.3176 510.882 37.9034C513.116 38.9469 514.717 40.0362 515.688 41.1713C516.676 42.3064 517.171 43.6794 517.171 45.2905C517.171 46.5537 516.859 47.6705 516.237 48.6408C515.615 49.5928 514.736 50.3342 513.601 50.8652C512.466 51.3778 511.157 51.6341 509.674 51.6341ZM534.623 30.5438C534.623 30.0861 534.797 29.7016 535.145 29.3904C535.493 29.0609 535.905 28.8961 536.381 28.8961C536.857 28.8961 537.269 29.0609 537.617 29.3904C537.983 29.7016 538.166 30.0861 538.166 30.5438V42.3521C538.166 44.2561 537.818 45.913 537.122 47.3226C536.427 48.714 535.42 49.785 534.101 50.5356C532.802 51.2862 531.255 51.6615 529.46 51.6615C527.666 51.6615 526.119 51.2862 524.82 50.5356C523.52 49.785 522.522 48.714 521.826 47.3226C521.131 45.913 520.783 44.2561 520.783 42.3521V30.2966C520.783 29.8389 520.957 29.4545 521.304 29.1432C521.652 28.8137 522.064 28.6489 522.54 28.6489C523.016 28.6489 523.428 28.8137 523.776 29.1432C524.142 29.4545 524.325 29.8389 524.325 30.2966V42.3521C524.325 44.1646 524.774 45.5834 525.671 46.6086C526.586 47.6156 527.849 48.119 529.46 48.119C531.09 48.119 532.353 47.6156 533.25 46.6086C534.166 45.5834 534.623 44.1646 534.623 42.3521V30.5438ZM554.889 38.5076C555.987 39.1117 556.875 39.9539 557.553 41.034C558.248 42.1141 558.596 43.2492 558.596 44.4392C558.596 45.794 558.257 47.0114 557.58 48.0916C556.903 49.1534 555.969 49.9864 554.779 50.5905C553.589 51.1764 552.234 51.4693 550.715 51.4693H544.426C543.913 51.4693 543.474 51.2954 543.108 50.9475C542.742 50.5997 542.559 50.1878 542.559 49.7118V30.5438C542.559 30.0678 542.723 29.665 543.053 29.3355C543.401 29.0059 543.84 28.8229 544.371 28.7862C545.012 28.7679 545.882 28.7588 546.98 28.7588C548.097 28.7405 549.012 28.7313 549.726 28.7313C551.099 28.7313 552.317 28.9785 553.378 29.4728C554.459 29.9671 555.292 30.6628 555.877 31.5598C556.482 32.4569 556.784 33.4821 556.784 34.6355C556.784 35.4594 556.628 36.1917 556.317 36.8324C556.006 37.4549 555.53 38.0133 554.889 38.5076ZM546.101 32.2738V37.2993H549.781C550.66 37.2993 551.346 37.226 551.841 37.0796C552.335 36.9331 552.692 36.6676 552.912 36.2832C553.15 35.8987 553.269 35.3495 553.269 34.6355C553.269 33.83 552.976 33.235 552.39 32.8505C551.822 32.4661 550.934 32.2738 549.726 32.2738H546.101ZM550.715 47.9268C552.143 47.9268 553.223 47.6339 553.955 47.048C554.706 46.4622 555.081 45.5926 555.081 44.4392C555.081 43.2675 554.715 42.3155 553.983 41.5832C553.25 40.8509 552.28 40.4848 551.072 40.4848H546.101V47.9268H550.715ZM568.485 51.6341C567.057 51.6341 565.702 51.2862 564.421 50.5905C563.139 49.8765 562.132 48.9246 561.4 47.7346C561.253 47.4783 561.18 47.1762 561.18 46.8283C561.18 46.2608 561.318 45.8123 561.592 45.4827C561.885 45.1532 562.27 44.9884 562.746 44.9884C563.148 44.9884 563.496 45.0708 563.789 45.2356C564.082 45.4003 564.338 45.6658 564.558 46.032C564.906 46.6178 565.446 47.103 566.178 47.4874C566.929 47.8536 567.698 48.0366 568.485 48.0366C571.121 48.0366 572.439 47.1213 572.439 45.2905C572.439 44.5033 572.11 43.7893 571.451 43.1485C570.81 42.5078 569.785 41.8578 568.375 41.1988C566.709 40.4298 565.409 39.7342 564.476 39.1117C563.56 38.4709 562.901 37.7936 562.498 37.0796C562.096 36.3473 561.894 35.4868 561.894 34.4982C561.894 33.3631 562.196 32.3562 562.8 31.4775C563.405 30.5804 564.238 29.8847 565.299 29.3904C566.361 28.8778 567.551 28.6215 568.869 28.6215C570.334 28.6215 571.68 28.951 572.906 29.6101C574.133 30.2509 575.067 31.1296 575.707 32.2464C575.89 32.5393 575.982 32.8414 575.982 33.1526C575.982 33.592 575.835 33.9764 575.543 34.306C575.268 34.6355 574.92 34.8003 574.499 34.8003C574.188 34.8003 573.867 34.7179 573.538 34.5531C573.208 34.3701 572.952 34.1504 572.769 33.8941C572.348 33.3082 571.817 32.878 571.176 32.6034C570.554 32.3288 569.785 32.1915 568.869 32.1915C567.789 32.1915 566.938 32.3928 566.316 32.7956C565.711 33.1801 565.409 33.7476 565.409 34.4982C565.409 34.9559 565.519 35.3404 565.739 35.6516C565.977 35.9445 566.37 36.2466 566.92 36.5578C567.487 36.869 568.412 37.3176 569.693 37.9034C571.927 38.9469 573.529 40.0362 574.499 41.1713C575.488 42.3064 575.982 43.6794 575.982 45.2905C575.982 46.5537 575.671 47.6705 575.048 48.6408C574.426 49.5928 573.547 50.3342 572.412 50.8652C571.277 51.3778 569.968 51.6341 568.485 51.6341ZM596.263 46.1967C596.409 46.0137 596.592 45.8672 596.812 45.7573C597.05 45.6475 597.279 45.5926 597.499 45.5926C597.956 45.5926 598.341 45.7573 598.652 46.0869C598.982 46.3981 599.146 46.7826 599.146 47.2403C599.146 47.6796 598.991 48.0733 598.68 48.4211C597.837 49.3182 596.657 50.0596 595.137 50.6455C593.618 51.213 592.107 51.4968 590.606 51.4968C588.427 51.4968 586.459 51.0208 584.702 50.0688C582.944 49.1168 581.562 47.7803 580.555 46.0594C579.548 44.3385 579.045 42.3613 579.045 40.1278C579.045 37.9126 579.548 35.9353 580.555 34.1961C581.562 32.4569 582.944 31.1113 584.702 30.1593C586.459 29.189 588.427 28.7039 590.606 28.7039C592.107 28.7039 593.608 29.0059 595.11 29.6101C596.611 30.2142 597.792 31.0106 598.652 31.9992C598.963 32.3654 599.119 32.759 599.119 33.1801C599.119 33.6377 598.954 34.0314 598.625 34.3609C598.295 34.6721 597.901 34.8277 597.444 34.8277C597.224 34.8277 597.004 34.782 596.785 34.6904C596.565 34.5989 596.391 34.4707 596.263 34.306C595.732 33.6652 594.945 33.1618 593.901 32.7956C592.858 32.4295 591.759 32.2464 590.606 32.2464C589.031 32.2464 587.631 32.5668 586.404 33.2075C585.196 33.83 584.253 34.7362 583.576 35.9262C582.917 37.0979 582.587 38.4984 582.587 40.1278C582.587 41.7388 582.926 43.1394 583.603 44.3294C584.281 45.501 585.224 46.4073 586.432 47.048C587.64 47.6705 589.031 47.9817 590.606 47.9817C591.869 47.9817 593.023 47.8169 594.066 47.4874C595.11 47.1579 595.842 46.7276 596.263 46.1967ZM616.801 48.6133C616.984 48.7598 617.176 48.9886 617.378 49.2999C617.597 49.6111 617.707 49.904 617.707 50.1786C617.707 50.6363 617.552 51.0025 617.24 51.2771C616.929 51.5517 616.536 51.689 616.06 51.689C615.602 51.689 615.263 51.6158 615.043 51.4693C614.311 51.0665 613.78 50.5265 613.451 49.8491C613.121 49.1534 612.883 48.1556 612.737 46.8558C612.682 46.3066 612.627 45.6658 612.572 44.9335C612.517 44.1829 612.471 43.5696 612.435 43.0936C612.398 42.2331 611.922 41.5832 611.007 41.1438C610.11 40.7045 609.011 40.4848 607.711 40.4848H605.899V49.8491C605.899 50.3068 605.734 50.7004 605.405 51.0299C605.093 51.3411 604.709 51.4968 604.251 51.4968C603.794 51.4968 603.4 51.3411 603.07 51.0299C602.759 50.7004 602.604 50.3068 602.604 49.8491V30.5438C602.604 30.0312 602.759 29.6192 603.07 29.308C603.382 28.9968 603.784 28.8229 604.279 28.7862C604.901 28.7679 605.771 28.7588 606.887 28.7588C608.004 28.7405 608.929 28.7313 609.661 28.7313C611.034 28.7313 612.252 28.9785 613.313 29.4728C614.394 29.9671 615.227 30.6628 615.812 31.5598C616.417 32.4569 616.719 33.4821 616.719 34.6355C616.719 36.9789 615.547 38.5442 613.204 39.3314C614.76 39.9905 615.602 41.153 615.73 42.819L615.84 44.0822C615.876 44.668 615.941 45.4827 616.032 46.5263C616.142 47.6247 616.398 48.3204 616.801 48.6133ZM605.899 37.4366H609.634C610.952 37.4366 611.913 37.226 612.517 36.805C613.121 36.3839 613.423 35.6607 613.423 34.6355C613.423 33.8117 613.094 33.1709 612.435 32.7132C611.776 32.2555 610.851 32.0267 609.661 32.0267H605.899V37.4366ZM625.086 49.8491C625.086 50.3068 624.922 50.7004 624.592 51.0299C624.281 51.3411 623.896 51.4968 623.439 51.4968C622.981 51.4968 622.587 51.3411 622.258 51.0299C621.947 50.7004 621.791 50.3068 621.791 49.8491V30.379C621.791 29.9213 621.947 29.5369 622.258 29.2256C622.587 28.8961 622.981 28.7313 623.439 28.7313C623.896 28.7313 624.281 28.8961 624.592 29.2256C624.922 29.5369 625.086 29.9213 625.086 30.379V49.8491ZM642.368 38.5076C643.467 39.1117 644.355 39.9539 645.032 41.034C645.728 42.1141 646.075 43.2492 646.075 44.4392C646.075 45.794 645.737 47.0114 645.059 48.0916C644.382 49.1534 643.448 49.9864 642.258 50.5905C641.068 51.1764 639.714 51.4693 638.194 51.4693H631.905C631.393 51.4693 630.953 51.2954 630.587 50.9475C630.221 50.5997 630.038 50.1878 630.038 49.7118V30.5438C630.038 30.0678 630.203 29.665 630.532 29.3355C630.88 29.0059 631.32 28.8229 631.85 28.7862C632.491 28.7679 633.361 28.7588 634.459 28.7588C635.576 28.7405 636.491 28.7313 637.205 28.7313C638.578 28.7313 639.796 28.9785 640.858 29.4728C641.938 29.9671 642.771 30.6628 643.357 31.5598C643.961 32.4569 644.263 33.4821 644.263 34.6355C644.263 35.4594 644.107 36.1917 643.796 36.8324C643.485 37.4549 643.009 38.0133 642.368 38.5076ZM633.581 32.2738V37.2993H637.26C638.139 37.2993 638.826 37.226 639.32 37.0796C639.814 36.9331 640.171 36.6676 640.391 36.2832C640.629 35.8987 640.748 35.3495 640.748 34.6355C640.748 33.83 640.455 33.235 639.869 32.8505C639.302 32.4661 638.414 32.2738 637.205 32.2738H633.581ZM638.194 47.9268C639.622 47.9268 640.702 47.6339 641.434 47.048C642.185 46.4622 642.56 45.5926 642.56 44.4392C642.56 43.2675 642.194 42.3155 641.462 41.5832C640.73 40.8509 639.759 40.4848 638.551 40.4848H633.581V47.9268H638.194ZM667.278 45.5926C667.736 45.5926 668.121 45.7573 668.432 46.0869C668.761 46.3981 668.926 46.7826 668.926 47.2403C668.926 47.6796 668.77 48.0733 668.459 48.4211C667.617 49.3182 666.436 50.0596 664.917 50.6455C663.397 51.213 661.887 51.4968 660.386 51.4968C658.207 51.4968 656.239 51.0208 654.481 50.0688C652.724 49.1168 651.342 47.7803 650.335 46.0594C649.328 44.3385 648.824 42.3613 648.824 40.1278C648.824 37.9126 649.328 35.9353 650.335 34.1961C651.342 32.4569 652.724 31.1113 654.481 30.1593C656.239 29.189 658.207 28.7039 660.386 28.7039C661.887 28.7039 663.388 29.0059 664.889 29.6101C666.39 30.2142 667.571 31.0106 668.432 31.9992C668.743 32.3654 668.899 32.759 668.899 33.1801C668.899 33.6377 668.734 34.0314 668.404 34.3609C668.075 34.6721 667.681 34.8277 667.223 34.8277C667.004 34.8277 666.784 34.782 666.564 34.6904C666.345 34.5989 666.171 34.4707 666.043 34.306C665.512 33.6652 664.724 33.1618 663.681 32.7956C662.637 32.4295 661.539 32.2464 660.386 32.2464C658.353 32.2464 656.642 32.759 655.25 33.7842C653.877 34.7911 652.989 36.21 652.587 38.0407H661.154C661.612 38.0407 661.997 38.2055 662.308 38.535C662.637 38.8462 662.802 39.2307 662.802 39.6884C662.802 40.1461 662.637 40.5397 662.308 40.8692C661.997 41.1805 661.612 41.3361 661.154 41.3361H652.449C652.687 43.4048 653.52 45.0342 654.948 46.2242C656.395 47.3959 658.207 47.9817 660.386 47.9817C661.649 47.9817 662.802 47.8169 663.846 47.4874C664.889 47.1579 665.622 46.7276 666.043 46.1967C666.189 46.0137 666.372 45.8672 666.592 45.7573C666.83 45.6475 667.059 45.5926 667.278 45.5926Z" fill="white"/>
<path d="M40.5415 37.7643H49.9015V39.9743H40.5415V37.7643ZM40.7755 45.8503H51.3835V48.1123H38.1755V29.9123H51.0195V32.1743H40.7755V45.8503ZM62.5875 34.2023C63.7141 34.2023 64.7021 34.419 65.5515 34.8523C66.4181 35.2856 67.0941 35.9443 67.5795 36.8283C68.0648 37.7123 68.3075 38.8303 68.3075 40.1823V48.1123H65.8115V40.4683C65.8115 39.1336 65.4821 38.1283 64.8235 37.4523C64.1821 36.7763 63.2721 36.4383 62.0935 36.4383C61.2095 36.4383 60.4381 36.6116 59.7795 36.9583C59.1208 37.305 58.6095 37.8163 58.2455 38.4923C57.8988 39.1683 57.7255 40.009 57.7255 41.0143V48.1123H55.2295V34.3323H57.6215V38.0503L57.2315 37.0623C57.6821 36.161 58.3755 35.459 59.3115 34.9563C60.2475 34.4536 61.3395 34.2023 62.5875 34.2023ZM77.6587 48.2683C76.2721 48.2683 75.1974 47.8956 74.4347 47.1503C73.6721 46.405 73.2907 45.339 73.2907 43.9523V31.3163H75.7867V43.8483C75.7867 44.5936 75.9687 45.1656 76.3327 45.5643C76.7141 45.963 77.2514 46.1623 77.9447 46.1623C78.7247 46.1623 79.3747 45.9456 79.8947 45.5123L80.6747 47.3063C80.2934 47.6356 79.8341 47.8783 79.2967 48.0343C78.7767 48.1903 78.2307 48.2683 77.6587 48.2683ZM70.9507 36.3863V34.3323H79.7387V36.3863H70.9507ZM89.3713 48.2683C87.898 48.2683 86.598 47.965 85.4713 47.3583C84.362 46.7516 83.4953 45.9196 82.8713 44.8623C82.2647 43.805 81.9613 42.5916 81.9613 41.2223C81.9613 39.853 82.256 38.6396 82.8453 37.5823C83.452 36.525 84.2753 35.7016 85.3153 35.1123C86.3727 34.5056 87.56 34.2023 88.8773 34.2023C90.212 34.2023 91.3907 34.497 92.4133 35.0863C93.436 35.6756 94.2333 36.5076 94.8053 37.5823C95.3947 38.6396 95.6893 39.879 95.6893 41.3003C95.6893 41.4043 95.6807 41.5256 95.6633 41.6643C95.6633 41.803 95.6547 41.933 95.6373 42.0543H83.9113V40.2603H94.3373L93.3233 40.8843C93.3407 40.0003 93.1587 39.2116 92.7773 38.5183C92.396 37.825 91.8673 37.2876 91.1913 36.9063C90.5327 36.5076 89.7613 36.3083 88.8773 36.3083C88.0107 36.3083 87.2393 36.5076 86.5633 36.9063C85.8873 37.2876 85.3587 37.8336 84.9773 38.5443C84.596 39.2376 84.4053 40.035 84.4053 40.9363V41.3523C84.4053 42.271 84.6133 43.0943 85.0293 43.8223C85.4627 44.533 86.0607 45.0876 86.8233 45.4863C87.586 45.885 88.4613 46.0843 89.4493 46.0843C90.264 46.0843 91.0007 45.9456 91.6593 45.6683C92.3353 45.391 92.9247 44.975 93.4273 44.4203L94.8053 46.0323C94.1813 46.7603 93.4013 47.315 92.4653 47.6963C91.5467 48.0776 90.5153 48.2683 89.3713 48.2683ZM99.1552 48.1123V34.3323H101.547V38.0763L101.313 37.1403C101.695 36.187 102.336 35.459 103.237 34.9563C104.139 34.4536 105.248 34.2023 106.565 34.2023V36.6203C106.461 36.603 106.357 36.5943 106.253 36.5943C106.167 36.5943 106.08 36.5943 105.993 36.5943C104.659 36.5943 103.601 36.993 102.821 37.7903C102.041 38.5876 101.651 39.7403 101.651 41.2483V48.1123H99.1552ZM117.4 53.3123C116.741 53.3123 116.1 53.1996 115.476 52.9743C114.852 52.7663 114.314 52.4543 113.864 52.0383L114.93 50.1663C115.276 50.4956 115.658 50.747 116.074 50.9203C116.49 51.0936 116.932 51.1803 117.4 51.1803C118.006 51.1803 118.509 51.0243 118.908 50.7123C119.306 50.4003 119.679 49.8456 120.026 49.0483L120.884 47.1503L121.144 46.8383L126.552 34.3323H128.996L122.314 49.4903C121.915 50.461 121.464 51.2236 120.962 51.7783C120.476 52.333 119.939 52.723 119.35 52.9483C118.76 53.191 118.11 53.3123 117.4 53.3123ZM120.676 48.5543L114.384 34.3323H116.984L122.34 46.6043L120.676 48.5543ZM136.846 48.2683C135.46 48.2683 134.229 47.965 133.154 47.3583C132.08 46.7516 131.23 45.9196 130.606 44.8623C129.982 43.7876 129.67 42.5743 129.67 41.2223C129.67 39.853 129.982 38.6396 130.606 37.5823C131.23 36.525 132.08 35.7016 133.154 35.1123C134.229 34.5056 135.46 34.2023 136.846 34.2023C138.216 34.2023 139.438 34.5056 140.512 35.1123C141.604 35.7016 142.454 36.525 143.06 37.5823C143.684 38.6223 143.996 39.8356 143.996 41.2223C143.996 42.5916 143.684 43.805 143.06 44.8623C142.454 45.9196 141.604 46.7516 140.512 47.3583C139.438 47.965 138.216 48.2683 136.846 48.2683ZM136.846 46.0843C137.73 46.0843 138.519 45.885 139.212 45.4863C139.923 45.0876 140.478 44.5243 140.876 43.7963C141.275 43.051 141.474 42.193 141.474 41.2223C141.474 40.2343 141.275 39.385 140.876 38.6743C140.478 37.9463 139.923 37.383 139.212 36.9843C138.519 36.5856 137.73 36.3863 136.846 36.3863C135.962 36.3863 135.174 36.5856 134.48 36.9843C133.787 37.383 133.232 37.9463 132.816 38.6743C132.4 39.385 132.192 40.2343 132.192 41.2223C132.192 42.193 132.4 43.051 132.816 43.7963C133.232 44.5243 133.787 45.0876 134.48 45.4863C135.174 45.885 135.962 46.0843 136.846 46.0843ZM153.246 48.2683C152.068 48.2683 151.028 48.0516 150.126 47.6183C149.242 47.185 148.549 46.5263 148.046 45.6423C147.561 44.741 147.318 43.6143 147.318 42.2623V34.3323H149.814V41.9763C149.814 43.3283 150.135 44.3423 150.776 45.0183C151.435 45.6943 152.354 46.0323 153.532 46.0323C154.399 46.0323 155.153 45.859 155.794 45.5123C156.436 45.1483 156.93 44.6283 157.276 43.9523C157.623 43.259 157.796 42.427 157.796 41.4563V34.3323H160.292V48.1123H157.926V44.3943L158.316 45.3823C157.866 46.301 157.19 47.0116 156.288 47.5143C155.387 48.017 154.373 48.2683 153.246 48.2683ZM165.044 48.1123V34.3323H167.436V38.0763L167.202 37.1403C167.583 36.187 168.225 35.459 169.126 34.9563C170.027 34.4536 171.137 34.2023 172.454 34.2023V36.6203C172.35 36.603 172.246 36.5943 172.142 36.5943C172.055 36.5943 171.969 36.5943 171.882 36.5943C170.547 36.5943 169.49 36.993 168.71 37.7903C167.93 38.5876 167.54 39.7403 167.54 41.2483V48.1123H165.044ZM188.826 48.2683C187.353 48.2683 186.053 47.965 184.926 47.3583C183.817 46.7516 182.95 45.9196 182.326 44.8623C181.72 43.805 181.416 42.5916 181.416 41.2223C181.416 39.853 181.711 38.6396 182.3 37.5823C182.907 36.525 183.73 35.7016 184.77 35.1123C185.828 34.5056 187.015 34.2023 188.332 34.2023C189.667 34.2023 190.846 34.497 191.868 35.0863C192.891 35.6756 193.688 36.5076 194.26 37.5823C194.85 38.6396 195.144 39.879 195.144 41.3003C195.144 41.4043 195.136 41.5256 195.118 41.6643C195.118 41.803 195.11 41.933 195.092 42.0543H183.366V40.2603H193.792L192.778 40.8843C192.796 40.0003 192.614 39.2116 192.232 38.5183C191.851 37.825 191.322 37.2876 190.646 36.9063C189.988 36.5076 189.216 36.3083 188.332 36.3083C187.466 36.3083 186.694 36.5076 186.018 36.9063C185.342 37.2876 184.814 37.8336 184.432 38.5443C184.051 39.2376 183.86 40.035 183.86 40.9363V41.3523C183.86 42.271 184.068 43.0943 184.484 43.8223C184.918 44.533 185.516 45.0876 186.278 45.4863C187.041 45.885 187.916 46.0843 188.904 46.0843C189.719 46.0843 190.456 45.9456 191.114 45.6683C191.79 45.391 192.38 44.975 192.882 44.4203L194.26 46.0323C193.636 46.7603 192.856 47.315 191.92 47.6963C191.002 48.0776 189.97 48.2683 188.826 48.2683ZM215.848 34.2023C216.958 34.2023 217.937 34.419 218.786 34.8523C219.636 35.2856 220.294 35.9443 220.762 36.8283C221.248 37.7123 221.49 38.8303 221.49 40.1823V48.1123H218.994V40.4683C218.994 39.1336 218.682 38.1283 218.058 37.4523C217.434 36.7763 216.559 36.4383 215.432 36.4383C214.6 36.4383 213.872 36.6116 213.248 36.9583C212.624 37.305 212.139 37.8163 211.792 38.4923C211.463 39.1683 211.298 40.009 211.298 41.0143V48.1123H208.802V40.4683C208.802 39.1336 208.49 38.1283 207.866 37.4523C207.26 36.7763 206.384 36.4383 205.24 36.4383C204.426 36.4383 203.706 36.6116 203.082 36.9583C202.458 37.305 201.973 37.8163 201.626 38.4923C201.28 39.1683 201.106 40.009 201.106 41.0143V48.1123H198.61V34.3323H201.002V37.9983L200.612 37.0623C201.046 36.161 201.713 35.459 202.614 34.9563C203.516 34.4536 204.564 34.2023 205.76 34.2023C207.078 34.2023 208.213 34.5316 209.166 35.1903C210.12 35.8316 210.744 36.811 211.038 38.1283L210.024 37.7123C210.44 36.655 211.168 35.8056 212.208 35.1643C213.248 34.523 214.462 34.2023 215.848 34.2023ZM234.637 48.1123V45.2003L234.507 44.6543V39.6883C234.507 38.631 234.195 37.8163 233.571 37.2443C232.964 36.655 232.046 36.3603 230.815 36.3603C230 36.3603 229.203 36.499 228.423 36.7763C227.643 37.0363 226.984 37.3916 226.447 37.8423L225.407 35.9703C226.118 35.3983 226.967 34.965 227.955 34.6703C228.96 34.3583 230.009 34.2023 231.101 34.2023C232.99 34.2023 234.446 34.6616 235.469 35.5803C236.492 36.499 237.003 37.903 237.003 39.7923V48.1123H234.637ZM230.113 48.2683C229.09 48.2683 228.189 48.095 227.409 47.7483C226.646 47.4016 226.057 46.925 225.641 46.3183C225.225 45.6943 225.017 44.9923 225.017 44.2123C225.017 43.467 225.19 42.791 225.537 42.1843C225.901 41.5776 226.482 41.0923 227.279 40.7283C228.094 40.3643 229.186 40.1823 230.555 40.1823H234.923V41.9763H230.659C229.411 41.9763 228.57 42.1843 228.137 42.6003C227.704 43.0163 227.487 43.519 227.487 44.1083C227.487 44.7843 227.756 45.3303 228.293 45.7463C228.83 46.145 229.576 46.3443 230.529 46.3443C231.465 46.3443 232.28 46.1363 232.973 45.7203C233.684 45.3043 234.195 44.6976 234.507 43.9003L235.001 45.6163C234.672 46.431 234.091 47.081 233.259 47.5663C232.427 48.0343 231.378 48.2683 230.113 48.2683ZM241.622 48.1123V34.3323H244.118V48.1123H241.622ZM242.87 31.6803C242.385 31.6803 241.977 31.5243 241.648 31.2123C241.336 30.9003 241.18 30.519 241.18 30.0683C241.18 29.6003 241.336 29.2103 241.648 28.8983C241.977 28.5863 242.385 28.4303 242.87 28.4303C243.355 28.4303 243.754 28.5863 244.066 28.8983C244.395 29.193 244.56 29.5656 244.56 30.0163C244.56 30.4843 244.404 30.883 244.092 31.2123C243.78 31.5243 243.373 31.6803 242.87 31.6803ZM248.884 48.1123V28.8203H251.38V48.1123H248.884Z" fill="#8F8F8F"/>
<defs>
<linearGradient id="paint0_linear_956_4359" x1="5.11249" y1="39.1123" x2="716.112" y2="39.1123" gradientUnits="userSpaceOnUse">
<stop stop-color="#A315D6"/>
<stop offset="0.514423" stop-color="#FDAB60"/>
<stop offset="1" stop-color="#A315D6"/>
</linearGradient>
</defs>
</svg>
