<svg width="433" height="97" viewBox="0 0 433 97" fill="none" xmlns="http://www.w3.org/2000/svg">
<rect x="4" y="4" width="425" height="89" rx="44.5" fill="#401A79" stroke="url(#paint0_linear_930_1083)" stroke-width="8"/>
<path d="M106 8H168L104 88.9998H42L106 8Z" fill="#894697" fill-opacity="0.49"/>
<path d="M86.3722 60.0672C86.587 60.2391 86.8126 60.5077 87.049 60.8729C87.3068 61.2382 87.4357 61.5819 87.4357 61.9042C87.4357 62.4414 87.2531 62.8711 86.8878 63.1934C86.5226 63.5157 86.0606 63.6768 85.502 63.6768C84.9649 63.6768 84.5674 63.5909 84.3095 63.419C83.4501 62.9463 82.827 62.3125 82.4403 61.5175C82.0535 60.701 81.7742 59.5301 81.6023 58.0046C81.5379 57.36 81.4734 56.608 81.409 55.7486C81.3445 54.8677 81.2908 54.1479 81.2478 53.5893C81.2049 52.5794 80.6462 51.8167 79.5719 51.301C78.5191 50.7854 77.23 50.5275 75.7045 50.5275H73.5774V61.5175C73.5774 62.0546 73.3841 62.5166 72.9973 62.9033C72.6321 63.2686 72.1809 63.4512 71.6437 63.4512C71.1066 63.4512 70.6446 63.2686 70.2579 62.9033C69.8926 62.5166 69.71 62.0546 69.71 61.5175V38.8608C69.71 38.2592 69.8926 37.7758 70.2579 37.4105C70.6231 37.0453 71.0958 36.8411 71.6759 36.7982C72.4065 36.7767 73.427 36.7659 74.7377 36.7659C76.0483 36.7445 77.1333 36.7337 77.9927 36.7337C79.6042 36.7337 81.033 37.0238 82.2791 37.6039C83.5468 38.184 84.5244 39.0005 85.2119 40.0533C85.921 41.1061 86.2755 42.3093 86.2755 43.6629C86.2755 46.413 84.9004 48.2501 82.1502 49.1739C83.9765 49.9474 84.9649 51.3118 85.1153 53.267L85.2442 54.7495C85.2871 55.437 85.3623 56.3931 85.4698 57.6178C85.5987 58.907 85.8995 59.7234 86.3722 60.0672ZM73.5774 46.9502H77.9605C79.5075 46.9502 80.6355 46.7031 81.3445 46.2089C82.0535 45.7147 82.4081 44.8661 82.4081 43.6629C82.4081 42.696 82.0213 41.944 81.2478 41.4069C80.4743 40.8697 79.3893 40.6011 77.9927 40.6011H73.5774V46.9502ZM112.597 56.5221C113.134 56.5221 113.585 56.7154 113.951 57.1022C114.337 57.4674 114.531 57.9186 114.531 58.4558C114.531 58.9714 114.348 59.4334 113.983 59.8416C112.994 60.8944 111.609 61.7646 109.825 62.4521C108.042 63.1182 106.269 63.4512 104.508 63.4512C101.951 63.4512 99.641 62.8926 97.5784 61.7753C95.5158 60.6581 93.8936 59.0896 92.7119 57.0699C91.5302 55.0503 90.9393 52.7298 90.9393 50.1086C90.9393 47.5088 91.5302 45.1883 92.7119 43.1472C93.8936 41.1061 95.5158 39.5269 97.5784 38.4096C99.641 37.2709 101.951 36.7015 104.508 36.7015C106.269 36.7015 108.031 37.056 109.793 37.765C111.555 38.4741 112.941 39.4087 113.951 40.5689C114.316 40.9986 114.498 41.4606 114.498 41.9547C114.498 42.4919 114.305 42.9538 113.918 43.3406C113.532 43.7058 113.07 43.8885 112.532 43.8885C112.275 43.8885 112.017 43.8347 111.759 43.7273C111.501 43.6199 111.297 43.4695 111.147 43.2761C110.524 42.5241 109.6 41.9333 108.375 41.5035C107.15 41.0738 105.861 40.859 104.508 40.859C102.123 40.859 100.114 41.4606 98.4808 42.6638C96.8694 43.8455 95.8273 45.5106 95.3546 47.6592H105.41C105.947 47.6592 106.398 47.8526 106.764 48.2393C107.15 48.6046 107.344 49.0558 107.344 49.5929C107.344 50.1301 107.15 50.592 106.764 50.9787C106.398 51.344 105.947 51.5266 105.41 51.5266H95.1935C95.4728 53.9545 96.4504 55.8667 98.1263 57.2633C99.8237 58.6384 101.951 59.3259 104.508 59.3259C105.99 59.3259 107.344 59.1326 108.568 58.7458C109.793 58.3591 110.652 57.8542 111.147 57.2311C111.319 57.0162 111.533 56.8443 111.791 56.7154C112.071 56.5865 112.339 56.5221 112.597 56.5221ZM131.318 63.7735C128.761 63.7735 126.462 63.2041 124.421 62.0654C122.402 60.9266 120.812 59.3259 119.651 57.2633C118.513 55.1792 117.943 52.805 117.943 50.1408C117.943 47.584 118.556 45.285 119.78 43.2439C121.005 41.1813 122.67 39.5698 124.776 38.4096C126.881 37.2279 129.223 36.637 131.802 36.637C133.606 36.637 135.443 37.0238 137.313 37.7973C139.182 38.5707 140.621 39.5806 141.631 40.8267C141.76 40.9986 141.868 41.2027 141.954 41.4391C142.04 41.6539 142.083 41.8581 142.083 42.0514C142.083 42.5886 141.9 43.0505 141.535 43.4373C141.169 43.8025 140.707 43.9851 140.149 43.9851C139.912 43.9851 139.644 43.9207 139.343 43.7918C139.064 43.6629 138.849 43.5017 138.699 43.3083C138.054 42.5349 137.033 41.8795 135.637 41.3424C134.24 40.7838 132.962 40.5045 131.802 40.5045C129.975 40.5045 128.321 40.9127 126.838 41.7291C125.356 42.5456 124.196 43.6843 123.358 45.1454C122.52 46.6064 122.101 48.2715 122.101 50.1408C122.101 52.096 122.488 53.7934 123.261 55.2329C124.035 56.6725 125.109 57.7682 126.484 58.5202C127.88 59.2722 129.492 59.6482 131.318 59.6482C132.865 59.6482 134.229 59.4549 135.411 59.0681C136.614 58.6599 137.538 58.112 138.183 57.4245C138.849 56.7154 139.182 55.9312 139.182 55.0718C139.182 54.0834 138.838 53.2885 138.151 52.6869C137.485 52.0638 136.571 51.7522 135.411 51.7522C134.444 51.7522 133.402 51.8167 132.285 51.9456C132.178 51.9671 131.984 51.9778 131.705 51.9778C131.103 51.9778 130.62 51.8167 130.255 51.4944C129.889 51.1721 129.707 50.7317 129.707 50.173C129.707 49.0343 130.491 48.336 132.059 48.0782C132.36 48.0352 132.844 47.9922 133.51 47.9493C134.197 47.9063 134.81 47.8848 135.347 47.8848C136.894 47.8848 138.247 48.1963 139.408 48.8194C140.568 49.421 141.459 50.2697 142.083 51.3655C142.727 52.4398 143.049 53.6752 143.049 55.0718C143.049 56.6832 142.544 58.155 141.535 59.4871C140.525 60.8192 139.117 61.872 137.313 62.6455C135.529 63.3975 133.531 63.7735 131.318 63.7735ZM151.615 61.5175C151.615 62.0546 151.421 62.5166 151.035 62.9033C150.669 63.2686 150.218 63.4512 149.681 63.4512C149.144 63.4512 148.682 63.2686 148.295 62.9033C147.93 62.5166 147.747 62.0546 147.747 61.5175V38.6674C147.747 38.1303 147.93 37.6791 148.295 37.3138C148.682 36.9271 149.144 36.7337 149.681 36.7337C150.218 36.7337 150.669 36.9271 151.035 37.3138C151.421 37.6791 151.615 38.1303 151.615 38.6674V61.5175ZM165.161 63.6123C163.485 63.6123 161.895 63.2041 160.391 62.3877C158.887 61.5497 157.705 60.4325 156.846 59.0359C156.674 58.7351 156.588 58.3806 156.588 57.9723C156.588 57.3063 156.749 56.7799 157.071 56.3931C157.415 56.0064 157.866 55.813 158.425 55.813C158.898 55.813 159.306 55.9097 159.65 56.1031C159.993 56.2965 160.294 56.608 160.552 57.0377C160.96 57.7253 161.594 58.2946 162.453 58.7458C163.334 59.1755 164.237 59.3904 165.161 59.3904C168.255 59.3904 169.802 58.3161 169.802 56.1675C169.802 55.2437 169.415 54.4057 168.641 53.6537C167.889 52.9017 166.686 52.139 165.032 51.3655C163.077 50.4631 161.551 49.6466 160.455 48.9161C159.381 48.1641 158.608 47.3691 158.135 46.5312C157.662 45.6718 157.426 44.6619 157.426 43.5017C157.426 42.1696 157.78 40.9879 158.489 39.9566C159.198 38.9038 160.176 38.0873 161.422 37.5072C162.668 36.9056 164.065 36.6048 165.612 36.6048C167.331 36.6048 168.91 36.9915 170.349 37.765C171.789 38.517 172.885 39.5483 173.637 40.859C173.852 41.2027 173.959 41.5573 173.959 41.9225C173.959 42.4382 173.787 42.8894 173.443 43.2761C173.121 43.6629 172.713 43.8562 172.219 43.8562C171.853 43.8562 171.477 43.7595 171.091 43.5662C170.704 43.3513 170.403 43.0935 170.188 42.7927C169.694 42.1051 169.071 41.6002 168.319 41.2779C167.589 40.9557 166.686 40.7945 165.612 40.7945C164.344 40.7945 163.345 41.0309 162.615 41.5035C161.906 41.9547 161.551 42.6208 161.551 43.5017C161.551 44.0389 161.68 44.4901 161.938 44.8553C162.217 45.1991 162.679 45.5536 163.324 45.9189C163.99 46.2841 165.075 46.8105 166.579 47.4981C169.2 48.7227 171.08 50.0011 172.219 51.3333C173.379 52.6654 173.959 54.2768 173.959 56.1675C173.959 57.6501 173.594 58.9607 172.863 60.0994C172.133 61.2167 171.101 62.0869 169.769 62.7099C168.437 63.3115 166.901 63.6123 165.161 63.6123ZM196.021 37.2171C196.558 37.2171 197.009 37.4105 197.374 37.7973C197.761 38.1625 197.954 38.6137 197.954 39.1509C197.954 39.688 197.761 40.1499 197.374 40.5367C197.009 40.9019 196.558 41.0846 196.021 41.0846H189.478V61.5175C189.478 62.0546 189.263 62.5166 188.834 62.9033C188.425 63.2686 187.942 63.4512 187.383 63.4512C186.825 63.4512 186.341 63.2686 185.933 62.9033C185.525 62.5166 185.321 62.0546 185.321 61.5175V41.0846H178.746C178.209 41.0846 177.747 40.9019 177.36 40.5367C176.995 40.1499 176.812 39.688 176.812 39.1509C176.812 38.6137 176.995 38.1625 177.36 37.7973C177.747 37.4105 178.209 37.2171 178.746 37.2171H196.021ZM222.69 56.5221C223.227 56.5221 223.679 56.7154 224.044 57.1022C224.431 57.4674 224.624 57.9186 224.624 58.4558C224.624 58.9714 224.441 59.4334 224.076 59.8416C223.088 60.8944 221.702 61.7646 219.919 62.4521C218.135 63.1182 216.363 63.4512 214.601 63.4512C212.044 63.4512 209.734 62.8926 207.672 61.7753C205.609 60.6581 203.987 59.0896 202.805 57.0699C201.623 55.0503 201.033 52.7298 201.033 50.1086C201.033 47.5088 201.623 45.1883 202.805 43.1472C203.987 41.1061 205.609 39.5269 207.672 38.4096C209.734 37.2709 212.044 36.7015 214.601 36.7015C216.363 36.7015 218.124 37.056 219.886 37.765C221.648 38.4741 223.034 39.4087 224.044 40.5689C224.409 40.9986 224.592 41.4606 224.592 41.9547C224.592 42.4919 224.398 42.9538 224.012 43.3406C223.625 43.7058 223.163 43.8885 222.626 43.8885C222.368 43.8885 222.11 43.8347 221.852 43.7273C221.594 43.6199 221.39 43.4695 221.24 43.2761C220.617 42.5241 219.693 41.9333 218.468 41.5035C217.244 41.0738 215.954 40.859 214.601 40.859C212.216 40.859 210.207 41.4606 208.574 42.6638C206.963 43.8455 205.921 45.5106 205.448 47.6592H215.503C216.04 47.6592 216.492 47.8526 216.857 48.2393C217.244 48.6046 217.437 49.0558 217.437 49.5929C217.437 50.1301 217.244 50.592 216.857 50.9787C216.492 51.344 216.04 51.5266 215.503 51.5266H205.287C205.566 53.9545 206.544 55.8667 208.22 57.2633C209.917 58.6384 212.044 59.3259 214.601 59.3259C216.083 59.3259 217.437 59.1326 218.662 58.7458C219.886 58.3591 220.746 57.8542 221.24 57.2311C221.412 57.0162 221.627 56.8443 221.884 56.7154C222.164 56.5865 222.432 56.5221 222.69 56.5221ZM245.343 60.0672C245.558 60.2391 245.784 60.5077 246.02 60.8729C246.278 61.2382 246.407 61.5819 246.407 61.9042C246.407 62.4414 246.224 62.8711 245.859 63.1934C245.494 63.5157 245.032 63.6768 244.473 63.6768C243.936 63.6768 243.539 63.5909 243.281 63.419C242.421 62.9463 241.798 62.3125 241.411 61.5175C241.025 60.701 240.745 59.5301 240.574 58.0046C240.509 57.36 240.445 56.608 240.38 55.7486C240.316 54.8677 240.262 54.1479 240.219 53.5893C240.176 52.5794 239.617 51.8167 238.543 51.301C237.49 50.7854 236.201 50.5275 234.676 50.5275H232.549V61.5175C232.549 62.0546 232.355 62.5166 231.969 62.9033C231.603 63.2686 231.152 63.4512 230.615 63.4512C230.078 63.4512 229.616 63.2686 229.229 62.9033C228.864 62.5166 228.681 62.0546 228.681 61.5175V38.8608C228.681 38.2592 228.864 37.7758 229.229 37.4105C229.594 37.0453 230.067 36.8411 230.647 36.7982C231.378 36.7767 232.398 36.7659 233.709 36.7659C235.019 36.7445 236.105 36.7337 236.964 36.7337C238.575 36.7337 240.004 37.0238 241.25 37.6039C242.518 38.184 243.496 39.0005 244.183 40.0533C244.892 41.1061 245.247 42.3093 245.247 43.6629C245.247 46.413 243.872 48.2501 241.121 49.1739C242.948 49.9474 243.936 51.3118 244.086 53.267L244.215 54.7495C244.258 55.437 244.334 56.3931 244.441 57.6178C244.57 58.907 244.871 59.7234 245.343 60.0672ZM232.549 46.9502H236.932C238.479 46.9502 239.607 46.7031 240.316 46.2089C241.025 45.7147 241.379 44.8661 241.379 43.6629C241.379 42.696 240.993 41.944 240.219 41.4069C239.446 40.8697 238.361 40.6011 236.964 40.6011H232.549V46.9502ZM263.35 63.5157C262.791 63.5157 262.308 63.3223 261.9 62.9355C261.492 62.5488 261.287 62.0976 261.287 61.5819V38.893C261.287 38.3344 261.502 37.851 261.932 37.4427C262.383 37.013 262.91 36.7982 263.511 36.7982C264.177 36.7982 264.736 37.0882 265.187 37.6683L279.69 55.523L279.948 56.0386V38.4741C279.948 37.9584 280.152 37.5072 280.56 37.1205C280.968 36.7337 281.452 36.5403 282.01 36.5403C282.569 36.5403 283.052 36.7337 283.461 37.1205C283.89 37.5072 284.105 37.9584 284.105 38.4741V61.0018C284.105 61.5605 283.88 62.0546 283.428 62.4843C282.977 62.8926 282.451 63.0967 281.849 63.0967C281.548 63.0967 281.248 63.0215 280.947 62.8711C280.646 62.6992 280.388 62.4843 280.173 62.2265L265.703 44.4686L265.445 43.9207V61.5819C265.445 62.0976 265.23 62.5488 264.8 62.9355C264.392 63.3223 263.909 63.5157 263.35 63.5157ZM301.804 63.9346C299.312 63.9346 297.066 63.3653 295.068 62.2265C293.07 61.0663 291.491 59.4549 290.331 57.3922C289.192 55.3296 288.623 52.9769 288.623 50.3342C288.623 47.6914 289.192 45.3387 290.331 43.2761C291.491 41.2135 293.07 39.6128 295.068 38.4741C297.066 37.3138 299.312 36.7337 301.804 36.7337C304.296 36.7337 306.542 37.3138 308.54 38.4741C310.538 39.6128 312.106 41.2135 313.245 43.2761C314.384 45.3387 314.953 47.6914 314.953 50.3342C314.953 52.9769 314.384 55.3296 313.245 57.3922C312.106 59.4549 310.538 61.0663 308.54 62.2265C306.542 63.3653 304.296 63.9346 301.804 63.9346ZM301.804 59.7771C303.523 59.7771 305.059 59.3904 306.413 58.6169C307.788 57.8219 308.862 56.7154 309.636 55.2974C310.409 53.8578 310.796 52.2034 310.796 50.3342C310.796 48.4649 310.409 46.8213 309.636 45.4032C308.862 43.9637 307.788 42.8571 306.413 42.0837C305.059 41.2887 303.523 40.8912 301.804 40.8912C300.085 40.8912 298.538 41.2887 297.163 42.0837C295.788 42.8571 294.714 43.9637 293.94 45.4032C293.167 46.8213 292.78 48.4649 292.78 50.3342C292.78 52.2034 293.167 53.8578 293.94 55.2974C294.714 56.7154 295.788 57.8219 297.163 58.6169C298.538 59.3904 300.085 59.7771 301.804 59.7771ZM348.206 36.7015C348.744 36.7015 349.216 36.8949 349.624 37.2816C350.033 37.6683 350.248 38.1195 350.269 38.6352C350.269 38.8715 350.248 39.0327 350.205 39.1186L343.308 62.1298C343.179 62.5595 342.91 62.9141 342.502 63.1934C342.115 63.4727 341.675 63.6123 341.181 63.6123C340.708 63.6123 340.278 63.4727 339.891 63.1934C339.526 62.9355 339.258 62.581 339.086 62.1298L334.509 50.2375L329.159 62.0009C328.944 62.4521 328.665 62.7959 328.321 63.0322C327.978 63.2901 327.602 63.419 327.193 63.419C326.721 63.419 326.28 63.2793 325.872 63C325.485 62.7207 325.217 62.3662 325.066 61.9365L317.202 39.0542C317.138 38.8608 317.106 38.6782 317.106 38.5063C317.106 38.0121 317.31 37.5717 317.718 37.1849C318.148 36.7982 318.631 36.6048 319.168 36.6048C319.577 36.6048 319.942 36.7445 320.264 37.0238C320.608 37.2816 320.866 37.6146 321.038 38.0229L327.193 55.6519C327.236 55.8023 327.29 55.9742 327.354 56.1675C327.419 56.3609 327.483 56.5543 327.548 56.7477L327.967 55.6519L332.704 45.5643L330.513 39.9243C330.298 39.3872 330.191 38.8823 330.191 38.4096C330.191 37.9369 330.384 37.5179 330.771 37.1527C331.179 36.7874 331.652 36.6048 332.189 36.6048C333.177 36.6048 333.832 37.0453 334.155 37.9262L340.762 55.6197L340.987 56.5221L341.148 55.6197L346.369 38.1518C346.498 37.7221 346.724 37.3783 347.046 37.1205C347.39 36.8411 347.777 36.7015 348.206 36.7015ZM357.856 57.5534C357.34 57.5534 356.911 57.4137 356.567 57.1344C356.245 56.8551 356.073 56.4683 356.051 55.9742C356.008 55.2651 355.976 52.7835 355.955 48.5294C355.933 44.2752 355.922 41.0953 355.922 38.9897C355.922 38.1947 356.083 37.5931 356.406 37.1849C356.728 36.7552 357.211 36.5403 357.856 36.5403C358.458 36.5403 358.909 36.7767 359.21 37.2494C359.532 37.7006 359.693 38.3237 359.693 39.1186C359.672 41.1813 359.618 43.9959 359.532 47.5625C359.467 51.1077 359.403 53.9115 359.339 55.9742C359.317 56.4254 359.167 56.8014 358.887 57.1022C358.63 57.403 358.286 57.5534 357.856 57.5534ZM357.663 63.8057C356.975 63.8057 356.384 63.5479 355.89 63.0322C355.396 62.5381 355.149 61.9472 355.149 61.2597C355.149 60.5936 355.396 60.0135 355.89 59.5193C356.384 59.0251 356.975 58.7781 357.663 58.7781C358.329 58.7781 358.909 59.0251 359.403 59.5193C359.919 60.0135 360.177 60.5936 360.177 61.2597C360.177 61.9472 359.929 62.5381 359.435 63.0322C358.941 63.5479 358.35 63.8057 357.663 63.8057Z" fill="white"/>
<defs>
<linearGradient id="paint0_linear_930_1083" x1="4" y1="48.5" x2="429" y2="48.5" gradientUnits="userSpaceOnUse">
<stop stop-color="#A315D6"/>
<stop offset="0.514423" stop-color="#FDAB60"/>
<stop offset="1" stop-color="#A315D6"/>
</linearGradient>
</defs>
</svg>
