<svg width="1401" height="872" viewBox="0 0 1401 872" fill="none" xmlns="http://www.w3.org/2000/svg">
<g opacity="0.7">
<g style="mix-blend-mode:screen">
<path d="M68.9885 123.927L102.355 98L89.6105 139.955L122.983 165.882H81.7331L68.9885 207.837L56.244 165.882H15L48.3665 139.955L35.622 98L68.9885 123.927Z" fill="#FFEFCF"/>
<path d="M1336.52 593.178L1364.89 548.446L1368.44 600.422L1420.09 612.14L1370.64 632.543L1374.2 684.519L1340.08 645.148L1290.63 665.55L1319 620.818L1284.88 581.455L1336.52 593.178Z" fill="#FFEFCF"/>
<path d="M339.627 609.385L366.593 614.62L340.958 626.306L343.106 653.691L325.114 633.537L299.473 645.224L313.992 621.071L296 600.911L322.959 606.146L337.478 582L339.627 609.385Z" fill="#FFEFCF"/>
<path d="M56.7804 732.614L69.6327 723L64.7212 738.553L77.5735 748.16H61.6919L56.7804 763.706L51.8816 748.16H36L48.846 738.553L43.9408 723L56.7804 732.614Z" fill="#FFEFCF"/>
<path d="M781.798 467.993L794.023 459L789.352 473.557L801.59 482.55H786.462L781.798 497.108L777.121 482.55H762L774.231 473.557L769.561 459L781.798 467.993Z" fill="#FFEFCF"/>
<path d="M984.268 136.23L990.834 116L997.406 136.23H1018.67L1001.47 148.727L1008.04 168.951L990.834 156.453L973.628 168.951L980.206 148.727L963 136.23H984.268Z" fill="#FFEFCF"/>
<path d="M717.299 820.207L739.113 824.947L718.681 833.941L720.918 856.154L706.05 839.492L685.619 848.492L696.868 829.206L682 812.545L703.813 817.285L715.062 798L717.299 820.207Z" fill="#FFEFCF"/>
<path d="M685.216 28.1189L703.277 15L696.376 36.231L714.437 49.3499H692.117L685.216 70.5809L678.314 49.3499H656L674.055 36.231L667.154 15L685.216 28.1189Z" fill="#FFEFCF"/>
</g>
<g style="mix-blend-mode:screen" filter="url(#filter0_f_930_1079)">
<path d="M68.9885 123.927L102.355 98L89.6105 139.955L122.983 165.882H81.7331L68.9885 207.837L56.244 165.882H15L48.3665 139.955L35.622 98L68.9885 123.927Z" fill="#FFEFCF"/>
<path d="M1336.52 593.178L1364.89 548.446L1368.44 600.422L1420.09 612.14L1370.64 632.543L1374.2 684.519L1340.08 645.148L1290.63 665.55L1319 620.818L1284.88 581.455L1336.52 593.178Z" fill="#FFEFCF"/>
<path d="M339.627 609.385L366.593 614.62L340.958 626.306L343.106 653.691L325.114 633.537L299.473 645.224L313.992 621.071L296 600.911L322.959 606.146L337.478 582L339.627 609.385Z" fill="#FFEFCF"/>
<path d="M56.7804 732.614L69.6327 723L64.7212 738.553L77.5735 748.16H61.6919L56.7804 763.706L51.8816 748.16H36L48.846 738.553L43.9408 723L56.7804 732.614Z" fill="#FFEFCF"/>
<path d="M781.798 467.993L794.023 459L789.352 473.557L801.59 482.55H786.462L781.798 497.108L777.121 482.55H762L774.231 473.557L769.561 459L781.798 467.993Z" fill="#FFEFCF"/>
<path d="M984.268 136.23L990.834 116L997.406 136.23H1018.67L1001.47 148.727L1008.04 168.951L990.834 156.453L973.628 168.951L980.206 148.727L963 136.23H984.268Z" fill="#FFEFCF"/>
<path d="M717.299 820.207L739.113 824.947L718.681 833.941L720.918 856.154L706.05 839.492L685.619 848.492L696.868 829.206L682 812.545L703.813 817.285L715.062 798L717.299 820.207Z" fill="#FFEFCF"/>
<path d="M685.216 28.1189L703.277 15L696.376 36.231L714.437 49.3499H692.117L685.216 70.5809L678.314 49.3499H656L674.055 36.231L667.154 15L685.216 28.1189Z" fill="#FFEFCF"/>
</g>
</g>
<defs>
<filter id="filter0_f_930_1079" x="0" y="0" width="1435.09" height="871.154" filterUnits="userSpaceOnUse" color-interpolation-filters="sRGB">
<feFlood flood-opacity="0" result="BackgroundImageFix"/>
<feBlend mode="normal" in="SourceGraphic" in2="BackgroundImageFix" result="shape"/>
<feGaussianBlur stdDeviation="7.5" result="effect1_foregroundBlur_930_1079"/>
</filter>
</defs>
</svg>
