<svg width="998" height="355" viewBox="0 0 998 355" fill="none" xmlns="http://www.w3.org/2000/svg">
<path d="M105.627 92.2056C129.351 92.2056 148.819 110.612 148.819 133.603C148.819 156.594 129.351 175 105.627 175C81.903 175 62.4345 156.594 62.4344 133.603C62.4344 110.612 81.903 92.2056 105.627 92.2056Z" fill="#401A79" stroke="url(#paint0_linear_977_6728)" stroke-width="6"/>
<path d="M93 97.0001C104.51 94.1688 109.537 94.8939 118 97.0001L83.5 166C72.5 157 71 154.5 67.5 146L93 97.0001Z" fill="#894697" fill-opacity="0.49"/>
<mask id="mask0_977_6728" style="mask-type:luminance" maskUnits="userSpaceOnUse" x="86" y="115" width="39" height="38">
<path d="M124.883 115.146H86.2866V152.048H124.883V115.146Z" fill="white"/>
</mask>
<g mask="url(#mask0_977_6728)">
<path d="M124.885 133.597C124.885 123.424 116.208 115.146 105.537 115.146C94.8654 115.146 86.1887 123.424 86.1887 133.597C86.1887 142.773 93.2697 150.452 102.445 151.849V138.983H97.5582V133.697H102.445V129.608C102.445 125.02 105.337 122.427 109.726 122.427C111.82 122.427 114.014 122.826 114.014 122.826V127.314H111.621C109.227 127.314 108.429 128.71 108.429 130.206V133.697H113.815L112.917 138.983H108.429V151.849C117.904 150.353 124.885 142.773 124.885 133.597Z" fill="white"/>
</g>
<path d="M249.242 92.2056C272.966 92.2056 292.434 110.612 292.434 133.603C292.434 156.594 272.966 175 249.242 175C225.518 175 206.05 156.594 206.05 133.603C206.05 110.612 225.518 92.2056 249.242 92.2056Z" fill="#401A79" stroke="url(#paint1_linear_977_6728)" stroke-width="6"/>
<path d="M236.5 97.0001C248.01 94.1688 253.037 94.8939 261.5 97.0001L227 166C216 157 214.5 154.5 211 146L236.5 97.0001Z" fill="#894697" fill-opacity="0.49"/>
<mask id="mask1_977_6728" style="mask-type:luminance" maskUnits="userSpaceOnUse" x="229" y="115" width="40" height="38">
<path d="M268.486 115.146H229.89V152.048H268.486V115.146Z" fill="white"/>
</mask>
<g mask="url(#mask1_977_6728)">
<path d="M249.236 118.438C254.422 118.438 255.021 118.438 257.015 118.538C258.91 118.638 259.907 118.936 260.606 119.136C261.503 119.435 262.102 119.834 262.8 120.532C263.498 121.231 263.897 121.829 264.196 122.626C264.495 123.225 264.794 124.223 264.894 126.018C264.994 127.913 264.994 128.511 264.994 133.498C264.994 138.385 264.994 138.983 264.894 140.978C264.794 142.773 264.495 143.77 264.196 144.369C263.897 145.266 263.398 145.865 262.8 146.463C262.102 147.161 261.503 147.46 260.606 147.859C259.907 148.158 258.91 148.458 257.015 148.458C255.021 148.557 254.322 148.557 249.236 148.557C244.05 148.557 243.451 148.557 241.457 148.458C239.562 148.358 238.565 148.059 237.866 147.859C236.969 147.56 236.37 147.161 235.672 146.463C234.974 145.865 234.575 145.166 234.276 144.369C233.977 143.67 233.678 142.773 233.578 140.978C233.478 138.983 233.478 138.484 233.478 133.498C233.478 128.611 233.478 128.012 233.578 126.018C233.678 124.223 233.977 123.225 234.276 122.626C234.575 121.729 235.074 121.131 235.672 120.532C236.37 119.934 236.969 119.535 237.866 119.136C238.565 118.837 239.562 118.538 241.457 118.538C243.451 118.438 244.05 118.438 249.236 118.438ZM249.236 115.146C243.95 115.146 243.352 115.147 241.257 115.246C239.163 115.346 237.767 115.645 236.57 116.144C235.273 116.642 234.176 117.241 233.179 118.238C232.082 119.236 231.483 120.333 230.985 121.53C230.486 122.727 230.187 124.023 230.087 126.018C229.987 128.012 229.987 128.61 229.987 133.597C229.987 138.584 229.987 139.182 230.087 141.177C230.187 143.172 230.486 144.468 230.985 145.665C231.483 146.862 232.182 147.959 233.179 148.956C234.276 149.954 235.373 150.652 236.57 151.05C237.767 151.549 239.163 151.849 241.257 151.948C243.352 152.048 243.95 152.048 249.236 152.048C254.522 152.048 255.12 152.048 257.215 151.948C259.309 151.849 260.705 151.549 261.902 151.05C263.199 150.552 264.296 149.954 265.293 148.956C266.39 147.959 266.989 146.862 267.487 145.665C267.986 144.468 268.285 143.172 268.385 141.177C268.485 139.182 268.485 138.584 268.485 133.597C268.485 128.61 268.485 128.012 268.385 126.018C268.285 124.023 267.986 122.727 267.487 121.53C266.989 120.333 266.39 119.236 265.293 118.238C264.196 117.241 263.099 116.543 261.902 116.144C260.705 115.645 259.309 115.346 257.215 115.246C255.12 115.147 254.522 115.146 249.236 115.146Z" fill="white"/>
<path d="M249.235 124.124C243.749 124.124 239.361 128.412 239.361 133.598C239.361 138.785 243.849 143.073 249.235 143.073C254.72 143.073 259.108 138.785 259.108 133.598C259.108 128.313 254.72 124.124 249.235 124.124ZM249.235 139.682C245.644 139.682 242.852 136.89 242.852 133.499C242.852 130.108 245.744 127.315 249.235 127.315C252.825 127.315 255.618 130.108 255.618 133.499C255.717 136.99 252.825 139.682 249.235 139.682Z" fill="white"/>
<path d="M261.902 123.722C261.902 124.919 260.905 125.917 259.608 125.917C258.312 125.917 257.314 124.919 257.314 123.722C257.314 122.526 258.312 121.529 259.608 121.529C260.805 121.529 261.902 122.526 261.902 123.722Z" fill="white"/>
</g>
<path d="M392.858 92.2056C416.582 92.2056 436.05 110.612 436.05 133.603C436.05 156.594 416.582 175 392.858 175C369.134 175 349.665 156.594 349.665 133.603C349.665 110.612 369.134 92.2056 392.858 92.2056Z" fill="#401A79" stroke="url(#paint2_linear_977_6728)" stroke-width="6"/>
<path d="M380.5 97.0001C392.01 94.1688 397.037 94.8939 405.5 97.0001L371 166C360 157 358.5 154.5 355 146L380.5 97.0001Z" fill="#894697" fill-opacity="0.49"/>
<mask id="mask2_977_6728" style="mask-type:luminance" maskUnits="userSpaceOnUse" x="373" y="115" width="40" height="38">
<path d="M412.211 115.146H373.615V152.048H412.211V115.146Z" fill="white"/>
</mask>
<g mask="url(#mask2_977_6728)">
<path d="M385.678 148.559C400.239 148.559 408.217 136.99 408.217 127.017C408.217 126.718 408.217 126.319 408.217 126.02C409.813 124.923 411.11 123.626 412.207 122.13C410.81 122.728 409.215 123.127 407.619 123.327C409.314 122.429 410.511 120.933 411.11 119.138C409.514 120.035 407.818 120.634 406.123 120.933C404.926 119.737 403.33 118.938 401.635 118.639C399.939 118.34 398.144 118.639 396.648 119.437C395.152 120.235 393.856 121.432 393.158 123.028C392.459 124.524 392.26 126.219 392.659 127.915C389.467 127.715 386.475 127.017 383.583 125.62C380.791 124.224 378.297 122.33 376.303 120.036C375.305 121.731 375.006 123.626 375.405 125.521C375.904 127.416 377.001 129.011 378.696 130.108C377.4 130.108 376.203 129.71 375.106 129.211V129.311C375.106 131.106 375.704 132.801 376.901 134.098C378.098 135.494 379.694 136.392 381.489 136.691C380.292 136.99 379.095 136.99 377.898 136.791C378.397 138.287 379.394 139.583 380.691 140.58C381.987 141.478 383.583 142.076 385.279 142.076C382.486 144.171 378.995 145.368 375.405 145.268C374.807 145.268 374.109 145.268 373.51 145.168C377.2 147.362 381.389 148.559 385.678 148.559Z" fill="white"/>
</g>
<path d="M536.473 92.2056C560.197 92.2056 579.665 110.612 579.665 133.603C579.665 156.594 560.197 175 536.473 175C512.749 175 493.28 156.594 493.28 133.603C493.28 110.612 512.749 92.2056 536.473 92.2056Z" fill="#401A79" stroke="url(#paint3_linear_977_6728)" stroke-width="6"/>
<path d="M523.5 97.0001C535.01 94.1688 540.037 94.8939 548.5 97.0001L514 166C503 157 501.5 154.5 498 146L523.5 97.0001Z" fill="#894697" fill-opacity="0.49"/>
<mask id="mask3_977_6728" style="mask-type:luminance" maskUnits="userSpaceOnUse" x="517" y="115" width="39" height="38">
<path d="M555.821 115.146H517.224V152.048H555.821V115.146Z" fill="white"/>
</mask>
<g mask="url(#mask3_977_6728)">
<path d="M552.924 115.146H520.012C518.416 115.146 517.12 116.343 517.12 117.839V149.355C517.12 150.851 518.416 152.048 520.012 152.048H552.924C554.52 152.048 555.816 150.851 555.816 149.355V117.839C555.816 116.343 554.52 115.146 552.924 115.146ZM528.689 146.562H523.004V129.01H528.689V146.562ZM525.797 126.516C524.001 126.516 522.505 125.12 522.505 123.325C522.505 121.53 524.001 120.133 525.797 120.133C527.592 120.133 529.088 121.53 529.088 123.325C529.088 125.12 527.592 126.516 525.797 126.516ZM550.131 146.562H544.447V137.986C544.447 135.991 544.447 133.298 541.455 133.298C538.463 133.298 538.064 135.492 538.064 137.786V146.463H532.379V128.91H537.864V131.303H537.964C538.762 129.907 540.557 128.411 543.35 128.411C549.134 128.411 550.231 132.101 550.231 136.789V146.562H550.131Z" fill="white"/>
</g>
<path d="M680.192 92.2056C703.916 92.2056 723.385 110.612 723.385 133.603C723.384 156.594 703.916 175 680.192 175C656.468 175 637 156.594 637 133.603C637 110.612 656.468 92.2056 680.192 92.2056Z" fill="#401A79" stroke="url(#paint4_linear_977_6728)" stroke-width="6"/>
<path d="M667.5 96.8614C679.01 94.0301 684.037 94.7552 692.5 96.8614L658 165.861C647 156.861 645.5 154.361 642 145.861L667.5 96.8614Z" fill="#894697" fill-opacity="0.49"/>
<mask id="mask4_977_6728" style="mask-type:luminance" maskUnits="userSpaceOnUse" x="660" y="115" width="40" height="38">
<path d="M699.447 115.146H660.85V152.048H699.447V115.146Z" fill="white"/>
</mask>
<g mask="url(#mask4_977_6728)">
<path fill-rule="evenodd" clip-rule="evenodd" d="M680.196 115.843C675.608 115.843 671.22 117.439 667.729 120.231C664.239 123.024 661.945 126.913 661.147 131.302C660.449 135.59 661.346 139.978 663.64 143.768C666.034 147.458 669.724 150.251 674.012 151.647C675.01 151.847 675.309 151.248 675.309 150.75C675.309 150.251 675.309 148.855 675.309 147.359C669.923 148.456 668.826 145.164 668.826 145.164C667.929 143.07 666.732 142.472 666.732 142.472C664.937 141.375 666.832 141.375 666.832 141.375C668.727 141.475 669.824 143.27 669.824 143.27C671.519 146.062 674.312 145.264 675.409 144.766C675.608 143.569 676.107 142.771 676.606 142.272C672.317 141.774 667.829 140.278 667.829 133.196C667.829 131.401 668.527 129.606 669.824 128.31C669.624 127.811 668.926 126.016 670.023 123.423C670.023 123.423 671.619 122.924 675.309 125.318C678.5 124.52 681.792 124.52 684.983 125.318C688.673 122.924 690.269 123.423 690.269 123.423C691.366 125.916 690.668 127.811 690.468 128.31C691.765 129.606 692.463 131.401 692.463 133.196C692.463 140.278 687.975 141.774 683.687 142.272C684.385 142.871 684.983 143.968 684.983 145.663C684.983 148.156 684.983 150.051 684.983 150.65C684.983 151.148 685.282 151.747 686.28 151.547C690.668 150.151 694.358 147.359 696.652 143.668C699.046 139.978 699.943 135.49 699.145 131.202C698.447 126.913 696.054 123.024 692.563 120.131C689.172 117.439 684.784 115.843 680.196 115.843Z" fill="white"/>
<path d="M668.127 142.174C668.127 142.274 667.928 142.274 667.828 142.274C667.729 142.175 667.629 142.075 667.629 141.975C667.629 141.876 667.828 141.875 667.928 141.875C668.127 141.975 668.227 142.075 668.127 142.174Z" fill="white"/>
<path d="M668.93 143.072C668.83 143.072 668.83 143.072 668.73 143.072C668.631 143.072 668.631 142.973 668.531 142.973C668.431 142.873 668.331 142.673 668.431 142.574C668.531 142.474 668.73 142.574 668.83 142.674C669.03 142.773 669.03 142.973 668.93 143.072Z" fill="white"/>
<path d="M669.721 144.067C669.621 144.167 669.422 144.068 669.322 143.868L669.222 143.768V143.669V143.569C669.222 143.569 669.222 143.469 669.322 143.469C669.422 143.37 669.621 143.469 669.721 143.669C669.821 143.768 669.821 143.968 669.721 144.067Z" fill="white"/>
<path d="M670.725 145.063C670.626 145.163 670.426 145.163 670.227 144.964C670.027 144.765 670.027 144.565 670.127 144.465C670.227 144.366 670.426 144.365 670.626 144.565C670.825 144.764 670.825 144.964 670.725 145.063Z" fill="white"/>
<path d="M672.219 145.664C672.219 145.764 671.92 145.863 671.721 145.764C671.521 145.664 671.322 145.564 671.422 145.365C671.521 145.165 671.721 145.165 671.92 145.265C672.12 145.365 672.219 145.564 672.219 145.664Z" fill="white"/>
<path d="M673.813 145.766C673.813 145.865 673.613 146.065 673.414 146.065C673.214 146.065 673.015 145.965 673.015 145.766C673.015 145.666 673.214 145.467 673.414 145.467C673.613 145.566 673.813 145.666 673.813 145.766Z" fill="white"/>
<path d="M675.213 145.561C675.213 145.661 675.114 145.861 674.814 145.861C674.615 145.861 674.416 145.761 674.316 145.661C674.316 145.561 674.416 145.362 674.715 145.362C675.014 145.362 675.213 145.462 675.213 145.561Z" fill="white"/>
</g>
<path d="M823.807 92.2056C847.531 92.2056 867 110.612 867 133.603C867 156.594 847.531 175 823.807 175C800.084 175 780.615 156.594 780.615 133.603C780.615 110.612 800.084 92.2056 823.807 92.2056Z" fill="#401A79" stroke="url(#paint5_linear_977_6728)" stroke-width="6"/>
<path d="M811.5 96.8614C823.01 94.0301 828.037 94.7552 836.5 96.8614L802 165.861C791 156.861 789.5 154.361 786 145.861L811.5 96.8614Z" fill="#894697" fill-opacity="0.49"/>
<path d="M837.172 120.737H810.344C808.548 120.737 807.052 122.134 807.052 123.929V143.177C807.052 144.972 808.548 146.369 810.443 146.369H837.272C839.067 146.369 840.663 144.972 840.663 143.177V123.929C840.563 122.233 839.067 120.737 837.172 120.737ZM837.172 127.12L823.808 135.099L810.443 127.12V123.929L823.808 131.907L837.172 123.929V127.12Z" fill="white"/>
<path d="M37.018 51.836C34.73 51.836 32.5593 51.2787 30.506 50.164C28.4527 49.02 26.8393 47.4947 25.666 45.588C25.4313 45.1773 25.314 44.6933 25.314 44.136C25.314 43.2267 25.534 42.508 25.974 41.98C26.4433 41.452 27.0593 41.188 27.822 41.188C28.4673 41.188 29.0247 41.32 29.494 41.584C29.9633 41.848 30.374 42.2733 30.726 42.86C31.2833 43.7987 32.1487 44.576 33.322 45.192C34.5247 45.7787 35.7567 46.072 37.018 46.072C41.242 46.072 43.354 44.6053 43.354 41.672C43.354 40.4107 42.826 39.2667 41.77 38.24C40.7433 37.2133 39.1007 36.172 36.842 35.116C34.1727 33.884 32.09 32.7693 30.594 31.772C29.1273 30.7453 28.0713 29.66 27.426 28.516C26.7807 27.3427 26.458 25.964 26.458 24.38C26.458 22.5613 26.942 20.948 27.91 19.54C28.878 18.1027 30.2127 16.988 31.914 16.196C33.6153 15.3747 35.522 14.964 37.634 14.964C39.9807 14.964 42.1367 15.492 44.102 16.548C46.0673 17.5747 47.5633 18.9827 48.59 20.772C48.8833 21.2413 49.03 21.7253 49.03 22.224C49.03 22.928 48.7953 23.544 48.326 24.072C47.886 24.6 47.3287 24.864 46.654 24.864C46.1553 24.864 45.642 24.732 45.114 24.468C44.586 24.1747 44.1753 23.8227 43.882 23.412C43.2073 22.4733 42.3567 21.784 41.33 21.344C40.3327 20.904 39.1007 20.684 37.634 20.684C35.9033 20.684 34.5393 21.0067 33.542 21.652C32.574 22.268 32.09 23.1773 32.09 24.38C32.09 25.1133 32.266 25.7293 32.618 26.228C32.9993 26.6973 33.63 27.1813 34.51 27.68C35.4193 28.1787 36.9007 28.8973 38.954 29.836C42.5327 31.508 45.0993 33.2533 46.654 35.072C48.238 36.8907 49.03 39.0907 49.03 41.672C49.03 43.696 48.5313 45.4853 47.534 47.04C46.5367 48.5653 45.1287 49.7533 43.31 50.604C41.4913 51.4253 39.394 51.836 37.018 51.836ZM79.1494 15.8C79.8827 15.8 80.4987 16.064 80.9974 16.592C81.5254 17.0907 81.7894 17.7067 81.7894 18.44C81.7894 19.1733 81.5254 19.804 80.9974 20.332C80.4987 20.8307 79.8827 21.08 79.1494 21.08H70.2174V48.976C70.2174 49.7093 69.924 50.34 69.3374 50.868C68.78 51.3667 68.12 51.616 67.3574 51.616C66.5947 51.616 65.9347 51.3667 65.3774 50.868C64.82 50.34 64.5414 49.7093 64.5414 48.976V21.08H55.5654C54.832 21.08 54.2014 20.8307 53.6734 20.332C53.1747 19.804 52.9254 19.1733 52.9254 18.44C52.9254 17.7067 53.1747 17.0907 53.6734 16.592C54.2014 16.064 54.832 15.8 55.5654 15.8H79.1494ZM112.053 47.7C112.2 48.052 112.273 48.3307 112.273 48.536C112.273 49.2987 112.009 49.9587 111.481 50.516C110.982 51.044 110.352 51.308 109.589 51.308C109.061 51.308 108.562 51.1613 108.093 50.868C107.653 50.5747 107.33 50.1787 107.125 49.68L103.693 40.792H90.2731L86.8851 49.724C86.7091 50.1933 86.3864 50.5747 85.9171 50.868C85.4771 51.1613 84.9784 51.308 84.4211 51.308C83.6584 51.308 83.0278 51.044 82.5291 50.516C82.0304 49.988 81.7811 49.3573 81.7811 48.624C81.7811 48.3893 81.8544 48.096 82.0011 47.744L94.7171 16.856C94.9518 16.2987 95.2598 15.8733 95.6411 15.58C96.0518 15.2867 96.4771 15.14 96.9171 15.14C97.4158 15.14 97.8851 15.2867 98.3251 15.58C98.7651 15.8733 99.1024 16.3133 99.3371 16.9L112.053 47.7ZM96.6091 24.248L92.1651 35.908H101.801L97.3131 24.248L96.9611 23.016L96.6091 24.248ZM142.553 17.692C142.553 18.132 142.407 18.616 142.113 19.144L131.157 36.788V48.888C131.157 49.7093 130.893 50.4133 130.365 51C129.837 51.5573 129.192 51.836 128.429 51.836C127.667 51.836 127.007 51.5573 126.449 51C125.921 50.4133 125.657 49.7093 125.657 48.888V36.788L114.833 18.836C114.569 18.396 114.437 17.9267 114.437 17.428C114.437 16.724 114.701 16.0787 115.229 15.492C115.787 14.876 116.432 14.568 117.165 14.568C117.664 14.568 118.163 14.7147 118.661 15.008C119.16 15.3013 119.541 15.6533 119.805 16.064C120.803 17.824 122.343 20.4933 124.425 24.072C126.537 27.6507 127.828 29.7773 128.297 30.452L128.473 30.892L128.605 30.452C129.603 28.8973 131.011 26.624 132.829 23.632C134.648 20.6107 136.1 18.176 137.185 16.328C137.449 15.888 137.831 15.5213 138.329 15.228C138.857 14.9347 139.385 14.788 139.913 14.788C140.676 14.788 141.307 15.0813 141.805 15.668C142.304 16.2253 142.553 16.9 142.553 17.692ZM185.532 18.044C185.532 17.3107 185.811 16.6947 186.368 16.196C186.926 15.668 187.586 15.404 188.348 15.404C189.111 15.404 189.771 15.668 190.328 16.196C190.915 16.6947 191.208 17.3107 191.208 18.044V36.964C191.208 40.0147 190.651 42.6693 189.536 44.928C188.422 47.1573 186.808 48.8733 184.696 50.076C182.614 51.2787 180.135 51.88 177.26 51.88C174.386 51.88 171.907 51.2787 169.824 50.076C167.742 48.8733 166.143 47.1573 165.028 44.928C163.914 42.6693 163.356 40.0147 163.356 36.964V17.648C163.356 16.9147 163.635 16.2987 164.192 15.8C164.75 15.272 165.41 15.008 166.172 15.008C166.935 15.008 167.595 15.272 168.152 15.8C168.739 16.2987 169.032 16.9147 169.032 17.648V36.964C169.032 39.868 169.751 42.1413 171.188 43.784C172.655 45.3973 174.679 46.204 177.26 46.204C179.871 46.204 181.895 45.3973 183.332 43.784C184.799 42.1413 185.532 39.868 185.532 36.964V18.044ZM209.731 15.14C213.251 15.14 216.008 15.976 218.003 17.648C220.027 19.32 221.039 21.6373 221.039 24.6C221.039 26.6533 220.584 28.4427 219.675 29.968C218.766 31.4933 217.46 32.6813 215.759 33.532C214.087 34.3533 212.107 34.764 209.819 34.764H203.923V48.58C203.923 49.3133 203.63 49.944 203.043 50.472C202.486 50.9707 201.826 51.22 201.063 51.22C200.3 51.22 199.64 50.9707 199.083 50.472C198.526 49.944 198.247 49.3133 198.247 48.58V18.044C198.247 17.2813 198.511 16.636 199.039 16.108C199.596 15.58 200.3 15.2867 201.151 15.228C202.148 15.1987 203.542 15.184 205.331 15.184C207.12 15.1547 208.587 15.14 209.731 15.14ZM209.819 29.484C211.638 29.484 213.016 29.088 213.955 28.296C214.923 27.504 215.407 26.4187 215.407 25.04C215.407 23.808 214.923 22.796 213.955 22.004C213.016 21.212 211.608 20.816 209.731 20.816L203.923 20.86V29.484H209.819ZM264.731 15.8C265.465 15.8 266.081 16.064 266.579 16.592C267.107 17.0907 267.371 17.7067 267.371 18.44C267.371 19.1733 267.107 19.804 266.579 20.332C266.081 20.8307 265.465 21.08 264.731 21.08H255.799V48.976C255.799 49.7093 255.506 50.34 254.919 50.868C254.362 51.3667 253.702 51.616 252.939 51.616C252.177 51.616 251.517 51.3667 250.959 50.868C250.402 50.34 250.123 49.7093 250.123 48.976V21.08H241.147C240.414 21.08 239.783 20.8307 239.255 20.332C238.757 19.804 238.507 19.1733 238.507 18.44C238.507 17.7067 238.757 17.0907 239.255 16.592C239.783 16.064 240.414 15.8 241.147 15.8H264.731ZM289.57 52.276C286.167 52.276 283.102 51.4987 280.374 49.944C277.646 48.36 275.49 46.16 273.906 43.344C272.351 40.528 271.574 37.316 271.574 33.708C271.574 30.1 272.351 26.888 273.906 24.072C275.49 21.256 277.646 19.0707 280.374 17.516C283.102 15.932 286.167 15.14 289.57 15.14C292.973 15.14 296.038 15.932 298.766 17.516C301.494 19.0707 303.635 21.256 305.19 24.072C306.745 26.888 307.522 30.1 307.522 33.708C307.522 37.316 306.745 40.528 305.19 43.344C303.635 46.16 301.494 48.36 298.766 49.944C296.038 51.4987 292.973 52.276 289.57 52.276ZM289.57 46.6C291.917 46.6 294.014 46.072 295.862 45.016C297.739 43.9307 299.206 42.42 300.262 40.484C301.318 38.5187 301.846 36.26 301.846 33.708C301.846 31.156 301.318 28.912 300.262 26.976C299.206 25.0107 297.739 23.5 295.862 22.444C294.014 21.3587 291.917 20.816 289.57 20.816C287.223 20.816 285.111 21.3587 283.234 22.444C281.357 23.5 279.89 25.0107 278.834 26.976C277.778 28.912 277.25 31.156 277.25 33.708C277.25 36.26 277.778 38.5187 278.834 40.484C279.89 42.42 281.357 43.9307 283.234 45.016C285.111 46.072 287.223 46.6 289.57 46.6ZM331.305 51.396C330.455 51.396 329.736 51.132 329.149 50.604C328.592 50.0467 328.313 49.372 328.313 48.58V18.22C328.313 17.428 328.592 16.768 329.149 16.24C329.736 15.6827 330.455 15.404 331.305 15.404H338.609C342.364 15.404 345.767 16.152 348.817 17.648C351.868 19.144 354.259 21.212 355.989 23.852C357.749 26.4627 358.629 29.4253 358.629 32.74C358.629 36.172 357.749 39.3107 355.989 42.156C354.229 45.0013 351.824 47.26 348.773 48.932C345.723 50.5747 342.335 51.396 338.609 51.396H331.305ZM333.989 45.72H338.609C341.367 45.72 343.831 45.192 346.001 44.136C348.201 43.0507 349.903 41.5253 351.105 39.56C352.337 37.5947 352.953 35.3213 352.953 32.74C352.953 30.4227 352.337 28.384 351.105 26.624C349.903 24.864 348.201 23.5 346.001 22.532C343.831 21.564 341.367 21.08 338.609 21.08H333.989V45.72ZM394.186 47.7C394.333 48.052 394.406 48.3307 394.406 48.536C394.406 49.2987 394.142 49.9587 393.614 50.516C393.115 51.044 392.485 51.308 391.722 51.308C391.194 51.308 390.695 51.1613 390.226 50.868C389.786 50.5747 389.463 50.1787 389.258 49.68L385.826 40.792H372.406L369.018 49.724C368.842 50.1933 368.519 50.5747 368.05 50.868C367.61 51.1613 367.111 51.308 366.554 51.308C365.791 51.308 365.161 51.044 364.662 50.516C364.163 49.988 363.914 49.3573 363.914 48.624C363.914 48.3893 363.987 48.096 364.134 47.744L376.85 16.856C377.085 16.2987 377.393 15.8733 377.774 15.58C378.185 15.2867 378.61 15.14 379.05 15.14C379.549 15.14 380.018 15.2867 380.458 15.58C380.898 15.8733 381.235 16.3133 381.47 16.9L394.186 47.7ZM378.742 24.248L374.298 35.908H383.934L379.446 24.248L379.094 23.016L378.742 24.248ZM420.708 15.8C421.441 15.8 422.057 16.064 422.556 16.592C423.084 17.0907 423.348 17.7067 423.348 18.44C423.348 19.1733 423.084 19.804 422.556 20.332C422.057 20.8307 421.441 21.08 420.708 21.08H411.776V48.976C411.776 49.7093 411.483 50.34 410.896 50.868C410.339 51.3667 409.679 51.616 408.916 51.616C408.153 51.616 407.493 51.3667 406.936 50.868C406.379 50.34 406.1 49.7093 406.1 48.976V21.08H397.124C396.391 21.08 395.76 20.8307 395.232 20.332C394.733 19.804 394.484 19.1733 394.484 18.44C394.484 17.7067 394.733 17.0907 395.232 16.592C395.76 16.064 396.391 15.8 397.124 15.8H420.708ZM457.119 42.156C457.852 42.156 458.468 42.42 458.967 42.948C459.495 43.4467 459.759 44.0627 459.759 44.796C459.759 45.5 459.509 46.1307 459.011 46.688C457.661 48.1253 455.769 49.3133 453.335 50.252C450.9 51.1613 448.48 51.616 446.075 51.616C442.584 51.616 439.431 50.8533 436.615 49.328C433.799 47.8027 431.584 45.6613 429.971 42.904C428.357 40.1467 427.551 36.9787 427.551 33.4C427.551 29.8507 428.357 26.6827 429.971 23.896C431.584 21.1093 433.799 18.9533 436.615 17.428C439.431 15.8733 442.584 15.096 446.075 15.096C448.48 15.096 450.885 15.58 453.291 16.548C455.696 17.516 457.588 18.792 458.967 20.376C459.465 20.9627 459.715 21.5933 459.715 22.268C459.715 23.0013 459.451 23.632 458.923 24.16C458.395 24.6587 457.764 24.908 457.031 24.908C456.679 24.908 456.327 24.8347 455.975 24.688C455.623 24.5413 455.344 24.336 455.139 24.072C454.288 23.0453 453.027 22.2387 451.355 21.652C449.683 21.0653 447.923 20.772 446.075 20.772C442.819 20.772 440.076 21.5933 437.847 23.236C435.647 24.8493 434.224 27.1227 433.579 30.056H447.307C448.04 30.056 448.656 30.32 449.155 30.848C449.683 31.3467 449.947 31.9627 449.947 32.696C449.947 33.4293 449.683 34.06 449.155 34.588C448.656 35.0867 448.04 35.336 447.307 35.336H433.359C433.74 38.6507 435.075 41.2613 437.363 43.168C439.68 45.0453 442.584 45.984 446.075 45.984C448.099 45.984 449.947 45.72 451.619 45.192C453.291 44.664 454.464 43.9747 455.139 43.124C455.373 42.8307 455.667 42.596 456.019 42.42C456.4 42.244 456.767 42.156 457.119 42.156ZM521.53 15.096C522.264 15.096 522.909 15.36 523.466 15.888C524.024 16.416 524.317 17.032 524.346 17.736C524.346 18.0587 524.317 18.2787 524.258 18.396L514.842 49.812C514.666 50.3987 514.3 50.8827 513.742 51.264C513.214 51.6453 512.613 51.836 511.938 51.836C511.293 51.836 510.706 51.6453 510.178 51.264C509.68 50.912 509.313 50.428 509.078 49.812L502.83 33.576L495.526 49.636C495.233 50.252 494.852 50.7213 494.382 51.044C493.913 51.396 493.4 51.572 492.842 51.572C492.197 51.572 491.596 51.3813 491.038 51C490.51 50.6187 490.144 50.1347 489.938 49.548L479.202 18.308C479.114 18.044 479.07 17.7947 479.07 17.56C479.07 16.8853 479.349 16.284 479.906 15.756C480.493 15.228 481.153 14.964 481.886 14.964C482.444 14.964 482.942 15.1547 483.382 15.536C483.852 15.888 484.204 16.3427 484.438 16.9L492.842 40.968C492.901 41.1733 492.974 41.408 493.062 41.672C493.15 41.936 493.238 42.2 493.326 42.464L493.898 40.968L500.366 27.196L497.374 19.496C497.081 18.7627 496.934 18.0733 496.934 17.428C496.934 16.7827 497.198 16.2107 497.726 15.712C498.284 15.2133 498.929 14.964 499.662 14.964C501.012 14.964 501.906 15.5653 502.346 16.768L511.366 40.924L511.674 42.156L511.894 40.924L519.022 17.076C519.198 16.4893 519.506 16.02 519.946 15.668C520.416 15.2867 520.944 15.096 521.53 15.096ZM536.684 48.976C536.684 49.7093 536.42 50.34 535.892 50.868C535.394 51.3667 534.778 51.616 534.044 51.616C533.311 51.616 532.68 51.3667 532.152 50.868C531.654 50.34 531.404 49.7093 531.404 48.976V17.78C531.404 17.0467 531.654 16.4307 532.152 15.932C532.68 15.404 533.311 15.14 534.044 15.14C534.778 15.14 535.394 15.404 535.892 15.932C536.42 16.4307 536.684 17.0467 536.684 17.78V48.976ZM568.95 15.8C569.683 15.8 570.299 16.064 570.798 16.592C571.326 17.0907 571.59 17.7067 571.59 18.44C571.59 19.1733 571.326 19.804 570.798 20.332C570.299 20.8307 569.683 21.08 568.95 21.08H560.018V48.976C560.018 49.7093 559.725 50.34 559.138 50.868C558.581 51.3667 557.921 51.616 557.158 51.616C556.395 51.616 555.735 51.3667 555.178 50.868C554.621 50.34 554.342 49.7093 554.342 48.976V21.08H545.366C544.633 21.08 544.002 20.8307 543.474 20.332C542.975 19.804 542.726 19.1733 542.726 18.44C542.726 17.7067 542.975 17.0907 543.474 16.592C544.002 16.064 544.633 15.8 545.366 15.8H568.95ZM601.841 15.536C602.603 15.536 603.264 15.8 603.821 16.328C604.407 16.8267 604.701 17.4427 604.701 18.176V48.976C604.701 49.7093 604.407 50.34 603.821 50.868C603.264 51.3667 602.603 51.616 601.841 51.616C601.078 51.616 600.418 51.3667 599.861 50.868C599.303 50.34 599.025 49.7093 599.025 48.976V34.5H582.349V48.976C582.349 49.7093 582.055 50.34 581.469 50.868C580.911 51.3667 580.251 51.616 579.489 51.616C578.726 51.616 578.066 51.3667 577.509 50.868C576.951 50.34 576.673 49.7093 576.673 48.976V18.176C576.673 17.4427 576.951 16.8267 577.509 16.328C578.066 15.8 578.726 15.536 579.489 15.536C580.251 15.536 580.911 15.8 581.469 16.328C582.055 16.8267 582.349 17.4427 582.349 18.176V29.22H599.025V18.176C599.025 17.4427 599.303 16.8267 599.861 16.328C600.418 15.8 601.078 15.536 601.841 15.536ZM651.556 15.536C652.318 15.536 652.978 15.8 653.536 16.328C654.122 16.8267 654.416 17.4427 654.416 18.176V48.976C654.416 49.7093 654.122 50.34 653.536 50.868C652.978 51.3667 652.318 51.616 651.556 51.616C650.793 51.616 650.133 51.3667 649.576 50.868C649.018 50.34 648.74 49.7093 648.74 48.976V34.5H632.064V48.976C632.064 49.7093 631.77 50.34 631.184 50.868C630.626 51.3667 629.966 51.616 629.204 51.616C628.441 51.616 627.781 51.3667 627.224 50.868C626.666 50.34 626.388 49.7093 626.388 48.976V18.176C626.388 17.4427 626.666 16.8267 627.224 16.328C627.781 15.8 628.441 15.536 629.204 15.536C629.966 15.536 630.626 15.8 631.184 16.328C631.77 16.8267 632.064 17.4427 632.064 18.176V29.22H648.74V18.176C648.74 17.4427 649.018 16.8267 649.576 16.328C650.133 15.8 650.793 15.536 651.556 15.536ZM690.842 47.7C690.989 48.052 691.062 48.3307 691.062 48.536C691.062 49.2987 690.798 49.9587 690.27 50.516C689.772 51.044 689.141 51.308 688.378 51.308C687.85 51.308 687.352 51.1613 686.882 50.868C686.442 50.5747 686.12 50.1787 685.914 49.68L682.482 40.792H669.062L665.674 49.724C665.498 50.1933 665.176 50.5747 664.706 50.868C664.266 51.1613 663.768 51.308 663.21 51.308C662.448 51.308 661.817 51.044 661.318 50.516C660.82 49.988 660.57 49.3573 660.57 48.624C660.57 48.3893 660.644 48.096 660.79 47.744L673.506 16.856C673.741 16.2987 674.049 15.8733 674.43 15.58C674.841 15.2867 675.266 15.14 675.706 15.14C676.205 15.14 676.674 15.2867 677.114 15.58C677.554 15.8733 677.892 16.3133 678.126 16.9L690.842 47.7ZM675.398 24.248L670.954 35.908H680.59L676.102 24.248L675.75 23.016L675.398 24.248ZM723.951 43.124C724.186 42.8307 724.479 42.596 724.831 42.42C725.212 42.244 725.579 42.156 725.931 42.156C726.664 42.156 727.28 42.42 727.779 42.948C728.307 43.4467 728.571 44.0627 728.571 44.796C728.571 45.5 728.322 46.1307 727.823 46.688C726.474 48.1253 724.582 49.3133 722.147 50.252C719.712 51.1613 717.292 51.616 714.887 51.616C711.396 51.616 708.243 50.8533 705.427 49.328C702.611 47.8027 700.396 45.6613 698.783 42.904C697.17 40.1467 696.363 36.9787 696.363 33.4C696.363 29.8507 697.17 26.6827 698.783 23.896C700.396 21.1093 702.611 18.9533 705.427 17.428C708.243 15.8733 711.396 15.096 714.887 15.096C717.292 15.096 719.698 15.58 722.103 16.548C724.508 17.516 726.4 18.792 727.779 20.376C728.278 20.9627 728.527 21.5933 728.527 22.268C728.527 23.0013 728.263 23.632 727.735 24.16C727.207 24.6587 726.576 24.908 725.843 24.908C725.491 24.908 725.139 24.8347 724.787 24.688C724.435 24.5413 724.156 24.336 723.951 24.072C723.1 23.0453 721.839 22.2387 720.167 21.652C718.495 21.0653 716.735 20.772 714.887 20.772C712.364 20.772 710.12 21.2853 708.155 22.312C706.219 23.3093 704.708 24.7613 703.623 26.668C702.567 28.5453 702.039 30.7893 702.039 33.4C702.039 35.9813 702.582 38.2253 703.667 40.132C704.752 42.0093 706.263 43.4613 708.199 44.488C710.135 45.4853 712.364 45.984 714.887 45.984C716.911 45.984 718.759 45.72 720.431 45.192C722.103 44.664 723.276 43.9747 723.951 43.124ZM758.442 47.304C758.706 47.568 758.912 47.876 759.058 48.228C759.234 48.58 759.322 48.932 759.322 49.284C759.322 50.0173 759.058 50.6333 758.53 51.132C758.032 51.66 757.416 51.924 756.682 51.924C756.008 51.924 755.421 51.704 754.922 51.264L739.39 36.7V48.976C739.39 49.7093 739.126 50.34 738.598 50.868C738.1 51.3667 737.484 51.616 736.75 51.616C736.017 51.616 735.386 51.3667 734.858 50.868C734.36 50.34 734.11 49.7093 734.11 48.976V17.692C734.11 16.9587 734.36 16.3427 734.858 15.844C735.386 15.316 736.017 15.052 736.75 15.052C737.484 15.052 738.1 15.316 738.598 15.844C739.126 16.3427 739.39 16.9587 739.39 17.692V28.34L754.614 15.404C755.113 14.964 755.7 14.744 756.374 14.744C757.078 14.744 757.68 15.008 758.178 15.536C758.706 16.0347 758.97 16.6507 758.97 17.384C758.97 18.2347 758.677 18.9093 758.09 19.408L742.69 32.3C742.602 32.3293 742.544 32.388 742.514 32.476L742.69 32.608L758.442 47.304ZM770.778 48.976C770.778 49.7093 770.514 50.34 769.986 50.868C769.487 51.3667 768.871 51.616 768.138 51.616C767.405 51.616 766.774 51.3667 766.246 50.868C765.747 50.34 765.498 49.7093 765.498 48.976V17.78C765.498 17.0467 765.747 16.4307 766.246 15.932C766.774 15.404 767.405 15.14 768.138 15.14C768.871 15.14 769.487 15.404 769.986 15.932C770.514 16.4307 770.778 17.0467 770.778 17.78V48.976ZM793.32 45.852C794.053 45.852 794.669 46.116 795.168 46.644C795.696 47.1427 795.96 47.7587 795.96 48.492C795.96 49.2253 795.696 49.856 795.168 50.384C794.669 50.8827 794.053 51.132 793.32 51.132H781.528C780.707 51.132 780.032 50.868 779.504 50.34C778.976 49.812 778.712 49.1373 778.712 48.316V17.824C778.712 17.0907 778.961 16.4747 779.46 15.976C779.988 15.448 780.619 15.184 781.352 15.184C782.085 15.184 782.701 15.448 783.2 15.976C783.728 16.4747 783.992 17.0907 783.992 17.824V45.852H793.32ZM816.308 45.852C817.042 45.852 817.658 46.116 818.156 46.644C818.684 47.1427 818.948 47.7587 818.948 48.492C818.948 49.2253 818.684 49.856 818.156 50.384C817.658 50.8827 817.042 51.132 816.308 51.132H804.516C803.695 51.132 803.02 50.868 802.492 50.34C801.964 49.812 801.7 49.1373 801.7 48.316V17.824C801.7 17.0907 801.95 16.4747 802.448 15.976C802.976 15.448 803.607 15.184 804.34 15.184C805.074 15.184 805.69 15.448 806.188 15.976C806.716 16.4747 806.98 17.0907 806.98 17.824V45.852H816.308ZM830.848 48.976C830.848 49.7093 830.584 50.34 830.056 50.868C829.558 51.3667 828.942 51.616 828.208 51.616C827.475 51.616 826.844 51.3667 826.316 50.868C825.818 50.34 825.568 49.7093 825.568 48.976V17.78C825.568 17.0467 825.818 16.4307 826.316 15.932C826.844 15.404 827.475 15.14 828.208 15.14C828.942 15.14 829.558 15.404 830.056 15.932C830.584 16.4307 830.848 17.0467 830.848 17.78V48.976ZM841.598 51.704C840.836 51.704 840.176 51.44 839.618 50.912C839.061 50.384 838.782 49.768 838.782 49.064V18.088C838.782 17.3253 839.076 16.6653 839.662 16.108C840.278 15.5213 840.997 15.228 841.818 15.228C842.728 15.228 843.49 15.624 844.106 16.416L863.906 40.792L864.258 41.496V17.516C864.258 16.812 864.537 16.196 865.094 15.668C865.652 15.14 866.312 14.876 867.074 14.876C867.837 14.876 868.497 15.14 869.054 15.668C869.641 16.196 869.934 16.812 869.934 17.516V48.272C869.934 49.0347 869.626 49.7093 869.01 50.296C868.394 50.8533 867.676 51.132 866.854 51.132C866.444 51.132 866.033 51.0293 865.622 50.824C865.212 50.5893 864.86 50.296 864.566 49.944L844.81 25.7L844.458 24.952V49.064C844.458 49.768 844.165 50.384 843.578 50.912C843.021 51.44 842.361 51.704 841.598 51.704ZM894.097 52.276C890.695 52.276 887.629 51.4987 884.901 49.944C882.173 48.36 880.017 46.16 878.433 43.344C876.879 40.528 876.101 37.316 876.101 33.708C876.101 30.1 876.879 26.888 878.433 24.072C880.017 21.256 882.173 19.0707 884.901 17.516C887.629 15.932 890.695 15.14 894.097 15.14C897.5 15.14 900.565 15.932 903.293 17.516C906.021 19.0707 908.163 21.256 909.717 24.072C911.272 26.888 912.049 30.1 912.049 33.708C912.049 37.316 911.272 40.528 909.717 43.344C908.163 46.16 906.021 48.36 903.293 49.944C900.565 51.4987 897.5 52.276 894.097 52.276ZM894.097 46.6C896.444 46.6 898.541 46.072 900.389 45.016C902.267 43.9307 903.733 42.42 904.789 40.484C905.845 38.5187 906.373 36.26 906.373 33.708C906.373 31.156 905.845 28.912 904.789 26.976C903.733 25.0107 902.267 23.5 900.389 22.444C898.541 21.3587 896.444 20.816 894.097 20.816C891.751 20.816 889.639 21.3587 887.761 22.444C885.884 23.5 884.417 25.0107 883.361 26.976C882.305 28.912 881.777 31.156 881.777 33.708C881.777 36.26 882.305 38.5187 883.361 40.484C884.417 42.42 885.884 43.9307 887.761 45.016C889.639 46.072 891.751 46.6 894.097 46.6ZM924.348 48.976C924.348 49.7093 924.084 50.34 923.556 50.868C923.058 51.3667 922.442 51.616 921.708 51.616C920.975 51.616 920.344 51.3667 919.816 50.868C919.318 50.34 919.068 49.7093 919.068 48.976V17.78C919.068 17.0467 919.318 16.4307 919.816 15.932C920.344 15.404 920.975 15.14 921.708 15.14C922.442 15.14 923.058 15.404 923.556 15.932C924.084 16.4307 924.348 17.0467 924.348 17.78V48.976ZM942.842 51.836C940.554 51.836 938.384 51.2787 936.33 50.164C934.277 49.02 932.664 47.4947 931.49 45.588C931.256 45.1773 931.138 44.6933 931.138 44.136C931.138 43.2267 931.358 42.508 931.798 41.98C932.268 41.452 932.884 41.188 933.646 41.188C934.292 41.188 934.849 41.32 935.318 41.584C935.788 41.848 936.198 42.2733 936.55 42.86C937.108 43.7987 937.973 44.576 939.146 45.192C940.349 45.7787 941.581 46.072 942.842 46.072C947.066 46.072 949.178 44.6053 949.178 41.672C949.178 40.4107 948.65 39.2667 947.594 38.24C946.568 37.2133 944.925 36.172 942.666 35.116C939.997 33.884 937.914 32.7693 936.418 31.772C934.952 30.7453 933.896 29.66 933.25 28.516C932.605 27.3427 932.282 25.964 932.282 24.38C932.282 22.5613 932.766 20.948 933.734 19.54C934.702 18.1027 936.037 16.988 937.738 16.196C939.44 15.3747 941.346 14.964 943.458 14.964C945.805 14.964 947.961 15.492 949.926 16.548C951.892 17.5747 953.388 18.9827 954.414 20.772C954.708 21.2413 954.854 21.7253 954.854 22.224C954.854 22.928 954.62 23.544 954.15 24.072C953.71 24.6 953.153 24.864 952.478 24.864C951.98 24.864 951.466 24.732 950.938 24.468C950.41 24.1747 950 23.8227 949.706 23.412C949.032 22.4733 948.181 21.784 947.154 21.344C946.157 20.904 944.925 20.684 943.458 20.684C941.728 20.684 940.364 21.0067 939.366 21.652C938.398 22.268 937.914 23.1773 937.914 24.38C937.914 25.1133 938.09 25.7293 938.442 26.228C938.824 26.6973 939.454 27.1813 940.334 27.68C941.244 28.1787 942.725 28.8973 944.778 29.836C948.357 31.508 950.924 33.2533 952.478 35.072C954.062 36.8907 954.854 39.0907 954.854 41.672C954.854 43.696 954.356 45.4853 953.358 47.04C952.361 48.5653 950.953 49.7533 949.134 50.604C947.316 51.4253 945.218 51.836 942.842 51.836ZM964.822 43.564C964.118 43.564 963.531 43.3733 963.062 42.992C962.622 42.6107 962.387 42.0827 962.358 41.408C962.299 40.44 962.255 37.052 962.226 31.244C962.196 25.436 962.182 21.0947 962.182 18.22C962.182 17.1347 962.402 16.3133 962.842 15.756C963.282 15.1693 963.942 14.876 964.822 14.876C965.643 14.876 966.259 15.1987 966.67 15.844C967.11 16.46 967.33 17.3107 967.33 18.396C967.3 21.212 967.227 25.0547 967.11 29.924C967.022 34.764 966.934 38.592 966.846 41.408C966.816 42.024 966.611 42.5373 966.23 42.948C965.878 43.3587 965.408 43.564 964.822 43.564ZM964.558 52.1C963.619 52.1 962.812 51.748 962.138 51.044C961.463 50.3693 961.126 49.5627 961.126 48.624C961.126 47.7147 961.463 46.9227 962.138 46.248C962.812 45.5733 963.619 45.236 964.558 45.236C965.467 45.236 966.259 45.5733 966.934 46.248C967.638 46.9227 967.99 47.7147 967.99 48.624C967.99 49.5627 967.652 50.3693 966.978 51.044C966.303 51.748 965.496 52.1 964.558 52.1Z" fill="white"/>
<rect x="53.6103" y="278.444" width="844.112" height="73.1125" rx="36.5562" fill="#F1F2F2" stroke="url(#paint6_linear_977_6728)" stroke-width="5.11248"/>
<rect x="640.167" y="281" width="255" height="67.8525" rx="33.9262" fill="#401A79"/>
<path d="M712.615 281H749.808L711.415 348.852H674.222L712.615 281Z" fill="#894697" fill-opacity="0.49"/>
<path d="M692.804 327.522C691.376 327.522 690.021 327.174 688.74 326.478C687.458 325.764 686.451 324.812 685.719 323.622C685.573 323.366 685.499 323.064 685.499 322.716C685.499 322.148 685.637 321.7 685.911 321.37C686.204 321.041 686.589 320.876 687.065 320.876C687.467 320.876 687.815 320.959 688.108 321.123C688.401 321.288 688.657 321.554 688.877 321.92C689.225 322.505 689.765 322.991 690.497 323.375C691.248 323.741 692.017 323.924 692.804 323.924C695.44 323.924 696.758 323.009 696.758 321.178C696.758 320.391 696.429 319.677 695.77 319.036C695.129 318.395 694.104 317.746 692.694 317.086C691.028 316.318 689.728 315.622 688.795 314.999C687.879 314.359 687.22 313.681 686.817 312.967C686.415 312.235 686.213 311.375 686.213 310.386C686.213 309.251 686.515 308.244 687.12 307.365C687.724 306.468 688.557 305.772 689.619 305.278C690.68 304.765 691.87 304.509 693.189 304.509C694.653 304.509 695.999 304.839 697.225 305.498C698.452 306.139 699.386 307.017 700.026 308.134C700.209 308.427 700.301 308.729 700.301 309.04C700.301 309.48 700.155 309.864 699.862 310.194C699.587 310.523 699.239 310.688 698.818 310.688C698.507 310.688 698.186 310.606 697.857 310.441C697.527 310.258 697.271 310.038 697.088 309.782C696.667 309.196 696.136 308.766 695.495 308.491C694.873 308.216 694.104 308.079 693.189 308.079C692.108 308.079 691.257 308.281 690.635 308.683C690.03 309.068 689.728 309.635 689.728 310.386C689.728 310.844 689.838 311.228 690.058 311.539C690.296 311.832 690.69 312.134 691.239 312.445C691.806 312.757 692.731 313.205 694.012 313.791C696.246 314.835 697.848 315.924 698.818 317.059C699.807 318.194 700.301 319.567 700.301 321.178C700.301 322.441 699.99 323.558 699.367 324.528C698.745 325.48 697.866 326.222 696.731 326.753C695.596 327.265 694.287 327.522 692.804 327.522ZM717.754 306.431C717.754 305.974 717.927 305.589 718.275 305.278C718.623 304.949 719.035 304.784 719.511 304.784C719.987 304.784 720.399 304.949 720.747 305.278C721.113 305.589 721.296 305.974 721.296 306.431V318.24C721.296 320.144 720.948 321.801 720.253 323.21C719.557 324.602 718.55 325.673 717.232 326.423C715.932 327.174 714.385 327.549 712.591 327.549C710.797 327.549 709.25 327.174 707.95 326.423C706.65 325.673 705.652 324.602 704.957 323.21C704.261 321.801 703.913 320.144 703.913 318.24V306.184C703.913 305.727 704.087 305.342 704.435 305.031C704.783 304.701 705.195 304.537 705.671 304.537C706.147 304.537 706.558 304.701 706.906 305.031C707.272 305.342 707.456 305.727 707.456 306.184V318.24C707.456 320.052 707.904 321.471 708.801 322.496C709.717 323.503 710.98 324.007 712.591 324.007C714.22 324.007 715.483 323.503 716.38 322.496C717.296 321.471 717.754 320.052 717.754 318.24V306.431ZM738.019 314.395C739.118 314.999 740.006 315.842 740.683 316.922C741.379 318.002 741.726 319.137 741.726 320.327C741.726 321.682 741.388 322.899 740.71 323.979C740.033 325.041 739.099 325.874 737.909 326.478C736.719 327.064 735.365 327.357 733.845 327.357H727.556C727.044 327.357 726.604 327.183 726.238 326.835C725.872 326.487 725.689 326.075 725.689 325.599V306.431C725.689 305.955 725.854 305.553 726.183 305.223C726.531 304.894 726.971 304.711 727.501 304.674C728.142 304.656 729.012 304.646 730.11 304.646C731.227 304.628 732.142 304.619 732.856 304.619C734.229 304.619 735.447 304.866 736.509 305.36C737.589 305.855 738.422 306.55 739.008 307.448C739.612 308.345 739.914 309.37 739.914 310.523C739.914 311.347 739.758 312.079 739.447 312.72C739.136 313.343 738.66 313.901 738.019 314.395ZM729.232 308.162V313.187H732.911C733.79 313.187 734.477 313.114 734.971 312.967C735.465 312.821 735.822 312.555 736.042 312.171C736.28 311.786 736.399 311.237 736.399 310.523C736.399 309.718 736.106 309.123 735.52 308.738C734.953 308.354 734.065 308.162 732.856 308.162H729.232ZM733.845 323.814C735.273 323.814 736.353 323.522 737.085 322.936C737.836 322.35 738.211 321.48 738.211 320.327C738.211 319.155 737.845 318.203 737.113 317.471C736.381 316.739 735.41 316.372 734.202 316.372H729.232V323.814H733.845ZM751.615 327.522C750.187 327.522 748.833 327.174 747.551 326.478C746.269 325.764 745.263 324.812 744.53 323.622C744.384 323.366 744.311 323.064 744.311 322.716C744.311 322.148 744.448 321.7 744.722 321.37C745.015 321.041 745.4 320.876 745.876 320.876C746.279 320.876 746.626 320.959 746.919 321.123C747.212 321.288 747.469 321.554 747.688 321.92C748.036 322.505 748.576 322.991 749.309 323.375C750.059 323.741 750.828 323.924 751.615 323.924C754.252 323.924 755.57 323.009 755.57 321.178C755.57 320.391 755.24 319.677 754.581 319.036C753.94 318.395 752.915 317.746 751.505 317.086C749.839 316.318 748.54 315.622 747.606 314.999C746.691 314.359 746.031 313.681 745.629 312.967C745.226 312.235 745.025 311.375 745.025 310.386C745.025 309.251 745.327 308.244 745.931 307.365C746.535 306.468 747.368 305.772 748.43 305.278C749.492 304.765 750.682 304.509 752 304.509C753.464 304.509 754.81 304.839 756.037 305.498C757.263 306.139 758.197 307.017 758.838 308.134C759.021 308.427 759.112 308.729 759.112 309.04C759.112 309.48 758.966 309.864 758.673 310.194C758.398 310.523 758.05 310.688 757.629 310.688C757.318 310.688 756.998 310.606 756.668 310.441C756.339 310.258 756.082 310.038 755.899 309.782C755.478 309.196 754.947 308.766 754.306 308.491C753.684 308.216 752.915 308.079 752 308.079C750.92 308.079 750.068 308.281 749.446 308.683C748.842 309.068 748.54 309.635 748.54 310.386C748.54 310.844 748.649 311.228 748.869 311.539C749.107 311.832 749.501 312.134 750.05 312.445C750.618 312.757 751.542 313.205 752.824 313.791C755.057 314.835 756.659 315.924 757.629 317.059C758.618 318.194 759.112 319.567 759.112 321.178C759.112 322.441 758.801 323.558 758.179 324.528C757.556 325.48 756.677 326.222 755.542 326.753C754.407 327.265 753.098 327.522 751.615 327.522ZM779.393 322.084C779.54 321.901 779.723 321.755 779.942 321.645C780.18 321.535 780.409 321.48 780.629 321.48C781.087 321.48 781.471 321.645 781.782 321.975C782.112 322.286 782.277 322.67 782.277 323.128C782.277 323.567 782.121 323.961 781.81 324.309C780.968 325.206 779.787 325.947 778.267 326.533C776.748 327.101 775.237 327.384 773.736 327.384C771.558 327.384 769.59 326.908 767.832 325.956C766.075 325.004 764.692 323.668 763.685 321.947C762.678 320.226 762.175 318.249 762.175 316.015C762.175 313.8 762.678 311.823 763.685 310.084C764.692 308.345 766.075 306.999 767.832 306.047C769.59 305.077 771.558 304.592 773.736 304.592C775.237 304.592 776.739 304.894 778.24 305.498C779.741 306.102 780.922 306.898 781.782 307.887C782.094 308.253 782.249 308.647 782.249 309.068C782.249 309.525 782.084 309.919 781.755 310.249C781.425 310.56 781.032 310.715 780.574 310.715C780.354 310.715 780.135 310.67 779.915 310.578C779.695 310.487 779.521 310.358 779.393 310.194C778.862 309.553 778.075 309.049 777.032 308.683C775.988 308.317 774.89 308.134 773.736 308.134C772.162 308.134 770.761 308.454 769.535 309.095C768.326 309.718 767.384 310.624 766.706 311.814C766.047 312.986 765.718 314.386 765.718 316.015C765.718 317.627 766.056 319.027 766.734 320.217C767.411 321.389 768.354 322.295 769.562 322.936C770.77 323.558 772.162 323.869 773.736 323.869C774.999 323.869 776.153 323.705 777.196 323.375C778.24 323.046 778.972 322.615 779.393 322.084ZM799.931 324.501C800.114 324.647 800.307 324.876 800.508 325.188C800.728 325.499 800.838 325.792 800.838 326.066C800.838 326.524 800.682 326.89 800.371 327.165C800.059 327.439 799.666 327.577 799.19 327.577C798.732 327.577 798.393 327.503 798.174 327.357C797.442 326.954 796.911 326.414 796.581 325.737C796.252 325.041 796.014 324.043 795.867 322.743C795.812 322.194 795.757 321.554 795.702 320.821C795.647 320.071 795.602 319.457 795.565 318.981C795.528 318.121 795.052 317.471 794.137 317.032C793.24 316.592 792.141 316.372 790.842 316.372H789.029V325.737C789.029 326.194 788.864 326.588 788.535 326.918C788.224 327.229 787.839 327.384 787.382 327.384C786.924 327.384 786.53 327.229 786.201 326.918C785.889 326.588 785.734 326.194 785.734 325.737V306.431C785.734 305.919 785.889 305.507 786.201 305.196C786.512 304.884 786.915 304.711 787.409 304.674C788.031 304.656 788.901 304.646 790.018 304.646C791.135 304.628 792.059 304.619 792.791 304.619C794.164 304.619 795.382 304.866 796.444 305.36C797.524 305.855 798.357 306.55 798.943 307.448C799.547 308.345 799.849 309.37 799.849 310.523C799.849 312.867 798.677 314.432 796.334 315.219C797.89 315.878 798.732 317.041 798.86 318.707L798.97 319.97C799.007 320.556 799.071 321.37 799.162 322.414C799.272 323.512 799.529 324.208 799.931 324.501ZM789.029 313.324H792.764C794.082 313.324 795.043 313.114 795.647 312.693C796.252 312.272 796.554 311.548 796.554 310.523C796.554 309.699 796.224 309.059 795.565 308.601C794.906 308.143 793.981 307.914 792.791 307.914H789.029V313.324ZM808.217 325.737C808.217 326.194 808.052 326.588 807.722 326.918C807.411 327.229 807.027 327.384 806.569 327.384C806.111 327.384 805.718 327.229 805.388 326.918C805.077 326.588 804.921 326.194 804.921 325.737V306.267C804.921 305.809 805.077 305.425 805.388 305.113C805.718 304.784 806.111 304.619 806.569 304.619C807.027 304.619 807.411 304.784 807.722 305.113C808.052 305.425 808.217 305.809 808.217 306.267V325.737ZM825.498 314.395C826.597 314.999 827.485 315.842 828.162 316.922C828.858 318.002 829.206 319.137 829.206 320.327C829.206 321.682 828.867 322.899 828.19 323.979C827.512 325.041 826.579 325.874 825.389 326.478C824.199 327.064 822.844 327.357 821.324 327.357H815.036C814.523 327.357 814.084 327.183 813.718 326.835C813.351 326.487 813.168 326.075 813.168 325.599V306.431C813.168 305.955 813.333 305.553 813.663 305.223C814.01 304.894 814.45 304.711 814.981 304.674C815.622 304.656 816.491 304.646 817.59 304.646C818.706 304.628 819.622 304.619 820.336 304.619C821.709 304.619 822.926 304.866 823.988 305.36C825.068 305.855 825.901 306.55 826.487 307.448C827.091 308.345 827.393 309.37 827.393 310.523C827.393 311.347 827.238 312.079 826.926 312.72C826.615 313.343 826.139 313.901 825.498 314.395ZM816.711 308.162V313.187H820.391C821.269 313.187 821.956 313.114 822.45 312.967C822.945 312.821 823.302 312.555 823.521 312.171C823.759 311.786 823.878 311.237 823.878 310.523C823.878 309.718 823.585 309.123 822.999 308.738C822.432 308.354 821.544 308.162 820.336 308.162H816.711ZM821.324 323.814C822.752 323.814 823.832 323.522 824.565 322.936C825.315 322.35 825.691 321.48 825.691 320.327C825.691 319.155 825.325 318.203 824.592 317.471C823.86 316.739 822.89 316.372 821.681 316.372H816.711V323.814H821.324ZM850.409 321.48C850.866 321.48 851.251 321.645 851.562 321.975C851.892 322.286 852.056 322.67 852.056 323.128C852.056 323.567 851.901 323.961 851.59 324.309C850.747 325.206 849.567 325.947 848.047 326.533C846.527 327.101 845.017 327.384 843.516 327.384C841.337 327.384 839.369 326.908 837.612 325.956C835.854 325.004 834.472 323.668 833.465 321.947C832.458 320.226 831.955 318.249 831.955 316.015C831.955 313.8 832.458 311.823 833.465 310.084C834.472 308.345 835.854 306.999 837.612 306.047C839.369 305.077 841.337 304.592 843.516 304.592C845.017 304.592 846.518 304.894 848.02 305.498C849.521 306.102 850.702 306.898 851.562 307.887C851.873 308.253 852.029 308.647 852.029 309.068C852.029 309.525 851.864 309.919 851.535 310.249C851.205 310.56 850.811 310.715 850.354 310.715C850.134 310.715 849.914 310.67 849.695 310.578C849.475 310.487 849.301 310.358 849.173 310.194C848.642 309.553 847.855 309.049 846.811 308.683C845.768 308.317 844.669 308.134 843.516 308.134C841.484 308.134 839.772 308.647 838.381 309.672C837.008 310.679 836.12 312.098 835.717 313.928H844.285C844.742 313.928 845.127 314.093 845.438 314.423C845.768 314.734 845.932 315.118 845.932 315.576C845.932 316.034 845.768 316.427 845.438 316.757C845.127 317.068 844.742 317.224 844.285 317.224H835.58C835.818 319.293 836.651 320.922 838.079 322.112C839.525 323.284 841.337 323.869 843.516 323.869C844.779 323.869 845.932 323.705 846.976 323.375C848.02 323.046 848.752 322.615 849.173 322.084C849.319 321.901 849.502 321.755 849.722 321.645C849.96 321.535 850.189 321.48 850.409 321.48Z" fill="white"/>
<path d="M91.3086 313.652H100.669V315.862H91.3086V313.652ZM91.5426 321.738H102.151V324H88.9426V305.8H101.787V308.062H91.5426V321.738ZM113.355 310.09C114.481 310.09 115.469 310.307 116.319 310.74C117.185 311.173 117.861 311.832 118.347 312.716C118.832 313.6 119.075 314.718 119.075 316.07V324H116.579V316.356C116.579 315.021 116.249 314.016 115.591 313.34C114.949 312.664 114.039 312.326 112.861 312.326C111.977 312.326 111.205 312.499 110.547 312.846C109.888 313.193 109.377 313.704 109.013 314.38C108.666 315.056 108.493 315.897 108.493 316.902V324H105.997V310.22H108.389V313.938L107.999 312.95C108.449 312.049 109.143 311.347 110.079 310.844C111.015 310.341 112.107 310.09 113.355 310.09ZM128.426 324.156C127.039 324.156 125.965 323.783 125.202 323.038C124.439 322.293 124.058 321.227 124.058 319.84V307.204H126.554V319.736C126.554 320.481 126.736 321.053 127.1 321.452C127.481 321.851 128.019 322.05 128.712 322.05C129.492 322.05 130.142 321.833 130.662 321.4L131.442 323.194C131.061 323.523 130.601 323.766 130.064 323.922C129.544 324.078 128.998 324.156 128.426 324.156ZM121.718 312.274V310.22H130.506V312.274H121.718ZM140.138 324.156C138.665 324.156 137.365 323.853 136.238 323.246C135.129 322.639 134.262 321.807 133.638 320.75C133.032 319.693 132.728 318.479 132.728 317.11C132.728 315.741 133.023 314.527 133.612 313.47C134.219 312.413 135.042 311.589 136.082 311C137.14 310.393 138.327 310.09 139.644 310.09C140.979 310.09 142.158 310.385 143.18 310.974C144.203 311.563 145 312.395 145.572 313.47C146.162 314.527 146.456 315.767 146.456 317.188C146.456 317.292 146.448 317.413 146.43 317.552C146.43 317.691 146.422 317.821 146.404 317.942H134.678V316.148H145.104L144.09 316.772C144.108 315.888 143.926 315.099 143.544 314.406C143.163 313.713 142.634 313.175 141.958 312.794C141.3 312.395 140.528 312.196 139.644 312.196C138.778 312.196 138.006 312.395 137.33 312.794C136.654 313.175 136.126 313.721 135.744 314.432C135.363 315.125 135.172 315.923 135.172 316.824V317.24C135.172 318.159 135.38 318.982 135.796 319.71C136.23 320.421 136.828 320.975 137.59 321.374C138.353 321.773 139.228 321.972 140.216 321.972C141.031 321.972 141.768 321.833 142.426 321.556C143.102 321.279 143.692 320.863 144.194 320.308L145.572 321.92C144.948 322.648 144.168 323.203 143.232 323.584C142.314 323.965 141.282 324.156 140.138 324.156ZM149.922 324V310.22H152.314V313.964L152.08 313.028C152.462 312.075 153.103 311.347 154.004 310.844C154.906 310.341 156.015 310.09 157.332 310.09V312.508C157.228 312.491 157.124 312.482 157.02 312.482C156.934 312.482 156.847 312.482 156.76 312.482C155.426 312.482 154.368 312.881 153.588 313.678C152.808 314.475 152.418 315.628 152.418 317.136V324H149.922ZM168.167 329.2C167.508 329.2 166.867 329.087 166.243 328.862C165.619 328.654 165.082 328.342 164.631 327.926L165.697 326.054C166.044 326.383 166.425 326.635 166.841 326.808C167.257 326.981 167.699 327.068 168.167 327.068C168.774 327.068 169.276 326.912 169.675 326.6C170.074 326.288 170.446 325.733 170.793 324.936L171.651 323.038L171.911 322.726L177.319 310.22H179.763L173.081 325.378C172.682 326.349 172.232 327.111 171.729 327.666C171.244 328.221 170.706 328.611 170.117 328.836C169.528 329.079 168.878 329.2 168.167 329.2ZM171.443 324.442L165.151 310.22H167.751L173.107 322.492L171.443 324.442ZM187.613 324.156C186.227 324.156 184.996 323.853 183.921 323.246C182.847 322.639 181.997 321.807 181.373 320.75C180.749 319.675 180.437 318.462 180.437 317.11C180.437 315.741 180.749 314.527 181.373 313.47C181.997 312.413 182.847 311.589 183.921 311C184.996 310.393 186.227 310.09 187.613 310.09C188.983 310.09 190.205 310.393 191.279 311C192.371 311.589 193.221 312.413 193.827 313.47C194.451 314.51 194.763 315.723 194.763 317.11C194.763 318.479 194.451 319.693 193.827 320.75C193.221 321.807 192.371 322.639 191.279 323.246C190.205 323.853 188.983 324.156 187.613 324.156ZM187.613 321.972C188.497 321.972 189.286 321.773 189.979 321.374C190.69 320.975 191.245 320.412 191.643 319.684C192.042 318.939 192.241 318.081 192.241 317.11C192.241 316.122 192.042 315.273 191.643 314.562C191.245 313.834 190.69 313.271 189.979 312.872C189.286 312.473 188.497 312.274 187.613 312.274C186.729 312.274 185.941 312.473 185.247 312.872C184.554 313.271 183.999 313.834 183.583 314.562C183.167 315.273 182.959 316.122 182.959 317.11C182.959 318.081 183.167 318.939 183.583 319.684C183.999 320.412 184.554 320.975 185.247 321.374C185.941 321.773 186.729 321.972 187.613 321.972ZM204.013 324.156C202.835 324.156 201.795 323.939 200.893 323.506C200.009 323.073 199.316 322.414 198.813 321.53C198.328 320.629 198.085 319.502 198.085 318.15V310.22H200.581V317.864C200.581 319.216 200.902 320.23 201.543 320.906C202.202 321.582 203.121 321.92 204.299 321.92C205.166 321.92 205.92 321.747 206.561 321.4C207.203 321.036 207.697 320.516 208.043 319.84C208.39 319.147 208.563 318.315 208.563 317.344V310.22H211.059V324H208.693V320.282L209.083 321.27C208.633 322.189 207.957 322.899 207.055 323.402C206.154 323.905 205.14 324.156 204.013 324.156ZM215.811 324V310.22H218.203V313.964L217.969 313.028C218.35 312.075 218.992 311.347 219.893 310.844C220.794 310.341 221.904 310.09 223.221 310.09V312.508C223.117 312.491 223.013 312.482 222.909 312.482C222.822 312.482 222.736 312.482 222.649 312.482C221.314 312.482 220.257 312.881 219.477 313.678C218.697 314.475 218.307 315.628 218.307 317.136V324H215.811ZM239.594 324.156C238.12 324.156 236.82 323.853 235.694 323.246C234.584 322.639 233.718 321.807 233.094 320.75C232.487 319.693 232.184 318.479 232.184 317.11C232.184 315.741 232.478 314.527 233.068 313.47C233.674 312.413 234.498 311.589 235.538 311C236.595 310.393 237.782 310.09 239.1 310.09C240.434 310.09 241.613 310.385 242.636 310.974C243.658 311.563 244.456 312.395 245.028 313.47C245.617 314.527 245.912 315.767 245.912 317.188C245.912 317.292 245.903 317.413 245.886 317.552C245.886 317.691 245.877 317.821 245.86 317.942H234.134V316.148H244.56L243.546 316.772C243.563 315.888 243.381 315.099 243 314.406C242.618 313.713 242.09 313.175 241.414 312.794C240.755 312.395 239.984 312.196 239.1 312.196C238.233 312.196 237.462 312.395 236.786 312.794C236.11 313.175 235.581 313.721 235.2 314.432C234.818 315.125 234.628 315.923 234.628 316.824V317.24C234.628 318.159 234.836 318.982 235.252 319.71C235.685 320.421 236.283 320.975 237.046 321.374C237.808 321.773 238.684 321.972 239.672 321.972C240.486 321.972 241.223 321.833 241.882 321.556C242.558 321.279 243.147 320.863 243.65 320.308L245.028 321.92C244.404 322.648 243.624 323.203 242.688 323.584C241.769 323.965 240.738 324.156 239.594 324.156ZM266.615 310.09C267.725 310.09 268.704 310.307 269.553 310.74C270.403 311.173 271.061 311.832 271.529 312.716C272.015 313.6 272.257 314.718 272.257 316.07V324H269.761V316.356C269.761 315.021 269.449 314.016 268.825 313.34C268.201 312.664 267.326 312.326 266.199 312.326C265.367 312.326 264.639 312.499 264.015 312.846C263.391 313.193 262.906 313.704 262.559 314.38C262.23 315.056 262.065 315.897 262.065 316.902V324H259.569V316.356C259.569 315.021 259.257 314.016 258.633 313.34C258.027 312.664 257.151 312.326 256.007 312.326C255.193 312.326 254.473 312.499 253.849 312.846C253.225 313.193 252.74 313.704 252.393 314.38C252.047 315.056 251.873 315.897 251.873 316.902V324H249.377V310.22H251.769V313.886L251.379 312.95C251.813 312.049 252.48 311.347 253.381 310.844C254.283 310.341 255.331 310.09 256.527 310.09C257.845 310.09 258.98 310.419 259.933 311.078C260.887 311.719 261.511 312.699 261.805 314.016L260.791 313.6C261.207 312.543 261.935 311.693 262.975 311.052C264.015 310.411 265.229 310.09 266.615 310.09ZM285.404 324V321.088L285.274 320.542V315.576C285.274 314.519 284.962 313.704 284.338 313.132C283.731 312.543 282.813 312.248 281.582 312.248C280.767 312.248 279.97 312.387 279.19 312.664C278.41 312.924 277.751 313.279 277.214 313.73L276.174 311.858C276.885 311.286 277.734 310.853 278.722 310.558C279.727 310.246 280.776 310.09 281.868 310.09C283.757 310.09 285.213 310.549 286.236 311.468C287.259 312.387 287.77 313.791 287.77 315.68V324H285.404ZM280.88 324.156C279.857 324.156 278.956 323.983 278.176 323.636C277.413 323.289 276.824 322.813 276.408 322.206C275.992 321.582 275.784 320.88 275.784 320.1C275.784 319.355 275.957 318.679 276.304 318.072C276.668 317.465 277.249 316.98 278.046 316.616C278.861 316.252 279.953 316.07 281.322 316.07H285.69V317.864H281.426C280.178 317.864 279.337 318.072 278.904 318.488C278.471 318.904 278.254 319.407 278.254 319.996C278.254 320.672 278.523 321.218 279.06 321.634C279.597 322.033 280.343 322.232 281.296 322.232C282.232 322.232 283.047 322.024 283.74 321.608C284.451 321.192 284.962 320.585 285.274 319.788L285.768 321.504C285.439 322.319 284.858 322.969 284.026 323.454C283.194 323.922 282.145 324.156 280.88 324.156ZM292.389 324V310.22H294.885V324H292.389ZM293.637 307.568C293.152 307.568 292.744 307.412 292.415 307.1C292.103 306.788 291.947 306.407 291.947 305.956C291.947 305.488 292.103 305.098 292.415 304.786C292.744 304.474 293.152 304.318 293.637 304.318C294.122 304.318 294.521 304.474 294.833 304.786C295.162 305.081 295.327 305.453 295.327 305.904C295.327 306.372 295.171 306.771 294.859 307.1C294.547 307.412 294.14 307.568 293.637 307.568ZM299.651 324V304.708H302.147V324H299.651Z" fill="#8F8F8F"/>
<path d="M101.15 247.32C99.4004 247.32 97.7258 247.075 96.1258 246.584C94.5258 246.072 93.2564 245.421 92.3178 244.632L93.7578 241.4C94.6538 242.104 95.7631 242.691 97.0858 243.16C98.4084 243.629 99.7631 243.864 101.15 243.864C102.323 243.864 103.272 243.736 103.998 243.48C104.723 243.224 105.256 242.883 105.598 242.456C105.939 242.008 106.11 241.507 106.11 240.952C106.11 240.269 105.864 239.725 105.374 239.32C104.883 238.893 104.243 238.563 103.454 238.328C102.686 238.072 101.822 237.837 100.862 237.624C99.9231 237.411 98.9738 237.165 98.0138 236.888C97.0751 236.589 96.2111 236.216 95.4218 235.768C94.6538 235.299 94.0244 234.68 93.5338 233.912C93.0431 233.144 92.7978 232.163 92.7978 230.968C92.7978 229.752 93.1178 228.643 93.7578 227.64C94.4191 226.616 95.4111 225.805 96.7338 225.208C98.0778 224.589 99.7738 224.28 101.822 224.28C103.166 224.28 104.499 224.451 105.822 224.792C107.144 225.133 108.296 225.624 109.278 226.264L107.966 229.496C106.963 228.899 105.928 228.461 104.862 228.184C103.795 227.885 102.771 227.736 101.79 227.736C100.638 227.736 99.6991 227.875 98.9738 228.152C98.2698 228.429 97.7471 228.792 97.4058 229.24C97.0858 229.688 96.9258 230.2 96.9258 230.776C96.9258 231.459 97.1604 232.013 97.6298 232.44C98.1204 232.845 98.7498 233.165 99.5178 233.4C100.307 233.635 101.182 233.869 102.142 234.104C103.102 234.317 104.051 234.563 104.99 234.84C105.95 235.117 106.814 235.48 107.582 235.928C108.371 236.376 109 236.984 109.47 237.752C109.96 238.52 110.206 239.491 110.206 240.664C110.206 241.859 109.875 242.968 109.214 243.992C108.574 244.995 107.582 245.805 106.238 246.424C104.894 247.021 103.198 247.32 101.15 247.32ZM113.947 247V229.912H117.947V247H113.947ZM115.963 227.096C115.216 227.096 114.597 226.861 114.107 226.392C113.637 225.923 113.403 225.357 113.403 224.696C113.403 224.013 113.637 223.448 114.107 223C114.597 222.531 115.216 222.296 115.963 222.296C116.709 222.296 117.317 222.52 117.787 222.968C118.277 223.395 118.523 223.939 118.523 224.6C118.523 225.304 118.288 225.901 117.819 226.392C117.349 226.861 116.731 227.096 115.963 227.096ZM130.941 253.432C129.362 253.432 127.815 253.219 126.301 252.792C124.807 252.387 123.581 251.789 122.621 251L124.413 247.992C125.159 248.611 126.098 249.101 127.229 249.464C128.381 249.848 129.543 250.04 130.717 250.04C132.594 250.04 133.97 249.603 134.845 248.728C135.719 247.875 136.157 246.584 136.157 244.856V241.816L136.477 237.944L136.349 234.072V229.912H140.157V244.408C140.157 247.501 139.367 249.773 137.789 251.224C136.21 252.696 133.927 253.432 130.941 253.432ZM130.429 246.232C128.807 246.232 127.335 245.891 126.013 245.208C124.711 244.504 123.677 243.533 122.909 242.296C122.162 241.059 121.789 239.608 121.789 237.944C121.789 236.301 122.162 234.861 122.909 233.624C123.677 232.387 124.711 231.427 126.013 230.744C127.335 230.061 128.807 229.72 130.429 229.72C131.879 229.72 133.181 230.008 134.333 230.584C135.485 231.16 136.402 232.056 137.085 233.272C137.789 234.488 138.141 236.045 138.141 237.944C138.141 239.843 137.789 241.411 137.085 242.648C136.402 243.864 135.485 244.771 134.333 245.368C133.181 245.944 131.879 246.232 130.429 246.232ZM131.037 242.84C132.039 242.84 132.935 242.637 133.725 242.232C134.514 241.805 135.122 241.229 135.549 240.504C135.997 239.757 136.221 238.904 136.221 237.944C136.221 236.984 135.997 236.141 135.549 235.416C135.122 234.669 134.514 234.104 133.725 233.72C132.935 233.315 132.039 233.112 131.037 233.112C130.034 233.112 129.127 233.315 128.317 233.72C127.527 234.104 126.909 234.669 126.461 235.416C126.034 236.141 125.821 236.984 125.821 237.944C125.821 238.904 126.034 239.757 126.461 240.504C126.909 241.229 127.527 241.805 128.317 242.232C129.127 242.637 130.034 242.84 131.037 242.84ZM155.112 229.72C156.477 229.72 157.693 229.987 158.76 230.52C159.848 231.053 160.701 231.875 161.32 232.984C161.938 234.072 162.248 235.48 162.248 237.208V247H158.248V237.72C158.248 236.205 157.885 235.075 157.16 234.328C156.456 233.581 155.464 233.208 154.184 233.208C153.245 233.208 152.413 233.4 151.688 233.784C150.962 234.168 150.397 234.744 149.992 235.512C149.608 236.259 149.416 237.208 149.416 238.36V247H145.416V229.912H149.224V234.52L148.552 233.112C149.149 232.024 150.013 231.192 151.144 230.616C152.296 230.019 153.618 229.72 155.112 229.72ZM183.398 247.224C181.947 247.224 180.667 246.957 179.558 246.424C178.448 245.869 177.584 245.037 176.966 243.928C176.347 242.797 176.038 241.379 176.038 239.672V229.912H180.038V239.128C180.038 240.664 180.379 241.816 181.062 242.584C181.766 243.331 182.758 243.704 184.038 243.704C184.976 243.704 185.787 243.512 186.47 243.128C187.174 242.744 187.718 242.168 188.102 241.4C188.507 240.632 188.71 239.683 188.71 238.552V229.912H192.71V247H188.902V242.392L189.574 243.8C188.998 244.909 188.155 245.763 187.046 246.36C185.936 246.936 184.72 247.224 183.398 247.224ZM207.419 247.224C206.032 247.224 204.763 246.904 203.611 246.264C202.48 245.624 201.573 244.664 200.891 243.384C200.229 242.083 199.899 240.44 199.899 238.456C199.899 236.451 200.219 234.808 200.859 233.528C201.52 232.248 202.416 231.299 203.547 230.68C204.677 230.04 205.968 229.72 207.419 229.72C209.104 229.72 210.587 230.083 211.867 230.808C213.168 231.533 214.192 232.547 214.939 233.848C215.707 235.149 216.091 236.685 216.091 238.456C216.091 240.227 215.707 241.773 214.939 243.096C214.192 244.397 213.168 245.411 211.867 246.136C210.587 246.861 209.104 247.224 207.419 247.224ZM197.947 253.208V229.912H201.755V233.944L201.627 238.488L201.947 243.032V253.208H197.947ZM206.971 243.8C207.931 243.8 208.784 243.587 209.531 243.16C210.299 242.733 210.907 242.115 211.355 241.304C211.803 240.493 212.027 239.544 212.027 238.456C212.027 237.347 211.803 236.397 211.355 235.608C210.907 234.797 210.299 234.179 209.531 233.752C208.784 233.325 207.931 233.112 206.971 233.112C206.011 233.112 205.147 233.325 204.379 233.752C203.611 234.179 203.003 234.797 202.555 235.608C202.107 236.397 201.883 237.347 201.883 238.456C201.883 239.544 202.107 240.493 202.555 241.304C203.003 242.115 203.611 242.733 204.379 243.16C205.147 243.587 206.011 243.8 206.971 243.8ZM229.272 247V228.952C229.272 227.16 229.795 225.731 230.84 224.664C231.907 223.576 233.421 223.032 235.384 223.032C236.088 223.032 236.749 223.107 237.368 223.256C238.008 223.405 238.541 223.64 238.968 223.96L237.88 226.968C237.581 226.733 237.24 226.563 236.856 226.456C236.472 226.328 236.077 226.264 235.672 226.264C234.84 226.264 234.211 226.499 233.784 226.968C233.357 227.416 233.144 228.099 233.144 229.016V230.936L233.272 232.728V247H229.272ZM226.456 233.24V230.04H237.848V233.24H226.456ZM247.971 247.224C246.221 247.224 244.664 246.851 243.299 246.104C241.933 245.336 240.856 244.291 240.067 242.968C239.277 241.645 238.883 240.141 238.883 238.456C238.883 236.749 239.277 235.245 240.067 233.944C240.856 232.621 241.933 231.587 243.299 230.84C244.664 230.093 246.221 229.72 247.971 229.72C249.741 229.72 251.309 230.093 252.675 230.84C254.061 231.587 255.139 232.611 255.907 233.912C256.696 235.213 257.091 236.728 257.091 238.456C257.091 240.141 256.696 241.645 255.907 242.968C255.139 244.291 254.061 245.336 252.675 246.104C251.309 246.851 249.741 247.224 247.971 247.224ZM247.971 243.8C248.952 243.8 249.827 243.587 250.595 243.16C251.363 242.733 251.96 242.115 252.387 241.304C252.835 240.493 253.059 239.544 253.059 238.456C253.059 237.347 252.835 236.397 252.387 235.608C251.96 234.797 251.363 234.179 250.595 233.752C249.827 233.325 248.963 233.112 248.003 233.112C247.021 233.112 246.147 233.325 245.379 233.752C244.632 234.179 244.035 234.797 243.587 235.608C243.139 236.397 242.915 237.347 242.915 238.456C242.915 239.544 243.139 240.493 243.587 241.304C244.035 242.115 244.632 242.733 245.379 243.16C246.147 243.587 247.011 243.8 247.971 243.8ZM260.916 247V229.912H264.724V234.616L264.276 233.24C264.788 232.088 265.588 231.213 266.676 230.616C267.785 230.019 269.161 229.72 270.804 229.72V233.528C270.633 233.485 270.473 233.464 270.324 233.464C270.174 233.443 270.025 233.432 269.876 233.432C268.361 233.432 267.156 233.88 266.26 234.776C265.364 235.651 264.916 236.963 264.916 238.712V247H260.916ZM290.877 247.224C289.127 247.224 287.57 246.851 286.205 246.104C284.839 245.336 283.762 244.291 282.973 242.968C282.183 241.645 281.789 240.141 281.789 238.456C281.789 236.749 282.183 235.245 282.973 233.944C283.762 232.621 284.839 231.587 286.205 230.84C287.57 230.093 289.127 229.72 290.877 229.72C292.647 229.72 294.215 230.093 295.581 230.84C296.967 231.587 298.045 232.611 298.813 233.912C299.602 235.213 299.997 236.728 299.997 238.456C299.997 240.141 299.602 241.645 298.813 242.968C298.045 244.291 296.967 245.336 295.581 246.104C294.215 246.851 292.647 247.224 290.877 247.224ZM290.877 243.8C291.858 243.8 292.733 243.587 293.501 243.16C294.269 242.733 294.866 242.115 295.293 241.304C295.741 240.493 295.965 239.544 295.965 238.456C295.965 237.347 295.741 236.397 295.293 235.608C294.866 234.797 294.269 234.179 293.501 233.752C292.733 233.325 291.869 233.112 290.909 233.112C289.927 233.112 289.053 233.325 288.285 233.752C287.538 234.179 286.941 234.797 286.493 235.608C286.045 236.397 285.821 237.347 285.821 238.456C285.821 239.544 286.045 240.493 286.493 241.304C286.941 242.115 287.538 242.733 288.285 243.16C289.053 243.587 289.917 243.8 290.877 243.8ZM311.054 247.224C309.603 247.224 308.323 246.957 307.214 246.424C306.104 245.869 305.24 245.037 304.622 243.928C304.003 242.797 303.694 241.379 303.694 239.672V229.912H307.694V239.128C307.694 240.664 308.035 241.816 308.718 242.584C309.422 243.331 310.414 243.704 311.694 243.704C312.632 243.704 313.443 243.512 314.126 243.128C314.83 242.744 315.374 242.168 315.758 241.4C316.163 240.632 316.366 239.683 316.366 238.552V229.912H320.366V247H316.558V242.392L317.23 243.8C316.654 244.909 315.811 245.763 314.702 246.36C313.592 246.936 312.376 247.224 311.054 247.224ZM325.603 247V229.912H329.411V234.616L328.963 233.24C329.475 232.088 330.275 231.213 331.363 230.616C332.472 230.019 333.848 229.72 335.491 229.72V233.528C335.32 233.485 335.16 233.464 335.011 233.464C334.862 233.443 334.712 233.432 334.563 233.432C333.048 233.432 331.843 233.88 330.947 234.776C330.051 235.651 329.603 236.963 329.603 238.712V247H325.603ZM357.58 229.72C358.946 229.72 360.162 229.987 361.228 230.52C362.316 231.053 363.17 231.875 363.788 232.984C364.407 234.072 364.716 235.48 364.716 237.208V247H360.716V237.72C360.716 236.205 360.354 235.075 359.628 234.328C358.924 233.581 357.932 233.208 356.652 233.208C355.714 233.208 354.882 233.4 354.156 233.784C353.431 234.168 352.866 234.744 352.46 235.512C352.076 236.259 351.884 237.208 351.884 238.36V247H347.884V229.912H351.692V234.52L351.02 233.112C351.618 232.024 352.482 231.192 353.612 230.616C354.764 230.019 356.087 229.72 357.58 229.72ZM377.854 247.224C375.955 247.224 374.291 246.851 372.862 246.104C371.454 245.336 370.355 244.291 369.566 242.968C368.798 241.645 368.414 240.141 368.414 238.456C368.414 236.749 368.787 235.245 369.534 233.944C370.302 232.621 371.347 231.587 372.67 230.84C374.014 230.093 375.539 229.72 377.246 229.72C378.91 229.72 380.392 230.083 381.694 230.808C382.995 231.533 384.019 232.557 384.766 233.88C385.512 235.203 385.886 236.76 385.886 238.552C385.886 238.723 385.875 238.915 385.854 239.128C385.854 239.341 385.843 239.544 385.822 239.736H371.582V237.08H383.71L382.142 237.912C382.163 236.931 381.96 236.067 381.534 235.32C381.107 234.573 380.52 233.987 379.774 233.56C379.048 233.133 378.206 232.92 377.246 232.92C376.264 232.92 375.4 233.133 374.654 233.56C373.928 233.987 373.352 234.584 372.926 235.352C372.52 236.099 372.318 236.984 372.318 238.008V238.648C372.318 239.672 372.552 240.579 373.022 241.368C373.491 242.157 374.152 242.765 375.006 243.192C375.859 243.619 376.84 243.832 377.95 243.832C378.91 243.832 379.774 243.683 380.542 243.384C381.31 243.085 381.992 242.616 382.59 241.976L384.734 244.44C383.966 245.336 382.995 246.029 381.822 246.52C380.67 246.989 379.347 247.224 377.854 247.224ZM393.192 247L386.92 229.912H390.696L396.072 244.984H394.28L399.912 229.912H403.272L408.744 244.984H406.984L412.52 229.912H416.072L409.768 247H405.928L400.936 233.656H402.12L397.032 247H393.192ZM423.883 247.224C422.454 247.224 421.078 247.043 419.755 246.68C418.454 246.296 417.419 245.837 416.651 245.304L418.187 242.264C418.955 242.755 419.872 243.16 420.939 243.48C422.006 243.8 423.072 243.96 424.139 243.96C425.398 243.96 426.304 243.789 426.859 243.448C427.435 243.107 427.723 242.648 427.723 242.072C427.723 241.603 427.531 241.251 427.147 241.016C426.763 240.76 426.262 240.568 425.643 240.44C425.024 240.312 424.331 240.195 423.563 240.088C422.816 239.981 422.059 239.843 421.291 239.672C420.544 239.48 419.862 239.213 419.243 238.872C418.624 238.509 418.123 238.029 417.739 237.432C417.355 236.835 417.163 236.045 417.163 235.064C417.163 233.976 417.472 233.037 418.091 232.248C418.71 231.437 419.574 230.819 420.683 230.392C421.814 229.944 423.147 229.72 424.683 229.72C425.835 229.72 426.998 229.848 428.171 230.104C429.344 230.36 430.315 230.723 431.083 231.192L429.547 234.232C428.736 233.741 427.915 233.411 427.083 233.24C426.272 233.048 425.462 232.952 424.651 232.952C423.435 232.952 422.528 233.133 421.931 233.496C421.355 233.859 421.067 234.317 421.067 234.872C421.067 235.384 421.259 235.768 421.643 236.024C422.027 236.28 422.528 236.483 423.147 236.632C423.766 236.781 424.448 236.909 425.195 237.016C425.963 237.101 426.72 237.24 427.467 237.432C428.214 237.624 428.896 237.891 429.515 238.232C430.155 238.552 430.667 239.011 431.051 239.608C431.435 240.205 431.627 240.984 431.627 241.944C431.627 243.011 431.307 243.939 430.667 244.728C430.048 245.517 429.163 246.136 428.011 246.584C426.859 247.011 425.483 247.224 423.883 247.224ZM435.072 247V223.256H439.072V247H435.072ZM452.354 247.224C450.455 247.224 448.791 246.851 447.362 246.104C445.954 245.336 444.855 244.291 444.066 242.968C443.298 241.645 442.914 240.141 442.914 238.456C442.914 236.749 443.287 235.245 444.034 233.944C444.802 232.621 445.847 231.587 447.17 230.84C448.514 230.093 450.039 229.72 451.746 229.72C453.41 229.72 454.892 230.083 456.194 230.808C457.495 231.533 458.519 232.557 459.266 233.88C460.012 235.203 460.386 236.76 460.386 238.552C460.386 238.723 460.375 238.915 460.354 239.128C460.354 239.341 460.343 239.544 460.322 239.736H446.082V237.08H458.21L456.642 237.912C456.663 236.931 456.46 236.067 456.034 235.32C455.607 234.573 455.02 233.987 454.274 233.56C453.548 233.133 452.706 232.92 451.746 232.92C450.764 232.92 449.9 233.133 449.154 233.56C448.428 233.987 447.852 234.584 447.426 235.352C447.02 236.099 446.818 236.984 446.818 238.008V238.648C446.818 239.672 447.052 240.579 447.522 241.368C447.991 242.157 448.652 242.765 449.506 243.192C450.359 243.619 451.34 243.832 452.45 243.832C453.41 243.832 454.274 243.683 455.042 243.384C455.81 243.085 456.492 242.616 457.09 241.976L459.234 244.44C458.466 245.336 457.495 246.029 456.322 246.52C455.17 246.989 453.847 247.224 452.354 247.224ZM470.66 247.224C468.783 247.224 467.332 246.744 466.308 245.784C465.284 244.803 464.772 243.363 464.772 241.464V226.136H468.772V241.368C468.772 242.179 468.975 242.808 469.38 243.256C469.807 243.704 470.393 243.928 471.14 243.928C472.036 243.928 472.783 243.693 473.38 243.224L474.5 246.072C474.031 246.456 473.455 246.744 472.772 246.936C472.089 247.128 471.385 247.224 470.66 247.224ZM461.956 233.24V230.04H473.348V233.24H461.956ZM483.816 247.224C481.939 247.224 480.488 246.744 479.464 245.784C478.44 244.803 477.928 243.363 477.928 241.464V226.136H481.928V241.368C481.928 242.179 482.131 242.808 482.536 243.256C482.963 243.704 483.55 243.928 484.296 243.928C485.192 243.928 485.939 243.693 486.536 243.224L487.656 246.072C487.187 246.456 486.611 246.744 485.928 246.936C485.246 247.128 484.542 247.224 483.816 247.224ZM475.112 233.24V230.04H486.504V233.24H475.112ZM498.416 247.224C496.518 247.224 494.854 246.851 493.424 246.104C492.016 245.336 490.918 244.291 490.128 242.968C489.36 241.645 488.976 240.141 488.976 238.456C488.976 236.749 489.35 235.245 490.096 233.944C490.864 232.621 491.91 231.587 493.232 230.84C494.576 230.093 496.102 229.72 497.808 229.72C499.472 229.72 500.955 230.083 502.256 230.808C503.558 231.533 504.582 232.557 505.328 233.88C506.075 235.203 506.448 236.76 506.448 238.552C506.448 238.723 506.438 238.915 506.416 239.128C506.416 239.341 506.406 239.544 506.384 239.736H492.144V237.08H504.272L502.704 237.912C502.726 236.931 502.523 236.067 502.096 235.32C501.67 234.573 501.083 233.987 500.336 233.56C499.611 233.133 498.768 232.92 497.808 232.92C496.827 232.92 495.963 233.133 495.216 233.56C494.491 233.987 493.915 234.584 493.488 235.352C493.083 236.099 492.88 236.984 492.88 238.008V238.648C492.88 239.672 493.115 240.579 493.584 241.368C494.054 242.157 494.715 242.765 495.568 243.192C496.422 243.619 497.403 243.832 498.512 243.832C499.472 243.832 500.336 243.683 501.104 243.384C501.872 243.085 502.555 242.616 503.152 241.976L505.296 244.44C504.528 245.336 503.558 246.029 502.384 246.52C501.232 246.989 499.91 247.224 498.416 247.224ZM510.291 247V229.912H514.099V234.616L513.651 233.24C514.163 232.088 514.963 231.213 516.051 230.616C517.16 230.019 518.536 229.72 520.179 229.72V233.528C520.008 233.485 519.848 233.464 519.699 233.464C519.549 233.443 519.4 233.432 519.251 233.432C517.736 233.432 516.531 233.88 515.635 234.776C514.739 235.651 514.291 236.963 514.291 238.712V247H510.291ZM539.004 247.224C537.126 247.224 535.676 246.744 534.652 245.784C533.628 244.803 533.116 243.363 533.116 241.464V226.136H537.116V241.368C537.116 242.179 537.318 242.808 537.724 243.256C538.15 243.704 538.737 243.928 539.484 243.928C540.38 243.928 541.126 243.693 541.724 243.224L542.844 246.072C542.374 246.456 541.798 246.744 541.116 246.936C540.433 247.128 539.729 247.224 539.004 247.224ZM530.3 233.24V230.04H541.692V233.24H530.3ZM553.252 247.224C551.502 247.224 549.945 246.851 548.58 246.104C547.214 245.336 546.137 244.291 545.348 242.968C544.558 241.645 544.164 240.141 544.164 238.456C544.164 236.749 544.558 235.245 545.348 233.944C546.137 232.621 547.214 231.587 548.58 230.84C549.945 230.093 551.502 229.72 553.252 229.72C555.022 229.72 556.59 230.093 557.956 230.84C559.342 231.587 560.42 232.611 561.188 233.912C561.977 235.213 562.372 236.728 562.372 238.456C562.372 240.141 561.977 241.645 561.188 242.968C560.42 244.291 559.342 245.336 557.956 246.104C556.59 246.851 555.022 247.224 553.252 247.224ZM553.252 243.8C554.233 243.8 555.108 243.587 555.876 243.16C556.644 242.733 557.241 242.115 557.668 241.304C558.116 240.493 558.34 239.544 558.34 238.456C558.34 237.347 558.116 236.397 557.668 235.608C557.241 234.797 556.644 234.179 555.876 233.752C555.108 233.325 554.244 233.112 553.284 233.112C552.302 233.112 551.428 233.325 550.66 233.752C549.913 234.179 549.316 234.797 548.868 235.608C548.42 236.397 548.196 237.347 548.196 238.456C548.196 239.544 548.42 240.493 548.868 241.304C549.316 242.115 549.913 242.733 550.66 243.16C551.428 243.587 552.292 243.8 553.252 243.8ZM582.785 253.432C581.206 253.432 579.659 253.219 578.145 252.792C576.651 252.387 575.425 251.789 574.465 251L576.257 247.992C577.003 248.611 577.942 249.101 579.073 249.464C580.225 249.848 581.387 250.04 582.561 250.04C584.438 250.04 585.814 249.603 586.689 248.728C587.563 247.875 588.001 246.584 588.001 244.856V241.816L588.321 237.944L588.193 234.072V229.912H592.001V244.408C592.001 247.501 591.211 249.773 589.633 251.224C588.054 252.696 585.771 253.432 582.785 253.432ZM582.273 246.232C580.651 246.232 579.179 245.891 577.857 245.208C576.555 244.504 575.521 243.533 574.753 242.296C574.006 241.059 573.633 239.608 573.633 237.944C573.633 236.301 574.006 234.861 574.753 233.624C575.521 232.387 576.555 231.427 577.857 230.744C579.179 230.061 580.651 229.72 582.273 229.72C583.723 229.72 585.025 230.008 586.177 230.584C587.329 231.16 588.246 232.056 588.929 233.272C589.633 234.488 589.985 236.045 589.985 237.944C589.985 239.843 589.633 241.411 588.929 242.648C588.246 243.864 587.329 244.771 586.177 245.368C585.025 245.944 583.723 246.232 582.273 246.232ZM582.881 242.84C583.883 242.84 584.779 242.637 585.569 242.232C586.358 241.805 586.966 241.229 587.393 240.504C587.841 239.757 588.065 238.904 588.065 237.944C588.065 236.984 587.841 236.141 587.393 235.416C586.966 234.669 586.358 234.104 585.569 233.72C584.779 233.315 583.883 233.112 582.881 233.112C581.878 233.112 580.971 233.315 580.161 233.72C579.371 234.104 578.753 234.669 578.305 235.416C577.878 236.141 577.665 236.984 577.665 237.944C577.665 238.904 577.878 239.757 578.305 240.504C578.753 241.229 579.371 241.805 580.161 242.232C580.971 242.637 581.878 242.84 582.881 242.84ZM605.291 247.224C603.393 247.224 601.729 246.851 600.299 246.104C598.891 245.336 597.793 244.291 597.003 242.968C596.235 241.645 595.851 240.141 595.851 238.456C595.851 236.749 596.225 235.245 596.971 233.944C597.739 232.621 598.785 231.587 600.107 230.84C601.451 230.093 602.977 229.72 604.683 229.72C606.347 229.72 607.83 230.083 609.131 230.808C610.433 231.533 611.457 232.557 612.203 233.88C612.95 235.203 613.323 236.76 613.323 238.552C613.323 238.723 613.313 238.915 613.291 239.128C613.291 239.341 613.281 239.544 613.259 239.736H599.019V237.08H611.147L609.579 237.912C609.601 236.931 609.398 236.067 608.971 235.32C608.545 234.573 607.958 233.987 607.211 233.56C606.486 233.133 605.643 232.92 604.683 232.92C603.702 232.92 602.838 233.133 602.091 233.56C601.366 233.987 600.79 234.584 600.363 235.352C599.958 236.099 599.755 236.984 599.755 238.008V238.648C599.755 239.672 599.99 240.579 600.459 241.368C600.929 242.157 601.59 242.765 602.443 243.192C603.297 243.619 604.278 243.832 605.387 243.832C606.347 243.832 607.211 243.683 607.979 243.384C608.747 243.085 609.43 242.616 610.027 241.976L612.171 244.44C611.403 245.336 610.433 246.029 609.259 246.52C608.107 246.989 606.785 247.224 605.291 247.224ZM623.598 247.224C621.72 247.224 620.27 246.744 619.246 245.784C618.222 244.803 617.71 243.363 617.71 241.464V226.136H621.71V241.368C621.71 242.179 621.912 242.808 622.318 243.256C622.744 243.704 623.331 243.928 624.078 243.928C624.974 243.928 625.72 243.693 626.318 243.224L627.438 246.072C626.968 246.456 626.392 246.744 625.71 246.936C625.027 247.128 624.323 247.224 623.598 247.224ZM614.894 233.24V230.04H626.286V233.24H614.894ZM649.268 229.72C650.633 229.72 651.849 229.987 652.916 230.52C654.004 231.053 654.857 231.875 655.476 232.984C656.094 234.072 656.404 235.48 656.404 237.208V247H652.404V237.72C652.404 236.205 652.041 235.075 651.316 234.328C650.612 233.581 649.62 233.208 648.34 233.208C647.401 233.208 646.569 233.4 645.844 233.784C645.118 234.168 644.553 234.744 644.148 235.512C643.764 236.259 643.572 237.208 643.572 238.36V247H639.572V229.912H643.38V234.52L642.708 233.112C643.305 232.024 644.169 231.192 645.3 230.616C646.452 230.019 647.774 229.72 649.268 229.72ZM669.541 247.224C667.643 247.224 665.979 246.851 664.549 246.104C663.141 245.336 662.043 244.291 661.253 242.968C660.485 241.645 660.101 240.141 660.101 238.456C660.101 236.749 660.475 235.245 661.221 233.944C661.989 232.621 663.035 231.587 664.357 230.84C665.701 230.093 667.227 229.72 668.933 229.72C670.597 229.72 672.08 230.083 673.381 230.808C674.683 231.533 675.707 232.557 676.453 233.88C677.2 235.203 677.573 236.76 677.573 238.552C677.573 238.723 677.563 238.915 677.541 239.128C677.541 239.341 677.531 239.544 677.509 239.736H663.269V237.08H675.397L673.829 237.912C673.851 236.931 673.648 236.067 673.221 235.32C672.795 234.573 672.208 233.987 671.461 233.56C670.736 233.133 669.893 232.92 668.933 232.92C667.952 232.92 667.088 233.133 666.341 233.56C665.616 233.987 665.04 234.584 664.613 235.352C664.208 236.099 664.005 236.984 664.005 238.008V238.648C664.005 239.672 664.24 240.579 664.709 241.368C665.179 242.157 665.84 242.765 666.693 243.192C667.547 243.619 668.528 243.832 669.637 243.832C670.597 243.832 671.461 243.683 672.229 243.384C672.997 243.085 673.68 242.616 674.277 241.976L676.421 244.44C675.653 245.336 674.683 246.029 673.509 246.52C672.357 246.989 671.035 247.224 669.541 247.224ZM684.879 247L678.607 229.912H682.383L687.759 244.984H685.967L691.599 229.912H694.959L700.431 244.984H698.671L704.207 229.912H707.759L701.455 247H697.615L692.623 233.656H693.807L688.719 247H684.879ZM726.585 247.224C725.134 247.224 723.854 246.957 722.745 246.424C721.636 245.869 720.772 245.037 720.153 243.928C719.534 242.797 719.225 241.379 719.225 239.672V229.912H723.225V239.128C723.225 240.664 723.566 241.816 724.249 242.584C724.953 243.331 725.945 243.704 727.225 243.704C728.164 243.704 728.974 243.512 729.657 243.128C730.361 242.744 730.905 242.168 731.289 241.4C731.694 240.632 731.897 239.683 731.897 238.552V229.912H735.897V247H732.089V242.392L732.761 243.8C732.185 244.909 731.342 245.763 730.233 246.36C729.124 246.936 727.908 247.224 726.585 247.224ZM750.606 247.224C749.22 247.224 747.95 246.904 746.798 246.264C745.668 245.624 744.761 244.664 744.078 243.384C743.417 242.083 743.086 240.44 743.086 238.456C743.086 236.451 743.406 234.808 744.046 233.528C744.708 232.248 745.604 231.299 746.734 230.68C747.865 230.04 749.156 229.72 750.606 229.72C752.292 229.72 753.774 230.083 755.054 230.808C756.356 231.533 757.38 232.547 758.126 233.848C758.894 235.149 759.278 236.685 759.278 238.456C759.278 240.227 758.894 241.773 758.126 243.096C757.38 244.397 756.356 245.411 755.054 246.136C753.774 246.861 752.292 247.224 750.606 247.224ZM741.134 253.208V229.912H744.942V233.944L744.814 238.488L745.134 243.032V253.208H741.134ZM750.158 243.8C751.118 243.8 751.972 243.587 752.718 243.16C753.486 242.733 754.094 242.115 754.542 241.304C754.99 240.493 755.214 239.544 755.214 238.456C755.214 237.347 754.99 236.397 754.542 235.608C754.094 234.797 753.486 234.179 752.718 233.752C751.972 233.325 751.118 233.112 750.158 233.112C749.198 233.112 748.334 233.325 747.566 233.752C746.798 234.179 746.19 234.797 745.742 235.608C745.294 236.397 745.07 237.347 745.07 238.456C745.07 239.544 745.294 240.493 745.742 241.304C746.19 242.115 746.798 242.733 747.566 243.16C748.334 243.587 749.198 243.8 750.158 243.8ZM770.304 247.224C768.661 247.224 767.178 246.861 765.856 246.136C764.554 245.389 763.53 244.365 762.784 243.064C762.037 241.763 761.664 240.227 761.664 238.456C761.664 236.685 762.037 235.149 762.784 233.848C763.53 232.547 764.554 231.533 765.856 230.808C767.178 230.083 768.661 229.72 770.304 229.72C771.733 229.72 773.013 230.04 774.144 230.68C775.274 231.299 776.17 232.248 776.832 233.528C777.493 234.808 777.824 236.451 777.824 238.456C777.824 240.44 777.504 242.083 776.864 243.384C776.224 244.664 775.338 245.624 774.208 246.264C773.077 246.904 771.776 247.224 770.304 247.224ZM770.784 243.8C771.744 243.8 772.597 243.587 773.344 243.16C774.112 242.733 774.72 242.115 775.168 241.304C775.637 240.493 775.872 239.544 775.872 238.456C775.872 237.347 775.637 236.397 775.168 235.608C774.72 234.797 774.112 234.179 773.344 233.752C772.597 233.325 771.744 233.112 770.784 233.112C769.824 233.112 768.96 233.325 768.192 233.752C767.445 234.179 766.837 234.797 766.368 235.608C765.92 236.397 765.696 237.347 765.696 238.456C765.696 239.544 765.92 240.493 766.368 241.304C766.837 242.115 767.445 242.733 768.192 243.16C768.96 243.587 769.824 243.8 770.784 243.8ZM775.968 247V242.968L776.128 238.424L775.808 233.88V223.256H779.776V247H775.968ZM795.569 247V243.544L795.345 242.808V236.76C795.345 235.587 794.993 234.68 794.289 234.04C793.585 233.379 792.518 233.048 791.089 233.048C790.129 233.048 789.179 233.197 788.241 233.496C787.323 233.795 786.545 234.211 785.905 234.744L784.337 231.832C785.254 231.128 786.342 230.605 787.601 230.264C788.881 229.901 790.203 229.72 791.569 229.72C794.043 229.72 795.953 230.317 797.297 231.512C798.662 232.685 799.345 234.509 799.345 236.984V247H795.569ZM790.193 247.224C788.913 247.224 787.793 247.011 786.833 246.584C785.873 246.136 785.126 245.528 784.593 244.76C784.081 243.971 783.825 243.085 783.825 242.104C783.825 241.144 784.049 240.28 784.497 239.512C784.966 238.744 785.723 238.136 786.769 237.688C787.814 237.24 789.201 237.016 790.929 237.016H795.889V239.672H791.217C789.851 239.672 788.934 239.896 788.465 240.344C787.995 240.771 787.761 241.304 787.761 241.944C787.761 242.669 788.049 243.245 788.625 243.672C789.201 244.099 790.001 244.312 791.025 244.312C792.006 244.312 792.881 244.088 793.649 243.64C794.438 243.192 795.003 242.531 795.345 241.656L796.017 244.056C795.633 245.059 794.939 245.837 793.937 246.392C792.955 246.947 791.707 247.224 790.193 247.224ZM810.91 247.224C809.033 247.224 807.582 246.744 806.558 245.784C805.534 244.803 805.022 243.363 805.022 241.464V226.136H809.022V241.368C809.022 242.179 809.225 242.808 809.63 243.256C810.057 243.704 810.643 243.928 811.39 243.928C812.286 243.928 813.033 243.693 813.63 243.224L814.75 246.072C814.281 246.456 813.705 246.744 813.022 246.936C812.339 247.128 811.635 247.224 810.91 247.224ZM802.206 233.24V230.04H813.598V233.24H802.206ZM825.51 247.224C823.611 247.224 821.947 246.851 820.518 246.104C819.11 245.336 818.011 244.291 817.222 242.968C816.454 241.645 816.07 240.141 816.07 238.456C816.07 236.749 816.443 235.245 817.19 233.944C817.958 232.621 819.003 231.587 820.326 230.84C821.67 230.093 823.195 229.72 824.902 229.72C826.566 229.72 828.049 230.083 829.35 230.808C830.651 231.533 831.675 232.557 832.422 233.88C833.169 235.203 833.542 236.76 833.542 238.552C833.542 238.723 833.531 238.915 833.51 239.128C833.51 239.341 833.499 239.544 833.478 239.736H819.238V237.08H831.366L829.798 237.912C829.819 236.931 829.617 236.067 829.19 235.32C828.763 234.573 828.177 233.987 827.43 233.56C826.705 233.133 825.862 232.92 824.902 232.92C823.921 232.92 823.057 233.133 822.31 233.56C821.585 233.987 821.009 234.584 820.582 235.352C820.177 236.099 819.974 236.984 819.974 238.008V238.648C819.974 239.672 820.209 240.579 820.678 241.368C821.147 242.157 821.809 242.765 822.662 243.192C823.515 243.619 824.497 243.832 825.606 243.832C826.566 243.832 827.43 243.683 828.198 243.384C828.966 243.085 829.649 242.616 830.246 241.976L832.39 244.44C831.622 245.336 830.651 246.029 829.478 246.52C828.326 246.989 827.003 247.224 825.51 247.224ZM842.664 247.224C841.235 247.224 839.859 247.043 838.536 246.68C837.235 246.296 836.2 245.837 835.432 245.304L836.968 242.264C837.736 242.755 838.654 243.16 839.72 243.48C840.787 243.8 841.854 243.96 842.92 243.96C844.179 243.96 845.086 243.789 845.64 243.448C846.216 243.107 846.504 242.648 846.504 242.072C846.504 241.603 846.312 241.251 845.928 241.016C845.544 240.76 845.043 240.568 844.424 240.44C843.806 240.312 843.112 240.195 842.344 240.088C841.598 239.981 840.84 239.843 840.072 239.672C839.326 239.48 838.643 239.213 838.024 238.872C837.406 238.509 836.904 238.029 836.52 237.432C836.136 236.835 835.944 236.045 835.944 235.064C835.944 233.976 836.254 233.037 836.872 232.248C837.491 231.437 838.355 230.819 839.464 230.392C840.595 229.944 841.928 229.72 843.464 229.72C844.616 229.72 845.779 229.848 846.952 230.104C848.126 230.36 849.096 230.723 849.864 231.192L848.328 234.232C847.518 233.741 846.696 233.411 845.864 233.24C845.054 233.048 844.243 232.952 843.432 232.952C842.216 232.952 841.31 233.133 840.712 233.496C840.136 233.859 839.848 234.317 839.848 234.872C839.848 235.384 840.04 235.768 840.424 236.024C840.808 236.28 841.31 236.483 841.928 236.632C842.547 236.781 843.23 236.909 843.976 237.016C844.744 237.101 845.502 237.24 846.248 237.432C846.995 237.624 847.678 237.891 848.296 238.232C848.936 238.552 849.448 239.011 849.832 239.608C850.216 240.205 850.408 240.984 850.408 241.944C850.408 243.011 850.088 243.939 849.448 244.728C848.83 245.517 847.944 246.136 846.792 246.584C845.64 247.011 844.264 247.224 842.664 247.224ZM854.109 239.576L853.341 224.6H858.077L857.277 239.576H854.109ZM855.709 247.224C854.962 247.224 854.344 246.979 853.853 246.488C853.362 245.997 853.117 245.411 853.117 244.728C853.117 244.045 853.362 243.469 853.853 243C854.344 242.509 854.962 242.264 855.709 242.264C856.456 242.264 857.064 242.509 857.533 243C858.002 243.469 858.237 244.045 858.237 244.728C858.237 245.411 858.002 245.997 857.533 246.488C857.064 246.979 856.456 247.224 855.709 247.224Z" fill="white"/>
<defs>
<linearGradient id="paint0_linear_977_6728" x1="65.4344" y1="133.603" x2="145.819" y2="133.603" gradientUnits="userSpaceOnUse">
<stop stop-color="#A315D6"/>
<stop offset="0.0865385" stop-color="#CD5B9F"/>
<stop offset="0.514423" stop-color="#FDAB60"/>
<stop offset="0.932692" stop-color="#C147AE"/>
<stop offset="1" stop-color="#A315D6"/>
</linearGradient>
<linearGradient id="paint1_linear_977_6728" x1="209.05" y1="133.603" x2="289.435" y2="133.603" gradientUnits="userSpaceOnUse">
<stop stop-color="#A315D6"/>
<stop offset="0.0865385" stop-color="#CD5B9F"/>
<stop offset="0.514423" stop-color="#FDAB60"/>
<stop offset="0.932692" stop-color="#C147AE"/>
<stop offset="1" stop-color="#A315D6"/>
</linearGradient>
<linearGradient id="paint2_linear_977_6728" x1="352.665" y1="133.603" x2="433.05" y2="133.603" gradientUnits="userSpaceOnUse">
<stop stop-color="#A315D6"/>
<stop offset="0.0865385" stop-color="#CD5B9F"/>
<stop offset="0.514423" stop-color="#FDAB60"/>
<stop offset="0.932692" stop-color="#C147AE"/>
<stop offset="1" stop-color="#A315D6"/>
</linearGradient>
<linearGradient id="paint3_linear_977_6728" x1="496.28" y1="133.603" x2="576.665" y2="133.603" gradientUnits="userSpaceOnUse">
<stop stop-color="#A315D6"/>
<stop offset="0.0865385" stop-color="#CD5B9F"/>
<stop offset="0.514423" stop-color="#FDAB60"/>
<stop offset="0.932692" stop-color="#C147AE"/>
<stop offset="1" stop-color="#A315D6"/>
</linearGradient>
<linearGradient id="paint4_linear_977_6728" x1="640" y1="133.603" x2="720.385" y2="133.603" gradientUnits="userSpaceOnUse">
<stop stop-color="#A315D6"/>
<stop offset="0.0865385" stop-color="#CD5B9F"/>
<stop offset="0.514423" stop-color="#FDAB60"/>
<stop offset="0.932692" stop-color="#C147AE"/>
<stop offset="1" stop-color="#A315D6"/>
</linearGradient>
<linearGradient id="paint5_linear_977_6728" x1="783.615" y1="133.603" x2="864" y2="133.603" gradientUnits="userSpaceOnUse">
<stop stop-color="#A315D6"/>
<stop offset="0.0865385" stop-color="#CD5B9F"/>
<stop offset="0.514423" stop-color="#FDAB60"/>
<stop offset="0.932692" stop-color="#C147AE"/>
<stop offset="1" stop-color="#A315D6"/>
</linearGradient>
<linearGradient id="paint6_linear_977_6728" x1="56.1665" y1="315" x2="895.167" y2="315" gradientUnits="userSpaceOnUse">
<stop stop-color="#A315D6"/>
<stop offset="0.514423" stop-color="#FDAB60"/>
<stop offset="1" stop-color="#A315D6"/>
</linearGradient>
</defs>
</svg>
