<svg width="1391" height="927" viewBox="0 0 1391 927" fill="none" xmlns="http://www.w3.org/2000/svg">
<g opacity="0.8">
<circle cx="425.287" cy="590.287" r="3.28723" transform="rotate(180 425.287 590.287)" fill="#D9D9D9"/>
<circle cx="3.28723" cy="3.28723" r="3.28723" transform="matrix(-1 0 0 1 560.546 455.099)" fill="#D9D9D9"/>
<circle cx="186.259" cy="554.612" r="3.28723" transform="rotate(180 186.259 554.612)" fill="#D9D9D9"/>
<circle cx="3.28723" cy="3.28723" r="3.28723" transform="matrix(-1 0 0 1 1207.04 317.766)" fill="#D9D9D9"/>
<circle cx="755.287" cy="593.287" r="3.28723" transform="rotate(180 755.287 593.287)" fill="#D9D9D9"/>
<circle cx="778.287" cy="781.287" r="3.28723" transform="rotate(180 778.287 781.287)" fill="#D9D9D9"/>
<circle cx="1067.29" cy="628.286" r="3.28723" transform="rotate(180 1067.29 628.286)" fill="#D9D9D9"/>
<circle cx="985.287" cy="746.287" r="3.28723" transform="rotate(180 985.287 746.287)" fill="#D9D9D9"/>
<circle cx="3.28723" cy="3.28723" r="3.28723" transform="matrix(-1 0 0 1 1359.71 0)" fill="#D9D9D9"/>
<circle cx="3.28723" cy="3.28723" r="3.28723" transform="matrix(-1 0 0 1 1099.57 141)" fill="#D9D9D9"/>
<circle cx="721.713" cy="895.754" r="3.28723" transform="rotate(180 721.713 895.754)" fill="#D9D9D9"/>
<circle cx="3.28723" cy="3.28723" r="3.28723" transform="matrix(-1 0 0 1 1322.45 838.61)" fill="#D9D9D9"/>
<circle cx="3.28723" cy="3.28723" r="3.28723" transform="matrix(-1 0 0 1 1390.57 772)" fill="#D9D9D9"/>
<circle cx="948.167" cy="171.102" r="3.28723" transform="rotate(180 948.167 171.102)" fill="#D9D9D9"/>
<circle cx="3.28723" cy="3.28723" r="3.28723" transform="matrix(-1 0 0 1 381.574 773.595)" fill="#D9D9D9"/>
<circle cx="7.28723" cy="236.116" r="3.28723" transform="rotate(180 7.28723 236.116)" fill="#D9D9D9"/>
<circle cx="3.28723" cy="3.28723" r="3.28723" transform="matrix(-1 0 0 1 470.695 825.461)" fill="#D9D9D9"/>
<circle cx="96.4078" cy="184.251" r="3.28723" transform="rotate(180 96.4078 184.251)" fill="#D9D9D9"/>
<circle cx="3.28723" cy="3.28723" r="3.28723" transform="matrix(-1 0 0 1 554.702 920.426)" fill="#D9D9D9"/>
<circle cx="180.415" cy="89.287" r="3.28723" transform="rotate(180 180.415 89.287)" fill="#D9D9D9"/>
<circle cx="607.025" cy="663.456" r="3.28723" transform="rotate(180 607.025 663.456)" fill="#D9D9D9"/>
<circle cx="3.28723" cy="3.28723" r="3.28723" transform="matrix(-1 0 0 1 1193.16 492.354)" fill="#D9D9D9"/>
<circle cx="877.287" cy="545.287" r="3.28723" transform="rotate(180 877.287 545.287)" fill="#D9D9D9"/>
<circle cx="3.28723" cy="3.28723" r="3.28723" transform="matrix(-1 0 0 1 1337.79 621.652)" fill="#D9D9D9"/>
<circle cx="963.507" cy="388.059" r="3.28723" transform="rotate(180 963.507 388.059)" fill="#D9D9D9"/>
<circle cx="3.28723" cy="3.28723" r="3.28723" transform="matrix(-1 0 0 1 1153.57 702)" fill="#D9D9D9"/>
<circle cx="741.436" cy="239.768" r="3.28723" transform="rotate(180 741.436 239.768)" fill="#D9D9D9"/>
<circle cx="3.28723" cy="3.28723" r="3.28723" transform="matrix(-1 0 0 1 824.986 203.078)" fill="#D9D9D9"/>
<circle cx="450.699" cy="806.634" r="3.28723" transform="rotate(180 450.699 806.634)" fill="#D9D9D9"/>
<circle cx="146.812" cy="314.279" r="3.28723" transform="rotate(180 146.812 314.279)" fill="#D9D9D9"/>
<circle cx="3.28723" cy="3.28723" r="3.28723" transform="matrix(-1 0 0 1 91.5745 743)" fill="#D9D9D9"/>
<circle cx="3.28723" cy="3.28723" r="3.28723" transform="matrix(-1 0 0 1 6.57446 834)" fill="#D9D9D9"/>
<circle cx="321.401" cy="146.266" r="3.28723" transform="rotate(180 321.401 146.266)" fill="#D9D9D9"/>
<circle cx="3.28723" cy="3.28723" r="3.28723" transform="matrix(-1 0 0 1 495.574 675)" fill="#D9D9D9"/>
<circle cx="237.394" cy="225.89" r="3.28723" transform="rotate(180 237.394 225.89)" fill="#D9D9D9"/>
<circle cx="561.004" cy="196.669" r="3.28723" transform="rotate(180 561.004 196.669)" fill="#D9D9D9"/>
</g>
</svg>
