<svg width="385" height="97" viewBox="0 0 385 97" fill="none" xmlns="http://www.w3.org/2000/svg">
<rect x="4" y="4" width="377" height="89" rx="44.5" fill="#401A79" stroke="url(#paint0_linear_930_2622)" stroke-width="8"/>
<path d="M94.48 8H149.478L92.7059 88.9998H37.7082L94.48 8Z" fill="#894697" fill-opacity="0.49"/>
<path d="M83.5047 59.2293C84.0419 59.2293 84.4931 59.4226 84.8583 59.8094C85.2451 60.1746 85.4385 60.6258 85.4385 61.163C85.4385 61.7001 85.2451 62.1621 84.8583 62.5488C84.4931 62.9141 84.0419 63.0967 83.5047 63.0967H74.8675C74.2659 63.0967 73.7717 62.9033 73.385 62.5166C72.9982 62.1298 72.8049 61.6357 72.8049 61.0341V38.6997C72.8049 38.1625 72.9875 37.7113 73.3527 37.3461C73.7395 36.9593 74.2014 36.7659 74.7386 36.7659C75.2757 36.7659 75.7269 36.9593 76.0922 37.3461C76.4789 37.7113 76.6723 38.1625 76.6723 38.6997V59.2293H83.5047ZM110.656 56.5221C111.193 56.5221 111.644 56.7154 112.01 57.1022C112.396 57.4674 112.59 57.9186 112.59 58.4558C112.59 58.9714 112.407 59.4334 112.042 59.8416C111.054 60.8944 109.668 61.7646 107.884 62.4521C106.101 63.1182 104.329 63.4512 102.567 63.4512C100.01 63.4512 97.7002 62.8926 95.6375 61.7753C93.5749 60.6581 91.9527 59.0896 90.771 57.0699C89.5893 55.0503 88.9985 52.7298 88.9985 50.1086C88.9985 47.5088 89.5893 45.1883 90.771 43.1472C91.9527 41.1061 93.5749 39.5269 95.6375 38.4096C97.7002 37.2709 100.01 36.7015 102.567 36.7015C104.329 36.7015 106.09 37.056 107.852 37.765C109.614 38.4741 111 39.4087 112.01 40.5689C112.375 40.9986 112.558 41.4606 112.558 41.9547C112.558 42.4919 112.364 42.9538 111.977 43.3406C111.591 43.7058 111.129 43.8885 110.592 43.8885C110.334 43.8885 110.076 43.8347 109.818 43.7273C109.56 43.6199 109.356 43.4695 109.206 43.2761C108.583 42.5241 107.659 41.9333 106.434 41.5035C105.209 41.0738 103.92 40.859 102.567 40.859C100.182 40.859 98.1729 41.4606 96.5399 42.6638C94.9285 43.8455 93.8865 45.5106 93.4138 47.6592H103.469C104.006 47.6592 104.457 47.8526 104.823 48.2393C105.209 48.6046 105.403 49.0558 105.403 49.5929C105.403 50.1301 105.209 50.592 104.823 50.9787C104.457 51.344 104.006 51.5266 103.469 51.5266H93.2526C93.5319 53.9545 94.5095 55.8667 96.1854 57.2633C97.8828 58.6384 100.01 59.3259 102.567 59.3259C104.049 59.3259 105.403 59.1326 106.627 58.7458C107.852 58.3591 108.712 57.8542 109.206 57.2311C109.378 57.0162 109.593 56.8443 109.85 56.7154C110.13 56.5865 110.398 56.5221 110.656 56.5221ZM138.176 60.5829C138.283 60.8407 138.337 61.0448 138.337 61.1952C138.337 61.7538 138.143 62.2373 137.757 62.6455C137.391 63.0322 136.93 63.2256 136.371 63.2256C135.984 63.2256 135.619 63.1182 135.275 62.9033C134.953 62.6885 134.717 62.3984 134.566 62.0331L132.052 55.523H122.223L119.741 62.0654C119.612 62.4091 119.376 62.6885 119.032 62.9033C118.71 63.1182 118.344 63.2256 117.936 63.2256C117.378 63.2256 116.916 63.0322 116.55 62.6455C116.185 62.2587 116.002 61.7968 116.002 61.2597C116.002 61.0878 116.056 60.8729 116.164 60.6151L125.478 37.9906C125.65 37.5824 125.875 37.2709 126.154 37.056C126.455 36.8411 126.767 36.7337 127.089 36.7337C127.454 36.7337 127.798 36.8411 128.12 37.056C128.443 37.2709 128.69 37.5931 128.862 38.0229L138.176 60.5829ZM126.863 43.405L123.608 51.9456H130.666L127.379 43.405L127.121 42.5026L126.863 43.405ZM159.526 60.0672C159.741 60.2391 159.967 60.5077 160.203 60.8729C160.461 61.2382 160.59 61.5819 160.59 61.9042C160.59 62.4414 160.407 62.8711 160.042 63.1934C159.677 63.5157 159.215 63.6768 158.656 63.6768C158.119 63.6768 157.722 63.5909 157.464 63.419C156.604 62.9463 155.981 62.3125 155.595 61.5175C155.208 60.701 154.928 59.5301 154.757 58.0046C154.692 57.36 154.628 56.608 154.563 55.7486C154.499 54.8677 154.445 54.1479 154.402 53.5893C154.359 52.5794 153.8 51.8167 152.726 51.301C151.673 50.7854 150.384 50.5275 148.859 50.5275H146.732V61.5175C146.732 62.0546 146.538 62.5166 146.152 62.9033C145.786 63.2686 145.335 63.4512 144.798 63.4512C144.261 63.4512 143.799 63.2686 143.412 62.9033C143.047 62.5166 142.864 62.0546 142.864 61.5175V38.8608C142.864 38.2592 143.047 37.7758 143.412 37.4105C143.777 37.0453 144.25 36.8411 144.83 36.7982C145.561 36.7767 146.581 36.7659 147.892 36.7659C149.203 36.7445 150.288 36.7337 151.147 36.7337C152.758 36.7337 154.187 37.0238 155.433 37.6039C156.701 38.184 157.679 39.0005 158.366 40.0533C159.075 41.1061 159.43 42.3093 159.43 43.6629C159.43 46.413 158.055 48.2501 155.304 49.1739C157.131 49.9474 158.119 51.3118 158.269 53.267L158.398 54.7495C158.441 55.437 158.517 56.3931 158.624 57.6178C158.753 58.907 159.054 59.7234 159.526 60.0672ZM146.732 46.9502H151.115C152.662 46.9502 153.79 46.7031 154.499 46.2089C155.208 45.7147 155.562 44.8661 155.562 43.6629C155.562 42.696 155.176 41.944 154.402 41.4069C153.629 40.8697 152.544 40.6011 151.147 40.6011H146.732V46.9502ZM166.801 63.5157C166.242 63.5157 165.759 63.3223 165.35 62.9355C164.942 62.5488 164.738 62.0976 164.738 61.5819V38.893C164.738 38.3344 164.953 37.851 165.383 37.4427C165.834 37.013 166.36 36.7982 166.962 36.7982C167.628 36.7982 168.187 37.0882 168.638 37.6683L183.141 55.523L183.398 56.0386V38.4741C183.398 37.9584 183.603 37.5072 184.011 37.1205C184.419 36.7337 184.902 36.5403 185.461 36.5403C186.02 36.5403 186.503 36.7337 186.911 37.1205C187.341 37.5072 187.556 37.9584 187.556 38.4741V61.0018C187.556 61.5605 187.33 62.0546 186.879 62.4843C186.428 62.8926 185.902 63.0967 185.3 63.0967C184.999 63.0967 184.698 63.0215 184.398 62.8711C184.097 62.6992 183.839 62.4843 183.624 62.2265L169.153 44.4686L168.896 43.9207V61.5819C168.896 62.0976 168.681 62.5488 168.251 62.9355C167.843 63.3223 167.359 63.5157 166.801 63.5157ZM233.777 61.4853C233.777 62.0439 233.562 62.5381 233.133 62.9678C232.724 63.3975 232.23 63.6123 231.65 63.6123C231.199 63.6123 230.769 63.4619 230.361 63.1611C229.974 62.8818 229.738 62.5381 229.652 62.1298C229.158 60.0027 228.47 57.0699 227.589 53.3314C226.708 49.5714 226.042 46.7675 225.591 44.9198L225.462 44.1463C225.398 44.3397 225.355 44.5115 225.333 44.6619C225.333 44.7909 225.323 44.8768 225.301 44.9198L220.08 61.3241C219.93 61.7753 219.672 62.1406 219.307 62.4199C218.963 62.6777 218.565 62.8066 218.114 62.8066C217.641 62.8066 217.201 62.667 216.793 62.3877C216.406 62.1083 216.137 61.7646 215.987 61.3563L210.476 44.952L210.347 44.2107C210.24 44.5975 210.186 44.8446 210.186 44.952C209.735 47.1006 209.144 49.9797 208.413 53.5893C207.683 57.1774 207.135 59.9275 206.77 61.8398C206.684 62.248 206.437 62.6025 206.028 62.9033C205.642 63.1826 205.212 63.3223 204.739 63.3223C204.202 63.3223 203.74 63.1289 203.353 62.7422C202.988 62.3554 202.806 61.9042 202.806 61.3886C202.806 61.3026 202.827 61.1522 202.87 60.9374C203.063 60.1424 204.825 52.6117 208.156 38.3451C208.263 37.8725 208.499 37.4965 208.865 37.2171C209.251 36.9378 209.681 36.7982 210.154 36.7982C210.605 36.7982 211.002 36.9378 211.346 37.2171C211.711 37.475 211.969 37.8295 212.12 38.2807L217.695 55.4907C217.695 55.5552 217.76 55.8667 217.889 56.4254C218.017 55.8667 218.082 55.5552 218.082 55.4907L223.561 38.0551C223.711 37.6254 223.98 37.2709 224.367 36.9915C224.753 36.7122 225.183 36.5726 225.656 36.5726C226.171 36.5726 226.644 36.7122 227.074 36.9915C227.503 37.2709 227.761 37.6254 227.847 38.0551C228.298 39.7525 228.997 42.4919 229.942 46.2734C230.909 50.0549 231.876 53.8256 232.843 57.5856L233.713 61.0663L233.777 61.4853ZM250.828 63.9346C248.336 63.9346 246.09 63.3653 244.092 62.2265C242.094 61.0663 240.515 59.4549 239.355 57.3922C238.216 55.3296 237.646 52.9769 237.646 50.3342C237.646 47.6914 238.216 45.3387 239.355 43.2761C240.515 41.2135 242.094 39.6128 244.092 38.4741C246.09 37.3138 248.336 36.7337 250.828 36.7337C253.32 36.7337 255.566 37.3138 257.564 38.4741C259.562 39.6128 261.13 41.2135 262.269 43.2761C263.408 45.3387 263.977 47.6914 263.977 50.3342C263.977 52.9769 263.408 55.3296 262.269 57.3922C261.13 59.4549 259.562 61.0663 257.564 62.2265C255.566 63.3653 253.32 63.9346 250.828 63.9346ZM250.828 59.7771C252.547 59.7771 254.083 59.3904 255.437 58.6169C256.812 57.8219 257.886 56.7154 258.659 55.2974C259.433 53.8578 259.82 52.2034 259.82 50.3342C259.82 48.4649 259.433 46.8213 258.659 45.4032C257.886 43.9637 256.812 42.8571 255.437 42.0837C254.083 41.2887 252.547 40.8912 250.828 40.8912C249.109 40.8912 247.562 41.2887 246.187 42.0837C244.812 42.8571 243.738 43.9637 242.964 45.4032C242.191 46.8213 241.804 48.4649 241.804 50.3342C241.804 52.2034 242.191 53.8578 242.964 55.2974C243.738 56.7154 244.812 57.8219 246.187 58.6169C247.562 59.3904 249.109 59.7771 250.828 59.7771ZM285.136 60.0672C285.351 60.2391 285.576 60.5077 285.813 60.8729C286.071 61.2382 286.2 61.5819 286.2 61.9042C286.2 62.4414 286.017 62.8711 285.652 63.1934C285.286 63.5157 284.824 63.6768 284.266 63.6768C283.729 63.6768 283.331 63.5909 283.073 63.419C282.214 62.9463 281.591 62.3125 281.204 61.5175C280.817 60.701 280.538 59.5301 280.366 58.0046C280.302 57.36 280.237 56.608 280.173 55.7486C280.108 54.8677 280.055 54.1479 280.012 53.5893C279.969 52.5794 279.41 51.8167 278.336 51.301C277.283 50.7854 275.994 50.5275 274.468 50.5275H272.341V61.5175C272.341 62.0546 272.148 62.5166 271.761 62.9033C271.396 63.2686 270.945 63.4512 270.408 63.4512C269.87 63.4512 269.408 63.2686 269.022 62.9033C268.656 62.5166 268.474 62.0546 268.474 61.5175V38.8608C268.474 38.2592 268.656 37.7758 269.022 37.4105C269.387 37.0453 269.86 36.8411 270.44 36.7982C271.17 36.7767 272.191 36.7659 273.501 36.7659C274.812 36.7445 275.897 36.7337 276.757 36.7337C278.368 36.7337 279.797 37.0238 281.043 37.6039C282.311 38.184 283.288 39.0005 283.976 40.0533C284.685 41.1061 285.039 42.3093 285.039 43.6629C285.039 46.413 283.664 48.2501 280.914 49.1739C282.74 49.9474 283.729 51.3118 283.879 53.267L284.008 54.7495C284.051 55.437 284.126 56.3931 284.234 57.6178C284.363 58.907 284.663 59.7234 285.136 60.0672ZM272.341 46.9502H276.724C278.271 46.9502 279.399 46.7031 280.108 46.2089C280.817 45.7147 281.172 44.8661 281.172 43.6629C281.172 42.696 280.785 41.944 280.012 41.4069C279.238 40.8697 278.153 40.6011 276.757 40.6011H272.341V46.9502ZM311.361 56.5221C311.898 56.5221 312.349 56.7154 312.714 57.1022C313.101 57.4674 313.294 57.9186 313.294 58.4558C313.294 58.9714 313.112 59.4334 312.747 59.8416C311.758 60.8944 310.372 61.7646 308.589 62.4521C306.806 63.1182 305.033 63.4512 303.271 63.4512C300.715 63.4512 298.405 62.8926 296.342 61.7753C294.28 60.6581 292.657 59.0896 291.476 57.0699C290.294 55.0503 289.703 52.7298 289.703 50.1086C289.703 47.5088 290.294 45.1883 291.476 43.1472C292.657 41.1061 294.28 39.5269 296.342 38.4096C298.405 37.2709 300.715 36.7015 303.271 36.7015C305.033 36.7015 306.795 37.056 308.557 37.765C310.319 38.4741 311.704 39.4087 312.714 40.5689C313.08 40.9986 313.262 41.4606 313.262 41.9547C313.262 42.4919 313.069 42.9538 312.682 43.3406C312.295 43.7058 311.833 43.8885 311.296 43.8885C311.038 43.8885 310.781 43.8347 310.523 43.7273C310.265 43.6199 310.061 43.4695 309.91 43.2761C309.287 42.5241 308.363 41.9333 307.139 41.5035C305.914 41.0738 304.625 40.859 303.271 40.859C300.886 40.859 298.878 41.4606 297.245 42.6638C295.633 43.8455 294.591 45.5106 294.118 47.6592H304.174C304.711 47.6592 305.162 47.8526 305.527 48.2393C305.914 48.6046 306.107 49.0558 306.107 49.5929C306.107 50.1301 305.914 50.592 305.527 50.9787C305.162 51.344 304.711 51.5266 304.174 51.5266H293.957C294.237 53.9545 295.214 55.8667 296.89 57.2633C298.587 58.6384 300.715 59.3259 303.271 59.3259C304.754 59.3259 306.107 59.1326 307.332 58.7458C308.557 58.3591 309.416 57.8542 309.91 57.2311C310.082 57.0162 310.297 56.8443 310.555 56.7154C310.834 56.5865 311.103 56.5221 311.361 56.5221Z" fill="white"/>
<defs>
<linearGradient id="paint0_linear_930_2622" x1="4" y1="48.5" x2="381" y2="48.5" gradientUnits="userSpaceOnUse">
<stop stop-color="#A315D6"/>
<stop offset="0.514423" stop-color="#FDAB60"/>
<stop offset="1" stop-color="#A315D6"/>
</linearGradient>
</defs>
</svg>
